<?xml version="1.0" encoding="utf-8" standalone="no"?>
<!DOCTYPE svg PUBLIC "-//W3C//DTD SVG 1.1//EN"
  "http://www.w3.org/Graphics/SVG/1.1/DTD/svg11.dtd">
<!-- Created with matplotlib (https://matplotlib.org/) -->
<svg height="274.252711pt" version="1.1" viewBox="0 0 303.189958 274.252711" width="303.189958pt" xmlns="http://www.w3.org/2000/svg" xmlns:xlink="http://www.w3.org/1999/xlink">
 <metadata>
  <rdf:RDF xmlns:cc="http://creativecommons.org/ns#" xmlns:dc="http://purl.org/dc/elements/1.1/" xmlns:rdf="http://www.w3.org/1999/02/22-rdf-syntax-ns#">
   <cc:Work>
    <dc:type rdf:resource="http://purl.org/dc/dcmitype/StillImage"/>
    <dc:date>2021-12-25T15:17:38.456594</dc:date>
    <dc:format>image/svg+xml</dc:format>
    <dc:creator>
     <cc:Agent>
      <dc:title>Matplotlib v3.3.3, https://matplotlib.org/</dc:title>
     </cc:Agent>
    </dc:creator>
   </cc:Work>
  </rdf:RDF>
 </metadata>
 <defs>
  <style type="text/css">*{stroke-linecap:butt;stroke-linejoin:round;}</style>
 </defs>
 <g id="figure_1">
  <g id="patch_1">
   <path d="M 0 274.252711 
L 303.189958 274.252711 
L 303.189958 0 
L 0 0 
z
" style="fill:#ffffff;"/>
  </g>
  <g id="patch_2">
   <path d="M 40.965958 262.224 
L 295.989958 262.224 
L 295.989958 7.2 
L 40.965958 7.2 
z
" style="fill:#ffffff;"/>
  </g>
  <g id="pane3d_1">
   <g id="patch_3">
    <path d="M 171.924229 126.95126 
L 285.432518 183.39774 
L 290.615545 76.753262 
L 171.924229 25.308407 
" style="fill:#f2f2f2;opacity:0.5;stroke:#f2f2f2;stroke-linejoin:miter;"/>
   </g>
  </g>
  <g id="pane3d_2">
   <g id="patch_4">
    <path d="M 171.924229 126.95126 
L 58.415939 183.39774 
L 53.232913 76.753262 
L 171.924229 25.308407 
" style="fill:#e6e6e6;opacity:0.5;stroke:#e6e6e6;stroke-linejoin:miter;"/>
   </g>
  </g>
  <g id="pane3d_3">
   <g id="patch_5">
    <path d="M 171.924229 126.95126 
L 58.415939 183.39774 
L 171.924229 248.512739 
L 285.432518 183.39774 
" style="fill:#ececec;opacity:0.5;stroke:#ececec;stroke-linejoin:miter;"/>
   </g>
  </g>
  <g id="axis3d_1">
   <g id="line2d_1">
    <path d="M 285.432518 183.39774 
L 171.924229 248.512739 
" style="fill:none;stroke:#000000;stroke-linecap:square;stroke-width:0.8;"/>
   </g>
   <g id="text_1">
    <!-- F1 -->
    <g transform="translate(248.370313 249.614278)scale(0.1 -0.1)">
     <defs>
      <path d="M 45.703125 61.328125 
L 13.671875 61.328125 
L 13.671875 39.453125 
L 37.890625 39.453125 
L 37.890625 32.03125 
L 13.671875 32.03125 
L 13.671875 1.953125 
L 4.6875 1.953125 
L 4.6875 68.75 
L 45.703125 68.75 
z
" id="SimHei-70"/>
      <path d="M 21.875 56.25 
Q 16.796875 51.171875 8.984375 46.484375 
L 8.984375 53.90625 
Q 18.75 60.546875 25 69.53125 
L 29.6875 69.53125 
L 29.6875 2.34375 
L 21.875 2.34375 
z
" id="SimHei-49"/>
     </defs>
     <use xlink:href="#SimHei-70"/>
     <use x="50" xlink:href="#SimHei-49"/>
    </g>
   </g>
   <g id="Line3DCollection_1">
    <path d="M 272.35193 190.901531 
L 158.784524 133.485497 
L 158.221365 31.247694 
" style="fill:none;stroke:#b0b0b0;stroke-width:0.8;"/>
    <path d="M 247.827687 204.970072 
L 134.19109 145.715553 
L 132.548011 42.375399 
" style="fill:none;stroke:#b0b0b0;stroke-width:0.8;"/>
    <path d="M 222.483383 219.509049 
L 108.83219 158.326268 
L 106.040218 53.864779 
" style="fill:none;stroke:#b0b0b0;stroke-width:0.8;"/>
    <path d="M 196.277184 234.542458 
L 82.671521 171.335694 
L 78.656632 65.733757 
" style="fill:none;stroke:#b0b0b0;stroke-width:0.8;"/>
   </g>
   <g id="xtick_1">
    <g id="line2d_2">
     <path d="M 271.37859 190.409442 
L 274.301975 191.887412 
" style="fill:none;stroke:#000000;stroke-linecap:square;stroke-width:0.8;"/>
    </g>
    <g id="text_2">
     <!-- 0 -->
     <g transform="translate(280.033502 212.019229)scale(0.1 -0.1)">
      <defs>
       <path d="M 3.125 29.296875 
Q 3.90625 50 6.4375 56.046875 
Q 8.984375 62.109375 13.671875 66.015625 
Q 18.359375 69.921875 25.1875 69.921875 
Q 32.03125 69.921875 37.109375 64.25 
Q 42.1875 58.59375 43.75 50 
Q 45.3125 41.40625 44.71875 30.265625 
Q 44.140625 19.140625 40.8125 12.109375 
Q 37.5 5.078125 30.859375 2.34375 
Q 24.21875 -0.390625 17.578125 2.921875 
Q 10.9375 6.25 8.203125 11.71875 
Q 5.46875 17.1875 4.296875 23.234375 
Q 3.125 29.296875 3.90625 50 
z
M 12.890625 52.734375 
Q 10.546875 31.25 12.5 22.84375 
Q 14.453125 14.453125 18.9375 10.9375 
Q 23.4375 7.421875 28.125 9.5625 
Q 32.8125 11.71875 34.953125 18.15625 
Q 37.109375 24.609375 37.109375 32.21875 
Q 37.109375 39.84375 36.515625 46.09375 
Q 35.9375 52.34375 33 57.421875 
Q 30.078125 62.5 25.1875 62.6875 
Q 20.3125 62.890625 16.59375 57.8125 
Q 12.890625 52.734375 10.546875 31.25 
z
" id="SimHei-48"/>
      </defs>
      <use xlink:href="#SimHei-48"/>
     </g>
    </g>
   </g>
   <g id="xtick_2">
    <g id="line2d_3">
     <path d="M 246.852689 204.46167 
L 249.781111 205.988663 
" style="fill:none;stroke:#000000;stroke-linecap:square;stroke-width:0.8;"/>
    </g>
    <g id="text_3">
     <!-- 1000 -->
     <g transform="translate(248.116769 226.35717)scale(0.1 -0.1)">
      <use xlink:href="#SimHei-49"/>
      <use x="50" xlink:href="#SimHei-48"/>
      <use x="100" xlink:href="#SimHei-48"/>
      <use x="150" xlink:href="#SimHei-48"/>
     </g>
    </g>
   </g>
   <g id="xtick_3">
    <g id="line2d_4">
     <path d="M 221.507158 218.983509 
L 224.439322 220.562005 
" style="fill:none;stroke:#000000;stroke-linecap:square;stroke-width:0.8;"/>
    </g>
    <g id="text_4">
     <!-- 2000 -->
     <g transform="translate(222.881527 241.175754)scale(0.1 -0.1)">
      <defs>
       <path d="M 4.6875 3.90625 
Q 5.078125 9.765625 10.15625 14.453125 
Q 15.234375 19.140625 23.046875 29.09375 
Q 30.859375 39.0625 33.203125 44.53125 
Q 35.546875 50 34.953125 53.90625 
Q 34.375 57.8125 31.25 60.34375 
Q 28.125 62.890625 24.015625 62.5 
Q 19.921875 62.109375 16.203125 59.375 
Q 12.5 56.640625 10.546875 51.171875 
L 3.125 52.34375 
Q 6.25 61.328125 11.125 65.421875 
Q 16.015625 69.53125 22.65625 69.921875 
Q 26.5625 70.3125 29.6875 69.71875 
Q 32.8125 69.140625 36.125 66.984375 
Q 39.453125 64.84375 41.59375 60.546875 
Q 43.75 56.25 43.15625 50.1875 
Q 42.578125 44.140625 37.109375 35.734375 
Q 31.640625 27.34375 16.015625 9.375 
L 44.140625 9.375 
L 44.140625 2.34375 
L 4.6875 2.34375 
z
" id="SimHei-50"/>
      </defs>
      <use xlink:href="#SimHei-50"/>
      <use x="50" xlink:href="#SimHei-48"/>
      <use x="100" xlink:href="#SimHei-48"/>
      <use x="150" xlink:href="#SimHei-48"/>
     </g>
    </g>
   </g>
   <g id="xtick_4">
    <g id="line2d_5">
     <path d="M 195.300212 233.9989 
L 198.23468 235.63155 
" style="fill:none;stroke:#000000;stroke-linecap:square;stroke-width:0.8;"/>
    </g>
    <g id="text_5">
     <!-- 3000 -->
     <g transform="translate(196.785917 256.499563)scale(0.1 -0.1)">
      <defs>
       <path d="M 3.90625 19.140625 
L 10.9375 20.3125 
Q 12.5 15.234375 16.015625 11.90625 
Q 19.53125 8.59375 24.796875 8.78125 
Q 30.078125 8.984375 33.203125 13.078125 
Q 36.328125 17.1875 35.9375 22.453125 
Q 35.546875 27.734375 31.828125 30.65625 
Q 28.125 33.59375 19.921875 34.765625 
L 19.921875 39.84375 
Q 28.125 40.625 31.828125 44.140625 
Q 35.546875 47.65625 35.15625 53.3125 
Q 34.765625 58.984375 30.078125 61.515625 
Q 25.390625 64.0625 20.109375 62.109375 
Q 14.84375 60.15625 11.71875 51.171875 
L 4.6875 52.34375 
Q 7.03125 59.375 11.125 64.0625 
Q 15.234375 68.75 22.265625 69.53125 
Q 29.296875 70.3125 34.5625 67.765625 
Q 39.84375 65.234375 41.984375 59.953125 
Q 44.140625 54.6875 42.578125 48.4375 
Q 41.015625 42.1875 33.59375 37.5 
Q 39.0625 35.15625 41.984375 30.46875 
Q 44.921875 25.78125 43.9375 18.15625 
Q 42.96875 10.546875 37.109375 5.859375 
Q 31.25 1.171875 23.828125 1.359375 
Q 16.40625 1.5625 10.9375 6.046875 
Q 5.46875 10.546875 3.90625 19.140625 
z
" id="SimHei-51"/>
      </defs>
      <use xlink:href="#SimHei-51"/>
      <use x="50" xlink:href="#SimHei-48"/>
      <use x="100" xlink:href="#SimHei-48"/>
      <use x="150" xlink:href="#SimHei-48"/>
     </g>
    </g>
   </g>
  </g>
  <g id="axis3d_2">
   <g id="line2d_6">
    <path d="M 58.415939 183.39774 
L 171.924229 248.512739 
" style="fill:none;stroke:#000000;stroke-linecap:square;stroke-width:0.8;"/>
   </g>
   <g id="text_6">
    <!-- F2 -->
    <g transform="translate(85.478144 249.614278)scale(0.1 -0.1)">
     <use xlink:href="#SimHei-70"/>
     <use x="50" xlink:href="#SimHei-50"/>
    </g>
   </g>
   <g id="Line3DCollection_2">
    <path d="M 179.497177 28.59078 
L 179.187085 130.563002 
L 65.644215 187.544302 
" style="fill:none;stroke:#b0b0b0;stroke-width:0.8;"/>
    <path d="M 195.685171 35.607208 
L 194.702781 138.278795 
L 81.101811 196.411684 
" style="fill:none;stroke:#b0b0b0;stroke-width:0.8;"/>
    <path d="M 212.204216 42.767124 
L 210.522533 146.145791 
L 96.884487 205.465551 
" style="fill:none;stroke:#b0b0b0;stroke-width:0.8;"/>
    <path d="M 229.064571 50.074976 
L 226.655364 154.168479 
L 113.002605 214.711847 
" style="fill:none;stroke:#b0b0b0;stroke-width:0.8;"/>
    <path d="M 246.276925 57.535396 
L 243.110664 162.351527 
L 129.466974 224.156773 
" style="fill:none;stroke:#b0b0b0;stroke-width:0.8;"/>
    <path d="M 263.852418 65.153212 
L 259.898196 170.69979 
L 146.288874 233.806799 
" style="fill:none;stroke:#b0b0b0;stroke-width:0.8;"/>
    <path d="M 281.802664 72.93346 
L 277.028127 179.218325 
L 163.480078 243.66868 
" style="fill:none;stroke:#b0b0b0;stroke-width:0.8;"/>
   </g>
   <g id="xtick_5">
    <g id="line2d_7">
     <path d="M 66.617091 187.056066 
L 63.695114 188.522456 
" style="fill:none;stroke:#000000;stroke-linecap:square;stroke-width:0.8;"/>
    </g>
    <g id="text_7">
     <!-- -1000 -->
     <g transform="translate(42.988585 208.59788)scale(0.1 -0.1)">
      <defs>
       <path d="M 46.484375 33.203125 
L 1.953125 33.203125 
L 1.953125 39.453125 
L 46.484375 39.453125 
z
" id="SimHei-45"/>
      </defs>
      <use xlink:href="#SimHei-45"/>
      <use x="50" xlink:href="#SimHei-49"/>
      <use x="100" xlink:href="#SimHei-48"/>
      <use x="150" xlink:href="#SimHei-48"/>
      <use x="200" xlink:href="#SimHei-48"/>
     </g>
    </g>
   </g>
   <g id="xtick_6">
    <g id="line2d_8">
     <path d="M 82.075856 195.913238 
L 79.150332 197.410313 
" style="fill:none;stroke:#000000;stroke-linecap:square;stroke-width:0.8;"/>
    </g>
    <g id="text_8">
     <!-- -500 -->
     <g transform="translate(60.8779 217.63476)scale(0.1 -0.1)">
      <defs>
       <path d="M 8.59375 20.703125 
Q 11.328125 10.15625 17.96875 8.984375 
Q 24.609375 7.8125 28.703125 10.34375 
Q 32.8125 12.890625 34.5625 16.984375 
Q 36.328125 21.09375 36.125 26.171875 
Q 35.9375 31.25 33.390625 34.765625 
Q 30.859375 38.28125 26.953125 39.453125 
Q 23.046875 40.625 18.15625 39.453125 
Q 13.28125 38.28125 10.15625 33.984375 
L 3.515625 34.765625 
Q 4.296875 37.109375 10.9375 68.359375 
L 41.796875 68.359375 
L 41.796875 61.328125 
L 16.796875 61.328125 
Q 14.84375 50.78125 12.890625 44.53125 
Q 18.75 47.265625 23.828125 47.0625 
Q 28.90625 46.875 33.59375 44.71875 
Q 38.28125 42.578125 40.421875 38.859375 
Q 42.578125 35.15625 43.546875 31.4375 
Q 44.53125 27.734375 44.328125 23.4375 
Q 44.140625 19.140625 42.578125 14.640625 
Q 41.015625 10.15625 37.890625 7.21875 
Q 34.765625 4.296875 30.265625 2.53125 
Q 25.78125 0.78125 19.921875 1.171875 
Q 14.0625 1.5625 8.78125 5.46875 
Q 3.515625 9.375 1.5625 18.75 
z
" id="SimHei-53"/>
      </defs>
      <use xlink:href="#SimHei-45"/>
      <use x="50" xlink:href="#SimHei-53"/>
      <use x="100" xlink:href="#SimHei-48"/>
      <use x="150" xlink:href="#SimHei-48"/>
     </g>
    </g>
   </g>
   <g id="xtick_7">
    <g id="line2d_9">
     <path d="M 97.859535 204.956569 
L 94.930961 206.485303 
" style="fill:none;stroke:#000000;stroke-linecap:square;stroke-width:0.8;"/>
    </g>
    <g id="text_9">
     <!-- 0 -->
     <g transform="translate(84.091654 226.862157)scale(0.1 -0.1)">
      <use xlink:href="#SimHei-48"/>
     </g>
    </g>
   </g>
   <g id="xtick_8">
    <g id="line2d_10">
     <path d="M 113.97848 214.191993 
L 111.047386 215.753401 
" style="fill:none;stroke:#000000;stroke-linecap:square;stroke-width:0.8;"/>
    </g>
    <g id="text_10">
     <!-- 500 -->
     <g transform="translate(95.140217 236.28616)scale(0.1 -0.1)">
      <use xlink:href="#SimHei-53"/>
      <use x="50" xlink:href="#SimHei-48"/>
      <use x="100" xlink:href="#SimHei-48"/>
     </g>
    </g>
   </g>
   <g id="xtick_9">
    <g id="line2d_11">
     <path d="M 130.443487 223.625695 
L 127.510441 225.220836 
" style="fill:none;stroke:#000000;stroke-linecap:square;stroke-width:0.8;"/>
    </g>
    <g id="text_11">
     <!-- 1000 -->
     <g transform="translate(109.034404 245.913119)scale(0.1 -0.1)">
      <use xlink:href="#SimHei-49"/>
      <use x="50" xlink:href="#SimHei-48"/>
      <use x="100" xlink:href="#SimHei-48"/>
      <use x="150" xlink:href="#SimHei-48"/>
     </g>
    </g>
   </g>
   <g id="xtick_10">
    <g id="line2d_12">
     <path d="M 147.265823 233.26413 
L 144.33143 234.894108 
" style="fill:none;stroke:#000000;stroke-linecap:square;stroke-width:0.8;"/>
    </g>
    <g id="text_12">
     <!-- 1500 -->
     <g transform="translate(125.785502 255.749663)scale(0.1 -0.1)">
      <use xlink:href="#SimHei-49"/>
      <use x="50" xlink:href="#SimHei-53"/>
      <use x="100" xlink:href="#SimHei-48"/>
      <use x="150" xlink:href="#SimHei-48"/>
     </g>
    </g>
   </g>
   <g id="xtick_11">
    <g id="line2d_13">
     <path d="M 164.457246 243.114036 
L 161.522155 244.780005 
" style="fill:none;stroke:#000000;stroke-linecap:square;stroke-width:0.8;"/>
    </g>
    <g id="text_13">
     <!-- 2000 -->
     <g transform="translate(142.905295 265.802711)scale(0.1 -0.1)">
      <use xlink:href="#SimHei-50"/>
      <use x="50" xlink:href="#SimHei-48"/>
      <use x="100" xlink:href="#SimHei-48"/>
      <use x="150" xlink:href="#SimHei-48"/>
     </g>
    </g>
   </g>
  </g>
  <g id="axis3d_3">
   <g id="line2d_14">
    <path d="M 58.415939 183.39774 
L 53.232913 76.753262 
" style="fill:none;stroke:#000000;stroke-linecap:square;stroke-width:0.8;"/>
   </g>
   <g id="text_14">
    <!-- F3 -->
    <g transform="translate(7.2 134.07823)scale(0.1 -0.1)">
     <use xlink:href="#SimHei-70"/>
     <use x="50" xlink:href="#SimHei-51"/>
    </g>
   </g>
   <g id="Line3DCollection_3">
    <path d="M 57.672905 168.109282 
L 171.924229 112.341907 
L 286.175552 168.109282 
" style="fill:none;stroke:#b0b0b0;stroke-width:0.8;"/>
    <path d="M 56.947003 153.173317 
L 171.924229 98.081674 
L 286.901455 153.173317 
" style="fill:none;stroke:#b0b0b0;stroke-width:0.8;"/>
    <path d="M 56.211817 138.046346 
L 171.924229 83.651435 
L 287.63664 138.046346 
" style="fill:none;stroke:#b0b0b0;stroke-width:0.8;"/>
    <path d="M 55.467169 122.72468 
L 171.924229 69.04813 
L 288.381288 122.72468 
" style="fill:none;stroke:#b0b0b0;stroke-width:0.8;"/>
    <path d="M 54.712875 107.204537 
L 171.924229 54.268629 
L 289.135583 107.204537 
" style="fill:none;stroke:#b0b0b0;stroke-width:0.8;"/>
    <path d="M 53.948745 91.482035 
L 171.924229 39.309722 
L 289.899712 91.482035 
" style="fill:none;stroke:#b0b0b0;stroke-width:0.8;"/>
   </g>
   <g id="xtick_12">
    <g id="line2d_15">
     <path d="M 58.651958 167.631395 
L 55.711422 169.066704 
" style="fill:none;stroke:#000000;stroke-linecap:square;stroke-width:0.8;"/>
    </g>
    <g id="text_15">
     <!-- -500 -->
     <g transform="translate(27.889126 174.984282)scale(0.1 -0.1)">
      <use xlink:href="#SimHei-45"/>
      <use x="50" xlink:href="#SimHei-53"/>
      <use x="100" xlink:href="#SimHei-48"/>
      <use x="150" xlink:href="#SimHei-48"/>
     </g>
    </g>
   </g>
   <g id="xtick_13">
    <g id="line2d_16">
     <path d="M 57.932692 152.701021 
L 54.972203 154.119547 
" style="fill:none;stroke:#000000;stroke-linecap:square;stroke-width:0.8;"/>
    </g>
    <g id="text_16">
     <!-- -250 -->
     <g transform="translate(27.037526 160.048317)scale(0.1 -0.1)">
      <use xlink:href="#SimHei-45"/>
      <use x="50" xlink:href="#SimHei-50"/>
      <use x="100" xlink:href="#SimHei-53"/>
      <use x="150" xlink:href="#SimHei-48"/>
     </g>
    </g>
   </g>
   <g id="xtick_14">
    <g id="line2d_17">
     <path d="M 57.204232 137.579824 
L 54.223519 138.981019 
" style="fill:none;stroke:#000000;stroke-linecap:square;stroke-width:0.8;"/>
    </g>
    <g id="text_17">
     <!-- 0 -->
     <g transform="translate(33.675036 144.921346)scale(0.1 -0.1)">
      <use xlink:href="#SimHei-48"/>
     </g>
    </g>
   </g>
   <g id="xtick_15">
    <g id="line2d_18">
     <path d="M 56.466403 122.26412 
L 53.465188 123.647419 
" style="fill:none;stroke:#000000;stroke-linecap:square;stroke-width:0.8;"/>
    </g>
    <g id="text_18">
     <!-- 250 -->
     <g transform="translate(27.801444 129.59968)scale(0.1 -0.1)">
      <use xlink:href="#SimHei-50"/>
      <use x="50" xlink:href="#SimHei-53"/>
      <use x="100" xlink:href="#SimHei-48"/>
     </g>
    </g>
   </g>
   <g id="xtick_16">
    <g id="line2d_19">
     <path d="M 55.719021 106.750134 
L 52.697022 108.114952 
" style="fill:none;stroke:#000000;stroke-linecap:square;stroke-width:0.8;"/>
    </g>
    <g id="text_19">
     <!-- 500 -->
     <g transform="translate(26.916536 114.079537)scale(0.1 -0.1)">
      <use xlink:href="#SimHei-53"/>
      <use x="50" xlink:href="#SimHei-48"/>
      <use x="100" xlink:href="#SimHei-48"/>
     </g>
    </g>
   </g>
   <g id="xtick_17">
    <g id="line2d_20">
     <path d="M 54.9619 91.033988 
L 51.918828 92.379726 
" style="fill:none;stroke:#000000;stroke-linecap:square;stroke-width:0.8;"/>
    </g>
    <g id="text_20">
     <!-- 750 -->
     <g transform="translate(26.02009 98.357035)scale(0.1 -0.1)">
      <defs>
       <path d="M 13.28125 2.34375 
Q 20.3125 32.03125 37.890625 61.328125 
L 4.296875 61.328125 
L 4.296875 68.359375 
L 46.09375 68.359375 
L 46.09375 61.71875 
Q 27.734375 32.03125 21.875 2.34375 
L 13.28125 2.34375 
z
" id="SimHei-55"/>
      </defs>
      <use xlink:href="#SimHei-55"/>
      <use x="50" xlink:href="#SimHei-53"/>
      <use x="100" xlink:href="#SimHei-48"/>
     </g>
    </g>
   </g>
  </g>
  <g id="axes_1">
   <g id="line2d_21">
    <defs>
     <path d="M 0 1.5 
C 0.397805 1.5 0.77937 1.341951 1.06066 1.06066 
C 1.341951 0.77937 1.5 0.397805 1.5 0 
C 1.5 -0.397805 1.341951 -0.77937 1.06066 -1.06066 
C 0.77937 -1.341951 0.397805 -1.5 0 -1.5 
C -0.397805 -1.5 -0.77937 -1.341951 -1.06066 -1.06066 
C -1.341951 -0.77937 -1.5 -0.397805 -1.5 0 
C -1.5 0.397805 -1.341951 0.77937 -1.06066 1.06066 
C -0.77937 1.341951 -0.397805 1.5 0 1.5 
z
" id="m6880402f73" style="stroke:#4682b4;"/>
    </defs>
    <g clip-path="url(#pdd70ef822e)">
     <use style="fill:#4682b4;stroke:#4682b4;" x="153.511769" xlink:href="#m6880402f73" y="90.963093"/>
     <use style="fill:#4682b4;stroke:#4682b4;" x="162.917802" xlink:href="#m6880402f73" y="134.25946"/>
     <use style="fill:#4682b4;stroke:#4682b4;" x="188.658363" xlink:href="#m6880402f73" y="167.177939"/>
     <use style="fill:#4682b4;stroke:#4682b4;" x="162.701757" xlink:href="#m6880402f73" y="124.294917"/>
     <use style="fill:#4682b4;stroke:#4682b4;" x="185.838167" xlink:href="#m6880402f73" y="150.887272"/>
     <use style="fill:#4682b4;stroke:#4682b4;" x="162.238438" xlink:href="#m6880402f73" y="106.098831"/>
     <use style="fill:#4682b4;stroke:#4682b4;" x="169.657783" xlink:href="#m6880402f73" y="157.96457"/>
     <use style="fill:#4682b4;stroke:#4682b4;" x="150.930637" xlink:href="#m6880402f73" y="112.519973"/>
     <use style="fill:#4682b4;stroke:#4682b4;" x="185.838167" xlink:href="#m6880402f73" y="150.887272"/>
     <use style="fill:#4682b4;stroke:#4682b4;" x="173.182999" xlink:href="#m6880402f73" y="127.450424"/>
     <use style="fill:#4682b4;stroke:#4682b4;" x="167.138447" xlink:href="#m6880402f73" y="123.050974"/>
     <use style="fill:#4682b4;stroke:#4682b4;" x="179.109544" xlink:href="#m6880402f73" y="151.183937"/>
     <use style="fill:#4682b4;stroke:#4682b4;" x="168.774852" xlink:href="#m6880402f73" y="150.384056"/>
     <use style="fill:#4682b4;stroke:#4682b4;" x="168.348226" xlink:href="#m6880402f73" y="143.033763"/>
     <use style="fill:#4682b4;stroke:#4682b4;" x="154.62724" xlink:href="#m6880402f73" y="140.200716"/>
     <use style="fill:#4682b4;stroke:#4682b4;" x="172.344832" xlink:href="#m6880402f73" y="122.052804"/>
     <use style="fill:#4682b4;stroke:#4682b4;" x="160.547328" xlink:href="#m6880402f73" y="94.069936"/>
     <use style="fill:#4682b4;stroke:#4682b4;" x="161.677502" xlink:href="#m6880402f73" y="137.978543"/>
     <use style="fill:#4682b4;stroke:#4682b4;" x="158.529499" xlink:href="#m6880402f73" y="120.542397"/>
     <use style="fill:#4682b4;stroke:#4682b4;" x="160.547328" xlink:href="#m6880402f73" y="94.069936"/>
     <use style="fill:#4682b4;stroke:#4682b4;" x="148.506725" xlink:href="#m6880402f73" y="100.152621"/>
     <use style="fill:#4682b4;stroke:#4682b4;" x="170.600018" xlink:href="#m6880402f73" y="140.501465"/>
     <use style="fill:#4682b4;stroke:#4682b4;" x="175.439904" xlink:href="#m6880402f73" y="154.81363"/>
     <use style="fill:#4682b4;stroke:#4682b4;" x="144.088762" xlink:href="#m6880402f73" y="91.354778"/>
     <use style="fill:#4682b4;stroke:#4682b4;" x="178.589133" xlink:href="#m6880402f73" y="181.131337"/>
     <use style="fill:#4682b4;stroke:#4682b4;" x="168.758574" xlink:href="#m6880402f73" y="150.869786"/>
     <use style="fill:#4682b4;stroke:#4682b4;" x="170.972109" xlink:href="#m6880402f73" y="141.89114"/>
     <use style="fill:#4682b4;stroke:#4682b4;" x="176.591138" xlink:href="#m6880402f73" y="154.437919"/>
     <use style="fill:#4682b4;stroke:#4682b4;" x="161.677502" xlink:href="#m6880402f73" y="137.978543"/>
     <use style="fill:#4682b4;stroke:#4682b4;" x="178.589133" xlink:href="#m6880402f73" y="181.131337"/>
     <use style="fill:#4682b4;stroke:#4682b4;" x="170.972109" xlink:href="#m6880402f73" y="141.89114"/>
     <use style="fill:#4682b4;stroke:#4682b4;" x="171.924229" xlink:href="#m6880402f73" y="116.828419"/>
     <use style="fill:#4682b4;stroke:#4682b4;" x="168.813592" xlink:href="#m6880402f73" y="124.969481"/>
     <use style="fill:#4682b4;stroke:#4682b4;" x="167.138447" xlink:href="#m6880402f73" y="123.050974"/>
     <use style="fill:#4682b4;stroke:#4682b4;" x="153.511769" xlink:href="#m6880402f73" y="90.963093"/>
     <use style="fill:#4682b4;stroke:#4682b4;" x="169.657783" xlink:href="#m6880402f73" y="157.96457"/>
     <use style="fill:#4682b4;stroke:#4682b4;" x="154.62724" xlink:href="#m6880402f73" y="140.200716"/>
     <use style="fill:#4682b4;stroke:#4682b4;" x="165.513569" xlink:href="#m6880402f73" y="137.973914"/>
     <use style="fill:#4682b4;stroke:#4682b4;" x="171.720933" xlink:href="#m6880402f73" y="160.232581"/>
     <use style="fill:#4682b4;stroke:#4682b4;" x="160.686841" xlink:href="#m6880402f73" y="147.501497"/>
     <use style="fill:#4682b4;stroke:#4682b4;" x="176.591138" xlink:href="#m6880402f73" y="154.437919"/>
     <use style="fill:#4682b4;stroke:#4682b4;" x="170.600018" xlink:href="#m6880402f73" y="140.501465"/>
     <use style="fill:#4682b4;stroke:#4682b4;" x="171.447714" xlink:href="#m6880402f73" y="137.855595"/>
     <use style="fill:#4682b4;stroke:#4682b4;" x="188.658363" xlink:href="#m6880402f73" y="167.177939"/>
     <use style="fill:#4682b4;stroke:#4682b4;" x="162.168705" xlink:href="#m6880402f73" y="127.993428"/>
     <use style="fill:#4682b4;stroke:#4682b4;" x="171.924229" xlink:href="#m6880402f73" y="116.828419"/>
     <use style="fill:#4682b4;stroke:#4682b4;" x="156.489621" xlink:href="#m6880402f73" y="81.587871"/>
     <use style="fill:#4682b4;stroke:#4682b4;" x="157.843486" xlink:href="#m6880402f73" y="141.646773"/>
     <use style="fill:#4682b4;stroke:#4682b4;" x="174.657477" xlink:href="#m6880402f73" y="150.242919"/>
     <use style="fill:#4682b4;stroke:#4682b4;" x="155.160954" xlink:href="#m6880402f73" y="107.115595"/>
     <use style="fill:#4682b4;stroke:#4682b4;" x="151.750794" xlink:href="#m6880402f73" y="125.8335"/>
     <use style="fill:#4682b4;stroke:#4682b4;" x="163.253748" xlink:href="#m6880402f73" y="139.208821"/>
     <use style="fill:#4682b4;stroke:#4682b4;" x="173.717032" xlink:href="#m6880402f73" y="171.80874"/>
     <use style="fill:#4682b4;stroke:#4682b4;" x="179.109544" xlink:href="#m6880402f73" y="151.183937"/>
     <use style="fill:#4682b4;stroke:#4682b4;" x="155.244817" xlink:href="#m6880402f73" y="133.837013"/>
     <use style="fill:#4682b4;stroke:#4682b4;" x="175.439904" xlink:href="#m6880402f73" y="154.81363"/>
     <use style="fill:#4682b4;stroke:#4682b4;" x="168.758574" xlink:href="#m6880402f73" y="150.869786"/>
     <use style="fill:#4682b4;stroke:#4682b4;" x="174.657477" xlink:href="#m6880402f73" y="150.242919"/>
     <use style="fill:#4682b4;stroke:#4682b4;" x="173.717032" xlink:href="#m6880402f73" y="171.80874"/>
     <use style="fill:#4682b4;stroke:#4682b4;" x="148.506725" xlink:href="#m6880402f73" y="100.152621"/>
     <use style="fill:#4682b4;stroke:#4682b4;" x="158.193709" xlink:href="#m6880402f73" y="99.465876"/>
     <use style="fill:#4682b4;stroke:#4682b4;" x="166.109395" xlink:href="#m6880402f73" y="136.220846"/>
     <use style="fill:#4682b4;stroke:#4682b4;" x="162.917802" xlink:href="#m6880402f73" y="134.25946"/>
     <use style="fill:#4682b4;stroke:#4682b4;" x="160.173155" xlink:href="#m6880402f73" y="119.507029"/>
     <use style="fill:#4682b4;stroke:#4682b4;" x="171.447714" xlink:href="#m6880402f73" y="137.855595"/>
     <use style="fill:#4682b4;stroke:#4682b4;" x="157.843486" xlink:href="#m6880402f73" y="141.646773"/>
     <use style="fill:#4682b4;stroke:#4682b4;" x="171.720933" xlink:href="#m6880402f73" y="160.232581"/>
     <use style="fill:#4682b4;stroke:#4682b4;" x="156.385968" xlink:href="#m6880402f73" y="145.006834"/>
     <use style="fill:#4682b4;stroke:#4682b4;" x="166.109395" xlink:href="#m6880402f73" y="136.220846"/>
     <use style="fill:#4682b4;stroke:#4682b4;" x="163.253748" xlink:href="#m6880402f73" y="139.208821"/>
     <use style="fill:#4682b4;stroke:#4682b4;" x="200.59653" xlink:href="#m6880402f73" y="172.06122"/>
     <use style="fill:#4682b4;stroke:#4682b4;" x="171.924229" xlink:href="#m6880402f73" y="163.990636"/>
     <use style="fill:#4682b4;stroke:#4682b4;" x="156.385968" xlink:href="#m6880402f73" y="145.006834"/>
     <use style="fill:#4682b4;stroke:#4682b4;" x="168.774852" xlink:href="#m6880402f73" y="150.384056"/>
     <use style="fill:#4682b4;stroke:#4682b4;" x="144.088762" xlink:href="#m6880402f73" y="91.354778"/>
     <use style="fill:#4682b4;stroke:#4682b4;" x="172.344832" xlink:href="#m6880402f73" y="122.052804"/>
     <use style="fill:#4682b4;stroke:#4682b4;" x="162.168705" xlink:href="#m6880402f73" y="127.993428"/>
     <use style="fill:#4682b4;stroke:#4682b4;" x="173.20369" xlink:href="#m6880402f73" y="107.54261"/>
     <use style="fill:#4682b4;stroke:#4682b4;" x="158.193709" xlink:href="#m6880402f73" y="99.465876"/>
     <use style="fill:#4682b4;stroke:#4682b4;" x="163.497887" xlink:href="#m6880402f73" y="144.995584"/>
     <use style="fill:#4682b4;stroke:#4682b4;" x="162.701757" xlink:href="#m6880402f73" y="124.294917"/>
     <use style="fill:#4682b4;stroke:#4682b4;" x="156.489621" xlink:href="#m6880402f73" y="81.587871"/>
     <use style="fill:#4682b4;stroke:#4682b4;" x="171.924229" xlink:href="#m6880402f73" y="163.990636"/>
     <use style="fill:#4682b4;stroke:#4682b4;" x="168.348226" xlink:href="#m6880402f73" y="143.033763"/>
     <use style="fill:#4682b4;stroke:#4682b4;" x="163.497887" xlink:href="#m6880402f73" y="144.995584"/>
     <use style="fill:#4682b4;stroke:#4682b4;" x="151.750794" xlink:href="#m6880402f73" y="125.8335"/>
     <use style="fill:#4682b4;stroke:#4682b4;" x="183.12479" xlink:href="#m6880402f73" y="157.028131"/>
     <use style="fill:#4682b4;stroke:#4682b4;" x="158.529499" xlink:href="#m6880402f73" y="120.542397"/>
     <use style="fill:#4682b4;stroke:#4682b4;" x="160.173155" xlink:href="#m6880402f73" y="119.507029"/>
     <use style="fill:#4682b4;stroke:#4682b4;" x="160.686841" xlink:href="#m6880402f73" y="147.501497"/>
     <use style="fill:#4682b4;stroke:#4682b4;" x="155.160954" xlink:href="#m6880402f73" y="107.115595"/>
     <use style="fill:#4682b4;stroke:#4682b4;" x="165.513569" xlink:href="#m6880402f73" y="137.973914"/>
     <use style="fill:#4682b4;stroke:#4682b4;" x="163.936088" xlink:href="#m6880402f73" y="117.019748"/>
     <use style="fill:#4682b4;stroke:#4682b4;" x="171.049639" xlink:href="#m6880402f73" y="129.730984"/>
     <use style="fill:#4682b4;stroke:#4682b4;" x="155.244817" xlink:href="#m6880402f73" y="133.837013"/>
     <use style="fill:#4682b4;stroke:#4682b4;" x="173.20369" xlink:href="#m6880402f73" y="107.54261"/>
     <use style="fill:#4682b4;stroke:#4682b4;" x="173.182999" xlink:href="#m6880402f73" y="127.450424"/>
     <use style="fill:#4682b4;stroke:#4682b4;" x="162.238438" xlink:href="#m6880402f73" y="106.098831"/>
     <use style="fill:#4682b4;stroke:#4682b4;" x="163.936088" xlink:href="#m6880402f73" y="117.019748"/>
     <use style="fill:#4682b4;stroke:#4682b4;" x="183.12479" xlink:href="#m6880402f73" y="157.028131"/>
    </g>
   </g>
   <g id="legend_1">
    <g id="patch_6">
     <path d="M 196.989958 28.45 
L 288.989958 28.45 
Q 290.989958 28.45 290.989958 26.45 
L 290.989958 14.2 
Q 290.989958 12.2 288.989958 12.2 
L 196.989958 12.2 
Q 194.989958 12.2 194.989958 14.2 
L 194.989958 26.45 
Q 194.989958 28.45 196.989958 28.45 
z
" style="fill:#ffffff;opacity:0.8;stroke:#cccccc;stroke-linejoin:miter;"/>
    </g>
    <g id="line2d_22"/>
    <g id="line2d_23">
     <g>
      <use style="fill:#4682b4;stroke:#4682b4;" x="208.989958" xlink:href="#m6880402f73" y="19.7"/>
     </g>
    </g>
    <g id="text_21">
     <!-- Pareto Front -->
     <g transform="translate(226.989958 23.2)scale(0.1 -0.1)">
      <defs>
       <path d="M 46.09375 48.4375 
Q 46.09375 39.0625 40.625 33.59375 
Q 35.15625 28.125 25.390625 28.125 
L 14.0625 28.125 
L 14.0625 1.953125 
L 5.078125 1.953125 
L 5.078125 68.75 
L 25.390625 68.75 
Q 35.15625 68.75 40.625 63.28125 
Q 46.09375 57.8125 46.09375 48.4375 
z
M 37.109375 48.4375 
Q 37.109375 55.859375 33.59375 58.59375 
Q 30.078125 61.328125 23.046875 61.328125 
L 14.0625 61.328125 
L 14.0625 35.546875 
L 23.046875 35.546875 
Q 30.078125 35.546875 33.59375 38.28125 
Q 37.109375 41.015625 37.109375 48.4375 
z
" id="SimHei-80"/>
       <path d="M 44.921875 1.953125 
L 35.546875 1.953125 
Q 34.765625 2.734375 34.375 4.09375 
Q 33.984375 5.46875 33.984375 7.421875 
Q 31.25 4.296875 27.34375 2.734375 
Q 23.4375 1.171875 19.140625 1.171875 
Q 12.890625 1.171875 8.59375 4.296875 
Q 4.296875 7.421875 4.296875 13.28125 
Q 4.296875 19.140625 8.203125 22.65625 
Q 12.109375 26.171875 20.3125 27.34375 
Q 25.78125 28.125 29.875 29.296875 
Q 33.984375 30.46875 33.984375 32.421875 
Q 33.984375 34.765625 32.21875 37.109375 
Q 30.46875 39.453125 24.609375 39.453125 
Q 19.921875 39.453125 17.765625 37.6875 
Q 15.625 35.9375 14.84375 32.8125 
L 6.25 32.8125 
Q 7.03125 39.0625 11.90625 42.765625 
Q 16.796875 46.484375 24.609375 46.484375 
Q 33.203125 46.484375 37.5 42.578125 
Q 41.796875 38.671875 41.796875 31.640625 
L 41.796875 10.15625 
Q 41.796875 7.8125 42.578125 5.859375 
Q 43.359375 3.90625 44.921875 1.953125 
z
M 33.984375 16.40625 
L 33.984375 24.21875 
Q 31.640625 23.4375 29.484375 22.84375 
Q 27.34375 22.265625 22.265625 21.484375 
Q 16.40625 20.703125 14.640625 18.75 
Q 12.890625 16.796875 12.890625 14.0625 
Q 12.890625 11.71875 14.640625 9.953125 
Q 16.40625 8.203125 19.921875 8.203125 
Q 23.4375 8.203125 27.53125 10.15625 
Q 31.640625 12.109375 33.984375 16.40625 
z
" id="SimHei-97"/>
       <path d="M 39.0625 37.890625 
Q 31.640625 39.0625 26.5625 35.734375 
Q 21.484375 32.421875 17.96875 24.21875 
L 17.96875 1.953125 
L 10.15625 1.953125 
L 10.15625 45.703125 
L 17.96875 45.703125 
L 17.96875 34.375 
Q 21.484375 40.625 26.75 43.546875 
Q 32.03125 46.484375 39.0625 46.484375 
z
" id="SimHei-114"/>
       <path d="M 44.53125 16.796875 
Q 43.75 9.765625 38.28125 5.46875 
Q 32.8125 1.171875 25.390625 1.171875 
Q 16.015625 1.171875 9.953125 7.21875 
Q 3.90625 13.28125 3.90625 23.828125 
Q 3.90625 34.375 9.953125 40.421875 
Q 16.015625 46.484375 25.390625 46.484375 
Q 33.59375 46.484375 38.859375 41.203125 
Q 44.140625 35.9375 44.140625 23.828125 
L 12.5 23.828125 
Q 12.5 15.234375 16.203125 11.71875 
Q 19.921875 8.203125 25.390625 8.203125 
Q 29.6875 8.203125 32.421875 10.34375 
Q 35.15625 12.5 35.9375 16.796875 
z
M 35.15625 30.078125 
Q 34.375 35.546875 31.640625 37.6875 
Q 28.90625 39.84375 24.609375 39.84375 
Q 20.703125 39.84375 17.578125 37.6875 
Q 14.453125 35.546875 12.890625 30.078125 
z
" id="SimHei-101"/>
       <path d="M 42.96875 3.125 
Q 41.015625 2.34375 38.46875 1.75 
Q 35.9375 1.171875 31.640625 1.171875 
Q 24.609375 1.171875 20.3125 5.078125 
Q 16.015625 8.984375 16.015625 16.015625 
L 16.015625 39.453125 
L 2.734375 39.453125 
L 2.734375 45.703125 
L 16.015625 45.703125 
L 16.015625 60.9375 
L 23.828125 60.9375 
L 23.828125 45.703125 
L 39.84375 45.703125 
L 39.84375 39.453125 
L 23.828125 39.453125 
L 23.828125 15.625 
Q 23.828125 12.5 25.390625 10.34375 
Q 26.953125 8.203125 31.25 8.203125 
Q 35.546875 8.203125 38.28125 8.984375 
Q 41.015625 9.765625 42.96875 10.9375 
z
" id="SimHei-116"/>
       <path d="M 45.703125 23.828125 
Q 45.703125 13.671875 39.453125 7.421875 
Q 33.203125 1.171875 24.609375 1.171875 
Q 16.015625 1.171875 9.765625 7.421875 
Q 3.515625 13.671875 3.515625 23.828125 
Q 3.515625 33.984375 9.765625 40.234375 
Q 16.015625 46.484375 24.609375 46.484375 
Q 33.203125 46.484375 39.453125 40.234375 
Q 45.703125 33.984375 45.703125 23.828125 
z
M 37.109375 23.828125 
Q 37.109375 31.640625 33.203125 35.546875 
Q 29.296875 39.453125 24.609375 39.453125 
Q 19.921875 39.453125 16.015625 35.546875 
Q 12.109375 31.640625 12.109375 23.828125 
Q 12.109375 16.015625 16.015625 12.109375 
Q 19.921875 8.203125 24.609375 8.203125 
Q 29.296875 8.203125 33.203125 12.109375 
Q 37.109375 16.015625 37.109375 23.828125 
z
" id="SimHei-111"/>
       <path id="SimHei-32"/>
       <path d="M 43.75 1.953125 
L 35.9375 1.953125 
L 35.9375 30.078125 
Q 35.9375 34.765625 33.59375 37.5 
Q 31.25 40.234375 27.34375 40.234375 
Q 22.265625 40.234375 17.765625 34.953125 
Q 13.28125 29.6875 13.28125 21.875 
L 13.28125 1.953125 
L 5.46875 1.953125 
L 5.46875 45.703125 
L 13.28125 45.703125 
L 13.28125 37.5 
Q 16.40625 41.796875 20.109375 44.140625 
Q 23.828125 46.484375 29.6875 46.484375 
Q 36.71875 46.484375 40.234375 42.578125 
Q 43.75 38.671875 43.75 32.8125 
z
" id="SimHei-110"/>
      </defs>
      <use xlink:href="#SimHei-80"/>
      <use x="50" xlink:href="#SimHei-97"/>
      <use x="100" xlink:href="#SimHei-114"/>
      <use x="150" xlink:href="#SimHei-101"/>
      <use x="200" xlink:href="#SimHei-116"/>
      <use x="250" xlink:href="#SimHei-111"/>
      <use x="300" xlink:href="#SimHei-32"/>
      <use x="350" xlink:href="#SimHei-70"/>
      <use x="400" xlink:href="#SimHei-114"/>
      <use x="450" xlink:href="#SimHei-111"/>
      <use x="500" xlink:href="#SimHei-110"/>
      <use x="550" xlink:href="#SimHei-116"/>
     </g>
    </g>
   </g>
  </g>
 </g>
 <defs>
  <clipPath id="pdd70ef822e">
   <rect height="255.024" width="255.024" x="40.965958" y="7.2"/>
  </clipPath>
 </defs>
</svg>
