<?xml version="1.0" encoding="utf-8" standalone="no"?>
<!DOCTYPE svg PUBLIC "-//W3C//DTD SVG 1.1//EN"
  "http://www.w3.org/Graphics/SVG/1.1/DTD/svg11.dtd">
<!-- Created with matplotlib (https://matplotlib.org/) -->
<svg height="307.762pt" version="1.1" viewBox="0 0 415.645 307.762" width="415.645pt" xmlns="http://www.w3.org/2000/svg" xmlns:xlink="http://www.w3.org/1999/xlink">
 <metadata>
  <rdf:RDF xmlns:cc="http://creativecommons.org/ns#" xmlns:dc="http://purl.org/dc/elements/1.1/" xmlns:rdf="http://www.w3.org/1999/02/22-rdf-syntax-ns#">
   <cc:Work>
    <dc:type rdf:resource="http://purl.org/dc/dcmitype/StillImage"/>
    <dc:date>2021-01-21T17:16:32.244303</dc:date>
    <dc:format>image/svg+xml</dc:format>
    <dc:creator>
     <cc:Agent>
      <dc:title>Matplotlib v3.3.3, https://matplotlib.org/</dc:title>
     </cc:Agent>
    </dc:creator>
   </cc:Work>
  </rdf:RDF>
 </metadata>
 <defs>
  <style type="text/css">*{stroke-linecap:butt;stroke-linejoin:round;}</style>
 </defs>
 <g id="figure_1">
  <g id="patch_1">
   <path d="M 0 307.762 
L 415.645 307.762 
L 415.645 0 
L 0 0 
z
" style="fill:#ffffff;"/>
  </g>
  <g id="axes_1">
   <g id="patch_2">
    <path d="M 51.325 273.312 
L 408.445 273.312 
L 408.445 7.2 
L 51.325 7.2 
z
" style="fill:#ffffff;"/>
   </g>
   <g id="matplotlib.axis_1">
    <g id="xtick_1">
     <g id="line2d_1">
      <path clip-path="url(#p590bbd046f)" d="M 89.644649 273.312 
L 89.644649 7.2 
" style="fill:none;stroke:#b0b0b0;stroke-linecap:square;stroke-width:0.8;"/>
     </g>
     <g id="line2d_2">
      <defs>
       <path d="M 0 0 
L 0 3.5 
" id="ma0d66e3c07" style="stroke:#000000;stroke-width:0.8;"/>
      </defs>
      <g>
       <use style="stroke:#000000;stroke-width:0.8;" x="89.644649" xlink:href="#ma0d66e3c07" y="273.312"/>
      </g>
     </g>
     <g id="text_1">
      <!-- -14000 -->
      <g transform="translate(74.644649 287.187)scale(0.1 -0.1)">
       <defs>
        <path d="M 46.484375 33.203125 
L 1.953125 33.203125 
L 1.953125 39.453125 
L 46.484375 39.453125 
z
" id="SimHei-45"/>
        <path d="M 21.875 56.25 
Q 16.796875 51.171875 8.984375 46.484375 
L 8.984375 53.90625 
Q 18.75 60.546875 25 69.53125 
L 29.6875 69.53125 
L 29.6875 2.34375 
L 21.875 2.34375 
z
" id="SimHei-49"/>
        <path d="M 31.25 17.1875 
L 1.171875 17.1875 
L 1.171875 23.828125 
L 32.8125 69.53125 
L 38.671875 69.53125 
L 38.671875 23.828125 
L 48.046875 23.828125 
L 48.046875 17.1875 
L 38.671875 17.1875 
L 38.671875 2.34375 
L 31.25 2.34375 
z
M 31.25 23.828125 
L 31.25 54.6875 
L 9.375 23.828125 
z
" id="SimHei-52"/>
        <path d="M 3.125 29.296875 
Q 3.90625 50 6.4375 56.046875 
Q 8.984375 62.109375 13.671875 66.015625 
Q 18.359375 69.921875 25.1875 69.921875 
Q 32.03125 69.921875 37.109375 64.25 
Q 42.1875 58.59375 43.75 50 
Q 45.3125 41.40625 44.71875 30.265625 
Q 44.140625 19.140625 40.8125 12.109375 
Q 37.5 5.078125 30.859375 2.34375 
Q 24.21875 -0.390625 17.578125 2.921875 
Q 10.9375 6.25 8.203125 11.71875 
Q 5.46875 17.1875 4.296875 23.234375 
Q 3.125 29.296875 3.90625 50 
z
M 12.890625 52.734375 
Q 10.546875 31.25 12.5 22.84375 
Q 14.453125 14.453125 18.9375 10.9375 
Q 23.4375 7.421875 28.125 9.5625 
Q 32.8125 11.71875 34.953125 18.15625 
Q 37.109375 24.609375 37.109375 32.21875 
Q 37.109375 39.84375 36.515625 46.09375 
Q 35.9375 52.34375 33 57.421875 
Q 30.078125 62.5 25.1875 62.6875 
Q 20.3125 62.890625 16.59375 57.8125 
Q 12.890625 52.734375 10.546875 31.25 
z
" id="SimHei-48"/>
       </defs>
       <use xlink:href="#SimHei-45"/>
       <use x="50" xlink:href="#SimHei-49"/>
       <use x="100" xlink:href="#SimHei-52"/>
       <use x="150" xlink:href="#SimHei-48"/>
       <use x="200" xlink:href="#SimHei-48"/>
       <use x="250" xlink:href="#SimHei-48"/>
      </g>
     </g>
    </g>
    <g id="xtick_2">
     <g id="line2d_3">
      <path clip-path="url(#p590bbd046f)" d="M 135.770286 273.312 
L 135.770286 7.2 
" style="fill:none;stroke:#b0b0b0;stroke-linecap:square;stroke-width:0.8;"/>
     </g>
     <g id="line2d_4">
      <g>
       <use style="stroke:#000000;stroke-width:0.8;" x="135.770286" xlink:href="#ma0d66e3c07" y="273.312"/>
      </g>
     </g>
     <g id="text_2">
      <!-- -12000 -->
      <g transform="translate(120.770286 287.187)scale(0.1 -0.1)">
       <defs>
        <path d="M 4.6875 3.90625 
Q 5.078125 9.765625 10.15625 14.453125 
Q 15.234375 19.140625 23.046875 29.09375 
Q 30.859375 39.0625 33.203125 44.53125 
Q 35.546875 50 34.953125 53.90625 
Q 34.375 57.8125 31.25 60.34375 
Q 28.125 62.890625 24.015625 62.5 
Q 19.921875 62.109375 16.203125 59.375 
Q 12.5 56.640625 10.546875 51.171875 
L 3.125 52.34375 
Q 6.25 61.328125 11.125 65.421875 
Q 16.015625 69.53125 22.65625 69.921875 
Q 26.5625 70.3125 29.6875 69.71875 
Q 32.8125 69.140625 36.125 66.984375 
Q 39.453125 64.84375 41.59375 60.546875 
Q 43.75 56.25 43.15625 50.1875 
Q 42.578125 44.140625 37.109375 35.734375 
Q 31.640625 27.34375 16.015625 9.375 
L 44.140625 9.375 
L 44.140625 2.34375 
L 4.6875 2.34375 
z
" id="SimHei-50"/>
       </defs>
       <use xlink:href="#SimHei-45"/>
       <use x="50" xlink:href="#SimHei-49"/>
       <use x="100" xlink:href="#SimHei-50"/>
       <use x="150" xlink:href="#SimHei-48"/>
       <use x="200" xlink:href="#SimHei-48"/>
       <use x="250" xlink:href="#SimHei-48"/>
      </g>
     </g>
    </g>
    <g id="xtick_3">
     <g id="line2d_5">
      <path clip-path="url(#p590bbd046f)" d="M 181.895923 273.312 
L 181.895923 7.2 
" style="fill:none;stroke:#b0b0b0;stroke-linecap:square;stroke-width:0.8;"/>
     </g>
     <g id="line2d_6">
      <g>
       <use style="stroke:#000000;stroke-width:0.8;" x="181.895923" xlink:href="#ma0d66e3c07" y="273.312"/>
      </g>
     </g>
     <g id="text_3">
      <!-- -10000 -->
      <g transform="translate(166.895923 287.187)scale(0.1 -0.1)">
       <use xlink:href="#SimHei-45"/>
       <use x="50" xlink:href="#SimHei-49"/>
       <use x="100" xlink:href="#SimHei-48"/>
       <use x="150" xlink:href="#SimHei-48"/>
       <use x="200" xlink:href="#SimHei-48"/>
       <use x="250" xlink:href="#SimHei-48"/>
      </g>
     </g>
    </g>
    <g id="xtick_4">
     <g id="line2d_7">
      <path clip-path="url(#p590bbd046f)" d="M 228.02156 273.312 
L 228.02156 7.2 
" style="fill:none;stroke:#b0b0b0;stroke-linecap:square;stroke-width:0.8;"/>
     </g>
     <g id="line2d_8">
      <g>
       <use style="stroke:#000000;stroke-width:0.8;" x="228.02156" xlink:href="#ma0d66e3c07" y="273.312"/>
      </g>
     </g>
     <g id="text_4">
      <!-- -8000 -->
      <g transform="translate(215.52156 287.187)scale(0.1 -0.1)">
       <defs>
        <path d="M 2.734375 16.796875 
Q 2.734375 26.171875 5.078125 30.65625 
Q 7.421875 35.15625 12.890625 37.890625 
Q 8.203125 40.625 6.640625 43.9375 
Q 5.078125 47.265625 4.875 51.5625 
Q 4.6875 55.859375 6.046875 58.984375 
Q 7.421875 62.109375 10.15625 64.84375 
Q 12.890625 67.578125 16.203125 68.546875 
Q 19.53125 69.53125 23.4375 69.53125 
Q 27.34375 69.53125 30.46875 68.75 
Q 33.59375 67.96875 37.109375 65.421875 
Q 40.625 62.890625 42.1875 58.203125 
Q 43.75 53.515625 41.984375 47.265625 
Q 40.234375 41.015625 32.8125 37.5 
Q 39.453125 35.546875 42.1875 31.4375 
Q 44.921875 27.34375 44.921875 21.484375 
Q 44.921875 15.625 43.15625 12.109375 
Q 41.40625 8.59375 39.25 6.25 
Q 37.109375 3.90625 33.390625 2.53125 
Q 29.6875 1.171875 24.015625 1.171875 
Q 18.359375 1.171875 14.25 2.53125 
Q 10.15625 3.90625 7.421875 6.640625 
Q 4.6875 9.375 3.703125 13.078125 
Q 2.734375 16.796875 2.734375 26.171875 
z
M 10.9375 26.5625 
Q 10.546875 17.1875 12.296875 13.671875 
Q 14.0625 10.15625 18.75 9.171875 
Q 23.4375 8.203125 28.515625 9.375 
Q 33.59375 10.546875 35.546875 14.84375 
Q 37.5 19.140625 36.90625 23.4375 
Q 36.328125 27.734375 32.03125 30.65625 
Q 27.734375 33.59375 22.65625 33.203125 
Q 17.578125 32.8125 14.25 29.6875 
Q 10.9375 26.5625 10.546875 17.1875 
z
M 12.109375 56.25 
Q 12.109375 48.4375 14.84375 44.921875 
Q 17.578125 41.40625 23.4375 41.40625 
Q 29.296875 41.40625 32.21875 44.921875 
Q 35.15625 48.4375 34.953125 53.3125 
Q 34.765625 58.203125 31.4375 60.546875 
Q 28.125 62.890625 22.453125 62.5 
Q 16.796875 62.109375 14.453125 59.171875 
Q 12.109375 56.25 12.109375 48.4375 
z
" id="SimHei-56"/>
       </defs>
       <use xlink:href="#SimHei-45"/>
       <use x="50" xlink:href="#SimHei-56"/>
       <use x="100" xlink:href="#SimHei-48"/>
       <use x="150" xlink:href="#SimHei-48"/>
       <use x="200" xlink:href="#SimHei-48"/>
      </g>
     </g>
    </g>
    <g id="xtick_5">
     <g id="line2d_9">
      <path clip-path="url(#p590bbd046f)" d="M 274.147197 273.312 
L 274.147197 7.2 
" style="fill:none;stroke:#b0b0b0;stroke-linecap:square;stroke-width:0.8;"/>
     </g>
     <g id="line2d_10">
      <g>
       <use style="stroke:#000000;stroke-width:0.8;" x="274.147197" xlink:href="#ma0d66e3c07" y="273.312"/>
      </g>
     </g>
     <g id="text_5">
      <!-- -6000 -->
      <g transform="translate(261.647197 287.187)scale(0.1 -0.1)">
       <defs>
        <path d="M 3.515625 19.53125 
Q 4.296875 30.859375 6.046875 34.765625 
Q 7.8125 38.671875 11.328125 44.53125 
L 27.34375 69.53125 
L 36.328125 69.53125 
L 19.921875 43.75 
Q 30.46875 46.484375 36.71875 42.96875 
Q 42.96875 39.453125 45.109375 34.953125 
Q 47.265625 30.46875 47.453125 25.1875 
Q 47.65625 19.921875 45.890625 14.84375 
Q 44.140625 9.765625 39.640625 5.65625 
Q 35.15625 1.5625 27.140625 1.171875 
Q 19.140625 0.78125 13.46875 4.09375 
Q 7.8125 7.421875 5.65625 13.46875 
Q 3.515625 19.53125 4.296875 30.859375 
z
M 12.5 16.015625 
Q 19.53125 8.59375 25.390625 8.203125 
Q 31.25 7.8125 35.15625 12.109375 
Q 39.0625 16.40625 39.0625 24.609375 
Q 39.0625 32.8125 34.171875 35.9375 
Q 29.296875 39.0625 23.234375 38.28125 
Q 17.1875 37.5 14.453125 32.421875 
Q 11.71875 27.34375 12.109375 21.671875 
Q 12.5 16.015625 19.53125 8.59375 
z
" id="SimHei-54"/>
       </defs>
       <use xlink:href="#SimHei-45"/>
       <use x="50" xlink:href="#SimHei-54"/>
       <use x="100" xlink:href="#SimHei-48"/>
       <use x="150" xlink:href="#SimHei-48"/>
       <use x="200" xlink:href="#SimHei-48"/>
      </g>
     </g>
    </g>
    <g id="xtick_6">
     <g id="line2d_11">
      <path clip-path="url(#p590bbd046f)" d="M 320.272834 273.312 
L 320.272834 7.2 
" style="fill:none;stroke:#b0b0b0;stroke-linecap:square;stroke-width:0.8;"/>
     </g>
     <g id="line2d_12">
      <g>
       <use style="stroke:#000000;stroke-width:0.8;" x="320.272834" xlink:href="#ma0d66e3c07" y="273.312"/>
      </g>
     </g>
     <g id="text_6">
      <!-- -4000 -->
      <g transform="translate(307.772834 287.187)scale(0.1 -0.1)">
       <use xlink:href="#SimHei-45"/>
       <use x="50" xlink:href="#SimHei-52"/>
       <use x="100" xlink:href="#SimHei-48"/>
       <use x="150" xlink:href="#SimHei-48"/>
       <use x="200" xlink:href="#SimHei-48"/>
      </g>
     </g>
    </g>
    <g id="xtick_7">
     <g id="line2d_13">
      <path clip-path="url(#p590bbd046f)" d="M 366.398471 273.312 
L 366.398471 7.2 
" style="fill:none;stroke:#b0b0b0;stroke-linecap:square;stroke-width:0.8;"/>
     </g>
     <g id="line2d_14">
      <g>
       <use style="stroke:#000000;stroke-width:0.8;" x="366.398471" xlink:href="#ma0d66e3c07" y="273.312"/>
      </g>
     </g>
     <g id="text_7">
      <!-- -2000 -->
      <g transform="translate(353.898471 287.187)scale(0.1 -0.1)">
       <use xlink:href="#SimHei-45"/>
       <use x="50" xlink:href="#SimHei-50"/>
       <use x="100" xlink:href="#SimHei-48"/>
       <use x="150" xlink:href="#SimHei-48"/>
       <use x="200" xlink:href="#SimHei-48"/>
      </g>
     </g>
    </g>
    <g id="text_8">
     <!-- F1 -->
     <g transform="translate(224.885 299.312)scale(0.1 -0.1)">
      <defs>
       <path d="M 45.703125 61.328125 
L 13.671875 61.328125 
L 13.671875 39.453125 
L 37.890625 39.453125 
L 37.890625 32.03125 
L 13.671875 32.03125 
L 13.671875 1.953125 
L 4.6875 1.953125 
L 4.6875 68.75 
L 45.703125 68.75 
z
" id="SimHei-70"/>
      </defs>
      <use xlink:href="#SimHei-70"/>
      <use x="50" xlink:href="#SimHei-49"/>
     </g>
    </g>
   </g>
   <g id="matplotlib.axis_2">
    <g id="ytick_1">
     <g id="line2d_15">
      <path clip-path="url(#p590bbd046f)" d="M 51.325 268.194492 
L 408.445 268.194492 
" style="fill:none;stroke:#b0b0b0;stroke-linecap:square;stroke-width:0.8;"/>
     </g>
     <g id="line2d_16">
      <defs>
       <path d="M 0 0 
L -3.5 0 
" id="m643d27e56d" style="stroke:#000000;stroke-width:0.8;"/>
      </defs>
      <g>
       <use style="stroke:#000000;stroke-width:0.8;" x="51.325" xlink:href="#m643d27e56d" y="268.194492"/>
      </g>
     </g>
     <g id="text_9">
      <!-- -2000 -->
      <g transform="translate(19.325 271.631992)scale(0.1 -0.1)">
       <use xlink:href="#SimHei-45"/>
       <use x="50" xlink:href="#SimHei-50"/>
       <use x="100" xlink:href="#SimHei-48"/>
       <use x="150" xlink:href="#SimHei-48"/>
       <use x="200" xlink:href="#SimHei-48"/>
      </g>
     </g>
    </g>
    <g id="ytick_2">
     <g id="line2d_17">
      <path clip-path="url(#p590bbd046f)" d="M 51.325 238.462824 
L 408.445 238.462824 
" style="fill:none;stroke:#b0b0b0;stroke-linecap:square;stroke-width:0.8;"/>
     </g>
     <g id="line2d_18">
      <g>
       <use style="stroke:#000000;stroke-width:0.8;" x="51.325" xlink:href="#m643d27e56d" y="238.462824"/>
      </g>
     </g>
     <g id="text_10">
      <!-- -1000 -->
      <g transform="translate(19.325 241.900324)scale(0.1 -0.1)">
       <use xlink:href="#SimHei-45"/>
       <use x="50" xlink:href="#SimHei-49"/>
       <use x="100" xlink:href="#SimHei-48"/>
       <use x="150" xlink:href="#SimHei-48"/>
       <use x="200" xlink:href="#SimHei-48"/>
      </g>
     </g>
    </g>
    <g id="ytick_3">
     <g id="line2d_19">
      <path clip-path="url(#p590bbd046f)" d="M 51.325 208.731156 
L 408.445 208.731156 
" style="fill:none;stroke:#b0b0b0;stroke-linecap:square;stroke-width:0.8;"/>
     </g>
     <g id="line2d_20">
      <g>
       <use style="stroke:#000000;stroke-width:0.8;" x="51.325" xlink:href="#m643d27e56d" y="208.731156"/>
      </g>
     </g>
     <g id="text_11">
      <!-- 0 -->
      <g transform="translate(39.325 212.168656)scale(0.1 -0.1)">
       <use xlink:href="#SimHei-48"/>
      </g>
     </g>
    </g>
    <g id="ytick_4">
     <g id="line2d_21">
      <path clip-path="url(#p590bbd046f)" d="M 51.325 178.999488 
L 408.445 178.999488 
" style="fill:none;stroke:#b0b0b0;stroke-linecap:square;stroke-width:0.8;"/>
     </g>
     <g id="line2d_22">
      <g>
       <use style="stroke:#000000;stroke-width:0.8;" x="51.325" xlink:href="#m643d27e56d" y="178.999488"/>
      </g>
     </g>
     <g id="text_12">
      <!-- 1000 -->
      <g transform="translate(24.325 182.436988)scale(0.1 -0.1)">
       <use xlink:href="#SimHei-49"/>
       <use x="50" xlink:href="#SimHei-48"/>
       <use x="100" xlink:href="#SimHei-48"/>
       <use x="150" xlink:href="#SimHei-48"/>
      </g>
     </g>
    </g>
    <g id="ytick_5">
     <g id="line2d_23">
      <path clip-path="url(#p590bbd046f)" d="M 51.325 149.26782 
L 408.445 149.26782 
" style="fill:none;stroke:#b0b0b0;stroke-linecap:square;stroke-width:0.8;"/>
     </g>
     <g id="line2d_24">
      <g>
       <use style="stroke:#000000;stroke-width:0.8;" x="51.325" xlink:href="#m643d27e56d" y="149.26782"/>
      </g>
     </g>
     <g id="text_13">
      <!-- 2000 -->
      <g transform="translate(24.325 152.70532)scale(0.1 -0.1)">
       <use xlink:href="#SimHei-50"/>
       <use x="50" xlink:href="#SimHei-48"/>
       <use x="100" xlink:href="#SimHei-48"/>
       <use x="150" xlink:href="#SimHei-48"/>
      </g>
     </g>
    </g>
    <g id="ytick_6">
     <g id="line2d_25">
      <path clip-path="url(#p590bbd046f)" d="M 51.325 119.536152 
L 408.445 119.536152 
" style="fill:none;stroke:#b0b0b0;stroke-linecap:square;stroke-width:0.8;"/>
     </g>
     <g id="line2d_26">
      <g>
       <use style="stroke:#000000;stroke-width:0.8;" x="51.325" xlink:href="#m643d27e56d" y="119.536152"/>
      </g>
     </g>
     <g id="text_14">
      <!-- 3000 -->
      <g transform="translate(24.325 122.973652)scale(0.1 -0.1)">
       <defs>
        <path d="M 3.90625 19.140625 
L 10.9375 20.3125 
Q 12.5 15.234375 16.015625 11.90625 
Q 19.53125 8.59375 24.796875 8.78125 
Q 30.078125 8.984375 33.203125 13.078125 
Q 36.328125 17.1875 35.9375 22.453125 
Q 35.546875 27.734375 31.828125 30.65625 
Q 28.125 33.59375 19.921875 34.765625 
L 19.921875 39.84375 
Q 28.125 40.625 31.828125 44.140625 
Q 35.546875 47.65625 35.15625 53.3125 
Q 34.765625 58.984375 30.078125 61.515625 
Q 25.390625 64.0625 20.109375 62.109375 
Q 14.84375 60.15625 11.71875 51.171875 
L 4.6875 52.34375 
Q 7.03125 59.375 11.125 64.0625 
Q 15.234375 68.75 22.265625 69.53125 
Q 29.296875 70.3125 34.5625 67.765625 
Q 39.84375 65.234375 41.984375 59.953125 
Q 44.140625 54.6875 42.578125 48.4375 
Q 41.015625 42.1875 33.59375 37.5 
Q 39.0625 35.15625 41.984375 30.46875 
Q 44.921875 25.78125 43.9375 18.15625 
Q 42.96875 10.546875 37.109375 5.859375 
Q 31.25 1.171875 23.828125 1.359375 
Q 16.40625 1.5625 10.9375 6.046875 
Q 5.46875 10.546875 3.90625 19.140625 
z
" id="SimHei-51"/>
       </defs>
       <use xlink:href="#SimHei-51"/>
       <use x="50" xlink:href="#SimHei-48"/>
       <use x="100" xlink:href="#SimHei-48"/>
       <use x="150" xlink:href="#SimHei-48"/>
      </g>
     </g>
    </g>
    <g id="ytick_7">
     <g id="line2d_27">
      <path clip-path="url(#p590bbd046f)" d="M 51.325 89.804484 
L 408.445 89.804484 
" style="fill:none;stroke:#b0b0b0;stroke-linecap:square;stroke-width:0.8;"/>
     </g>
     <g id="line2d_28">
      <g>
       <use style="stroke:#000000;stroke-width:0.8;" x="51.325" xlink:href="#m643d27e56d" y="89.804484"/>
      </g>
     </g>
     <g id="text_15">
      <!-- 4000 -->
      <g transform="translate(24.325 93.241984)scale(0.1 -0.1)">
       <use xlink:href="#SimHei-52"/>
       <use x="50" xlink:href="#SimHei-48"/>
       <use x="100" xlink:href="#SimHei-48"/>
       <use x="150" xlink:href="#SimHei-48"/>
      </g>
     </g>
    </g>
    <g id="ytick_8">
     <g id="line2d_29">
      <path clip-path="url(#p590bbd046f)" d="M 51.325 60.072816 
L 408.445 60.072816 
" style="fill:none;stroke:#b0b0b0;stroke-linecap:square;stroke-width:0.8;"/>
     </g>
     <g id="line2d_30">
      <g>
       <use style="stroke:#000000;stroke-width:0.8;" x="51.325" xlink:href="#m643d27e56d" y="60.072816"/>
      </g>
     </g>
     <g id="text_16">
      <!-- 5000 -->
      <g transform="translate(24.325 63.510316)scale(0.1 -0.1)">
       <defs>
        <path d="M 8.59375 20.703125 
Q 11.328125 10.15625 17.96875 8.984375 
Q 24.609375 7.8125 28.703125 10.34375 
Q 32.8125 12.890625 34.5625 16.984375 
Q 36.328125 21.09375 36.125 26.171875 
Q 35.9375 31.25 33.390625 34.765625 
Q 30.859375 38.28125 26.953125 39.453125 
Q 23.046875 40.625 18.15625 39.453125 
Q 13.28125 38.28125 10.15625 33.984375 
L 3.515625 34.765625 
Q 4.296875 37.109375 10.9375 68.359375 
L 41.796875 68.359375 
L 41.796875 61.328125 
L 16.796875 61.328125 
Q 14.84375 50.78125 12.890625 44.53125 
Q 18.75 47.265625 23.828125 47.0625 
Q 28.90625 46.875 33.59375 44.71875 
Q 38.28125 42.578125 40.421875 38.859375 
Q 42.578125 35.15625 43.546875 31.4375 
Q 44.53125 27.734375 44.328125 23.4375 
Q 44.140625 19.140625 42.578125 14.640625 
Q 41.015625 10.15625 37.890625 7.21875 
Q 34.765625 4.296875 30.265625 2.53125 
Q 25.78125 0.78125 19.921875 1.171875 
Q 14.0625 1.5625 8.78125 5.46875 
Q 3.515625 9.375 1.5625 18.75 
z
" id="SimHei-53"/>
       </defs>
       <use xlink:href="#SimHei-53"/>
       <use x="50" xlink:href="#SimHei-48"/>
       <use x="100" xlink:href="#SimHei-48"/>
       <use x="150" xlink:href="#SimHei-48"/>
      </g>
     </g>
    </g>
    <g id="ytick_9">
     <g id="line2d_31">
      <path clip-path="url(#p590bbd046f)" d="M 51.325 30.341148 
L 408.445 30.341148 
" style="fill:none;stroke:#b0b0b0;stroke-linecap:square;stroke-width:0.8;"/>
     </g>
     <g id="line2d_32">
      <g>
       <use style="stroke:#000000;stroke-width:0.8;" x="51.325" xlink:href="#m643d27e56d" y="30.341148"/>
      </g>
     </g>
     <g id="text_17">
      <!-- 6000 -->
      <g transform="translate(24.325 33.778648)scale(0.1 -0.1)">
       <use xlink:href="#SimHei-54"/>
       <use x="50" xlink:href="#SimHei-48"/>
       <use x="100" xlink:href="#SimHei-48"/>
       <use x="150" xlink:href="#SimHei-48"/>
      </g>
     </g>
    </g>
    <g id="text_18">
     <!-- F2 -->
     <g transform="translate(14.075 145.256)rotate(-90)scale(0.1 -0.1)">
      <use xlink:href="#SimHei-70"/>
      <use x="50" xlink:href="#SimHei-50"/>
     </g>
    </g>
   </g>
   <g id="line2d_33">
    <defs>
     <path d="M 0 1.5 
C 0.397805 1.5 0.77937 1.341951 1.06066 1.06066 
C 1.341951 0.77937 1.5 0.397805 1.5 0 
C 1.5 -0.397805 1.341951 -0.77937 1.06066 -1.06066 
C 0.77937 -1.341951 0.397805 -1.5 0 -1.5 
C -0.397805 -1.5 -0.77937 -1.341951 -1.06066 -1.06066 
C -1.341951 -0.77937 -1.5 -0.397805 -1.5 0 
C -1.5 0.397805 -1.341951 0.77937 -1.06066 1.06066 
C -0.77937 1.341951 -0.397805 1.5 0 1.5 
z
" id="m7e17a25be7" style="stroke:#4682b4;"/>
    </defs>
    <g clip-path="url(#p590bbd046f)">
     <use style="fill:#4682b4;stroke:#4682b4;" x="76.523278" xlink:href="#m7e17a25be7" y="39.213726"/>
     <use style="fill:#4682b4;stroke:#4682b4;" x="309.31343" xlink:href="#m7e17a25be7" y="252.166156"/>
     <use style="fill:#4682b4;stroke:#4682b4;" x="312.707142" xlink:href="#m7e17a25be7" y="252.889909"/>
     <use style="fill:#4682b4;stroke:#4682b4;" x="98.328848" xlink:href="#m7e17a25be7" y="80.07428"/>
     <use style="fill:#4682b4;stroke:#4682b4;" x="148.872988" xlink:href="#m7e17a25be7" y="153.091487"/>
     <use style="fill:#4682b4;stroke:#4682b4;" x="282.616402" xlink:href="#m7e17a25be7" y="244.382178"/>
     <use style="fill:#4682b4;stroke:#4682b4;" x="208.085239" xlink:href="#m7e17a25be7" y="203.414928"/>
     <use style="fill:#4682b4;stroke:#4682b4;" x="67.557727" xlink:href="#m7e17a25be7" y="19.296"/>
     <use style="fill:#4682b4;stroke:#4682b4;" x="233.010854" xlink:href="#m7e17a25be7" y="222.541894"/>
     <use style="fill:#4682b4;stroke:#4682b4;" x="321.74131" xlink:href="#m7e17a25be7" y="254.734934"/>
     <use style="fill:#4682b4;stroke:#4682b4;" x="82.356792" xlink:href="#m7e17a25be7" y="51.258246"/>
     <use style="fill:#4682b4;stroke:#4682b4;" x="326.183722" xlink:href="#m7e17a25be7" y="255.212185"/>
     <use style="fill:#4682b4;stroke:#4682b4;" x="74.516488" xlink:href="#m7e17a25be7" y="35.311831"/>
     <use style="fill:#4682b4;stroke:#4682b4;" x="125.155731" xlink:href="#m7e17a25be7" y="123.335187"/>
     <use style="fill:#4682b4;stroke:#4682b4;" x="105.708201" xlink:href="#m7e17a25be7" y="93.723283"/>
     <use style="fill:#4682b4;stroke:#4682b4;" x="82.882723" xlink:href="#m7e17a25be7" y="52.055722"/>
     <use style="fill:#4682b4;stroke:#4682b4;" x="156.131482" xlink:href="#m7e17a25be7" y="161.332212"/>
     <use style="fill:#4682b4;stroke:#4682b4;" x="139.213178" xlink:href="#m7e17a25be7" y="141.412934"/>
     <use style="fill:#4682b4;stroke:#4682b4;" x="118.741965" xlink:href="#m7e17a25be7" y="113.968289"/>
     <use style="fill:#4682b4;stroke:#4682b4;" x="254.742315" xlink:href="#m7e17a25be7" y="233.539141"/>
     <use style="fill:#4682b4;stroke:#4682b4;" x="96.43047" xlink:href="#m7e17a25be7" y="78.520118"/>
     <use style="fill:#4682b4;stroke:#4682b4;" x="147.804695" xlink:href="#m7e17a25be7" y="152.067267"/>
     <use style="fill:#4682b4;stroke:#4682b4;" x="93.620369" xlink:href="#m7e17a25be7" y="69.355125"/>
     <use style="fill:#4682b4;stroke:#4682b4;" x="216.615036" xlink:href="#m7e17a25be7" y="211.873997"/>
     <use style="fill:#4682b4;stroke:#4682b4;" x="103.521932" xlink:href="#m7e17a25be7" y="88.802994"/>
     <use style="fill:#4682b4;stroke:#4682b4;" x="248.180369" xlink:href="#m7e17a25be7" y="230.456983"/>
     <use style="fill:#4682b4;stroke:#4682b4;" x="252.290843" xlink:href="#m7e17a25be7" y="232.324714"/>
     <use style="fill:#4682b4;stroke:#4682b4;" x="266.69296" xlink:href="#m7e17a25be7" y="238.495917"/>
     <use style="fill:#4682b4;stroke:#4682b4;" x="90.875954" xlink:href="#m7e17a25be7" y="67.913961"/>
     <use style="fill:#4682b4;stroke:#4682b4;" x="136.781138" xlink:href="#m7e17a25be7" y="137.882847"/>
     <use style="fill:#4682b4;stroke:#4682b4;" x="355.001331" xlink:href="#m7e17a25be7" y="259.347547"/>
     <use style="fill:#4682b4;stroke:#4682b4;" x="226.324976" xlink:href="#m7e17a25be7" y="218.580687"/>
     <use style="fill:#4682b4;stroke:#4682b4;" x="392.212273" xlink:href="#m7e17a25be7" y="261.216"/>
     <use style="fill:#4682b4;stroke:#4682b4;" x="293.528809" xlink:href="#m7e17a25be7" y="247.832186"/>
     <use style="fill:#4682b4;stroke:#4682b4;" x="174.620948" xlink:href="#m7e17a25be7" y="179.468465"/>
     <use style="fill:#4682b4;stroke:#4682b4;" x="170.241792" xlink:href="#m7e17a25be7" y="174.04353"/>
     <use style="fill:#4682b4;stroke:#4682b4;" x="385.756569" xlink:href="#m7e17a25be7" y="260.875212"/>
     <use style="fill:#4682b4;stroke:#4682b4;" x="202.654986" xlink:href="#m7e17a25be7" y="201.915925"/>
     <use style="fill:#4682b4;stroke:#4682b4;" x="260.355835" xlink:href="#m7e17a25be7" y="236.020087"/>
     <use style="fill:#4682b4;stroke:#4682b4;" x="349.78571" xlink:href="#m7e17a25be7" y="258.987911"/>
     <use style="fill:#4682b4;stroke:#4682b4;" x="151.679421" xlink:href="#m7e17a25be7" y="156.067402"/>
     <use style="fill:#4682b4;stroke:#4682b4;" x="153.019444" xlink:href="#m7e17a25be7" y="157.943174"/>
     <use style="fill:#4682b4;stroke:#4682b4;" x="119.368376" xlink:href="#m7e17a25be7" y="115.168737"/>
     <use style="fill:#4682b4;stroke:#4682b4;" x="158.826205" xlink:href="#m7e17a25be7" y="162.734925"/>
     <use style="fill:#4682b4;stroke:#4682b4;" x="225.16968" xlink:href="#m7e17a25be7" y="217.054369"/>
     <use style="fill:#4682b4;stroke:#4682b4;" x="94.150481" xlink:href="#m7e17a25be7" y="70.699387"/>
     <use style="fill:#4682b4;stroke:#4682b4;" x="122.219151" xlink:href="#m7e17a25be7" y="117.860536"/>
     <use style="fill:#4682b4;stroke:#4682b4;" x="112.440072" xlink:href="#m7e17a25be7" y="103.887988"/>
     <use style="fill:#4682b4;stroke:#4682b4;" x="124.759513" xlink:href="#m7e17a25be7" y="120.632723"/>
     <use style="fill:#4682b4;stroke:#4682b4;" x="88.689679" xlink:href="#m7e17a25be7" y="62.262247"/>
     <use style="fill:#4682b4;stroke:#4682b4;" x="108.341556" xlink:href="#m7e17a25be7" y="94.612031"/>
     <use style="fill:#4682b4;stroke:#4682b4;" x="343.89999" xlink:href="#m7e17a25be7" y="258.065931"/>
     <use style="fill:#4682b4;stroke:#4682b4;" x="305.126688" xlink:href="#m7e17a25be7" y="251.07488"/>
     <use style="fill:#4682b4;stroke:#4682b4;" x="89.419767" xlink:href="#m7e17a25be7" y="65.650346"/>
     <use style="fill:#4682b4;stroke:#4682b4;" x="127.666063" xlink:href="#m7e17a25be7" y="126.516941"/>
     <use style="fill:#4682b4;stroke:#4682b4;" x="369.769205" xlink:href="#m7e17a25be7" y="260.703412"/>
     <use style="fill:#4682b4;stroke:#4682b4;" x="95.018384" xlink:href="#m7e17a25be7" y="73.867751"/>
     <use style="fill:#4682b4;stroke:#4682b4;" x="271.126493" xlink:href="#m7e17a25be7" y="240.317192"/>
     <use style="fill:#4682b4;stroke:#4682b4;" x="133.031425" xlink:href="#m7e17a25be7" y="133.752632"/>
     <use style="fill:#4682b4;stroke:#4682b4;" x="69.650169" xlink:href="#m7e17a25be7" y="23.926165"/>
     <use style="fill:#4682b4;stroke:#4682b4;" x="161.60853" xlink:href="#m7e17a25be7" y="167.091459"/>
     <use style="fill:#4682b4;stroke:#4682b4;" x="336.779898" xlink:href="#m7e17a25be7" y="257.319192"/>
     <use style="fill:#4682b4;stroke:#4682b4;" x="215.320281" xlink:href="#m7e17a25be7" y="211.247318"/>
     <use style="fill:#4682b4;stroke:#4682b4;" x="168.132887" xlink:href="#m7e17a25be7" y="172.047275"/>
     <use style="fill:#4682b4;stroke:#4682b4;" x="178.389346" xlink:href="#m7e17a25be7" y="183.213607"/>
     <use style="fill:#4682b4;stroke:#4682b4;" x="287.357878" xlink:href="#m7e17a25be7" y="246.008218"/>
     <use style="fill:#4682b4;stroke:#4682b4;" x="72.328596" xlink:href="#m7e17a25be7" y="30.534472"/>
     <use style="fill:#4682b4;stroke:#4682b4;" x="135.633566" xlink:href="#m7e17a25be7" y="136.721193"/>
     <use style="fill:#4682b4;stroke:#4682b4;" x="188.969634" xlink:href="#m7e17a25be7" y="189.343779"/>
     <use style="fill:#4682b4;stroke:#4682b4;" x="182.472955" xlink:href="#m7e17a25be7" y="186.13835"/>
     <use style="fill:#4682b4;stroke:#4682b4;" x="236.140065" xlink:href="#m7e17a25be7" y="223.883217"/>
     <use style="fill:#4682b4;stroke:#4682b4;" x="71.038332" xlink:href="#m7e17a25be7" y="26.685189"/>
     <use style="fill:#4682b4;stroke:#4682b4;" x="142.287961" xlink:href="#m7e17a25be7" y="145.358201"/>
     <use style="fill:#4682b4;stroke:#4682b4;" x="192.399202" xlink:href="#m7e17a25be7" y="193.713608"/>
     <use style="fill:#4682b4;stroke:#4682b4;" x="330.558104" xlink:href="#m7e17a25be7" y="256.456605"/>
     <use style="fill:#4682b4;stroke:#4682b4;" x="116.360225" xlink:href="#m7e17a25be7" y="108.197234"/>
     <use style="fill:#4682b4;stroke:#4682b4;" x="363.18969" xlink:href="#m7e17a25be7" y="260.244017"/>
     <use style="fill:#4682b4;stroke:#4682b4;" x="193.920638" xlink:href="#m7e17a25be7" y="194.536176"/>
     <use style="fill:#4682b4;stroke:#4682b4;" x="240.145114" xlink:href="#m7e17a25be7" y="226.124846"/>
     <use style="fill:#4682b4;stroke:#4682b4;" x="243.278638" xlink:href="#m7e17a25be7" y="227.747829"/>
     <use style="fill:#4682b4;stroke:#4682b4;" x="86.540429" xlink:href="#m7e17a25be7" y="57.959544"/>
     <use style="fill:#4682b4;stroke:#4682b4;" x="288.854216" xlink:href="#m7e17a25be7" y="246.410344"/>
     <use style="fill:#4682b4;stroke:#4682b4;" x="140.262578" xlink:href="#m7e17a25be7" y="142.481002"/>
     <use style="fill:#4682b4;stroke:#4682b4;" x="212.600424" xlink:href="#m7e17a25be7" y="208.189894"/>
     <use style="fill:#4682b4;stroke:#4682b4;" x="372.821075" xlink:href="#m7e17a25be7" y="260.795776"/>
     <use style="fill:#4682b4;stroke:#4682b4;" x="79.660382" xlink:href="#m7e17a25be7" y="45.358548"/>
     <use style="fill:#4682b4;stroke:#4682b4;" x="99.627396" xlink:href="#m7e17a25be7" y="83.116346"/>
     <use style="fill:#4682b4;stroke:#4682b4;" x="319.633144" xlink:href="#m7e17a25be7" y="253.452656"/>
     <use style="fill:#4682b4;stroke:#4682b4;" x="111.152947" xlink:href="#m7e17a25be7" y="99.864706"/>
     <use style="fill:#4682b4;stroke:#4682b4;" x="184.982963" xlink:href="#m7e17a25be7" y="188.533177"/>
     <use style="fill:#4682b4;stroke:#4682b4;" x="298.296117" xlink:href="#m7e17a25be7" y="248.125522"/>
     <use style="fill:#4682b4;stroke:#4682b4;" x="221.063823" xlink:href="#m7e17a25be7" y="215.373109"/>
     <use style="fill:#4682b4;stroke:#4682b4;" x="208.645873" xlink:href="#m7e17a25be7" y="207.067924"/>
     <use style="fill:#4682b4;stroke:#4682b4;" x="144.493872" xlink:href="#m7e17a25be7" y="148.412657"/>
     <use style="fill:#4682b4;stroke:#4682b4;" x="279.011365" xlink:href="#m7e17a25be7" y="243.213925"/>
     <use style="fill:#4682b4;stroke:#4682b4;" x="164.100051" xlink:href="#m7e17a25be7" y="169.627302"/>
     <use style="fill:#4682b4;stroke:#4682b4;" x="129.879715" xlink:href="#m7e17a25be7" y="129.593268"/>
     <use style="fill:#4682b4;stroke:#4682b4;" x="189.059509" xlink:href="#m7e17a25be7" y="191.810833"/>
     <use style="fill:#4682b4;stroke:#4682b4;" x="265.755282" xlink:href="#m7e17a25be7" y="238.195702"/>
     <use style="fill:#4682b4;stroke:#4682b4;" x="76.099311" xlink:href="#m7e17a25be7" y="37.838945"/>
    </g>
   </g>
   <g id="patch_3">
    <path d="M 51.325 273.312 
L 51.325 7.2 
" style="fill:none;stroke:#000000;stroke-linecap:square;stroke-linejoin:miter;stroke-width:0.8;"/>
   </g>
   <g id="patch_4">
    <path d="M 408.445 273.312 
L 408.445 7.2 
" style="fill:none;stroke:#000000;stroke-linecap:square;stroke-linejoin:miter;stroke-width:0.8;"/>
   </g>
   <g id="patch_5">
    <path d="M 51.325 273.312 
L 408.445 273.312 
" style="fill:none;stroke:#000000;stroke-linecap:square;stroke-linejoin:miter;stroke-width:0.8;"/>
   </g>
   <g id="patch_6">
    <path d="M 51.325 7.2 
L 408.445 7.2 
" style="fill:none;stroke:#000000;stroke-linecap:square;stroke-linejoin:miter;stroke-width:0.8;"/>
   </g>
   <g id="legend_1">
    <g id="patch_7">
     <path d="M 309.445 28.45 
L 401.445 28.45 
Q 403.445 28.45 403.445 26.45 
L 403.445 14.2 
Q 403.445 12.2 401.445 12.2 
L 309.445 12.2 
Q 307.445 12.2 307.445 14.2 
L 307.445 26.45 
Q 307.445 28.45 309.445 28.45 
z
" style="fill:#ffffff;opacity:0.8;stroke:#cccccc;stroke-linejoin:miter;"/>
    </g>
    <g id="line2d_34"/>
    <g id="line2d_35">
     <g>
      <use style="fill:#4682b4;stroke:#4682b4;" x="321.445" xlink:href="#m7e17a25be7" y="19.7"/>
     </g>
    </g>
    <g id="text_19">
     <!-- Pareto Front -->
     <g transform="translate(339.445 23.2)scale(0.1 -0.1)">
      <defs>
       <path d="M 46.09375 48.4375 
Q 46.09375 39.0625 40.625 33.59375 
Q 35.15625 28.125 25.390625 28.125 
L 14.0625 28.125 
L 14.0625 1.953125 
L 5.078125 1.953125 
L 5.078125 68.75 
L 25.390625 68.75 
Q 35.15625 68.75 40.625 63.28125 
Q 46.09375 57.8125 46.09375 48.4375 
z
M 37.109375 48.4375 
Q 37.109375 55.859375 33.59375 58.59375 
Q 30.078125 61.328125 23.046875 61.328125 
L 14.0625 61.328125 
L 14.0625 35.546875 
L 23.046875 35.546875 
Q 30.078125 35.546875 33.59375 38.28125 
Q 37.109375 41.015625 37.109375 48.4375 
z
" id="SimHei-80"/>
       <path d="M 44.921875 1.953125 
L 35.546875 1.953125 
Q 34.765625 2.734375 34.375 4.09375 
Q 33.984375 5.46875 33.984375 7.421875 
Q 31.25 4.296875 27.34375 2.734375 
Q 23.4375 1.171875 19.140625 1.171875 
Q 12.890625 1.171875 8.59375 4.296875 
Q 4.296875 7.421875 4.296875 13.28125 
Q 4.296875 19.140625 8.203125 22.65625 
Q 12.109375 26.171875 20.3125 27.34375 
Q 25.78125 28.125 29.875 29.296875 
Q 33.984375 30.46875 33.984375 32.421875 
Q 33.984375 34.765625 32.21875 37.109375 
Q 30.46875 39.453125 24.609375 39.453125 
Q 19.921875 39.453125 17.765625 37.6875 
Q 15.625 35.9375 14.84375 32.8125 
L 6.25 32.8125 
Q 7.03125 39.0625 11.90625 42.765625 
Q 16.796875 46.484375 24.609375 46.484375 
Q 33.203125 46.484375 37.5 42.578125 
Q 41.796875 38.671875 41.796875 31.640625 
L 41.796875 10.15625 
Q 41.796875 7.8125 42.578125 5.859375 
Q 43.359375 3.90625 44.921875 1.953125 
z
M 33.984375 16.40625 
L 33.984375 24.21875 
Q 31.640625 23.4375 29.484375 22.84375 
Q 27.34375 22.265625 22.265625 21.484375 
Q 16.40625 20.703125 14.640625 18.75 
Q 12.890625 16.796875 12.890625 14.0625 
Q 12.890625 11.71875 14.640625 9.953125 
Q 16.40625 8.203125 19.921875 8.203125 
Q 23.4375 8.203125 27.53125 10.15625 
Q 31.640625 12.109375 33.984375 16.40625 
z
" id="SimHei-97"/>
       <path d="M 39.0625 37.890625 
Q 31.640625 39.0625 26.5625 35.734375 
Q 21.484375 32.421875 17.96875 24.21875 
L 17.96875 1.953125 
L 10.15625 1.953125 
L 10.15625 45.703125 
L 17.96875 45.703125 
L 17.96875 34.375 
Q 21.484375 40.625 26.75 43.546875 
Q 32.03125 46.484375 39.0625 46.484375 
z
" id="SimHei-114"/>
       <path d="M 44.53125 16.796875 
Q 43.75 9.765625 38.28125 5.46875 
Q 32.8125 1.171875 25.390625 1.171875 
Q 16.015625 1.171875 9.953125 7.21875 
Q 3.90625 13.28125 3.90625 23.828125 
Q 3.90625 34.375 9.953125 40.421875 
Q 16.015625 46.484375 25.390625 46.484375 
Q 33.59375 46.484375 38.859375 41.203125 
Q 44.140625 35.9375 44.140625 23.828125 
L 12.5 23.828125 
Q 12.5 15.234375 16.203125 11.71875 
Q 19.921875 8.203125 25.390625 8.203125 
Q 29.6875 8.203125 32.421875 10.34375 
Q 35.15625 12.5 35.9375 16.796875 
z
M 35.15625 30.078125 
Q 34.375 35.546875 31.640625 37.6875 
Q 28.90625 39.84375 24.609375 39.84375 
Q 20.703125 39.84375 17.578125 37.6875 
Q 14.453125 35.546875 12.890625 30.078125 
z
" id="SimHei-101"/>
       <path d="M 42.96875 3.125 
Q 41.015625 2.34375 38.46875 1.75 
Q 35.9375 1.171875 31.640625 1.171875 
Q 24.609375 1.171875 20.3125 5.078125 
Q 16.015625 8.984375 16.015625 16.015625 
L 16.015625 39.453125 
L 2.734375 39.453125 
L 2.734375 45.703125 
L 16.015625 45.703125 
L 16.015625 60.9375 
L 23.828125 60.9375 
L 23.828125 45.703125 
L 39.84375 45.703125 
L 39.84375 39.453125 
L 23.828125 39.453125 
L 23.828125 15.625 
Q 23.828125 12.5 25.390625 10.34375 
Q 26.953125 8.203125 31.25 8.203125 
Q 35.546875 8.203125 38.28125 8.984375 
Q 41.015625 9.765625 42.96875 10.9375 
z
" id="SimHei-116"/>
       <path d="M 45.703125 23.828125 
Q 45.703125 13.671875 39.453125 7.421875 
Q 33.203125 1.171875 24.609375 1.171875 
Q 16.015625 1.171875 9.765625 7.421875 
Q 3.515625 13.671875 3.515625 23.828125 
Q 3.515625 33.984375 9.765625 40.234375 
Q 16.015625 46.484375 24.609375 46.484375 
Q 33.203125 46.484375 39.453125 40.234375 
Q 45.703125 33.984375 45.703125 23.828125 
z
M 37.109375 23.828125 
Q 37.109375 31.640625 33.203125 35.546875 
Q 29.296875 39.453125 24.609375 39.453125 
Q 19.921875 39.453125 16.015625 35.546875 
Q 12.109375 31.640625 12.109375 23.828125 
Q 12.109375 16.015625 16.015625 12.109375 
Q 19.921875 8.203125 24.609375 8.203125 
Q 29.296875 8.203125 33.203125 12.109375 
Q 37.109375 16.015625 37.109375 23.828125 
z
" id="SimHei-111"/>
       <path id="SimHei-32"/>
       <path d="M 43.75 1.953125 
L 35.9375 1.953125 
L 35.9375 30.078125 
Q 35.9375 34.765625 33.59375 37.5 
Q 31.25 40.234375 27.34375 40.234375 
Q 22.265625 40.234375 17.765625 34.953125 
Q 13.28125 29.6875 13.28125 21.875 
L 13.28125 1.953125 
L 5.46875 1.953125 
L 5.46875 45.703125 
L 13.28125 45.703125 
L 13.28125 37.5 
Q 16.40625 41.796875 20.109375 44.140625 
Q 23.828125 46.484375 29.6875 46.484375 
Q 36.71875 46.484375 40.234375 42.578125 
Q 43.75 38.671875 43.75 32.8125 
z
" id="SimHei-110"/>
      </defs>
      <use xlink:href="#SimHei-80"/>
      <use x="50" xlink:href="#SimHei-97"/>
      <use x="100" xlink:href="#SimHei-114"/>
      <use x="150" xlink:href="#SimHei-101"/>
      <use x="200" xlink:href="#SimHei-116"/>
      <use x="250" xlink:href="#SimHei-111"/>
      <use x="300" xlink:href="#SimHei-32"/>
      <use x="350" xlink:href="#SimHei-70"/>
      <use x="400" xlink:href="#SimHei-114"/>
      <use x="450" xlink:href="#SimHei-111"/>
      <use x="500" xlink:href="#SimHei-110"/>
      <use x="550" xlink:href="#SimHei-116"/>
     </g>
    </g>
   </g>
  </g>
 </g>
 <defs>
  <clipPath id="p590bbd046f">
   <rect height="266.112" width="357.12" x="51.325" y="7.2"/>
  </clipPath>
 </defs>
</svg>
