<?xml version="1.0" encoding="utf-8" standalone="no"?>
<!DOCTYPE svg PUBLIC "-//W3C//DTD SVG 1.1//EN"
  "http://www.w3.org/Graphics/SVG/1.1/DTD/svg11.dtd">
<svg height="325.986375pt" version="1.1" viewBox="0 0 417.648125 325.986375" width="417.648125pt" xmlns="http://www.w3.org/2000/svg" xmlns:xlink="http://www.w3.org/1999/xlink">
 <metadata>
  <rdf:RDF xmlns:cc="http://creativecommons.org/ns#" xmlns:dc="http://purl.org/dc/elements/1.1/" xmlns:rdf="http://www.w3.org/1999/02/22-rdf-syntax-ns#">
   <cc:Work>
    <dc:type rdf:resource="http://purl.org/dc/dcmitype/StillImage"/>
    <dc:date>2022-05-30T19:15:39.719377</dc:date>
    <dc:format>image/svg+xml</dc:format>
    <dc:creator>
     <cc:Agent>
      <dc:title>Matplotlib v3.4.2, https://matplotlib.org/</dc:title>
     </cc:Agent>
    </dc:creator>
   </cc:Work>
  </rdf:RDF>
 </metadata>
 <defs>
  <style type="text/css">*{stroke-linecap:butt;stroke-linejoin:round;}</style>
 </defs>
 <g id="figure_1">
  <g id="patch_1">
   <path d="M 0 325.986375 
L 417.648125 325.986375 
L 417.648125 0 
L 0 0 
z
" style="fill:#ffffff;"/>
  </g>
  <g id="axes_1">
   <g id="patch_2">
    <path d="M 53.328125 288.430125 
L 410.448125 288.430125 
L 410.448125 22.318125 
L 53.328125 22.318125 
z
" style="fill:#ffffff;"/>
   </g>
   <g id="matplotlib.axis_1">
    <g id="xtick_1">
     <g id="line2d_1">
      <path clip-path="url(#p5c4619d6be)" d="M 54.878949 288.430125 
L 54.878949 22.318125 
" style="fill:none;stroke:#b0b0b0;stroke-linecap:square;stroke-width:0.8;"/>
     </g>
     <g id="line2d_2">
      <defs>
       <path d="M 0 0 
L 0 3.5 
" id="mb22f3f7df9" style="stroke:#000000;stroke-width:0.8;"/>
      </defs>
      <g>
       <use style="stroke:#000000;stroke-width:0.8;" x="54.878949" xlink:href="#mb22f3f7df9" y="288.430125"/>
      </g>
     </g>
     <g id="text_1">
      <!-- 0.7 -->
      <g transform="translate(46.927386 303.028562)scale(0.1 -0.1)">
       <defs>
        <path d="M 2034 4250 
Q 1547 4250 1301 3770 
Q 1056 3291 1056 2328 
Q 1056 1369 1301 889 
Q 1547 409 2034 409 
Q 2525 409 2770 889 
Q 3016 1369 3016 2328 
Q 3016 3291 2770 3770 
Q 2525 4250 2034 4250 
z
M 2034 4750 
Q 2819 4750 3233 4129 
Q 3647 3509 3647 2328 
Q 3647 1150 3233 529 
Q 2819 -91 2034 -91 
Q 1250 -91 836 529 
Q 422 1150 422 2328 
Q 422 3509 836 4129 
Q 1250 4750 2034 4750 
z
" id="DejaVuSans-30" transform="scale(0.015625)"/>
        <path d="M 684 794 
L 1344 794 
L 1344 0 
L 684 0 
L 684 794 
z
" id="DejaVuSans-2e" transform="scale(0.015625)"/>
        <path d="M 525 4666 
L 3525 4666 
L 3525 4397 
L 1831 0 
L 1172 0 
L 2766 4134 
L 525 4134 
L 525 4666 
z
" id="DejaVuSans-37" transform="scale(0.015625)"/>
       </defs>
       <use xlink:href="#DejaVuSans-30"/>
       <use x="63.623047" xlink:href="#DejaVuSans-2e"/>
       <use x="95.410156" xlink:href="#DejaVuSans-37"/>
      </g>
     </g>
    </g>
    <g id="xtick_2">
     <g id="line2d_3">
      <path clip-path="url(#p5c4619d6be)" d="M 97.189766 288.430125 
L 97.189766 22.318125 
" style="fill:none;stroke:#b0b0b0;stroke-linecap:square;stroke-width:0.8;"/>
     </g>
     <g id="line2d_4">
      <g>
       <use style="stroke:#000000;stroke-width:0.8;" x="97.189766" xlink:href="#mb22f3f7df9" y="288.430125"/>
      </g>
     </g>
     <g id="text_2">
      <!-- 0.8 -->
      <g transform="translate(89.238203 303.028562)scale(0.1 -0.1)">
       <defs>
        <path d="M 2034 2216 
Q 1584 2216 1326 1975 
Q 1069 1734 1069 1313 
Q 1069 891 1326 650 
Q 1584 409 2034 409 
Q 2484 409 2743 651 
Q 3003 894 3003 1313 
Q 3003 1734 2745 1975 
Q 2488 2216 2034 2216 
z
M 1403 2484 
Q 997 2584 770 2862 
Q 544 3141 544 3541 
Q 544 4100 942 4425 
Q 1341 4750 2034 4750 
Q 2731 4750 3128 4425 
Q 3525 4100 3525 3541 
Q 3525 3141 3298 2862 
Q 3072 2584 2669 2484 
Q 3125 2378 3379 2068 
Q 3634 1759 3634 1313 
Q 3634 634 3220 271 
Q 2806 -91 2034 -91 
Q 1263 -91 848 271 
Q 434 634 434 1313 
Q 434 1759 690 2068 
Q 947 2378 1403 2484 
z
M 1172 3481 
Q 1172 3119 1398 2916 
Q 1625 2713 2034 2713 
Q 2441 2713 2670 2916 
Q 2900 3119 2900 3481 
Q 2900 3844 2670 4047 
Q 2441 4250 2034 4250 
Q 1625 4250 1398 4047 
Q 1172 3844 1172 3481 
z
" id="DejaVuSans-38" transform="scale(0.015625)"/>
       </defs>
       <use xlink:href="#DejaVuSans-30"/>
       <use x="63.623047" xlink:href="#DejaVuSans-2e"/>
       <use x="95.410156" xlink:href="#DejaVuSans-38"/>
      </g>
     </g>
    </g>
    <g id="xtick_3">
     <g id="line2d_5">
      <path clip-path="url(#p5c4619d6be)" d="M 139.500583 288.430125 
L 139.500583 22.318125 
" style="fill:none;stroke:#b0b0b0;stroke-linecap:square;stroke-width:0.8;"/>
     </g>
     <g id="line2d_6">
      <g>
       <use style="stroke:#000000;stroke-width:0.8;" x="139.500583" xlink:href="#mb22f3f7df9" y="288.430125"/>
      </g>
     </g>
     <g id="text_3">
      <!-- 0.9 -->
      <g transform="translate(131.549021 303.028562)scale(0.1 -0.1)">
       <defs>
        <path d="M 703 97 
L 703 672 
Q 941 559 1184 500 
Q 1428 441 1663 441 
Q 2288 441 2617 861 
Q 2947 1281 2994 2138 
Q 2813 1869 2534 1725 
Q 2256 1581 1919 1581 
Q 1219 1581 811 2004 
Q 403 2428 403 3163 
Q 403 3881 828 4315 
Q 1253 4750 1959 4750 
Q 2769 4750 3195 4129 
Q 3622 3509 3622 2328 
Q 3622 1225 3098 567 
Q 2575 -91 1691 -91 
Q 1453 -91 1209 -44 
Q 966 3 703 97 
z
M 1959 2075 
Q 2384 2075 2632 2365 
Q 2881 2656 2881 3163 
Q 2881 3666 2632 3958 
Q 2384 4250 1959 4250 
Q 1534 4250 1286 3958 
Q 1038 3666 1038 3163 
Q 1038 2656 1286 2365 
Q 1534 2075 1959 2075 
z
" id="DejaVuSans-39" transform="scale(0.015625)"/>
       </defs>
       <use xlink:href="#DejaVuSans-30"/>
       <use x="63.623047" xlink:href="#DejaVuSans-2e"/>
       <use x="95.410156" xlink:href="#DejaVuSans-39"/>
      </g>
     </g>
    </g>
    <g id="xtick_4">
     <g id="line2d_7">
      <path clip-path="url(#p5c4619d6be)" d="M 181.811401 288.430125 
L 181.811401 22.318125 
" style="fill:none;stroke:#b0b0b0;stroke-linecap:square;stroke-width:0.8;"/>
     </g>
     <g id="line2d_8">
      <g>
       <use style="stroke:#000000;stroke-width:0.8;" x="181.811401" xlink:href="#mb22f3f7df9" y="288.430125"/>
      </g>
     </g>
     <g id="text_4">
      <!-- 1.0 -->
      <g transform="translate(173.859838 303.028562)scale(0.1 -0.1)">
       <defs>
        <path d="M 794 531 
L 1825 531 
L 1825 4091 
L 703 3866 
L 703 4441 
L 1819 4666 
L 2450 4666 
L 2450 531 
L 3481 531 
L 3481 0 
L 794 0 
L 794 531 
z
" id="DejaVuSans-31" transform="scale(0.015625)"/>
       </defs>
       <use xlink:href="#DejaVuSans-31"/>
       <use x="63.623047" xlink:href="#DejaVuSans-2e"/>
       <use x="95.410156" xlink:href="#DejaVuSans-30"/>
      </g>
     </g>
    </g>
    <g id="xtick_5">
     <g id="line2d_9">
      <path clip-path="url(#p5c4619d6be)" d="M 224.122218 288.430125 
L 224.122218 22.318125 
" style="fill:none;stroke:#b0b0b0;stroke-linecap:square;stroke-width:0.8;"/>
     </g>
     <g id="line2d_10">
      <g>
       <use style="stroke:#000000;stroke-width:0.8;" x="224.122218" xlink:href="#mb22f3f7df9" y="288.430125"/>
      </g>
     </g>
     <g id="text_5">
      <!-- 1.1 -->
      <g transform="translate(216.170655 303.028562)scale(0.1 -0.1)">
       <use xlink:href="#DejaVuSans-31"/>
       <use x="63.623047" xlink:href="#DejaVuSans-2e"/>
       <use x="95.410156" xlink:href="#DejaVuSans-31"/>
      </g>
     </g>
    </g>
    <g id="xtick_6">
     <g id="line2d_11">
      <path clip-path="url(#p5c4619d6be)" d="M 266.433035 288.430125 
L 266.433035 22.318125 
" style="fill:none;stroke:#b0b0b0;stroke-linecap:square;stroke-width:0.8;"/>
     </g>
     <g id="line2d_12">
      <g>
       <use style="stroke:#000000;stroke-width:0.8;" x="266.433035" xlink:href="#mb22f3f7df9" y="288.430125"/>
      </g>
     </g>
     <g id="text_6">
      <!-- 1.2 -->
      <g transform="translate(258.481473 303.028562)scale(0.1 -0.1)">
       <defs>
        <path d="M 1228 531 
L 3431 531 
L 3431 0 
L 469 0 
L 469 531 
Q 828 903 1448 1529 
Q 2069 2156 2228 2338 
Q 2531 2678 2651 2914 
Q 2772 3150 2772 3378 
Q 2772 3750 2511 3984 
Q 2250 4219 1831 4219 
Q 1534 4219 1204 4116 
Q 875 4013 500 3803 
L 500 4441 
Q 881 4594 1212 4672 
Q 1544 4750 1819 4750 
Q 2544 4750 2975 4387 
Q 3406 4025 3406 3419 
Q 3406 3131 3298 2873 
Q 3191 2616 2906 2266 
Q 2828 2175 2409 1742 
Q 1991 1309 1228 531 
z
" id="DejaVuSans-32" transform="scale(0.015625)"/>
       </defs>
       <use xlink:href="#DejaVuSans-31"/>
       <use x="63.623047" xlink:href="#DejaVuSans-2e"/>
       <use x="95.410156" xlink:href="#DejaVuSans-32"/>
      </g>
     </g>
    </g>
    <g id="xtick_7">
     <g id="line2d_13">
      <path clip-path="url(#p5c4619d6be)" d="M 308.743852 288.430125 
L 308.743852 22.318125 
" style="fill:none;stroke:#b0b0b0;stroke-linecap:square;stroke-width:0.8;"/>
     </g>
     <g id="line2d_14">
      <g>
       <use style="stroke:#000000;stroke-width:0.8;" x="308.743852" xlink:href="#mb22f3f7df9" y="288.430125"/>
      </g>
     </g>
     <g id="text_7">
      <!-- 1.3 -->
      <g transform="translate(300.79229 303.028562)scale(0.1 -0.1)">
       <defs>
        <path d="M 2597 2516 
Q 3050 2419 3304 2112 
Q 3559 1806 3559 1356 
Q 3559 666 3084 287 
Q 2609 -91 1734 -91 
Q 1441 -91 1130 -33 
Q 819 25 488 141 
L 488 750 
Q 750 597 1062 519 
Q 1375 441 1716 441 
Q 2309 441 2620 675 
Q 2931 909 2931 1356 
Q 2931 1769 2642 2001 
Q 2353 2234 1838 2234 
L 1294 2234 
L 1294 2753 
L 1863 2753 
Q 2328 2753 2575 2939 
Q 2822 3125 2822 3475 
Q 2822 3834 2567 4026 
Q 2313 4219 1838 4219 
Q 1578 4219 1281 4162 
Q 984 4106 628 3988 
L 628 4550 
Q 988 4650 1302 4700 
Q 1616 4750 1894 4750 
Q 2613 4750 3031 4423 
Q 3450 4097 3450 3541 
Q 3450 3153 3228 2886 
Q 3006 2619 2597 2516 
z
" id="DejaVuSans-33" transform="scale(0.015625)"/>
       </defs>
       <use xlink:href="#DejaVuSans-31"/>
       <use x="63.623047" xlink:href="#DejaVuSans-2e"/>
       <use x="95.410156" xlink:href="#DejaVuSans-33"/>
      </g>
     </g>
    </g>
    <g id="xtick_8">
     <g id="line2d_15">
      <path clip-path="url(#p5c4619d6be)" d="M 351.05467 288.430125 
L 351.05467 22.318125 
" style="fill:none;stroke:#b0b0b0;stroke-linecap:square;stroke-width:0.8;"/>
     </g>
     <g id="line2d_16">
      <g>
       <use style="stroke:#000000;stroke-width:0.8;" x="351.05467" xlink:href="#mb22f3f7df9" y="288.430125"/>
      </g>
     </g>
     <g id="text_8">
      <!-- 1.4 -->
      <g transform="translate(343.103107 303.028562)scale(0.1 -0.1)">
       <defs>
        <path d="M 2419 4116 
L 825 1625 
L 2419 1625 
L 2419 4116 
z
M 2253 4666 
L 3047 4666 
L 3047 1625 
L 3713 1625 
L 3713 1100 
L 3047 1100 
L 3047 0 
L 2419 0 
L 2419 1100 
L 313 1100 
L 313 1709 
L 2253 4666 
z
" id="DejaVuSans-34" transform="scale(0.015625)"/>
       </defs>
       <use xlink:href="#DejaVuSans-31"/>
       <use x="63.623047" xlink:href="#DejaVuSans-2e"/>
       <use x="95.410156" xlink:href="#DejaVuSans-34"/>
      </g>
     </g>
    </g>
    <g id="xtick_9">
     <g id="line2d_17">
      <path clip-path="url(#p5c4619d6be)" d="M 393.365487 288.430125 
L 393.365487 22.318125 
" style="fill:none;stroke:#b0b0b0;stroke-linecap:square;stroke-width:0.8;"/>
     </g>
     <g id="line2d_18">
      <g>
       <use style="stroke:#000000;stroke-width:0.8;" x="393.365487" xlink:href="#mb22f3f7df9" y="288.430125"/>
      </g>
     </g>
     <g id="text_9">
      <!-- 1.5 -->
      <g transform="translate(385.413924 303.028562)scale(0.1 -0.1)">
       <defs>
        <path d="M 691 4666 
L 3169 4666 
L 3169 4134 
L 1269 4134 
L 1269 2991 
Q 1406 3038 1543 3061 
Q 1681 3084 1819 3084 
Q 2600 3084 3056 2656 
Q 3513 2228 3513 1497 
Q 3513 744 3044 326 
Q 2575 -91 1722 -91 
Q 1428 -91 1123 -41 
Q 819 9 494 109 
L 494 744 
Q 775 591 1075 516 
Q 1375 441 1709 441 
Q 2250 441 2565 725 
Q 2881 1009 2881 1497 
Q 2881 1984 2565 2268 
Q 2250 2553 1709 2553 
Q 1456 2553 1204 2497 
Q 953 2441 691 2322 
L 691 4666 
z
" id="DejaVuSans-35" transform="scale(0.015625)"/>
       </defs>
       <use xlink:href="#DejaVuSans-31"/>
       <use x="63.623047" xlink:href="#DejaVuSans-2e"/>
       <use x="95.410156" xlink:href="#DejaVuSans-35"/>
      </g>
     </g>
    </g>
    <g id="text_10">
     <!-- F1 -->
     <g transform="translate(225.831094 316.706687)scale(0.1 -0.1)">
      <defs>
       <path d="M 628 4666 
L 3309 4666 
L 3309 4134 
L 1259 4134 
L 1259 2759 
L 3109 2759 
L 3109 2228 
L 1259 2228 
L 1259 0 
L 628 0 
L 628 4666 
z
" id="DejaVuSans-46" transform="scale(0.015625)"/>
      </defs>
      <use xlink:href="#DejaVuSans-46"/>
      <use x="57.519531" xlink:href="#DejaVuSans-31"/>
     </g>
    </g>
    <g id="text_11">
     <!-- 1e9 -->
     <g transform="translate(391.57 315.706687)scale(0.1 -0.1)">
      <defs>
       <path d="M 3597 1894 
L 3597 1613 
L 953 1613 
Q 991 1019 1311 708 
Q 1631 397 2203 397 
Q 2534 397 2845 478 
Q 3156 559 3463 722 
L 3463 178 
Q 3153 47 2828 -22 
Q 2503 -91 2169 -91 
Q 1331 -91 842 396 
Q 353 884 353 1716 
Q 353 2575 817 3079 
Q 1281 3584 2069 3584 
Q 2775 3584 3186 3129 
Q 3597 2675 3597 1894 
z
M 3022 2063 
Q 3016 2534 2758 2815 
Q 2500 3097 2075 3097 
Q 1594 3097 1305 2825 
Q 1016 2553 972 2059 
L 3022 2063 
z
" id="DejaVuSans-65" transform="scale(0.015625)"/>
      </defs>
      <use xlink:href="#DejaVuSans-31"/>
      <use x="63.623047" xlink:href="#DejaVuSans-65"/>
      <use x="125.146484" xlink:href="#DejaVuSans-39"/>
     </g>
    </g>
   </g>
   <g id="matplotlib.axis_2">
    <g id="ytick_1">
     <g id="line2d_19">
      <path clip-path="url(#p5c4619d6be)" d="M 53.328125 274.325842 
L 410.448125 274.325842 
" style="fill:none;stroke:#b0b0b0;stroke-linecap:square;stroke-width:0.8;"/>
     </g>
     <g id="line2d_20">
      <defs>
       <path d="M 0 0 
L -3.5 0 
" id="ma0e75abc46" style="stroke:#000000;stroke-width:0.8;"/>
      </defs>
      <g>
       <use style="stroke:#000000;stroke-width:0.8;" x="53.328125" xlink:href="#ma0e75abc46" y="274.325842"/>
      </g>
     </g>
     <g id="text_12">
      <!-- 3000 -->
      <g transform="translate(20.878125 278.125061)scale(0.1 -0.1)">
       <use xlink:href="#DejaVuSans-33"/>
       <use x="63.623047" xlink:href="#DejaVuSans-30"/>
       <use x="127.246094" xlink:href="#DejaVuSans-30"/>
       <use x="190.869141" xlink:href="#DejaVuSans-30"/>
      </g>
     </g>
    </g>
    <g id="ytick_2">
     <g id="line2d_21">
      <path clip-path="url(#p5c4619d6be)" d="M 53.328125 227.756957 
L 410.448125 227.756957 
" style="fill:none;stroke:#b0b0b0;stroke-linecap:square;stroke-width:0.8;"/>
     </g>
     <g id="line2d_22">
      <g>
       <use style="stroke:#000000;stroke-width:0.8;" x="53.328125" xlink:href="#ma0e75abc46" y="227.756957"/>
      </g>
     </g>
     <g id="text_13">
      <!-- 3200 -->
      <g transform="translate(20.878125 231.556176)scale(0.1 -0.1)">
       <use xlink:href="#DejaVuSans-33"/>
       <use x="63.623047" xlink:href="#DejaVuSans-32"/>
       <use x="127.246094" xlink:href="#DejaVuSans-30"/>
       <use x="190.869141" xlink:href="#DejaVuSans-30"/>
      </g>
     </g>
    </g>
    <g id="ytick_3">
     <g id="line2d_23">
      <path clip-path="url(#p5c4619d6be)" d="M 53.328125 181.188073 
L 410.448125 181.188073 
" style="fill:none;stroke:#b0b0b0;stroke-linecap:square;stroke-width:0.8;"/>
     </g>
     <g id="line2d_24">
      <g>
       <use style="stroke:#000000;stroke-width:0.8;" x="53.328125" xlink:href="#ma0e75abc46" y="181.188073"/>
      </g>
     </g>
     <g id="text_14">
      <!-- 3400 -->
      <g transform="translate(20.878125 184.987291)scale(0.1 -0.1)">
       <use xlink:href="#DejaVuSans-33"/>
       <use x="63.623047" xlink:href="#DejaVuSans-34"/>
       <use x="127.246094" xlink:href="#DejaVuSans-30"/>
       <use x="190.869141" xlink:href="#DejaVuSans-30"/>
      </g>
     </g>
    </g>
    <g id="ytick_4">
     <g id="line2d_25">
      <path clip-path="url(#p5c4619d6be)" d="M 53.328125 134.619188 
L 410.448125 134.619188 
" style="fill:none;stroke:#b0b0b0;stroke-linecap:square;stroke-width:0.8;"/>
     </g>
     <g id="line2d_26">
      <g>
       <use style="stroke:#000000;stroke-width:0.8;" x="53.328125" xlink:href="#ma0e75abc46" y="134.619188"/>
      </g>
     </g>
     <g id="text_15">
      <!-- 3600 -->
      <g transform="translate(20.878125 138.418407)scale(0.1 -0.1)">
       <defs>
        <path d="M 2113 2584 
Q 1688 2584 1439 2293 
Q 1191 2003 1191 1497 
Q 1191 994 1439 701 
Q 1688 409 2113 409 
Q 2538 409 2786 701 
Q 3034 994 3034 1497 
Q 3034 2003 2786 2293 
Q 2538 2584 2113 2584 
z
M 3366 4563 
L 3366 3988 
Q 3128 4100 2886 4159 
Q 2644 4219 2406 4219 
Q 1781 4219 1451 3797 
Q 1122 3375 1075 2522 
Q 1259 2794 1537 2939 
Q 1816 3084 2150 3084 
Q 2853 3084 3261 2657 
Q 3669 2231 3669 1497 
Q 3669 778 3244 343 
Q 2819 -91 2113 -91 
Q 1303 -91 875 529 
Q 447 1150 447 2328 
Q 447 3434 972 4092 
Q 1497 4750 2381 4750 
Q 2619 4750 2861 4703 
Q 3103 4656 3366 4563 
z
" id="DejaVuSans-36" transform="scale(0.015625)"/>
       </defs>
       <use xlink:href="#DejaVuSans-33"/>
       <use x="63.623047" xlink:href="#DejaVuSans-36"/>
       <use x="127.246094" xlink:href="#DejaVuSans-30"/>
       <use x="190.869141" xlink:href="#DejaVuSans-30"/>
      </g>
     </g>
    </g>
    <g id="ytick_5">
     <g id="line2d_27">
      <path clip-path="url(#p5c4619d6be)" d="M 53.328125 88.050304 
L 410.448125 88.050304 
" style="fill:none;stroke:#b0b0b0;stroke-linecap:square;stroke-width:0.8;"/>
     </g>
     <g id="line2d_28">
      <g>
       <use style="stroke:#000000;stroke-width:0.8;" x="53.328125" xlink:href="#ma0e75abc46" y="88.050304"/>
      </g>
     </g>
     <g id="text_16">
      <!-- 3800 -->
      <g transform="translate(20.878125 91.849522)scale(0.1 -0.1)">
       <use xlink:href="#DejaVuSans-33"/>
       <use x="63.623047" xlink:href="#DejaVuSans-38"/>
       <use x="127.246094" xlink:href="#DejaVuSans-30"/>
       <use x="190.869141" xlink:href="#DejaVuSans-30"/>
      </g>
     </g>
    </g>
    <g id="ytick_6">
     <g id="line2d_29">
      <path clip-path="url(#p5c4619d6be)" d="M 53.328125 41.481419 
L 410.448125 41.481419 
" style="fill:none;stroke:#b0b0b0;stroke-linecap:square;stroke-width:0.8;"/>
     </g>
     <g id="line2d_30">
      <g>
       <use style="stroke:#000000;stroke-width:0.8;" x="53.328125" xlink:href="#ma0e75abc46" y="41.481419"/>
      </g>
     </g>
     <g id="text_17">
      <!-- 4000 -->
      <g transform="translate(20.878125 45.280638)scale(0.1 -0.1)">
       <use xlink:href="#DejaVuSans-34"/>
       <use x="63.623047" xlink:href="#DejaVuSans-30"/>
       <use x="127.246094" xlink:href="#DejaVuSans-30"/>
       <use x="190.869141" xlink:href="#DejaVuSans-30"/>
      </g>
     </g>
    </g>
    <g id="text_18">
     <!-- F2 -->
     <g transform="translate(14.798438 161.431156)rotate(-90)scale(0.1 -0.1)">
      <use xlink:href="#DejaVuSans-46"/>
      <use x="57.519531" xlink:href="#DejaVuSans-32"/>
     </g>
    </g>
   </g>
   <g id="line2d_31">
    <defs>
     <path d="M 0 2.5 
C 0.663008 2.5 1.29895 2.236584 1.767767 1.767767 
C 2.236584 1.29895 2.5 0.663008 2.5 0 
C 2.5 -0.663008 2.236584 -1.29895 1.767767 -1.767767 
C 1.29895 -2.236584 0.663008 -2.5 0 -2.5 
C -0.663008 -2.5 -1.29895 -2.236584 -1.767767 -1.767767 
C -2.236584 -1.29895 -2.5 -0.663008 -2.5 0 
C -2.5 0.663008 -2.236584 1.29895 -1.767767 1.767767 
C -1.29895 2.236584 -0.663008 2.5 0 2.5 
z
" id="m5e5754a6a0" style="stroke:#ff0000;"/>
    </defs>
    <g clip-path="url(#p5c4619d6be)">
     <use style="fill:#ff0000;stroke:#ff0000;" x="217.837262" xlink:href="#m5e5754a6a0" y="201.929281"/>
     <use style="fill:#ff0000;stroke:#ff0000;" x="246.930267" xlink:href="#m5e5754a6a0" y="171.94449"/>
     <use style="fill:#ff0000;stroke:#ff0000;" x="96.207713" xlink:href="#m5e5754a6a0" y="268.365061"/>
     <use style="fill:#ff0000;stroke:#ff0000;" x="241.940856" xlink:href="#m5e5754a6a0" y="176.97456"/>
     <use style="fill:#ff0000;stroke:#ff0000;" x="319.095553" xlink:href="#m5e5754a6a0" y="101.911051"/>
     <use style="fill:#ff0000;stroke:#ff0000;" x="212.518619" xlink:href="#m5e5754a6a0" y="207.458839"/>
     <use style="fill:#ff0000;stroke:#ff0000;" x="91.005581" xlink:href="#m5e5754a6a0" y="269.874803"/>
     <use style="fill:#ff0000;stroke:#ff0000;" x="117.193531" xlink:href="#m5e5754a6a0" y="261.870973"/>
     <use style="fill:#ff0000;stroke:#ff0000;" x="288.593186" xlink:href="#m5e5754a6a0" y="130.818076"/>
     <use style="fill:#ff0000;stroke:#ff0000;" x="300.345143" xlink:href="#m5e5754a6a0" y="119.568202"/>
     <use style="fill:#ff0000;stroke:#ff0000;" x="384.968817" xlink:href="#m5e5754a6a0" y="42.46206"/>
     <use style="fill:#ff0000;stroke:#ff0000;" x="370.51326" xlink:href="#m5e5754a6a0" y="55.19898"/>
     <use style="fill:#ff0000;stroke:#ff0000;" x="200.925522" xlink:href="#m5e5754a6a0" y="219.762715"/>
     <use style="fill:#ff0000;stroke:#ff0000;" x="113.57077" xlink:href="#m5e5754a6a0" y="262.635128"/>
     <use style="fill:#ff0000;stroke:#ff0000;" x="264.487039" xlink:href="#m5e5754a6a0" y="154.450805"/>
     <use style="fill:#ff0000;stroke:#ff0000;" x="347.167138" xlink:href="#m5e5754a6a0" y="76.295935"/>
     <use style="fill:#ff0000;stroke:#ff0000;" x="345.973055" xlink:href="#m5e5754a6a0" y="77.661507"/>
     <use style="fill:#ff0000;stroke:#ff0000;" x="352.517884" xlink:href="#m5e5754a6a0" y="71.269208"/>
     <use style="fill:#ff0000;stroke:#ff0000;" x="204.851196" xlink:href="#m5e5754a6a0" y="215.559669"/>
     <use style="fill:#ff0000;stroke:#ff0000;" x="192.70173" xlink:href="#m5e5754a6a0" y="228.64533"/>
     <use style="fill:#ff0000;stroke:#ff0000;" x="219.187265" xlink:href="#m5e5754a6a0" y="200.435009"/>
     <use style="fill:#ff0000;stroke:#ff0000;" x="305.050584" xlink:href="#m5e5754a6a0" y="115.104319"/>
     <use style="fill:#ff0000;stroke:#ff0000;" x="261.90554" xlink:href="#m5e5754a6a0" y="156.917501"/>
     <use style="fill:#ff0000;stroke:#ff0000;" x="387.565231" xlink:href="#m5e5754a6a0" y="40.195317"/>
     <use style="fill:#ff0000;stroke:#ff0000;" x="343.081403" xlink:href="#m5e5754a6a0" y="79.814651"/>
     <use style="fill:#ff0000;stroke:#ff0000;" x="122.749035" xlink:href="#m5e5754a6a0" y="259.627481"/>
     <use style="fill:#ff0000;stroke:#ff0000;" x="100.60573" xlink:href="#m5e5754a6a0" y="266.841406"/>
     <use style="fill:#ff0000;stroke:#ff0000;" x="223.653273" xlink:href="#m5e5754a6a0" y="195.777193"/>
     <use style="fill:#ff0000;stroke:#ff0000;" x="292.506424" xlink:href="#m5e5754a6a0" y="127.055975"/>
     <use style="fill:#ff0000;stroke:#ff0000;" x="299.934214" xlink:href="#m5e5754a6a0" y="119.959086"/>
     <use style="fill:#ff0000;stroke:#ff0000;" x="227.520272" xlink:href="#m5e5754a6a0" y="191.966826"/>
     <use style="fill:#ff0000;stroke:#ff0000;" x="201.885473" xlink:href="#m5e5754a6a0" y="218.728044"/>
     <use style="fill:#ff0000;stroke:#ff0000;" x="163.893196" xlink:href="#m5e5754a6a0" y="245.547666"/>
     <use style="fill:#ff0000;stroke:#ff0000;" x="272.872679" xlink:href="#m5e5754a6a0" y="146.09671"/>
     <use style="fill:#ff0000;stroke:#ff0000;" x="285.188251" xlink:href="#m5e5754a6a0" y="134.104628"/>
     <use style="fill:#ff0000;stroke:#ff0000;" x="177.133136" xlink:href="#m5e5754a6a0" y="240.949749"/>
     <use style="fill:#ff0000;stroke:#ff0000;" x="355.604046" xlink:href="#m5e5754a6a0" y="68.504217"/>
     <use style="fill:#ff0000;stroke:#ff0000;" x="150.572527" xlink:href="#m5e5754a6a0" y="250.547278"/>
     <use style="fill:#ff0000;stroke:#ff0000;" x="266.072438" xlink:href="#m5e5754a6a0" y="152.790218"/>
     <use style="fill:#ff0000;stroke:#ff0000;" x="232.234072" xlink:href="#m5e5754a6a0" y="187.104124"/>
     <use style="fill:#ff0000;stroke:#ff0000;" x="321.253044" xlink:href="#m5e5754a6a0" y="99.899814"/>
     <use style="fill:#ff0000;stroke:#ff0000;" x="182.841826" xlink:href="#m5e5754a6a0" y="239.373856"/>
     <use style="fill:#ff0000;stroke:#ff0000;" x="69.560852" xlink:href="#m5e5754a6a0" y="276.334125"/>
     <use style="fill:#ff0000;stroke:#ff0000;" x="366.994309" xlink:href="#m5e5754a6a0" y="58.370053"/>
     <use style="fill:#ff0000;stroke:#ff0000;" x="254.815792" xlink:href="#m5e5754a6a0" y="163.986009"/>
     <use style="fill:#ff0000;stroke:#ff0000;" x="215.269405" xlink:href="#m5e5754a6a0" y="204.538217"/>
     <use style="fill:#ff0000;stroke:#ff0000;" x="325.363931" xlink:href="#m5e5754a6a0" y="96.083257"/>
     <use style="fill:#ff0000;stroke:#ff0000;" x="196.327831" xlink:href="#m5e5754a6a0" y="225.167936"/>
     <use style="fill:#ff0000;stroke:#ff0000;" x="236.537348" xlink:href="#m5e5754a6a0" y="182.48594"/>
     <use style="fill:#ff0000;stroke:#ff0000;" x="190.219538" xlink:href="#m5e5754a6a0" y="231.353189"/>
     <use style="fill:#ff0000;stroke:#ff0000;" x="109.575796" xlink:href="#m5e5754a6a0" y="263.956521"/>
     <use style="fill:#ff0000;stroke:#ff0000;" x="159.051966" xlink:href="#m5e5754a6a0" y="247.235481"/>
     <use style="fill:#ff0000;stroke:#ff0000;" x="153.592679" xlink:href="#m5e5754a6a0" y="249.105672"/>
     <use style="fill:#ff0000;stroke:#ff0000;" x="193.234788" xlink:href="#m5e5754a6a0" y="228.053629"/>
     <use style="fill:#ff0000;stroke:#ff0000;" x="243.601989" xlink:href="#m5e5754a6a0" y="175.287974"/>
     <use style="fill:#ff0000;stroke:#ff0000;" x="391.561348" xlink:href="#m5e5754a6a0" y="36.71886"/>
     <use style="fill:#ff0000;stroke:#ff0000;" x="259.038229" xlink:href="#m5e5754a6a0" y="159.769171"/>
     <use style="fill:#ff0000;stroke:#ff0000;" x="168.826285" xlink:href="#m5e5754a6a0" y="244.256508"/>
     <use style="fill:#ff0000;stroke:#ff0000;" x="381.41828" xlink:href="#m5e5754a6a0" y="45.589967"/>
     <use style="fill:#ff0000;stroke:#ff0000;" x="186.095348" xlink:href="#m5e5754a6a0" y="235.786482"/>
     <use style="fill:#ff0000;stroke:#ff0000;" x="333.183467" xlink:href="#m5e5754a6a0" y="88.866989"/>
     <use style="fill:#ff0000;stroke:#ff0000;" x="144.288541" xlink:href="#m5e5754a6a0" y="252.307116"/>
     <use style="fill:#ff0000;stroke:#ff0000;" x="209.722499" xlink:href="#m5e5754a6a0" y="210.387824"/>
     <use style="fill:#ff0000;stroke:#ff0000;" x="73.09824" xlink:href="#m5e5754a6a0" y="275.827168"/>
     <use style="fill:#ff0000;stroke:#ff0000;" x="131.108028" xlink:href="#m5e5754a6a0" y="256.834146"/>
     <use style="fill:#ff0000;stroke:#ff0000;" x="378.108215" xlink:href="#m5e5754a6a0" y="48.478981"/>
     <use style="fill:#ff0000;stroke:#ff0000;" x="146.37849" xlink:href="#m5e5754a6a0" y="251.585787"/>
     <use style="fill:#ff0000;stroke:#ff0000;" x="309.761506" xlink:href="#m5e5754a6a0" y="110.656248"/>
     <use style="fill:#ff0000;stroke:#ff0000;" x="275.069376" xlink:href="#m5e5754a6a0" y="143.947616"/>
     <use style="fill:#ff0000;stroke:#ff0000;" x="239.6077" xlink:href="#m5e5754a6a0" y="179.372369"/>
     <use style="fill:#ff0000;stroke:#ff0000;" x="235.210869" xlink:href="#m5e5754a6a0" y="183.883417"/>
     <use style="fill:#ff0000;stroke:#ff0000;" x="247.857145" xlink:href="#m5e5754a6a0" y="170.988031"/>
     <use style="fill:#ff0000;stroke:#ff0000;" x="383.459549" xlink:href="#m5e5754a6a0" y="43.78223"/>
     <use style="fill:#ff0000;stroke:#ff0000;" x="287.010717" xlink:href="#m5e5754a6a0" y="132.344419"/>
     <use style="fill:#ff0000;stroke:#ff0000;" x="335.631488" xlink:href="#m5e5754a6a0" y="86.627351"/>
     <use style="fill:#ff0000;stroke:#ff0000;" x="251.196323" xlink:href="#m5e5754a6a0" y="167.653036"/>
     <use style="fill:#ff0000;stroke:#ff0000;" x="338.424248" xlink:href="#m5e5754a6a0" y="84.081857"/>
     <use style="fill:#ff0000;stroke:#ff0000;" x="269.126112" xlink:href="#m5e5754a6a0" y="149.778017"/>
     <use style="fill:#ff0000;stroke:#ff0000;" x="208.240156" xlink:href="#m5e5754a6a0" y="213.958647"/>
     <use style="fill:#ff0000;stroke:#ff0000;" x="330.918049" xlink:href="#m5e5754a6a0" y="90.953201"/>
     <use style="fill:#ff0000;stroke:#ff0000;" x="277.991249" xlink:href="#m5e5754a6a0" y="141.09264"/>
     <use style="fill:#ff0000;stroke:#ff0000;" x="298.177251" xlink:href="#m5e5754a6a0" y="123.04692"/>
     <use style="fill:#ff0000;stroke:#ff0000;" x="358.864644" xlink:href="#m5e5754a6a0" y="65.600712"/>
     <use style="fill:#ff0000;stroke:#ff0000;" x="378.108215" xlink:href="#m5e5754a6a0" y="48.478981"/>
     <use style="fill:#ff0000;stroke:#ff0000;" x="360.719326" xlink:href="#m5e5754a6a0" y="63.940388"/>
     <use style="fill:#ff0000;stroke:#ff0000;" x="312.687271" xlink:href="#m5e5754a6a0" y="107.933622"/>
     <use style="fill:#ff0000;stroke:#ff0000;" x="362.16302" xlink:href="#m5e5754a6a0" y="62.648346"/>
     <use style="fill:#ff0000;stroke:#ff0000;" x="136.48695" xlink:href="#m5e5754a6a0" y="254.97328"/>
     <use style="fill:#ff0000;stroke:#ff0000;" x="316.127256" xlink:href="#m5e5754a6a0" y="104.70994"/>
     <use style="fill:#ff0000;stroke:#ff0000;" x="388.906161" xlink:href="#m5e5754a6a0" y="39.029271"/>
     <use style="fill:#ff0000;stroke:#ff0000;" x="356.283569" xlink:href="#m5e5754a6a0" y="67.878247"/>
     <use style="fill:#ff0000;stroke:#ff0000;" x="158.65241" xlink:href="#m5e5754a6a0" y="247.430008"/>
     <use style="fill:#ff0000;stroke:#ff0000;" x="82.611481" xlink:href="#m5e5754a6a0" y="272.574913"/>
     <use style="fill:#ff0000;stroke:#ff0000;" x="76.289587" xlink:href="#m5e5754a6a0" y="274.360484"/>
     <use style="fill:#ff0000;stroke:#ff0000;" x="374.013211" xlink:href="#m5e5754a6a0" y="52.089776"/>
     <use style="fill:#ff0000;stroke:#ff0000;" x="121.623757" xlink:href="#m5e5754a6a0" y="260.002716"/>
     <use style="fill:#ff0000;stroke:#ff0000;" x="305.013691" xlink:href="#m5e5754a6a0" y="115.139221"/>
     <use style="fill:#ff0000;stroke:#ff0000;" x="394.215398" xlink:href="#m5e5754a6a0" y="34.414125"/>
     <use style="fill:#ff0000;stroke:#ff0000;" x="269.066844" xlink:href="#m5e5754a6a0" y="149.83638"/>
     <use style="fill:#ff0000;stroke:#ff0000;" x="131.108028" xlink:href="#m5e5754a6a0" y="256.834146"/>
    </g>
   </g>
   <g id="patch_3">
    <path d="M 53.328125 288.430125 
L 53.328125 22.318125 
" style="fill:none;stroke:#000000;stroke-linecap:square;stroke-linejoin:miter;stroke-width:0.8;"/>
   </g>
   <g id="patch_4">
    <path d="M 410.448125 288.430125 
L 410.448125 22.318125 
" style="fill:none;stroke:#000000;stroke-linecap:square;stroke-linejoin:miter;stroke-width:0.8;"/>
   </g>
   <g id="patch_5">
    <path d="M 53.328125 288.430125 
L 410.448125 288.430125 
" style="fill:none;stroke:#000000;stroke-linecap:square;stroke-linejoin:miter;stroke-width:0.8;"/>
   </g>
   <g id="patch_6">
    <path d="M 53.328125 22.318125 
L 410.448125 22.318125 
" style="fill:none;stroke:#000000;stroke-linecap:square;stroke-linejoin:miter;stroke-width:0.8;"/>
   </g>
   <g id="text_19">
    <!-- Pareto Front Plot -->
    <g transform="translate(182.52125 16.318125)scale(0.12 -0.12)">
     <defs>
      <path d="M 1259 4147 
L 1259 2394 
L 2053 2394 
Q 2494 2394 2734 2622 
Q 2975 2850 2975 3272 
Q 2975 3691 2734 3919 
Q 2494 4147 2053 4147 
L 1259 4147 
z
M 628 4666 
L 2053 4666 
Q 2838 4666 3239 4311 
Q 3641 3956 3641 3272 
Q 3641 2581 3239 2228 
Q 2838 1875 2053 1875 
L 1259 1875 
L 1259 0 
L 628 0 
L 628 4666 
z
" id="DejaVuSans-50" transform="scale(0.015625)"/>
      <path d="M 2194 1759 
Q 1497 1759 1228 1600 
Q 959 1441 959 1056 
Q 959 750 1161 570 
Q 1363 391 1709 391 
Q 2188 391 2477 730 
Q 2766 1069 2766 1631 
L 2766 1759 
L 2194 1759 
z
M 3341 1997 
L 3341 0 
L 2766 0 
L 2766 531 
Q 2569 213 2275 61 
Q 1981 -91 1556 -91 
Q 1019 -91 701 211 
Q 384 513 384 1019 
Q 384 1609 779 1909 
Q 1175 2209 1959 2209 
L 2766 2209 
L 2766 2266 
Q 2766 2663 2505 2880 
Q 2244 3097 1772 3097 
Q 1472 3097 1187 3025 
Q 903 2953 641 2809 
L 641 3341 
Q 956 3463 1253 3523 
Q 1550 3584 1831 3584 
Q 2591 3584 2966 3190 
Q 3341 2797 3341 1997 
z
" id="DejaVuSans-61" transform="scale(0.015625)"/>
      <path d="M 2631 2963 
Q 2534 3019 2420 3045 
Q 2306 3072 2169 3072 
Q 1681 3072 1420 2755 
Q 1159 2438 1159 1844 
L 1159 0 
L 581 0 
L 581 3500 
L 1159 3500 
L 1159 2956 
Q 1341 3275 1631 3429 
Q 1922 3584 2338 3584 
Q 2397 3584 2469 3576 
Q 2541 3569 2628 3553 
L 2631 2963 
z
" id="DejaVuSans-72" transform="scale(0.015625)"/>
      <path d="M 1172 4494 
L 1172 3500 
L 2356 3500 
L 2356 3053 
L 1172 3053 
L 1172 1153 
Q 1172 725 1289 603 
Q 1406 481 1766 481 
L 2356 481 
L 2356 0 
L 1766 0 
Q 1100 0 847 248 
Q 594 497 594 1153 
L 594 3053 
L 172 3053 
L 172 3500 
L 594 3500 
L 594 4494 
L 1172 4494 
z
" id="DejaVuSans-74" transform="scale(0.015625)"/>
      <path d="M 1959 3097 
Q 1497 3097 1228 2736 
Q 959 2375 959 1747 
Q 959 1119 1226 758 
Q 1494 397 1959 397 
Q 2419 397 2687 759 
Q 2956 1122 2956 1747 
Q 2956 2369 2687 2733 
Q 2419 3097 1959 3097 
z
M 1959 3584 
Q 2709 3584 3137 3096 
Q 3566 2609 3566 1747 
Q 3566 888 3137 398 
Q 2709 -91 1959 -91 
Q 1206 -91 779 398 
Q 353 888 353 1747 
Q 353 2609 779 3096 
Q 1206 3584 1959 3584 
z
" id="DejaVuSans-6f" transform="scale(0.015625)"/>
      <path id="DejaVuSans-20" transform="scale(0.015625)"/>
      <path d="M 3513 2113 
L 3513 0 
L 2938 0 
L 2938 2094 
Q 2938 2591 2744 2837 
Q 2550 3084 2163 3084 
Q 1697 3084 1428 2787 
Q 1159 2491 1159 1978 
L 1159 0 
L 581 0 
L 581 3500 
L 1159 3500 
L 1159 2956 
Q 1366 3272 1645 3428 
Q 1925 3584 2291 3584 
Q 2894 3584 3203 3211 
Q 3513 2838 3513 2113 
z
" id="DejaVuSans-6e" transform="scale(0.015625)"/>
      <path d="M 603 4863 
L 1178 4863 
L 1178 0 
L 603 0 
L 603 4863 
z
" id="DejaVuSans-6c" transform="scale(0.015625)"/>
     </defs>
     <use xlink:href="#DejaVuSans-50"/>
     <use x="55.802734" xlink:href="#DejaVuSans-61"/>
     <use x="117.082031" xlink:href="#DejaVuSans-72"/>
     <use x="155.945312" xlink:href="#DejaVuSans-65"/>
     <use x="217.46875" xlink:href="#DejaVuSans-74"/>
     <use x="256.677734" xlink:href="#DejaVuSans-6f"/>
     <use x="317.859375" xlink:href="#DejaVuSans-20"/>
     <use x="349.646484" xlink:href="#DejaVuSans-46"/>
     <use x="399.916016" xlink:href="#DejaVuSans-72"/>
     <use x="438.779297" xlink:href="#DejaVuSans-6f"/>
     <use x="499.960938" xlink:href="#DejaVuSans-6e"/>
     <use x="563.339844" xlink:href="#DejaVuSans-74"/>
     <use x="602.548828" xlink:href="#DejaVuSans-20"/>
     <use x="634.335938" xlink:href="#DejaVuSans-50"/>
     <use x="694.638672" xlink:href="#DejaVuSans-6c"/>
     <use x="722.421875" xlink:href="#DejaVuSans-6f"/>
     <use x="783.603516" xlink:href="#DejaVuSans-74"/>
    </g>
   </g>
   <g id="legend_1">
    <g id="patch_7">
     <path d="M 60.328125 44.99625 
L 136.946875 44.99625 
Q 138.946875 44.99625 138.946875 42.99625 
L 138.946875 29.318125 
Q 138.946875 27.318125 136.946875 27.318125 
L 60.328125 27.318125 
Q 58.328125 27.318125 58.328125 29.318125 
L 58.328125 42.99625 
Q 58.328125 44.99625 60.328125 44.99625 
z
" style="fill:#ffffff;opacity:0.8;stroke:#cccccc;stroke-linejoin:miter;"/>
    </g>
    <g id="line2d_32"/>
    <g id="line2d_33">
     <g>
      <use style="fill:#ff0000;stroke:#ff0000;" x="72.328125" xlink:href="#m5e5754a6a0" y="35.416562"/>
     </g>
    </g>
    <g id="text_20">
     <!-- MOEA PF -->
     <g transform="translate(90.328125 38.916562)scale(0.1 -0.1)">
      <defs>
       <path d="M 628 4666 
L 1569 4666 
L 2759 1491 
L 3956 4666 
L 4897 4666 
L 4897 0 
L 4281 0 
L 4281 4097 
L 3078 897 
L 2444 897 
L 1241 4097 
L 1241 0 
L 628 0 
L 628 4666 
z
" id="DejaVuSans-4d" transform="scale(0.015625)"/>
       <path d="M 2522 4238 
Q 1834 4238 1429 3725 
Q 1025 3213 1025 2328 
Q 1025 1447 1429 934 
Q 1834 422 2522 422 
Q 3209 422 3611 934 
Q 4013 1447 4013 2328 
Q 4013 3213 3611 3725 
Q 3209 4238 2522 4238 
z
M 2522 4750 
Q 3503 4750 4090 4092 
Q 4678 3434 4678 2328 
Q 4678 1225 4090 567 
Q 3503 -91 2522 -91 
Q 1538 -91 948 565 
Q 359 1222 359 2328 
Q 359 3434 948 4092 
Q 1538 4750 2522 4750 
z
" id="DejaVuSans-4f" transform="scale(0.015625)"/>
       <path d="M 628 4666 
L 3578 4666 
L 3578 4134 
L 1259 4134 
L 1259 2753 
L 3481 2753 
L 3481 2222 
L 1259 2222 
L 1259 531 
L 3634 531 
L 3634 0 
L 628 0 
L 628 4666 
z
" id="DejaVuSans-45" transform="scale(0.015625)"/>
       <path d="M 2188 4044 
L 1331 1722 
L 3047 1722 
L 2188 4044 
z
M 1831 4666 
L 2547 4666 
L 4325 0 
L 3669 0 
L 3244 1197 
L 1141 1197 
L 716 0 
L 50 0 
L 1831 4666 
z
" id="DejaVuSans-41" transform="scale(0.015625)"/>
      </defs>
      <use xlink:href="#DejaVuSans-4d"/>
      <use x="86.279297" xlink:href="#DejaVuSans-4f"/>
      <use x="164.990234" xlink:href="#DejaVuSans-45"/>
      <use x="228.173828" xlink:href="#DejaVuSans-41"/>
      <use x="296.582031" xlink:href="#DejaVuSans-20"/>
      <use x="328.369141" xlink:href="#DejaVuSans-50"/>
      <use x="388.671875" xlink:href="#DejaVuSans-46"/>
     </g>
    </g>
   </g>
  </g>
 </g>
 <defs>
  <clipPath id="p5c4619d6be">
   <rect height="266.112" width="357.12" x="53.328125" y="22.318125"/>
  </clipPath>
 </defs>
</svg>
