<?xml version="1.0" encoding="utf-8" standalone="no"?>
<!DOCTYPE svg PUBLIC "-//W3C//DTD SVG 1.1//EN"
  "http://www.w3.org/Graphics/SVG/1.1/DTD/svg11.dtd">
<svg height="379.488217pt" version="1.1" viewBox="0 0 389.525214 379.488217" width="389.525214pt" xmlns="http://www.w3.org/2000/svg" xmlns:xlink="http://www.w3.org/1999/xlink">
 <metadata>
  <rdf:RDF xmlns:cc="http://creativecommons.org/ns#" xmlns:dc="http://purl.org/dc/elements/1.1/" xmlns:rdf="http://www.w3.org/1999/02/22-rdf-syntax-ns#">
   <cc:Work>
    <dc:type rdf:resource="http://purl.org/dc/dcmitype/StillImage"/>
    <dc:date>2022-04-17T18:46:15.568666</dc:date>
    <dc:format>image/svg+xml</dc:format>
    <dc:creator>
     <cc:Agent>
      <dc:title>Matplotlib v3.4.2, https://matplotlib.org/</dc:title>
     </cc:Agent>
    </dc:creator>
   </cc:Work>
  </rdf:RDF>
 </metadata>
 <defs>
  <style type="text/css">*{stroke-linecap:butt;stroke-linejoin:round;}</style>
 </defs>
 <g id="figure_1">
  <g id="patch_1">
   <path d="M 0 379.488217 
L 389.525214 379.488217 
L 389.525214 0 
L 0 0 
z
" style="fill:#ffffff;"/>
  </g>
  <g id="patch_2">
   <path d="M 36.725214 367.918125 
L 382.325214 367.918125 
L 382.325214 22.318125 
L 36.725214 22.318125 
z
" style="fill:#ffffff;"/>
  </g>
  <g id="pane3d_1">
   <g id="patch_3">
    <path d="M 214.195484 184.601029 
L 368.018123 261.095413 
L 375.041988 116.574381 
L 214.195484 46.858033 
" style="fill:#f2f2f2;opacity:0.5;stroke:#f2f2f2;stroke-linejoin:miter;"/>
   </g>
  </g>
  <g id="pane3d_2">
   <g id="patch_4">
    <path d="M 214.195484 184.601029 
L 60.372845 261.095413 
L 53.34898 116.574381 
L 214.195484 46.858033 
" style="fill:#e6e6e6;opacity:0.5;stroke:#e6e6e6;stroke-linejoin:miter;"/>
   </g>
  </g>
  <g id="pane3d_3">
   <g id="patch_5">
    <path d="M 214.195484 184.601029 
L 60.372845 261.095413 
L 214.195484 349.337083 
L 368.018123 261.095413 
" style="fill:#ececec;opacity:0.5;stroke:#ececec;stroke-linejoin:miter;"/>
   </g>
  </g>
  <g id="axis3d_1">
   <g id="line2d_1">
    <path d="M 368.018123 261.095413 
L 214.195484 349.337083 
" style="fill:none;stroke:#000000;stroke-linecap:square;stroke-width:0.8;"/>
   </g>
   <g id="text_1">
    <!-- F1 -->
    <g transform="translate(310.454913 338.349129)scale(0.1 -0.1)">
     <defs>
      <path d="M 628 4666 
L 3309 4666 
L 3309 4134 
L 1259 4134 
L 1259 2759 
L 3109 2759 
L 3109 2228 
L 1259 2228 
L 1259 0 
L 628 0 
L 628 4666 
z
" id="DejaVuSans-46" transform="scale(0.015625)"/>
      <path d="M 794 531 
L 1825 531 
L 1825 4091 
L 703 3866 
L 703 4441 
L 1819 4666 
L 2450 4666 
L 2450 531 
L 3481 531 
L 3481 0 
L 794 0 
L 794 531 
z
" id="DejaVuSans-31" transform="scale(0.015625)"/>
     </defs>
     <use xlink:href="#DejaVuSans-46"/>
     <use x="57.519531" xlink:href="#DejaVuSans-31"/>
    </g>
   </g>
   <g id="Line3DCollection_1">
    <path d="M 355.167268 268.467416 
L 201.28446 191.021546 
L 200.732401 52.693391 
" style="fill:none;stroke:#b0b0b0;stroke-width:0.8;"/>
    <path d="M 329.105366 283.418048 
L 175.134345 204.025723 
L 173.443141 64.521485 
" style="fill:none;stroke:#b0b0b0;stroke-width:0.8;"/>
    <path d="M 302.360852 298.760267 
L 148.34629 217.347142 
L 145.458961 76.65078 
" style="fill:none;stroke:#b0b0b0;stroke-width:0.8;"/>
    <path d="M 274.906553 314.50966 
L 120.896664 230.997553 
L 116.752975 89.092931 
" style="fill:none;stroke:#b0b0b0;stroke-width:0.8;"/>
    <path d="M 246.713832 330.682655 
L 92.760651 244.989297 
L 87.296891 101.860201 
" style="fill:none;stroke:#b0b0b0;stroke-width:0.8;"/>
    <path d="M 217.752493 347.296574 
L 63.912182 259.335338 
L 57.06092 114.9655 
" style="fill:none;stroke:#b0b0b0;stroke-width:0.8;"/>
   </g>
   <g id="xtick_1">
    <g id="line2d_2">
     <path d="M 353.848612 267.803765 
L 357.809126 269.797006 
" style="fill:none;stroke:#000000;stroke-linecap:square;stroke-width:0.8;"/>
    </g>
    <g id="text_2">
     <!-- 82 -->
     <g transform="translate(358.963976 290.260144)scale(0.1 -0.1)">
      <defs>
       <path d="M 2034 2216 
Q 1584 2216 1326 1975 
Q 1069 1734 1069 1313 
Q 1069 891 1326 650 
Q 1584 409 2034 409 
Q 2484 409 2743 651 
Q 3003 894 3003 1313 
Q 3003 1734 2745 1975 
Q 2488 2216 2034 2216 
z
M 1403 2484 
Q 997 2584 770 2862 
Q 544 3141 544 3541 
Q 544 4100 942 4425 
Q 1341 4750 2034 4750 
Q 2731 4750 3128 4425 
Q 3525 4100 3525 3541 
Q 3525 3141 3298 2862 
Q 3072 2584 2669 2484 
Q 3125 2378 3379 2068 
Q 3634 1759 3634 1313 
Q 3634 634 3220 271 
Q 2806 -91 2034 -91 
Q 1263 -91 848 271 
Q 434 634 434 1313 
Q 434 1759 690 2068 
Q 947 2378 1403 2484 
z
M 1172 3481 
Q 1172 3119 1398 2916 
Q 1625 2713 2034 2713 
Q 2441 2713 2670 2916 
Q 2900 3119 2900 3481 
Q 2900 3844 2670 4047 
Q 2441 4250 2034 4250 
Q 1625 4250 1398 4047 
Q 1172 3844 1172 3481 
z
" id="DejaVuSans-38" transform="scale(0.015625)"/>
       <path d="M 1228 531 
L 3431 531 
L 3431 0 
L 469 0 
L 469 531 
Q 828 903 1448 1529 
Q 2069 2156 2228 2338 
Q 2531 2678 2651 2914 
Q 2772 3150 2772 3378 
Q 2772 3750 2511 3984 
Q 2250 4219 1831 4219 
Q 1534 4219 1204 4116 
Q 875 4013 500 3803 
L 500 4441 
Q 881 4594 1212 4672 
Q 1544 4750 1819 4750 
Q 2544 4750 2975 4387 
Q 3406 4025 3406 3419 
Q 3406 3131 3298 2873 
Q 3191 2616 2906 2266 
Q 2828 2175 2409 1742 
Q 1991 1309 1228 531 
z
" id="DejaVuSans-32" transform="scale(0.015625)"/>
      </defs>
      <use xlink:href="#DejaVuSans-38"/>
      <use x="63.623047" xlink:href="#DejaVuSans-32"/>
     </g>
    </g>
   </g>
   <g id="xtick_2">
    <g id="line2d_3">
     <path d="M 327.784822 282.737134 
L 331.751066 284.782255 
" style="fill:none;stroke:#000000;stroke-linecap:square;stroke-width:0.8;"/>
    </g>
    <g id="text_3">
     <!-- 84 -->
     <g transform="translate(332.986632 305.421556)scale(0.1 -0.1)">
      <defs>
       <path d="M 2419 4116 
L 825 1625 
L 2419 1625 
L 2419 4116 
z
M 2253 4666 
L 3047 4666 
L 3047 1625 
L 3713 1625 
L 3713 1100 
L 3047 1100 
L 3047 0 
L 2419 0 
L 2419 1100 
L 313 1100 
L 313 1709 
L 2253 4666 
z
" id="DejaVuSans-34" transform="scale(0.015625)"/>
      </defs>
      <use xlink:href="#DejaVuSans-38"/>
      <use x="63.623047" xlink:href="#DejaVuSans-34"/>
     </g>
    </g>
   </g>
   <g id="xtick_3">
    <g id="line2d_4">
     <path d="M 301.038773 298.061407 
L 305.009689 300.16046 
" style="fill:none;stroke:#000000;stroke-linecap:square;stroke-width:0.8;"/>
    </g>
    <g id="text_4">
     <!-- 86 -->
     <g transform="translate(306.327648 320.980801)scale(0.1 -0.1)">
      <defs>
       <path d="M 2113 2584 
Q 1688 2584 1439 2293 
Q 1191 2003 1191 1497 
Q 1191 994 1439 701 
Q 1688 409 2113 409 
Q 2538 409 2786 701 
Q 3034 994 3034 1497 
Q 3034 2003 2786 2293 
Q 2538 2584 2113 2584 
z
M 3366 4563 
L 3366 3988 
Q 3128 4100 2886 4159 
Q 2644 4219 2406 4219 
Q 1781 4219 1451 3797 
Q 1122 3375 1075 2522 
Q 1259 2794 1537 2939 
Q 1816 3084 2150 3084 
Q 2853 3084 3261 2657 
Q 3669 2231 3669 1497 
Q 3669 778 3244 343 
Q 2819 -91 2113 -91 
Q 1303 -91 875 529 
Q 447 1150 447 2328 
Q 447 3434 972 4092 
Q 1497 4750 2381 4750 
Q 2619 4750 2861 4703 
Q 3103 4656 3366 4563 
z
" id="DejaVuSans-36" transform="scale(0.015625)"/>
      </defs>
      <use xlink:href="#DejaVuSans-38"/>
      <use x="63.623047" xlink:href="#DejaVuSans-36"/>
     </g>
    </g>
   </g>
   <g id="xtick_4">
    <g id="line2d_5">
     <path d="M 273.583321 313.792135 
L 277.557762 315.947283 
" style="fill:none;stroke:#000000;stroke-linecap:square;stroke-width:0.8;"/>
    </g>
    <g id="text_5">
     <!-- 88 -->
     <g transform="translate(278.959838 336.953745)scale(0.1 -0.1)">
      <use xlink:href="#DejaVuSans-38"/>
      <use x="63.623047" xlink:href="#DejaVuSans-38"/>
     </g>
    </g>
   </g>
   <g id="xtick_5">
    <g id="line2d_6">
     <path d="M 245.389863 329.945707 
L 249.366583 332.159228 
" style="fill:none;stroke:#000000;stroke-linecap:square;stroke-width:0.8;"/>
    </g>
    <g id="text_6">
     <!-- 90 -->
     <g transform="translate(250.854552 353.357109)scale(0.1 -0.1)">
      <defs>
       <path d="M 703 97 
L 703 672 
Q 941 559 1184 500 
Q 1428 441 1663 441 
Q 2288 441 2617 861 
Q 2947 1281 2994 2138 
Q 2813 1869 2534 1725 
Q 2256 1581 1919 1581 
Q 1219 1581 811 2004 
Q 403 2428 403 3163 
Q 403 3881 828 4315 
Q 1253 4750 1959 4750 
Q 2769 4750 3195 4129 
Q 3622 3509 3622 2328 
Q 3622 1225 3098 567 
Q 2575 -91 1691 -91 
Q 1453 -91 1209 -44 
Q 966 3 703 97 
z
M 1959 2075 
Q 2384 2075 2632 2365 
Q 2881 2656 2881 3163 
Q 2881 3666 2632 3958 
Q 2384 4250 1959 4250 
Q 1534 4250 1286 3958 
Q 1038 3666 1038 3163 
Q 1038 2656 1286 2365 
Q 1534 2075 1959 2075 
z
" id="DejaVuSans-39" transform="scale(0.015625)"/>
       <path d="M 2034 4250 
Q 1547 4250 1301 3770 
Q 1056 3291 1056 2328 
Q 1056 1369 1301 889 
Q 1547 409 2034 409 
Q 2525 409 2770 889 
Q 3016 1369 3016 2328 
Q 3016 3291 2770 3770 
Q 2525 4250 2034 4250 
z
M 2034 4750 
Q 2819 4750 3233 4129 
Q 3647 3509 3647 2328 
Q 3647 1150 3233 529 
Q 2819 -91 2034 -91 
Q 1250 -91 836 529 
Q 422 1150 422 2328 
Q 422 3509 836 4129 
Q 1250 4750 2034 4750 
z
" id="DejaVuSans-30" transform="scale(0.015625)"/>
      </defs>
      <use xlink:href="#DejaVuSans-39"/>
      <use x="63.623047" xlink:href="#DejaVuSans-30"/>
     </g>
    </g>
   </g>
   <g id="xtick_6">
    <g id="line2d_7">
     <path d="M 216.428237 346.539405 
L 220.405883 348.813703 
" style="fill:none;stroke:#000000;stroke-linecap:square;stroke-width:0.8;"/>
    </g>
    <g id="text_7">
     <!-- 92 -->
     <g transform="translate(221.981573 370.208529)scale(0.1 -0.1)">
      <use xlink:href="#DejaVuSans-39"/>
      <use x="63.623047" xlink:href="#DejaVuSans-32"/>
     </g>
    </g>
   </g>
  </g>
  <g id="axis3d_2">
   <g id="line2d_8">
    <path d="M 60.372845 261.095413 
L 214.195484 349.337083 
" style="fill:none;stroke:#000000;stroke-linecap:square;stroke-width:0.8;"/>
   </g>
   <g id="text_8">
    <!-- F2 -->
    <g transform="translate(105.821993 338.349129)scale(0.1 -0.1)">
     <use xlink:href="#DejaVuSans-46"/>
     <use x="57.519531" xlink:href="#DejaVuSans-32"/>
    </g>
   </g>
   <g id="Line3DCollection_2">
    <path d="M 223.772837 51.009183 
L 223.380788 189.168784 
L 69.514217 266.339439 
" style="fill:none;stroke:#b0b0b0;stroke-width:0.8;"/>
    <path d="M 240.041862 58.060732 
L 238.976224 196.924231 
L 85.047786 275.250404 
" style="fill:none;stroke:#b0b0b0;stroke-width:0.8;"/>
    <path d="M 256.557055 65.218979 
L 254.797835 204.792152 
L 100.823023 284.300003 
" style="fill:none;stroke:#b0b0b0;stroke-width:0.8;"/>
    <path d="M 273.324044 72.486363 
L 270.850578 212.775013 
L 116.845611 293.491498 
" style="fill:none;stroke:#b0b0b0;stroke-width:0.8;"/>
    <path d="M 290.348635 79.865399 
L 287.139555 220.87535 
L 133.121415 302.828251 
" style="fill:none;stroke:#b0b0b0;stroke-width:0.8;"/>
    <path d="M 307.636807 87.358682 
L 303.67002 229.095776 
L 149.656483 312.313734 
" style="fill:none;stroke:#b0b0b0;stroke-width:0.8;"/>
    <path d="M 325.194732 94.968884 
L 320.447382 237.438983 
L 166.457062 321.95153 
" style="fill:none;stroke:#b0b0b0;stroke-width:0.8;"/>
    <path d="M 343.028771 102.698763 
L 337.477215 245.90774 
L 183.529598 331.745336 
" style="fill:none;stroke:#b0b0b0;stroke-width:0.8;"/>
    <path d="M 361.14549 110.551166 
L 354.76526 254.504903 
L 200.880748 341.698971 
" style="fill:none;stroke:#b0b0b0;stroke-width:0.8;"/>
   </g>
   <g id="xtick_7">
    <g id="line2d_9">
     <path d="M 70.832572 265.678228 
L 66.872968 267.664138 
" style="fill:none;stroke:#000000;stroke-linecap:square;stroke-width:0.8;"/>
    </g>
    <g id="text_9">
     <!-- 0.85 -->
     <g transform="translate(48.234328 288.102222)scale(0.1 -0.1)">
      <defs>
       <path d="M 684 794 
L 1344 794 
L 1344 0 
L 684 0 
L 684 794 
z
" id="DejaVuSans-2e" transform="scale(0.015625)"/>
       <path d="M 691 4666 
L 3169 4666 
L 3169 4134 
L 1269 4134 
L 1269 2991 
Q 1406 3038 1543 3061 
Q 1681 3084 1819 3084 
Q 2600 3084 3056 2656 
Q 3513 2228 3513 1497 
Q 3513 744 3044 326 
Q 2575 -91 1722 -91 
Q 1428 -91 1123 -41 
Q 819 9 494 109 
L 494 744 
Q 775 591 1075 516 
Q 1375 441 1709 441 
Q 2250 441 2565 725 
Q 2881 1009 2881 1497 
Q 2881 1984 2565 2268 
Q 2250 2553 1709 2553 
Q 1456 2553 1204 2497 
Q 953 2441 691 2322 
L 691 4666 
z
" id="DejaVuSans-35" transform="scale(0.015625)"/>
      </defs>
      <use xlink:href="#DejaVuSans-30"/>
      <use x="63.623047" xlink:href="#DejaVuSans-2e"/>
      <use x="95.410156" xlink:href="#DejaVuSans-38"/>
      <use x="159.033203" xlink:href="#DejaVuSans-35"/>
     </g>
    </g>
   </g>
   <g id="xtick_8">
    <g id="line2d_10">
     <path d="M 86.367346 274.578948 
L 82.404089 276.595644 
" style="fill:none;stroke:#000000;stroke-linecap:square;stroke-width:0.8;"/>
    </g>
    <g id="text_10">
     <!-- 0.90 -->
     <g transform="translate(63.717254 297.138674)scale(0.1 -0.1)">
      <use xlink:href="#DejaVuSans-30"/>
      <use x="63.623047" xlink:href="#DejaVuSans-2e"/>
      <use x="95.410156" xlink:href="#DejaVuSans-39"/>
      <use x="159.033203" xlink:href="#DejaVuSans-30"/>
     </g>
    </g>
   </g>
   <g id="xtick_9">
    <g id="line2d_11">
     <path d="M 102.143666 283.618064 
L 98.17712 285.666266 
" style="fill:none;stroke:#000000;stroke-linecap:square;stroke-width:0.8;"/>
    </g>
    <g id="text_11">
     <!-- 0.95 -->
     <g transform="translate(79.441493 306.315967)scale(0.1 -0.1)">
      <use xlink:href="#DejaVuSans-30"/>
      <use x="63.623047" xlink:href="#DejaVuSans-2e"/>
      <use x="95.410156" xlink:href="#DejaVuSans-39"/>
      <use x="159.033203" xlink:href="#DejaVuSans-35"/>
     </g>
    </g>
   </g>
   <g id="xtick_10">
    <g id="line2d_12">
     <path d="M 118.167209 292.798827 
L 114.197759 294.879279 
" style="fill:none;stroke:#000000;stroke-linecap:square;stroke-width:0.8;"/>
    </g>
    <g id="text_12">
     <!-- 1.00 -->
     <g transform="translate(95.412733 315.637418)scale(0.1 -0.1)">
      <use xlink:href="#DejaVuSans-31"/>
      <use x="63.623047" xlink:href="#DejaVuSans-2e"/>
      <use x="95.410156" xlink:href="#DejaVuSans-30"/>
      <use x="159.033203" xlink:href="#DejaVuSans-30"/>
     </g>
    </g>
   </g>
   <g id="xtick_11">
    <g id="line2d_13">
     <path d="M 134.443833 302.124594 
L 130.471882 304.238065 
" style="fill:none;stroke:#000000;stroke-linecap:square;stroke-width:0.8;"/>
    </g>
    <g id="text_13">
     <!-- 1.05 -->
     <g transform="translate(111.636839 325.106453)scale(0.1 -0.1)">
      <use xlink:href="#DejaVuSans-31"/>
      <use x="63.623047" xlink:href="#DejaVuSans-2e"/>
      <use x="95.410156" xlink:href="#DejaVuSans-30"/>
      <use x="159.033203" xlink:href="#DejaVuSans-35"/>
     </g>
    </g>
   </g>
   <g id="xtick_12">
    <g id="line2d_14">
     <path d="M 150.97958 311.598827 
L 147.005553 313.746109 
" style="fill:none;stroke:#000000;stroke-linecap:square;stroke-width:0.8;"/>
    </g>
    <g id="text_14">
     <!-- 1.10 -->
     <g transform="translate(128.119865 334.726603)scale(0.1 -0.1)">
      <use xlink:href="#DejaVuSans-31"/>
      <use x="63.623047" xlink:href="#DejaVuSans-2e"/>
      <use x="95.410156" xlink:href="#DejaVuSans-31"/>
      <use x="159.033203" xlink:href="#DejaVuSans-30"/>
     </g>
    </g>
   </g>
   <g id="xtick_13">
    <g id="line2d_15">
     <path d="M 167.78069 321.2251 
L 163.805031 323.40701 
" style="fill:none;stroke:#000000;stroke-linecap:square;stroke-width:0.8;"/>
    </g>
    <g id="text_15">
     <!-- 1.15 -->
     <g transform="translate(144.868058 344.501516)scale(0.1 -0.1)">
      <use xlink:href="#DejaVuSans-31"/>
      <use x="63.623047" xlink:href="#DejaVuSans-2e"/>
      <use x="95.410156" xlink:href="#DejaVuSans-31"/>
      <use x="159.033203" xlink:href="#DejaVuSans-35"/>
     </g>
    </g>
   </g>
   <g id="xtick_14">
    <g id="line2d_16">
     <path d="M 184.8536 331.007103 
L 180.876777 333.224486 
" style="fill:none;stroke:#000000;stroke-linecap:square;stroke-width:0.8;"/>
    </g>
    <g id="text_16">
     <!-- 1.20 -->
     <g transform="translate(161.88787 354.434955)scale(0.1 -0.1)">
      <use xlink:href="#DejaVuSans-31"/>
      <use x="63.623047" xlink:href="#DejaVuSans-2e"/>
      <use x="95.410156" xlink:href="#DejaVuSans-32"/>
      <use x="159.033203" xlink:href="#DejaVuSans-30"/>
     </g>
    </g>
   </g>
   <g id="xtick_15">
    <g id="line2d_17">
     <path d="M 202.20496 340.948645 
L 198.227466 343.202374 
" style="fill:none;stroke:#000000;stroke-linecap:square;stroke-width:0.8;"/>
    </g>
    <g id="text_17">
     <!-- 1.25 -->
     <g transform="translate(179.185961 364.53081)scale(0.1 -0.1)">
      <use xlink:href="#DejaVuSans-31"/>
      <use x="63.623047" xlink:href="#DejaVuSans-2e"/>
      <use x="95.410156" xlink:href="#DejaVuSans-32"/>
      <use x="159.033203" xlink:href="#DejaVuSans-35"/>
     </g>
    </g>
   </g>
  </g>
  <g id="axis3d_3">
   <g id="line2d_18">
    <path d="M 60.372845 261.095413 
L 53.34898 116.574381 
" style="fill:none;stroke:#000000;stroke-linecap:square;stroke-width:0.8;"/>
   </g>
   <g id="text_18">
    <!-- F3 -->
    <g transform="translate(7.2 193.20723)scale(0.1 -0.1)">
     <defs>
      <path d="M 2597 2516 
Q 3050 2419 3304 2112 
Q 3559 1806 3559 1356 
Q 3559 666 3084 287 
Q 2609 -91 1734 -91 
Q 1441 -91 1130 -33 
Q 819 25 488 141 
L 488 750 
Q 750 597 1062 519 
Q 1375 441 1716 441 
Q 2309 441 2620 675 
Q 2931 909 2931 1356 
Q 2931 1769 2642 2001 
Q 2353 2234 1838 2234 
L 1294 2234 
L 1294 2753 
L 1863 2753 
Q 2328 2753 2575 2939 
Q 2822 3125 2822 3475 
Q 2822 3834 2567 4026 
Q 2313 4219 1838 4219 
Q 1578 4219 1281 4162 
Q 984 4106 628 3988 
L 628 4550 
Q 988 4650 1302 4700 
Q 1616 4750 1894 4750 
Q 2613 4750 3031 4423 
Q 3450 4097 3450 3541 
Q 3450 3153 3228 2886 
Q 3006 2619 2597 2516 
z
" id="DejaVuSans-33" transform="scale(0.015625)"/>
     </defs>
     <use xlink:href="#DejaVuSans-46"/>
     <use x="57.519531" xlink:href="#DejaVuSans-33"/>
    </g>
   </g>
   <g id="Line3DCollection_3">
    <path d="M 60.187265 257.276973 
L 214.195484 180.950906 
L 368.203703 257.276973 
" style="fill:none;stroke:#b0b0b0;stroke-width:0.8;"/>
    <path d="M 59.140781 235.744829 
L 214.195484 160.378864 
L 369.250186 235.744829 
" style="fill:none;stroke:#b0b0b0;stroke-width:0.8;"/>
    <path d="M 58.079979 213.918062 
L 214.195484 139.544333 
L 370.310989 213.918062 
" style="fill:none;stroke:#b0b0b0;stroke-width:0.8;"/>
    <path d="M 57.004561 191.790582 
L 214.195484 118.442258 
L 371.386406 191.790582 
" style="fill:none;stroke:#b0b0b0;stroke-width:0.8;"/>
    <path d="M 55.914225 169.356134 
L 214.195484 97.06745 
L 372.476743 169.356134 
" style="fill:none;stroke:#b0b0b0;stroke-width:0.8;"/>
    <path d="M 54.808657 146.608284 
L 214.195484 75.414588 
L 373.582311 146.608284 
" style="fill:none;stroke:#b0b0b0;stroke-width:0.8;"/>
    <path d="M 53.687536 123.540419 
L 214.195484 53.478212 
L 374.703432 123.540419 
" style="fill:none;stroke:#b0b0b0;stroke-width:0.8;"/>
   </g>
   <g id="xtick_16">
    <g id="line2d_19">
     <path d="M 61.506541 256.623143 
L 57.544185 258.586876 
" style="fill:none;stroke:#000000;stroke-linecap:square;stroke-width:0.8;"/>
    </g>
    <g id="text_19">
     <!-- 5000 -->
     <g transform="translate(27.783437 264.875411)scale(0.1 -0.1)">
      <use xlink:href="#DejaVuSans-35"/>
      <use x="63.623047" xlink:href="#DejaVuSans-30"/>
      <use x="127.246094" xlink:href="#DejaVuSans-30"/>
      <use x="190.869141" xlink:href="#DejaVuSans-30"/>
     </g>
    </g>
   </g>
   <g id="xtick_17">
    <g id="line2d_20">
     <path d="M 60.469618 235.098934 
L 56.478517 237.038851 
" style="fill:none;stroke:#000000;stroke-linecap:square;stroke-width:0.8;"/>
    </g>
    <g id="text_20">
     <!-- 10000 -->
     <g transform="translate(23.421986 243.343267)scale(0.1 -0.1)">
      <use xlink:href="#DejaVuSans-31"/>
      <use x="63.623047" xlink:href="#DejaVuSans-30"/>
      <use x="127.246094" xlink:href="#DejaVuSans-30"/>
      <use x="190.869141" xlink:href="#DejaVuSans-30"/>
      <use x="254.492188" xlink:href="#DejaVuSans-30"/>
     </g>
    </g>
   </g>
   <g id="xtick_18">
    <g id="line2d_21">
     <path d="M 59.418516 213.28038 
L 55.398249 215.195643 
" style="fill:none;stroke:#000000;stroke-linecap:square;stroke-width:0.8;"/>
    </g>
    <g id="text_21">
     <!-- 15000 -->
     <g transform="translate(22.225636 221.516499)scale(0.1 -0.1)">
      <use xlink:href="#DejaVuSans-31"/>
      <use x="63.623047" xlink:href="#DejaVuSans-35"/>
      <use x="127.246094" xlink:href="#DejaVuSans-30"/>
      <use x="190.869141" xlink:href="#DejaVuSans-30"/>
      <use x="254.492188" xlink:href="#DejaVuSans-30"/>
     </g>
    </g>
   </g>
   <g id="xtick_19">
    <g id="line2d_22">
     <path d="M 58.35294 191.161403 
L 54.303082 193.051145 
" style="fill:none;stroke:#000000;stroke-linecap:square;stroke-width:0.8;"/>
    </g>
    <g id="text_22">
     <!-- 20000 -->
     <g transform="translate(21.012805 199.38902)scale(0.1 -0.1)">
      <use xlink:href="#DejaVuSans-32"/>
      <use x="63.623047" xlink:href="#DejaVuSans-30"/>
      <use x="127.246094" xlink:href="#DejaVuSans-30"/>
      <use x="190.869141" xlink:href="#DejaVuSans-30"/>
      <use x="254.492188" xlink:href="#DejaVuSans-30"/>
     </g>
    </g>
   </g>
   <g id="xtick_20">
    <g id="line2d_23">
     <path d="M 57.272591 168.735754 
L 53.192703 170.599081 
" style="fill:none;stroke:#000000;stroke-linecap:square;stroke-width:0.8;"/>
    </g>
    <g id="text_23">
     <!-- 25000 -->
     <g transform="translate(19.783148 176.954571)scale(0.1 -0.1)">
      <use xlink:href="#DejaVuSans-32"/>
      <use x="63.623047" xlink:href="#DejaVuSans-35"/>
      <use x="127.246094" xlink:href="#DejaVuSans-30"/>
      <use x="190.869141" xlink:href="#DejaVuSans-30"/>
      <use x="254.492188" xlink:href="#DejaVuSans-30"/>
     </g>
    </g>
   </g>
   <g id="xtick_21">
    <g id="line2d_24">
     <path d="M 56.177159 145.997012 
L 52.066795 147.832998 
" style="fill:none;stroke:#000000;stroke-linecap:square;stroke-width:0.8;"/>
    </g>
    <g id="text_24">
     <!-- 30000 -->
     <g transform="translate(18.536313 154.206721)scale(0.1 -0.1)">
      <use xlink:href="#DejaVuSans-33"/>
      <use x="63.623047" xlink:href="#DejaVuSans-30"/>
      <use x="127.246094" xlink:href="#DejaVuSans-30"/>
      <use x="190.869141" xlink:href="#DejaVuSans-30"/>
      <use x="254.492188" xlink:href="#DejaVuSans-30"/>
     </g>
    </g>
   </g>
   <g id="xtick_22">
    <g id="line2d_25">
     <path d="M 55.066325 122.938573 
L 50.925028 124.746262 
" style="fill:none;stroke:#000000;stroke-linecap:square;stroke-width:0.8;"/>
    </g>
    <g id="text_25">
     <!-- 35000 -->
     <g transform="translate(17.271937 131.138856)scale(0.1 -0.1)">
      <use xlink:href="#DejaVuSans-33"/>
      <use x="63.623047" xlink:href="#DejaVuSans-35"/>
      <use x="127.246094" xlink:href="#DejaVuSans-30"/>
      <use x="190.869141" xlink:href="#DejaVuSans-30"/>
      <use x="254.492188" xlink:href="#DejaVuSans-30"/>
     </g>
    </g>
   </g>
  </g>
  <g id="axes_1">
   <g id="line2d_26">
    <defs>
     <path d="M 0 2.5 
C 0.663008 2.5 1.29895 2.236584 1.767767 1.767767 
C 2.236584 1.29895 2.5 0.663008 2.5 0 
C 2.5 -0.663008 2.236584 -1.29895 1.767767 -1.767767 
C 1.29895 -2.236584 0.663008 -2.5 0 -2.5 
C -0.663008 -2.5 -1.29895 -2.236584 -1.767767 -1.767767 
C -2.236584 -1.29895 -2.5 -0.663008 -2.5 0 
C -2.5 0.663008 -2.236584 1.29895 -1.767767 1.767767 
C -1.29895 2.236584 -0.663008 2.5 0 2.5 
z
" id="md6da00541d" style="stroke:#ff0000;"/>
    </defs>
    <g clip-path="url(#p28b0814c2e)">
     <use style="fill:#ff0000;stroke:#ff0000;" x="149.919147" xlink:href="#md6da00541d" y="247.538735"/>
     <use style="fill:#ff0000;stroke:#ff0000;" x="214.951044" xlink:href="#md6da00541d" y="176.197966"/>
     <use style="fill:#ff0000;stroke:#ff0000;" x="154.670085" xlink:href="#md6da00541d" y="143.163399"/>
     <use style="fill:#ff0000;stroke:#ff0000;" x="244.44926" xlink:href="#md6da00541d" y="241.879577"/>
     <use style="fill:#ff0000;stroke:#ff0000;" x="221.871672" xlink:href="#md6da00541d" y="251.811234"/>
     <use style="fill:#ff0000;stroke:#ff0000;" x="95.694534" xlink:href="#md6da00541d" y="252.51657"/>
     <use style="fill:#ff0000;stroke:#ff0000;" x="212.161355" xlink:href="#md6da00541d" y="197.833389"/>
     <use style="fill:#ff0000;stroke:#ff0000;" x="215.568589" xlink:href="#md6da00541d" y="107.920928"/>
     <use style="fill:#ff0000;stroke:#ff0000;" x="247.918713" xlink:href="#md6da00541d" y="242.173591"/>
     <use style="fill:#ff0000;stroke:#ff0000;" x="303.189589" xlink:href="#md6da00541d" y="224.930156"/>
     <use style="fill:#ff0000;stroke:#ff0000;" x="124.774156" xlink:href="#md6da00541d" y="248.403875"/>
     <use style="fill:#ff0000;stroke:#ff0000;" x="177.256792" xlink:href="#md6da00541d" y="162.47036"/>
     <use style="fill:#ff0000;stroke:#ff0000;" x="156.419366" xlink:href="#md6da00541d" y="134.854608"/>
     <use style="fill:#ff0000;stroke:#ff0000;" x="200.222582" xlink:href="#md6da00541d" y="145.086522"/>
     <use style="fill:#ff0000;stroke:#ff0000;" x="168.182482" xlink:href="#md6da00541d" y="111.904323"/>
     <use style="fill:#ff0000;stroke:#ff0000;" x="286.511446" xlink:href="#md6da00541d" y="242.639874"/>
     <use style="fill:#ff0000;stroke:#ff0000;" x="107.089657" xlink:href="#md6da00541d" y="149.400914"/>
     <use style="fill:#ff0000;stroke:#ff0000;" x="136.019863" xlink:href="#md6da00541d" y="204.09739"/>
     <use style="fill:#ff0000;stroke:#ff0000;" x="236.852437" xlink:href="#md6da00541d" y="244.039769"/>
     <use style="fill:#ff0000;stroke:#ff0000;" x="123.961468" xlink:href="#md6da00541d" y="242.265465"/>
     <use style="fill:#ff0000;stroke:#ff0000;" x="230.487277" xlink:href="#md6da00541d" y="199.431595"/>
     <use style="fill:#ff0000;stroke:#ff0000;" x="174.889985" xlink:href="#md6da00541d" y="163.216585"/>
     <use style="fill:#ff0000;stroke:#ff0000;" x="339.277162" xlink:href="#md6da00541d" y="250.224916"/>
     <use style="fill:#ff0000;stroke:#ff0000;" x="302.949116" xlink:href="#md6da00541d" y="249.216565"/>
     <use style="fill:#ff0000;stroke:#ff0000;" x="141.893414" xlink:href="#md6da00541d" y="248.819527"/>
     <use style="fill:#ff0000;stroke:#ff0000;" x="85.383996" xlink:href="#md6da00541d" y="255.368912"/>
     <use style="fill:#ff0000;stroke:#ff0000;" x="194.496195" xlink:href="#md6da00541d" y="239.28134"/>
     <use style="fill:#ff0000;stroke:#ff0000;" x="290.330022" xlink:href="#md6da00541d" y="250.586235"/>
     <use style="fill:#ff0000;stroke:#ff0000;" x="269.004994" xlink:href="#md6da00541d" y="242.791152"/>
     <use style="fill:#ff0000;stroke:#ff0000;" x="183.960331" xlink:href="#md6da00541d" y="164.984011"/>
     <use style="fill:#ff0000;stroke:#ff0000;" x="296.31054" xlink:href="#md6da00541d" y="113.965324"/>
     <use style="fill:#ff0000;stroke:#ff0000;" x="146.663326" xlink:href="#md6da00541d" y="245.078301"/>
     <use style="fill:#ff0000;stroke:#ff0000;" x="346.749262" xlink:href="#md6da00541d" y="239.508444"/>
     <use style="fill:#ff0000;stroke:#ff0000;" x="105.91083" xlink:href="#md6da00541d" y="152.012518"/>
     <use style="fill:#ff0000;stroke:#ff0000;" x="169.58836" xlink:href="#md6da00541d" y="122.892648"/>
     <use style="fill:#ff0000;stroke:#ff0000;" x="115.062321" xlink:href="#md6da00541d" y="246.994227"/>
     <use style="fill:#ff0000;stroke:#ff0000;" x="213.066575" xlink:href="#md6da00541d" y="222.455395"/>
     <use style="fill:#ff0000;stroke:#ff0000;" x="316.090434" xlink:href="#md6da00541d" y="235.850302"/>
     <use style="fill:#ff0000;stroke:#ff0000;" x="205.281594" xlink:href="#md6da00541d" y="192.69753"/>
     <use style="fill:#ff0000;stroke:#ff0000;" x="197.803437" xlink:href="#md6da00541d" y="167.573286"/>
     <use style="fill:#ff0000;stroke:#ff0000;" x="217.269068" xlink:href="#md6da00541d" y="224.196148"/>
     <use style="fill:#ff0000;stroke:#ff0000;" x="300.885653" xlink:href="#md6da00541d" y="243.775225"/>
     <use style="fill:#ff0000;stroke:#ff0000;" x="316.736856" xlink:href="#md6da00541d" y="245.710798"/>
     <use style="fill:#ff0000;stroke:#ff0000;" x="318.547204" xlink:href="#md6da00541d" y="214.326687"/>
     <use style="fill:#ff0000;stroke:#ff0000;" x="143.234223" xlink:href="#md6da00541d" y="141.771817"/>
     <use style="fill:#ff0000;stroke:#ff0000;" x="242.223919" xlink:href="#md6da00541d" y="223.035558"/>
     <use style="fill:#ff0000;stroke:#ff0000;" x="258.442486" xlink:href="#md6da00541d" y="254.247132"/>
     <use style="fill:#ff0000;stroke:#ff0000;" x="309.893487" xlink:href="#md6da00541d" y="247.751094"/>
     <use style="fill:#ff0000;stroke:#ff0000;" x="301.914599" xlink:href="#md6da00541d" y="223.902006"/>
     <use style="fill:#ff0000;stroke:#ff0000;" x="200.995608" xlink:href="#md6da00541d" y="216.337185"/>
     <use style="fill:#ff0000;stroke:#ff0000;" x="317.886087" xlink:href="#md6da00541d" y="215.11586"/>
     <use style="fill:#ff0000;stroke:#ff0000;" x="154.657663" xlink:href="#md6da00541d" y="176.270105"/>
     <use style="fill:#ff0000;stroke:#ff0000;" x="316.457575" xlink:href="#md6da00541d" y="236.290761"/>
     <use style="fill:#ff0000;stroke:#ff0000;" x="248.342885" xlink:href="#md6da00541d" y="252.367564"/>
     <use style="fill:#ff0000;stroke:#ff0000;" x="99.439977" xlink:href="#md6da00541d" y="249.667007"/>
     <use style="fill:#ff0000;stroke:#ff0000;" x="220.493431" xlink:href="#md6da00541d" y="219.71839"/>
     <use style="fill:#ff0000;stroke:#ff0000;" x="166.294607" xlink:href="#md6da00541d" y="181.546819"/>
     <use style="fill:#ff0000;stroke:#ff0000;" x="191.460335" xlink:href="#md6da00541d" y="218.257598"/>
     <use style="fill:#ff0000;stroke:#ff0000;" x="186.873189" xlink:href="#md6da00541d" y="185.723062"/>
     <use style="fill:#ff0000;stroke:#ff0000;" x="348.94126" xlink:href="#md6da00541d" y="243.625727"/>
     <use style="fill:#ff0000;stroke:#ff0000;" x="224.376735" xlink:href="#md6da00541d" y="203.666061"/>
     <use style="fill:#ff0000;stroke:#ff0000;" x="212.594717" xlink:href="#md6da00541d" y="222.492127"/>
     <use style="fill:#ff0000;stroke:#ff0000;" x="328.114292" xlink:href="#md6da00541d" y="233.535541"/>
     <use style="fill:#ff0000;stroke:#ff0000;" x="204.772271" xlink:href="#md6da00541d" y="202.00594"/>
     <use style="fill:#ff0000;stroke:#ff0000;" x="159.769411" xlink:href="#md6da00541d" y="242.519698"/>
     <use style="fill:#ff0000;stroke:#ff0000;" x="88.11518" xlink:href="#md6da00541d" y="253.120641"/>
     <use style="fill:#ff0000;stroke:#ff0000;" x="183.626738" xlink:href="#md6da00541d" y="196.976709"/>
     <use style="fill:#ff0000;stroke:#ff0000;" x="101.57074" xlink:href="#md6da00541d" y="244.740323"/>
     <use style="fill:#ff0000;stroke:#ff0000;" x="278.042222" xlink:href="#md6da00541d" y="240.452694"/>
     <use style="fill:#ff0000;stroke:#ff0000;" x="268.361879" xlink:href="#md6da00541d" y="244.858573"/>
     <use style="fill:#ff0000;stroke:#ff0000;" x="79.728825" xlink:href="#md6da00541d" y="255.874521"/>
     <use style="fill:#ff0000;stroke:#ff0000;" x="331.667641" xlink:href="#md6da00541d" y="232.327281"/>
     <use style="fill:#ff0000;stroke:#ff0000;" x="181.871367" xlink:href="#md6da00541d" y="234.033413"/>
     <use style="fill:#ff0000;stroke:#ff0000;" x="288.08942" xlink:href="#md6da00541d" y="232.276336"/>
     <use style="fill:#ff0000;stroke:#ff0000;" x="254.422631" xlink:href="#md6da00541d" y="232.265339"/>
     <use style="fill:#ff0000;stroke:#ff0000;" x="187.236246" xlink:href="#md6da00541d" y="167.062857"/>
     <use style="fill:#ff0000;stroke:#ff0000;" x="103.287795" xlink:href="#md6da00541d" y="149.376127"/>
     <use style="fill:#ff0000;stroke:#ff0000;" x="172.232565" xlink:href="#md6da00541d" y="151.061499"/>
     <use style="fill:#ff0000;stroke:#ff0000;" x="140.677786" xlink:href="#md6da00541d" y="245.495285"/>
     <use style="fill:#ff0000;stroke:#ff0000;" x="256.564512" xlink:href="#md6da00541d" y="194.028493"/>
     <use style="fill:#ff0000;stroke:#ff0000;" x="297.274369" xlink:href="#md6da00541d" y="125.895591"/>
     <use style="fill:#ff0000;stroke:#ff0000;" x="167.164444" xlink:href="#md6da00541d" y="156.593721"/>
     <use style="fill:#ff0000;stroke:#ff0000;" x="117.687648" xlink:href="#md6da00541d" y="242.861306"/>
     <use style="fill:#ff0000;stroke:#ff0000;" x="120.706519" xlink:href="#md6da00541d" y="241.93527"/>
     <use style="fill:#ff0000;stroke:#ff0000;" x="95.694534" xlink:href="#md6da00541d" y="252.51657"/>
     <use style="fill:#ff0000;stroke:#ff0000;" x="154.832348" xlink:href="#md6da00541d" y="183.292806"/>
     <use style="fill:#ff0000;stroke:#ff0000;" x="263.316938" xlink:href="#md6da00541d" y="170.458333"/>
     <use style="fill:#ff0000;stroke:#ff0000;" x="224.728963" xlink:href="#md6da00541d" y="203.118615"/>
     <use style="fill:#ff0000;stroke:#ff0000;" x="163.652692" xlink:href="#md6da00541d" y="245.747043"/>
     <use style="fill:#ff0000;stroke:#ff0000;" x="80.34023" xlink:href="#md6da00541d" y="255.829841"/>
     <use style="fill:#ff0000;stroke:#ff0000;" x="224.107638" xlink:href="#md6da00541d" y="123.170502"/>
     <use style="fill:#ff0000;stroke:#ff0000;" x="150.785237" xlink:href="#md6da00541d" y="122.647487"/>
     <use style="fill:#ff0000;stroke:#ff0000;" x="132.516186" xlink:href="#md6da00541d" y="246.015851"/>
     <use style="fill:#ff0000;stroke:#ff0000;" x="290.64116" xlink:href="#md6da00541d" y="123.344937"/>
     <use style="fill:#ff0000;stroke:#ff0000;" x="196.411135" xlink:href="#md6da00541d" y="167.07858"/>
     <use style="fill:#ff0000;stroke:#ff0000;" x="281.843259" xlink:href="#md6da00541d" y="235.986489"/>
     <use style="fill:#ff0000;stroke:#ff0000;" x="186.873189" xlink:href="#md6da00541d" y="185.723062"/>
     <use style="fill:#ff0000;stroke:#ff0000;" x="187.985784" xlink:href="#md6da00541d" y="134.516256"/>
     <use style="fill:#ff0000;stroke:#ff0000;" x="273.41096" xlink:href="#md6da00541d" y="241.97667"/>
     <use style="fill:#ff0000;stroke:#ff0000;" x="218.800092" xlink:href="#md6da00541d" y="130.831354"/>
    </g>
   </g>
   <g id="text_26">
    <!-- Pareto Front Plot -->
    <g transform="translate(160.158339 16.318125)scale(0.12 -0.12)">
     <defs>
      <path d="M 1259 4147 
L 1259 2394 
L 2053 2394 
Q 2494 2394 2734 2622 
Q 2975 2850 2975 3272 
Q 2975 3691 2734 3919 
Q 2494 4147 2053 4147 
L 1259 4147 
z
M 628 4666 
L 2053 4666 
Q 2838 4666 3239 4311 
Q 3641 3956 3641 3272 
Q 3641 2581 3239 2228 
Q 2838 1875 2053 1875 
L 1259 1875 
L 1259 0 
L 628 0 
L 628 4666 
z
" id="DejaVuSans-50" transform="scale(0.015625)"/>
      <path d="M 2194 1759 
Q 1497 1759 1228 1600 
Q 959 1441 959 1056 
Q 959 750 1161 570 
Q 1363 391 1709 391 
Q 2188 391 2477 730 
Q 2766 1069 2766 1631 
L 2766 1759 
L 2194 1759 
z
M 3341 1997 
L 3341 0 
L 2766 0 
L 2766 531 
Q 2569 213 2275 61 
Q 1981 -91 1556 -91 
Q 1019 -91 701 211 
Q 384 513 384 1019 
Q 384 1609 779 1909 
Q 1175 2209 1959 2209 
L 2766 2209 
L 2766 2266 
Q 2766 2663 2505 2880 
Q 2244 3097 1772 3097 
Q 1472 3097 1187 3025 
Q 903 2953 641 2809 
L 641 3341 
Q 956 3463 1253 3523 
Q 1550 3584 1831 3584 
Q 2591 3584 2966 3190 
Q 3341 2797 3341 1997 
z
" id="DejaVuSans-61" transform="scale(0.015625)"/>
      <path d="M 2631 2963 
Q 2534 3019 2420 3045 
Q 2306 3072 2169 3072 
Q 1681 3072 1420 2755 
Q 1159 2438 1159 1844 
L 1159 0 
L 581 0 
L 581 3500 
L 1159 3500 
L 1159 2956 
Q 1341 3275 1631 3429 
Q 1922 3584 2338 3584 
Q 2397 3584 2469 3576 
Q 2541 3569 2628 3553 
L 2631 2963 
z
" id="DejaVuSans-72" transform="scale(0.015625)"/>
      <path d="M 3597 1894 
L 3597 1613 
L 953 1613 
Q 991 1019 1311 708 
Q 1631 397 2203 397 
Q 2534 397 2845 478 
Q 3156 559 3463 722 
L 3463 178 
Q 3153 47 2828 -22 
Q 2503 -91 2169 -91 
Q 1331 -91 842 396 
Q 353 884 353 1716 
Q 353 2575 817 3079 
Q 1281 3584 2069 3584 
Q 2775 3584 3186 3129 
Q 3597 2675 3597 1894 
z
M 3022 2063 
Q 3016 2534 2758 2815 
Q 2500 3097 2075 3097 
Q 1594 3097 1305 2825 
Q 1016 2553 972 2059 
L 3022 2063 
z
" id="DejaVuSans-65" transform="scale(0.015625)"/>
      <path d="M 1172 4494 
L 1172 3500 
L 2356 3500 
L 2356 3053 
L 1172 3053 
L 1172 1153 
Q 1172 725 1289 603 
Q 1406 481 1766 481 
L 2356 481 
L 2356 0 
L 1766 0 
Q 1100 0 847 248 
Q 594 497 594 1153 
L 594 3053 
L 172 3053 
L 172 3500 
L 594 3500 
L 594 4494 
L 1172 4494 
z
" id="DejaVuSans-74" transform="scale(0.015625)"/>
      <path d="M 1959 3097 
Q 1497 3097 1228 2736 
Q 959 2375 959 1747 
Q 959 1119 1226 758 
Q 1494 397 1959 397 
Q 2419 397 2687 759 
Q 2956 1122 2956 1747 
Q 2956 2369 2687 2733 
Q 2419 3097 1959 3097 
z
M 1959 3584 
Q 2709 3584 3137 3096 
Q 3566 2609 3566 1747 
Q 3566 888 3137 398 
Q 2709 -91 1959 -91 
Q 1206 -91 779 398 
Q 353 888 353 1747 
Q 353 2609 779 3096 
Q 1206 3584 1959 3584 
z
" id="DejaVuSans-6f" transform="scale(0.015625)"/>
      <path id="DejaVuSans-20" transform="scale(0.015625)"/>
      <path d="M 3513 2113 
L 3513 0 
L 2938 0 
L 2938 2094 
Q 2938 2591 2744 2837 
Q 2550 3084 2163 3084 
Q 1697 3084 1428 2787 
Q 1159 2491 1159 1978 
L 1159 0 
L 581 0 
L 581 3500 
L 1159 3500 
L 1159 2956 
Q 1366 3272 1645 3428 
Q 1925 3584 2291 3584 
Q 2894 3584 3203 3211 
Q 3513 2838 3513 2113 
z
" id="DejaVuSans-6e" transform="scale(0.015625)"/>
      <path d="M 603 4863 
L 1178 4863 
L 1178 0 
L 603 0 
L 603 4863 
z
" id="DejaVuSans-6c" transform="scale(0.015625)"/>
     </defs>
     <use xlink:href="#DejaVuSans-50"/>
     <use x="55.802734" xlink:href="#DejaVuSans-61"/>
     <use x="117.082031" xlink:href="#DejaVuSans-72"/>
     <use x="155.945312" xlink:href="#DejaVuSans-65"/>
     <use x="217.46875" xlink:href="#DejaVuSans-74"/>
     <use x="256.677734" xlink:href="#DejaVuSans-6f"/>
     <use x="317.859375" xlink:href="#DejaVuSans-20"/>
     <use x="349.646484" xlink:href="#DejaVuSans-46"/>
     <use x="399.916016" xlink:href="#DejaVuSans-72"/>
     <use x="438.779297" xlink:href="#DejaVuSans-6f"/>
     <use x="499.960938" xlink:href="#DejaVuSans-6e"/>
     <use x="563.339844" xlink:href="#DejaVuSans-74"/>
     <use x="602.548828" xlink:href="#DejaVuSans-20"/>
     <use x="634.335938" xlink:href="#DejaVuSans-50"/>
     <use x="694.638672" xlink:href="#DejaVuSans-6c"/>
     <use x="722.421875" xlink:href="#DejaVuSans-6f"/>
     <use x="783.603516" xlink:href="#DejaVuSans-74"/>
    </g>
   </g>
   <g id="legend_1">
    <g id="patch_6">
     <path d="M 298.706464 44.99625 
L 375.325214 44.99625 
Q 377.325214 44.99625 377.325214 42.99625 
L 377.325214 29.318125 
Q 377.325214 27.318125 375.325214 27.318125 
L 298.706464 27.318125 
Q 296.706464 27.318125 296.706464 29.318125 
L 296.706464 42.99625 
Q 296.706464 44.99625 298.706464 44.99625 
z
" style="fill:#ffffff;opacity:0.8;stroke:#cccccc;stroke-linejoin:miter;"/>
    </g>
    <g id="line2d_27"/>
    <g id="line2d_28">
     <g>
      <use style="fill:#ff0000;stroke:#ff0000;" x="310.706464" xlink:href="#md6da00541d" y="35.416562"/>
     </g>
    </g>
    <g id="text_27">
     <!-- MOEA PF -->
     <g transform="translate(328.706464 38.916562)scale(0.1 -0.1)">
      <defs>
       <path d="M 628 4666 
L 1569 4666 
L 2759 1491 
L 3956 4666 
L 4897 4666 
L 4897 0 
L 4281 0 
L 4281 4097 
L 3078 897 
L 2444 897 
L 1241 4097 
L 1241 0 
L 628 0 
L 628 4666 
z
" id="DejaVuSans-4d" transform="scale(0.015625)"/>
       <path d="M 2522 4238 
Q 1834 4238 1429 3725 
Q 1025 3213 1025 2328 
Q 1025 1447 1429 934 
Q 1834 422 2522 422 
Q 3209 422 3611 934 
Q 4013 1447 4013 2328 
Q 4013 3213 3611 3725 
Q 3209 4238 2522 4238 
z
M 2522 4750 
Q 3503 4750 4090 4092 
Q 4678 3434 4678 2328 
Q 4678 1225 4090 567 
Q 3503 -91 2522 -91 
Q 1538 -91 948 565 
Q 359 1222 359 2328 
Q 359 3434 948 4092 
Q 1538 4750 2522 4750 
z
" id="DejaVuSans-4f" transform="scale(0.015625)"/>
       <path d="M 628 4666 
L 3578 4666 
L 3578 4134 
L 1259 4134 
L 1259 2753 
L 3481 2753 
L 3481 2222 
L 1259 2222 
L 1259 531 
L 3634 531 
L 3634 0 
L 628 0 
L 628 4666 
z
" id="DejaVuSans-45" transform="scale(0.015625)"/>
       <path d="M 2188 4044 
L 1331 1722 
L 3047 1722 
L 2188 4044 
z
M 1831 4666 
L 2547 4666 
L 4325 0 
L 3669 0 
L 3244 1197 
L 1141 1197 
L 716 0 
L 50 0 
L 1831 4666 
z
" id="DejaVuSans-41" transform="scale(0.015625)"/>
      </defs>
      <use xlink:href="#DejaVuSans-4d"/>
      <use x="86.279297" xlink:href="#DejaVuSans-4f"/>
      <use x="164.990234" xlink:href="#DejaVuSans-45"/>
      <use x="228.173828" xlink:href="#DejaVuSans-41"/>
      <use x="296.582031" xlink:href="#DejaVuSans-20"/>
      <use x="328.369141" xlink:href="#DejaVuSans-50"/>
      <use x="388.671875" xlink:href="#DejaVuSans-46"/>
     </g>
    </g>
   </g>
  </g>
 </g>
 <defs>
  <clipPath id="p28b0814c2e">
   <rect height="345.6" width="345.6" x="36.725214" y="22.318125"/>
  </clipPath>
 </defs>
</svg>
