<?xml version="1.0" encoding="utf-8" standalone="no"?>
<!DOCTYPE svg PUBLIC "-//W3C//DTD SVG 1.1//EN"
  "http://www.w3.org/Graphics/SVG/1.1/DTD/svg11.dtd">
<svg xmlns:xlink="http://www.w3.org/1999/xlink" width="408.10125pt" height="325.986375pt" viewBox="0 0 408.10125 325.986375" xmlns="http://www.w3.org/2000/svg" version="1.1">
 <metadata>
  <rdf:RDF xmlns:dc="http://purl.org/dc/elements/1.1/" xmlns:cc="http://creativecommons.org/ns#" xmlns:rdf="http://www.w3.org/1999/02/22-rdf-syntax-ns#">
   <cc:Work>
    <dc:type rdf:resource="http://purl.org/dc/dcmitype/StillImage"/>
    <dc:date>2022-10-23T14:34:05.374912</dc:date>
    <dc:format>image/svg+xml</dc:format>
    <dc:creator>
     <cc:Agent>
      <dc:title>Matplotlib v3.6.0, https://matplotlib.org/</dc:title>
     </cc:Agent>
    </dc:creator>
   </cc:Work>
  </rdf:RDF>
 </metadata>
 <defs>
  <style type="text/css">*{stroke-linejoin: round; stroke-linecap: butt}</style>
 </defs>
 <g id="figure_1">
  <g id="patch_1">
   <path d="M 0 325.986375 
L 408.10125 325.986375 
L 408.10125 0 
L 0 0 
z
" style="fill: #ffffff"/>
  </g>
  <g id="axes_1">
   <g id="patch_2">
    <path d="M 43.78125 288.430125 
L 400.90125 288.430125 
L 400.90125 22.318125 
L 43.78125 22.318125 
z
" style="fill: #ffffff"/>
   </g>
   <g id="matplotlib.axis_1">
    <g id="xtick_1">
     <g id="line2d_1">
      <path d="M 56.734638 288.430125 
L 56.734638 22.318125 
" clip-path="url(#p5cf48b1e46)" style="fill: none; stroke: #b0b0b0; stroke-width: 0.8; stroke-linecap: square"/>
     </g>
     <g id="line2d_2">
      <defs>
       <path id="me2bcc1537c" d="M 0 0 
L 0 3.5 
" style="stroke: #000000; stroke-width: 0.8"/>
      </defs>
      <g>
       <use xlink:href="#me2bcc1537c" x="56.734638" y="288.430125" style="stroke: #000000; stroke-width: 0.8"/>
      </g>
     </g>
     <g id="text_1">
      <!-- 0 -->
      <g transform="translate(53.553388 303.028562) scale(0.1 -0.1)">
       <defs>
        <path id="DejaVuSans-30" d="M 2034 4250 
Q 1547 4250 1301 3770 
Q 1056 3291 1056 2328 
Q 1056 1369 1301 889 
Q 1547 409 2034 409 
Q 2525 409 2770 889 
Q 3016 1369 3016 2328 
Q 3016 3291 2770 3770 
Q 2525 4250 2034 4250 
z
M 2034 4750 
Q 2819 4750 3233 4129 
Q 3647 3509 3647 2328 
Q 3647 1150 3233 529 
Q 2819 -91 2034 -91 
Q 1250 -91 836 529 
Q 422 1150 422 2328 
Q 422 3509 836 4129 
Q 1250 4750 2034 4750 
z
" transform="scale(0.015625)"/>
       </defs>
       <use xlink:href="#DejaVuSans-30"/>
      </g>
     </g>
    </g>
    <g id="xtick_2">
     <g id="line2d_3">
      <path d="M 122.321415 288.430125 
L 122.321415 22.318125 
" clip-path="url(#p5cf48b1e46)" style="fill: none; stroke: #b0b0b0; stroke-width: 0.8; stroke-linecap: square"/>
     </g>
     <g id="line2d_4">
      <g>
       <use xlink:href="#me2bcc1537c" x="122.321415" y="288.430125" style="stroke: #000000; stroke-width: 0.8"/>
      </g>
     </g>
     <g id="text_2">
      <!-- 20 -->
      <g transform="translate(115.958915 303.028562) scale(0.1 -0.1)">
       <defs>
        <path id="DejaVuSans-32" d="M 1228 531 
L 3431 531 
L 3431 0 
L 469 0 
L 469 531 
Q 828 903 1448 1529 
Q 2069 2156 2228 2338 
Q 2531 2678 2651 2914 
Q 2772 3150 2772 3378 
Q 2772 3750 2511 3984 
Q 2250 4219 1831 4219 
Q 1534 4219 1204 4116 
Q 875 4013 500 3803 
L 500 4441 
Q 881 4594 1212 4672 
Q 1544 4750 1819 4750 
Q 2544 4750 2975 4387 
Q 3406 4025 3406 3419 
Q 3406 3131 3298 2873 
Q 3191 2616 2906 2266 
Q 2828 2175 2409 1742 
Q 1991 1309 1228 531 
z
" transform="scale(0.015625)"/>
       </defs>
       <use xlink:href="#DejaVuSans-32"/>
       <use xlink:href="#DejaVuSans-30" x="63.623047"/>
      </g>
     </g>
    </g>
    <g id="xtick_3">
     <g id="line2d_5">
      <path d="M 187.908192 288.430125 
L 187.908192 22.318125 
" clip-path="url(#p5cf48b1e46)" style="fill: none; stroke: #b0b0b0; stroke-width: 0.8; stroke-linecap: square"/>
     </g>
     <g id="line2d_6">
      <g>
       <use xlink:href="#me2bcc1537c" x="187.908192" y="288.430125" style="stroke: #000000; stroke-width: 0.8"/>
      </g>
     </g>
     <g id="text_3">
      <!-- 40 -->
      <g transform="translate(181.545692 303.028562) scale(0.1 -0.1)">
       <defs>
        <path id="DejaVuSans-34" d="M 2419 4116 
L 825 1625 
L 2419 1625 
L 2419 4116 
z
M 2253 4666 
L 3047 4666 
L 3047 1625 
L 3713 1625 
L 3713 1100 
L 3047 1100 
L 3047 0 
L 2419 0 
L 2419 1100 
L 313 1100 
L 313 1709 
L 2253 4666 
z
" transform="scale(0.015625)"/>
       </defs>
       <use xlink:href="#DejaVuSans-34"/>
       <use xlink:href="#DejaVuSans-30" x="63.623047"/>
      </g>
     </g>
    </g>
    <g id="xtick_4">
     <g id="line2d_7">
      <path d="M 253.494969 288.430125 
L 253.494969 22.318125 
" clip-path="url(#p5cf48b1e46)" style="fill: none; stroke: #b0b0b0; stroke-width: 0.8; stroke-linecap: square"/>
     </g>
     <g id="line2d_8">
      <g>
       <use xlink:href="#me2bcc1537c" x="253.494969" y="288.430125" style="stroke: #000000; stroke-width: 0.8"/>
      </g>
     </g>
     <g id="text_4">
      <!-- 60 -->
      <g transform="translate(247.132469 303.028562) scale(0.1 -0.1)">
       <defs>
        <path id="DejaVuSans-36" d="M 2113 2584 
Q 1688 2584 1439 2293 
Q 1191 2003 1191 1497 
Q 1191 994 1439 701 
Q 1688 409 2113 409 
Q 2538 409 2786 701 
Q 3034 994 3034 1497 
Q 3034 2003 2786 2293 
Q 2538 2584 2113 2584 
z
M 3366 4563 
L 3366 3988 
Q 3128 4100 2886 4159 
Q 2644 4219 2406 4219 
Q 1781 4219 1451 3797 
Q 1122 3375 1075 2522 
Q 1259 2794 1537 2939 
Q 1816 3084 2150 3084 
Q 2853 3084 3261 2657 
Q 3669 2231 3669 1497 
Q 3669 778 3244 343 
Q 2819 -91 2113 -91 
Q 1303 -91 875 529 
Q 447 1150 447 2328 
Q 447 3434 972 4092 
Q 1497 4750 2381 4750 
Q 2619 4750 2861 4703 
Q 3103 4656 3366 4563 
z
" transform="scale(0.015625)"/>
       </defs>
       <use xlink:href="#DejaVuSans-36"/>
       <use xlink:href="#DejaVuSans-30" x="63.623047"/>
      </g>
     </g>
    </g>
    <g id="xtick_5">
     <g id="line2d_9">
      <path d="M 319.081746 288.430125 
L 319.081746 22.318125 
" clip-path="url(#p5cf48b1e46)" style="fill: none; stroke: #b0b0b0; stroke-width: 0.8; stroke-linecap: square"/>
     </g>
     <g id="line2d_10">
      <g>
       <use xlink:href="#me2bcc1537c" x="319.081746" y="288.430125" style="stroke: #000000; stroke-width: 0.8"/>
      </g>
     </g>
     <g id="text_5">
      <!-- 80 -->
      <g transform="translate(312.719246 303.028562) scale(0.1 -0.1)">
       <defs>
        <path id="DejaVuSans-38" d="M 2034 2216 
Q 1584 2216 1326 1975 
Q 1069 1734 1069 1313 
Q 1069 891 1326 650 
Q 1584 409 2034 409 
Q 2484 409 2743 651 
Q 3003 894 3003 1313 
Q 3003 1734 2745 1975 
Q 2488 2216 2034 2216 
z
M 1403 2484 
Q 997 2584 770 2862 
Q 544 3141 544 3541 
Q 544 4100 942 4425 
Q 1341 4750 2034 4750 
Q 2731 4750 3128 4425 
Q 3525 4100 3525 3541 
Q 3525 3141 3298 2862 
Q 3072 2584 2669 2484 
Q 3125 2378 3379 2068 
Q 3634 1759 3634 1313 
Q 3634 634 3220 271 
Q 2806 -91 2034 -91 
Q 1263 -91 848 271 
Q 434 634 434 1313 
Q 434 1759 690 2068 
Q 947 2378 1403 2484 
z
M 1172 3481 
Q 1172 3119 1398 2916 
Q 1625 2713 2034 2713 
Q 2441 2713 2670 2916 
Q 2900 3119 2900 3481 
Q 2900 3844 2670 4047 
Q 2441 4250 2034 4250 
Q 1625 4250 1398 4047 
Q 1172 3844 1172 3481 
z
" transform="scale(0.015625)"/>
       </defs>
       <use xlink:href="#DejaVuSans-38"/>
       <use xlink:href="#DejaVuSans-30" x="63.623047"/>
      </g>
     </g>
    </g>
    <g id="xtick_6">
     <g id="line2d_11">
      <path d="M 384.668523 288.430125 
L 384.668523 22.318125 
" clip-path="url(#p5cf48b1e46)" style="fill: none; stroke: #b0b0b0; stroke-width: 0.8; stroke-linecap: square"/>
     </g>
     <g id="line2d_12">
      <g>
       <use xlink:href="#me2bcc1537c" x="384.668523" y="288.430125" style="stroke: #000000; stroke-width: 0.8"/>
      </g>
     </g>
     <g id="text_6">
      <!-- 100 -->
      <g transform="translate(375.124773 303.028562) scale(0.1 -0.1)">
       <defs>
        <path id="DejaVuSans-31" d="M 794 531 
L 1825 531 
L 1825 4091 
L 703 3866 
L 703 4441 
L 1819 4666 
L 2450 4666 
L 2450 531 
L 3481 531 
L 3481 0 
L 794 0 
L 794 531 
z
" transform="scale(0.015625)"/>
       </defs>
       <use xlink:href="#DejaVuSans-31"/>
       <use xlink:href="#DejaVuSans-30" x="63.623047"/>
       <use xlink:href="#DejaVuSans-30" x="127.246094"/>
      </g>
     </g>
    </g>
    <g id="text_7">
     <!-- Generation Number -->
     <g transform="translate(172.773281 316.706687) scale(0.1 -0.1)">
      <defs>
       <path id="DejaVuSans-47" d="M 3809 666 
L 3809 1919 
L 2778 1919 
L 2778 2438 
L 4434 2438 
L 4434 434 
Q 4069 175 3628 42 
Q 3188 -91 2688 -91 
Q 1594 -91 976 548 
Q 359 1188 359 2328 
Q 359 3472 976 4111 
Q 1594 4750 2688 4750 
Q 3144 4750 3555 4637 
Q 3966 4525 4313 4306 
L 4313 3634 
Q 3963 3931 3569 4081 
Q 3175 4231 2741 4231 
Q 1884 4231 1454 3753 
Q 1025 3275 1025 2328 
Q 1025 1384 1454 906 
Q 1884 428 2741 428 
Q 3075 428 3337 486 
Q 3600 544 3809 666 
z
" transform="scale(0.015625)"/>
       <path id="DejaVuSans-65" d="M 3597 1894 
L 3597 1613 
L 953 1613 
Q 991 1019 1311 708 
Q 1631 397 2203 397 
Q 2534 397 2845 478 
Q 3156 559 3463 722 
L 3463 178 
Q 3153 47 2828 -22 
Q 2503 -91 2169 -91 
Q 1331 -91 842 396 
Q 353 884 353 1716 
Q 353 2575 817 3079 
Q 1281 3584 2069 3584 
Q 2775 3584 3186 3129 
Q 3597 2675 3597 1894 
z
M 3022 2063 
Q 3016 2534 2758 2815 
Q 2500 3097 2075 3097 
Q 1594 3097 1305 2825 
Q 1016 2553 972 2059 
L 3022 2063 
z
" transform="scale(0.015625)"/>
       <path id="DejaVuSans-6e" d="M 3513 2113 
L 3513 0 
L 2938 0 
L 2938 2094 
Q 2938 2591 2744 2837 
Q 2550 3084 2163 3084 
Q 1697 3084 1428 2787 
Q 1159 2491 1159 1978 
L 1159 0 
L 581 0 
L 581 3500 
L 1159 3500 
L 1159 2956 
Q 1366 3272 1645 3428 
Q 1925 3584 2291 3584 
Q 2894 3584 3203 3211 
Q 3513 2838 3513 2113 
z
" transform="scale(0.015625)"/>
       <path id="DejaVuSans-72" d="M 2631 2963 
Q 2534 3019 2420 3045 
Q 2306 3072 2169 3072 
Q 1681 3072 1420 2755 
Q 1159 2438 1159 1844 
L 1159 0 
L 581 0 
L 581 3500 
L 1159 3500 
L 1159 2956 
Q 1341 3275 1631 3429 
Q 1922 3584 2338 3584 
Q 2397 3584 2469 3576 
Q 2541 3569 2628 3553 
L 2631 2963 
z
" transform="scale(0.015625)"/>
       <path id="DejaVuSans-61" d="M 2194 1759 
Q 1497 1759 1228 1600 
Q 959 1441 959 1056 
Q 959 750 1161 570 
Q 1363 391 1709 391 
Q 2188 391 2477 730 
Q 2766 1069 2766 1631 
L 2766 1759 
L 2194 1759 
z
M 3341 1997 
L 3341 0 
L 2766 0 
L 2766 531 
Q 2569 213 2275 61 
Q 1981 -91 1556 -91 
Q 1019 -91 701 211 
Q 384 513 384 1019 
Q 384 1609 779 1909 
Q 1175 2209 1959 2209 
L 2766 2209 
L 2766 2266 
Q 2766 2663 2505 2880 
Q 2244 3097 1772 3097 
Q 1472 3097 1187 3025 
Q 903 2953 641 2809 
L 641 3341 
Q 956 3463 1253 3523 
Q 1550 3584 1831 3584 
Q 2591 3584 2966 3190 
Q 3341 2797 3341 1997 
z
" transform="scale(0.015625)"/>
       <path id="DejaVuSans-74" d="M 1172 4494 
L 1172 3500 
L 2356 3500 
L 2356 3053 
L 1172 3053 
L 1172 1153 
Q 1172 725 1289 603 
Q 1406 481 1766 481 
L 2356 481 
L 2356 0 
L 1766 0 
Q 1100 0 847 248 
Q 594 497 594 1153 
L 594 3053 
L 172 3053 
L 172 3500 
L 594 3500 
L 594 4494 
L 1172 4494 
z
" transform="scale(0.015625)"/>
       <path id="DejaVuSans-69" d="M 603 3500 
L 1178 3500 
L 1178 0 
L 603 0 
L 603 3500 
z
M 603 4863 
L 1178 4863 
L 1178 4134 
L 603 4134 
L 603 4863 
z
" transform="scale(0.015625)"/>
       <path id="DejaVuSans-6f" d="M 1959 3097 
Q 1497 3097 1228 2736 
Q 959 2375 959 1747 
Q 959 1119 1226 758 
Q 1494 397 1959 397 
Q 2419 397 2687 759 
Q 2956 1122 2956 1747 
Q 2956 2369 2687 2733 
Q 2419 3097 1959 3097 
z
M 1959 3584 
Q 2709 3584 3137 3096 
Q 3566 2609 3566 1747 
Q 3566 888 3137 398 
Q 2709 -91 1959 -91 
Q 1206 -91 779 398 
Q 353 888 353 1747 
Q 353 2609 779 3096 
Q 1206 3584 1959 3584 
z
" transform="scale(0.015625)"/>
       <path id="DejaVuSans-20" transform="scale(0.015625)"/>
       <path id="DejaVuSans-4e" d="M 628 4666 
L 1478 4666 
L 3547 763 
L 3547 4666 
L 4159 4666 
L 4159 0 
L 3309 0 
L 1241 3903 
L 1241 0 
L 628 0 
L 628 4666 
z
" transform="scale(0.015625)"/>
       <path id="DejaVuSans-75" d="M 544 1381 
L 544 3500 
L 1119 3500 
L 1119 1403 
Q 1119 906 1312 657 
Q 1506 409 1894 409 
Q 2359 409 2629 706 
Q 2900 1003 2900 1516 
L 2900 3500 
L 3475 3500 
L 3475 0 
L 2900 0 
L 2900 538 
Q 2691 219 2414 64 
Q 2138 -91 1772 -91 
Q 1169 -91 856 284 
Q 544 659 544 1381 
z
M 1991 3584 
L 1991 3584 
z
" transform="scale(0.015625)"/>
       <path id="DejaVuSans-6d" d="M 3328 2828 
Q 3544 3216 3844 3400 
Q 4144 3584 4550 3584 
Q 5097 3584 5394 3201 
Q 5691 2819 5691 2113 
L 5691 0 
L 5113 0 
L 5113 2094 
Q 5113 2597 4934 2840 
Q 4756 3084 4391 3084 
Q 3944 3084 3684 2787 
Q 3425 2491 3425 1978 
L 3425 0 
L 2847 0 
L 2847 2094 
Q 2847 2600 2669 2842 
Q 2491 3084 2119 3084 
Q 1678 3084 1418 2786 
Q 1159 2488 1159 1978 
L 1159 0 
L 581 0 
L 581 3500 
L 1159 3500 
L 1159 2956 
Q 1356 3278 1631 3431 
Q 1906 3584 2284 3584 
Q 2666 3584 2933 3390 
Q 3200 3197 3328 2828 
z
" transform="scale(0.015625)"/>
       <path id="DejaVuSans-62" d="M 3116 1747 
Q 3116 2381 2855 2742 
Q 2594 3103 2138 3103 
Q 1681 3103 1420 2742 
Q 1159 2381 1159 1747 
Q 1159 1113 1420 752 
Q 1681 391 2138 391 
Q 2594 391 2855 752 
Q 3116 1113 3116 1747 
z
M 1159 2969 
Q 1341 3281 1617 3432 
Q 1894 3584 2278 3584 
Q 2916 3584 3314 3078 
Q 3713 2572 3713 1747 
Q 3713 922 3314 415 
Q 2916 -91 2278 -91 
Q 1894 -91 1617 61 
Q 1341 213 1159 525 
L 1159 0 
L 581 0 
L 581 4863 
L 1159 4863 
L 1159 2969 
z
" transform="scale(0.015625)"/>
      </defs>
      <use xlink:href="#DejaVuSans-47"/>
      <use xlink:href="#DejaVuSans-65" x="77.490234"/>
      <use xlink:href="#DejaVuSans-6e" x="139.013672"/>
      <use xlink:href="#DejaVuSans-65" x="202.392578"/>
      <use xlink:href="#DejaVuSans-72" x="263.916016"/>
      <use xlink:href="#DejaVuSans-61" x="305.029297"/>
      <use xlink:href="#DejaVuSans-74" x="366.308594"/>
      <use xlink:href="#DejaVuSans-69" x="405.517578"/>
      <use xlink:href="#DejaVuSans-6f" x="433.300781"/>
      <use xlink:href="#DejaVuSans-6e" x="494.482422"/>
      <use xlink:href="#DejaVuSans-20" x="557.861328"/>
      <use xlink:href="#DejaVuSans-4e" x="589.648438"/>
      <use xlink:href="#DejaVuSans-75" x="664.453125"/>
      <use xlink:href="#DejaVuSans-6d" x="727.832031"/>
      <use xlink:href="#DejaVuSans-62" x="825.244141"/>
      <use xlink:href="#DejaVuSans-65" x="888.720703"/>
      <use xlink:href="#DejaVuSans-72" x="950.244141"/>
     </g>
    </g>
   </g>
   <g id="matplotlib.axis_2">
    <g id="ytick_1">
     <g id="line2d_13">
      <path d="M 43.78125 261.922727 
L 400.90125 261.922727 
" clip-path="url(#p5cf48b1e46)" style="fill: none; stroke: #b0b0b0; stroke-width: 0.8; stroke-linecap: square"/>
     </g>
     <g id="line2d_14">
      <defs>
       <path id="m098dd2b68a" d="M 0 0 
L -3.5 0 
" style="stroke: #000000; stroke-width: 0.8"/>
      </defs>
      <g>
       <use xlink:href="#m098dd2b68a" x="43.78125" y="261.922727" style="stroke: #000000; stroke-width: 0.8"/>
      </g>
     </g>
     <g id="text_8">
      <!-- 4.7 -->
      <g transform="translate(20.878125 265.721946) scale(0.1 -0.1)">
       <defs>
        <path id="DejaVuSans-2e" d="M 684 794 
L 1344 794 
L 1344 0 
L 684 0 
L 684 794 
z
" transform="scale(0.015625)"/>
        <path id="DejaVuSans-37" d="M 525 4666 
L 3525 4666 
L 3525 4397 
L 1831 0 
L 1172 0 
L 2766 4134 
L 525 4134 
L 525 4666 
z
" transform="scale(0.015625)"/>
       </defs>
       <use xlink:href="#DejaVuSans-34"/>
       <use xlink:href="#DejaVuSans-2e" x="63.623047"/>
       <use xlink:href="#DejaVuSans-37" x="95.410156"/>
      </g>
     </g>
    </g>
    <g id="ytick_2">
     <g id="line2d_15">
      <path d="M 43.78125 219.104777 
L 400.90125 219.104777 
" clip-path="url(#p5cf48b1e46)" style="fill: none; stroke: #b0b0b0; stroke-width: 0.8; stroke-linecap: square"/>
     </g>
     <g id="line2d_16">
      <g>
       <use xlink:href="#m098dd2b68a" x="43.78125" y="219.104777" style="stroke: #000000; stroke-width: 0.8"/>
      </g>
     </g>
     <g id="text_9">
      <!-- 4.8 -->
      <g transform="translate(20.878125 222.903996) scale(0.1 -0.1)">
       <use xlink:href="#DejaVuSans-34"/>
       <use xlink:href="#DejaVuSans-2e" x="63.623047"/>
       <use xlink:href="#DejaVuSans-38" x="95.410156"/>
      </g>
     </g>
    </g>
    <g id="ytick_3">
     <g id="line2d_17">
      <path d="M 43.78125 176.286827 
L 400.90125 176.286827 
" clip-path="url(#p5cf48b1e46)" style="fill: none; stroke: #b0b0b0; stroke-width: 0.8; stroke-linecap: square"/>
     </g>
     <g id="line2d_18">
      <g>
       <use xlink:href="#m098dd2b68a" x="43.78125" y="176.286827" style="stroke: #000000; stroke-width: 0.8"/>
      </g>
     </g>
     <g id="text_10">
      <!-- 4.9 -->
      <g transform="translate(20.878125 180.086046) scale(0.1 -0.1)">
       <defs>
        <path id="DejaVuSans-39" d="M 703 97 
L 703 672 
Q 941 559 1184 500 
Q 1428 441 1663 441 
Q 2288 441 2617 861 
Q 2947 1281 2994 2138 
Q 2813 1869 2534 1725 
Q 2256 1581 1919 1581 
Q 1219 1581 811 2004 
Q 403 2428 403 3163 
Q 403 3881 828 4315 
Q 1253 4750 1959 4750 
Q 2769 4750 3195 4129 
Q 3622 3509 3622 2328 
Q 3622 1225 3098 567 
Q 2575 -91 1691 -91 
Q 1453 -91 1209 -44 
Q 966 3 703 97 
z
M 1959 2075 
Q 2384 2075 2632 2365 
Q 2881 2656 2881 3163 
Q 2881 3666 2632 3958 
Q 2384 4250 1959 4250 
Q 1534 4250 1286 3958 
Q 1038 3666 1038 3163 
Q 1038 2656 1286 2365 
Q 1534 2075 1959 2075 
z
" transform="scale(0.015625)"/>
       </defs>
       <use xlink:href="#DejaVuSans-34"/>
       <use xlink:href="#DejaVuSans-2e" x="63.623047"/>
       <use xlink:href="#DejaVuSans-39" x="95.410156"/>
      </g>
     </g>
    </g>
    <g id="ytick_4">
     <g id="line2d_19">
      <path d="M 43.78125 133.468877 
L 400.90125 133.468877 
" clip-path="url(#p5cf48b1e46)" style="fill: none; stroke: #b0b0b0; stroke-width: 0.8; stroke-linecap: square"/>
     </g>
     <g id="line2d_20">
      <g>
       <use xlink:href="#m098dd2b68a" x="43.78125" y="133.468877" style="stroke: #000000; stroke-width: 0.8"/>
      </g>
     </g>
     <g id="text_11">
      <!-- 5.0 -->
      <g transform="translate(20.878125 137.268096) scale(0.1 -0.1)">
       <defs>
        <path id="DejaVuSans-35" d="M 691 4666 
L 3169 4666 
L 3169 4134 
L 1269 4134 
L 1269 2991 
Q 1406 3038 1543 3061 
Q 1681 3084 1819 3084 
Q 2600 3084 3056 2656 
Q 3513 2228 3513 1497 
Q 3513 744 3044 326 
Q 2575 -91 1722 -91 
Q 1428 -91 1123 -41 
Q 819 9 494 109 
L 494 744 
Q 775 591 1075 516 
Q 1375 441 1709 441 
Q 2250 441 2565 725 
Q 2881 1009 2881 1497 
Q 2881 1984 2565 2268 
Q 2250 2553 1709 2553 
Q 1456 2553 1204 2497 
Q 953 2441 691 2322 
L 691 4666 
z
" transform="scale(0.015625)"/>
       </defs>
       <use xlink:href="#DejaVuSans-35"/>
       <use xlink:href="#DejaVuSans-2e" x="63.623047"/>
       <use xlink:href="#DejaVuSans-30" x="95.410156"/>
      </g>
     </g>
    </g>
    <g id="ytick_5">
     <g id="line2d_21">
      <path d="M 43.78125 90.650927 
L 400.90125 90.650927 
" clip-path="url(#p5cf48b1e46)" style="fill: none; stroke: #b0b0b0; stroke-width: 0.8; stroke-linecap: square"/>
     </g>
     <g id="line2d_22">
      <g>
       <use xlink:href="#m098dd2b68a" x="43.78125" y="90.650927" style="stroke: #000000; stroke-width: 0.8"/>
      </g>
     </g>
     <g id="text_12">
      <!-- 5.1 -->
      <g transform="translate(20.878125 94.450145) scale(0.1 -0.1)">
       <use xlink:href="#DejaVuSans-35"/>
       <use xlink:href="#DejaVuSans-2e" x="63.623047"/>
       <use xlink:href="#DejaVuSans-31" x="95.410156"/>
      </g>
     </g>
    </g>
    <g id="ytick_6">
     <g id="line2d_23">
      <path d="M 43.78125 47.832977 
L 400.90125 47.832977 
" clip-path="url(#p5cf48b1e46)" style="fill: none; stroke: #b0b0b0; stroke-width: 0.8; stroke-linecap: square"/>
     </g>
     <g id="line2d_24">
      <g>
       <use xlink:href="#m098dd2b68a" x="43.78125" y="47.832977" style="stroke: #000000; stroke-width: 0.8"/>
      </g>
     </g>
     <g id="text_13">
      <!-- 5.2 -->
      <g transform="translate(20.878125 51.632195) scale(0.1 -0.1)">
       <use xlink:href="#DejaVuSans-35"/>
       <use xlink:href="#DejaVuSans-2e" x="63.623047"/>
       <use xlink:href="#DejaVuSans-32" x="95.410156"/>
      </g>
     </g>
    </g>
    <g id="text_14">
     <!-- Value -->
     <g transform="translate(14.798438 169.105375) rotate(-90) scale(0.1 -0.1)">
      <defs>
       <path id="DejaVuSans-56" d="M 1831 0 
L 50 4666 
L 709 4666 
L 2188 738 
L 3669 4666 
L 4325 4666 
L 2547 0 
L 1831 0 
z
" transform="scale(0.015625)"/>
       <path id="DejaVuSans-6c" d="M 603 4863 
L 1178 4863 
L 1178 0 
L 603 0 
L 603 4863 
z
" transform="scale(0.015625)"/>
      </defs>
      <use xlink:href="#DejaVuSans-56"/>
      <use xlink:href="#DejaVuSans-61" x="60.658203"/>
      <use xlink:href="#DejaVuSans-6c" x="121.9375"/>
      <use xlink:href="#DejaVuSans-75" x="149.720703"/>
      <use xlink:href="#DejaVuSans-65" x="213.099609"/>
     </g>
    </g>
   </g>
   <g id="line2d_25">
    <path d="M 60.013977 276.334125 
L 63.293316 237.914342 
L 66.572655 193.184716 
L 69.851994 152.117688 
L 73.131333 125.735146 
L 76.410671 105.198491 
L 79.69001 95.983085 
L 82.969349 85.141472 
L 86.248688 73.661826 
L 89.528027 69.267593 
L 92.807366 61.872495 
L 96.086705 56.580494 
L 99.366043 52.272667 
L 102.645382 46.890183 
L 105.924721 43.69948 
L 109.20406 44.428493 
L 112.483399 40.976865 
L 115.762738 41.86909 
L 119.042076 39.006554 
L 122.321415 37.382889 
L 125.600754 37.801767 
L 128.880093 36.021917 
L 132.159432 35.870294 
L 135.438771 35.094899 
L 138.71811 37.146404 
L 141.997448 38.593136 
L 145.276787 34.725684 
L 148.556126 34.879588 
L 151.835465 37.160952 
L 155.114804 34.959084 
L 158.394143 37.999014 
L 161.673481 37.139198 
L 164.95282 37.475207 
L 168.232159 37.679382 
L 171.511498 36.365254 
L 174.790837 35.212805 
L 178.070176 35.910181 
L 181.349514 34.687705 
L 184.628853 34.632877 
L 187.908192 38.781366 
L 191.187531 35.239739 
L 194.46687 36.213791 
L 197.746209 36.764652 
L 201.025548 41.632672 
L 204.304886 35.334212 
L 207.584225 34.844668 
L 210.863564 35.189368 
L 214.142903 34.937475 
L 217.422242 35.524765 
L 220.701581 35.913234 
L 223.980919 35.014739 
L 227.260258 35.883508 
L 230.539597 35.626903 
L 233.818936 35.614516 
L 237.098275 34.928974 
L 240.377614 37.732028 
L 243.656952 36.165294 
L 246.936291 36.157243 
L 250.21563 35.984696 
L 253.494969 34.6894 
L 256.774308 37.91634 
L 260.053647 34.440168 
L 263.332986 34.614966 
L 266.612324 35.784647 
L 269.891663 37.490856 
L 273.171002 34.602236 
L 276.450341 35.110557 
L 279.72968 37.20756 
L 283.009019 37.255828 
L 286.288357 34.868229 
L 289.567696 37.402404 
L 292.847035 34.960159 
L 296.126374 36.893409 
L 299.405713 38.482028 
L 302.685052 37.519379 
L 305.96439 36.211421 
L 309.243729 34.574335 
L 312.523068 37.429339 
L 315.802407 35.849907 
L 319.081746 34.919788 
L 322.361085 35.026861 
L 325.640424 34.666499 
L 328.919762 35.686825 
L 332.199101 35.790239 
L 335.47844 35.606749 
L 338.757779 37.282553 
L 342.037118 37.156068 
L 345.316457 40.54374 
L 348.595795 38.775694 
L 351.875134 37.423661 
L 355.154473 35.624667 
L 358.433812 34.484306 
L 361.713151 41.820193 
L 364.99249 34.498155 
L 368.271829 38.894528 
L 371.551167 37.004241 
L 374.830506 35.672131 
L 378.109845 36.866787 
L 381.389184 35.768169 
L 384.668523 35.520993 
" clip-path="url(#p5cf48b1e46)" style="fill: none; stroke: #0000ff; stroke-width: 2; stroke-linecap: square"/>
   </g>
   <g id="line2d_26">
    <path d="M 60.013977 276.334125 
L 63.293316 237.914342 
L 66.572655 193.184716 
L 69.851994 152.117688 
L 73.131333 125.735146 
L 76.410671 105.198491 
L 79.69001 95.983085 
L 82.969349 85.141472 
L 86.248688 73.661826 
L 89.528027 69.267593 
L 92.807366 61.872495 
L 96.086705 56.580494 
L 99.366043 52.272667 
L 102.645382 46.890183 
L 105.924721 43.69948 
L 109.20406 44.428493 
L 112.483399 40.976865 
L 115.762738 41.86909 
L 119.042076 39.006554 
L 122.321415 37.382889 
L 125.600754 37.801767 
L 128.880093 36.021917 
L 132.159432 35.870294 
L 135.438771 35.094899 
L 138.71811 37.146404 
L 141.997448 38.593136 
L 145.276787 34.725684 
L 148.556126 34.879588 
L 151.835465 37.160952 
L 155.114804 34.959084 
L 158.394143 37.999014 
L 161.673481 37.139198 
L 164.95282 37.475207 
L 168.232159 37.679382 
L 171.511498 36.365254 
L 174.790837 35.212805 
L 178.070176 35.910181 
L 181.349514 34.687705 
L 184.628853 34.632877 
L 187.908192 38.781366 
L 191.187531 35.239739 
L 194.46687 36.213791 
L 197.746209 36.764652 
L 201.025548 41.632672 
L 204.304886 35.334212 
L 207.584225 34.844668 
L 210.863564 35.189368 
L 214.142903 34.937475 
L 217.422242 35.524765 
L 220.701581 35.913234 
L 223.980919 35.014739 
L 227.260258 35.883508 
L 230.539597 35.626903 
L 233.818936 35.614516 
L 237.098275 34.928974 
L 240.377614 37.732028 
L 243.656952 36.165294 
L 246.936291 36.157243 
L 250.21563 35.984696 
L 253.494969 34.6894 
L 256.774308 37.91634 
L 260.053647 34.440168 
L 263.332986 34.614966 
L 266.612324 35.784647 
L 269.891663 37.490856 
L 273.171002 34.602236 
L 276.450341 35.110557 
L 279.72968 37.20756 
L 283.009019 37.255828 
L 286.288357 34.868229 
L 289.567696 37.402404 
L 292.847035 34.960159 
L 296.126374 36.893409 
L 299.405713 38.482028 
L 302.685052 37.519379 
L 305.96439 36.211421 
L 309.243729 34.574335 
L 312.523068 37.429339 
L 315.802407 35.849907 
L 319.081746 34.919788 
L 322.361085 35.026861 
L 325.640424 34.666499 
L 328.919762 35.686825 
L 332.199101 35.790239 
L 335.47844 35.606749 
L 338.757779 37.282553 
L 342.037118 37.156068 
L 345.316457 40.54374 
L 348.595795 38.775694 
L 351.875134 37.423661 
L 355.154473 35.624667 
L 358.433812 34.484306 
L 361.713151 41.820193 
L 364.99249 34.498155 
L 368.271829 38.894528 
L 371.551167 37.004241 
L 374.830506 35.672131 
L 378.109845 36.866787 
L 381.389184 35.768169 
L 384.668523 35.520993 
" clip-path="url(#p5cf48b1e46)" style="fill: none; stroke: #0000ff; stroke-width: 2; stroke-linecap: square"/>
   </g>
   <g id="line2d_27">
    <path d="M 60.013977 56.003198 
L 63.293316 56.003198 
L 66.572655 56.003198 
L 69.851994 56.003174 
L 73.131333 56.003174 
L 76.410671 54.291926 
L 79.69001 52.492663 
L 82.969349 52.492663 
L 86.248688 44.196553 
L 89.528027 43.168802 
L 92.807366 39.130236 
L 96.086705 39.130236 
L 99.366043 39.125146 
L 102.645382 39.125146 
L 105.924721 35.474123 
L 109.20406 35.474123 
L 112.483399 35.472336 
L 115.762738 34.994255 
L 119.042076 34.581692 
L 122.321415 34.523757 
L 125.600754 34.523757 
L 128.880093 34.520886 
L 132.159432 34.520499 
L 135.438771 34.520499 
L 138.71811 34.499807 
L 141.997448 34.499782 
L 145.276787 34.499782 
L 148.556126 34.499782 
L 151.835465 34.499782 
L 155.114804 34.422084 
L 158.394143 34.422084 
L 161.673481 34.422059 
L 164.95282 34.421642 
L 168.232159 34.421642 
L 171.511498 34.421642 
L 174.790837 34.421642 
L 178.070176 34.414474 
L 181.349514 34.414474 
L 184.628853 34.41424 
L 187.908192 34.414228 
L 191.187531 34.414228 
L 194.46687 34.414228 
L 197.746209 34.414228 
L 201.025548 34.414228 
L 204.304886 34.414228 
L 207.584225 34.414228 
L 210.863564 34.414154 
L 214.142903 34.414154 
L 217.422242 34.414154 
L 220.701581 34.414154 
L 223.980919 34.414142 
L 227.260258 34.414142 
L 230.539597 34.414142 
L 233.818936 34.414142 
L 237.098275 34.414141 
L 240.377614 34.414141 
L 243.656952 34.414125 
L 246.936291 34.414125 
L 250.21563 34.414125 
L 253.494969 34.414125 
L 256.774308 34.414125 
L 260.053647 34.414125 
L 263.332986 34.414125 
L 266.612324 34.414125 
L 269.891663 34.414125 
L 273.171002 34.414125 
L 276.450341 34.414125 
L 279.72968 34.414125 
L 283.009019 34.414125 
L 286.288357 34.414125 
L 289.567696 34.414125 
L 292.847035 34.414125 
L 296.126374 34.414125 
L 299.405713 34.414125 
L 302.685052 34.414125 
L 305.96439 34.414125 
L 309.243729 34.414125 
L 312.523068 34.414125 
L 315.802407 34.414125 
L 319.081746 34.414125 
L 322.361085 34.414125 
L 325.640424 34.414125 
L 328.919762 34.414125 
L 332.199101 34.414125 
L 335.47844 34.414125 
L 338.757779 34.414125 
L 342.037118 34.414125 
L 345.316457 34.414125 
L 348.595795 34.414125 
L 351.875134 34.414125 
L 355.154473 34.414125 
L 358.433812 34.414125 
L 361.713151 34.414125 
L 364.99249 34.414125 
L 368.271829 34.414125 
L 371.551167 34.414125 
L 374.830506 34.414125 
L 378.109845 34.414125 
L 381.389184 34.414125 
L 384.668523 34.414125 
" clip-path="url(#p5cf48b1e46)" style="fill: none; stroke: #ffa500; stroke-width: 2; stroke-linecap: square"/>
   </g>
   <g id="line2d_28">
    <path d="M 60.013977 56.003198 
L 63.293316 56.003198 
L 66.572655 56.003198 
L 69.851994 56.003174 
L 73.131333 56.003174 
L 76.410671 54.291926 
L 79.69001 52.492663 
L 82.969349 52.492663 
L 86.248688 44.196553 
L 89.528027 43.168802 
L 92.807366 39.130236 
L 96.086705 39.130236 
L 99.366043 39.125146 
L 102.645382 39.125146 
L 105.924721 35.474123 
L 109.20406 35.474123 
L 112.483399 35.472336 
L 115.762738 34.994255 
L 119.042076 34.581692 
L 122.321415 34.523757 
L 125.600754 34.523757 
L 128.880093 34.520886 
L 132.159432 34.520499 
L 135.438771 34.520499 
L 138.71811 34.499807 
L 141.997448 34.499782 
L 145.276787 34.499782 
L 148.556126 34.499782 
L 151.835465 34.499782 
L 155.114804 34.422084 
L 158.394143 34.422084 
L 161.673481 34.422059 
L 164.95282 34.421642 
L 168.232159 34.421642 
L 171.511498 34.421642 
L 174.790837 34.421642 
L 178.070176 34.414474 
L 181.349514 34.414474 
L 184.628853 34.41424 
L 187.908192 34.414228 
L 191.187531 34.414228 
L 194.46687 34.414228 
L 197.746209 34.414228 
L 201.025548 34.414228 
L 204.304886 34.414228 
L 207.584225 34.414228 
L 210.863564 34.414154 
L 214.142903 34.414154 
L 217.422242 34.414154 
L 220.701581 34.414154 
L 223.980919 34.414142 
L 227.260258 34.414142 
L 230.539597 34.414142 
L 233.818936 34.414142 
L 237.098275 34.414141 
L 240.377614 34.414141 
L 243.656952 34.414125 
L 246.936291 34.414125 
L 250.21563 34.414125 
L 253.494969 34.414125 
L 256.774308 34.414125 
L 260.053647 34.414125 
L 263.332986 34.414125 
L 266.612324 34.414125 
L 269.891663 34.414125 
L 273.171002 34.414125 
L 276.450341 34.414125 
L 279.72968 34.414125 
L 283.009019 34.414125 
L 286.288357 34.414125 
L 289.567696 34.414125 
L 292.847035 34.414125 
L 296.126374 34.414125 
L 299.405713 34.414125 
L 302.685052 34.414125 
L 305.96439 34.414125 
L 309.243729 34.414125 
L 312.523068 34.414125 
L 315.802407 34.414125 
L 319.081746 34.414125 
L 322.361085 34.414125 
L 325.640424 34.414125 
L 328.919762 34.414125 
L 332.199101 34.414125 
L 335.47844 34.414125 
L 338.757779 34.414125 
L 342.037118 34.414125 
L 345.316457 34.414125 
L 348.595795 34.414125 
L 351.875134 34.414125 
L 355.154473 34.414125 
L 358.433812 34.414125 
L 361.713151 34.414125 
L 364.99249 34.414125 
L 368.271829 34.414125 
L 371.551167 34.414125 
L 374.830506 34.414125 
L 378.109845 34.414125 
L 381.389184 34.414125 
L 384.668523 34.414125 
" clip-path="url(#p5cf48b1e46)" style="fill: none; stroke: #ffa500; stroke-width: 2; stroke-linecap: square"/>
   </g>
   <g id="patch_3">
    <path d="M 43.78125 288.430125 
L 43.78125 22.318125 
" style="fill: none; stroke: #000000; stroke-width: 0.8; stroke-linejoin: miter; stroke-linecap: square"/>
   </g>
   <g id="patch_4">
    <path d="M 400.90125 288.430125 
L 400.90125 22.318125 
" style="fill: none; stroke: #000000; stroke-width: 0.8; stroke-linejoin: miter; stroke-linecap: square"/>
   </g>
   <g id="patch_5">
    <path d="M 43.78125 288.430125 
L 400.90125 288.430125 
" style="fill: none; stroke: #000000; stroke-width: 0.8; stroke-linejoin: miter; stroke-linecap: square"/>
   </g>
   <g id="patch_6">
    <path d="M 43.78125 22.318125 
L 400.90125 22.318125 
" style="fill: none; stroke: #000000; stroke-width: 0.8; stroke-linejoin: miter; stroke-linecap: square"/>
   </g>
   <g id="text_15">
    <!-- Trace Plot -->
    <g transform="translate(193.212187 16.318125) scale(0.12 -0.12)">
     <defs>
      <path id="DejaVuSans-54" d="M -19 4666 
L 3928 4666 
L 3928 4134 
L 2272 4134 
L 2272 0 
L 1638 0 
L 1638 4134 
L -19 4134 
L -19 4666 
z
" transform="scale(0.015625)"/>
      <path id="DejaVuSans-63" d="M 3122 3366 
L 3122 2828 
Q 2878 2963 2633 3030 
Q 2388 3097 2138 3097 
Q 1578 3097 1268 2742 
Q 959 2388 959 1747 
Q 959 1106 1268 751 
Q 1578 397 2138 397 
Q 2388 397 2633 464 
Q 2878 531 3122 666 
L 3122 134 
Q 2881 22 2623 -34 
Q 2366 -91 2075 -91 
Q 1284 -91 818 406 
Q 353 903 353 1747 
Q 353 2603 823 3093 
Q 1294 3584 2113 3584 
Q 2378 3584 2631 3529 
Q 2884 3475 3122 3366 
z
" transform="scale(0.015625)"/>
      <path id="DejaVuSans-50" d="M 1259 4147 
L 1259 2394 
L 2053 2394 
Q 2494 2394 2734 2622 
Q 2975 2850 2975 3272 
Q 2975 3691 2734 3919 
Q 2494 4147 2053 4147 
L 1259 4147 
z
M 628 4666 
L 2053 4666 
Q 2838 4666 3239 4311 
Q 3641 3956 3641 3272 
Q 3641 2581 3239 2228 
Q 2838 1875 2053 1875 
L 1259 1875 
L 1259 0 
L 628 0 
L 628 4666 
z
" transform="scale(0.015625)"/>
     </defs>
     <use xlink:href="#DejaVuSans-54"/>
     <use xlink:href="#DejaVuSans-72" x="46.333984"/>
     <use xlink:href="#DejaVuSans-61" x="87.447266"/>
     <use xlink:href="#DejaVuSans-63" x="148.726562"/>
     <use xlink:href="#DejaVuSans-65" x="203.707031"/>
     <use xlink:href="#DejaVuSans-20" x="265.230469"/>
     <use xlink:href="#DejaVuSans-50" x="297.017578"/>
     <use xlink:href="#DejaVuSans-6c" x="357.320312"/>
     <use xlink:href="#DejaVuSans-6f" x="385.103516"/>
     <use xlink:href="#DejaVuSans-74" x="446.285156"/>
    </g>
   </g>
   <g id="legend_1">
    <g id="patch_7">
     <path d="M 239.596563 283.430125 
L 393.90125 283.430125 
Q 395.90125 283.430125 395.90125 281.430125 
L 395.90125 253.073875 
Q 395.90125 251.073875 393.90125 251.073875 
L 239.596563 251.073875 
Q 237.596563 251.073875 237.596563 253.073875 
L 237.596563 281.430125 
Q 237.596563 283.430125 239.596563 283.430125 
z
" style="fill: #ffffff; opacity: 0.8; stroke: #cccccc; stroke-linejoin: miter"/>
    </g>
    <g id="line2d_29">
     <path d="M 241.596563 259.172312 
L 251.596563 259.172312 
L 261.596563 259.172312 
" style="fill: none; stroke: #0000ff; stroke-width: 2; stroke-linecap: square"/>
    </g>
    <g id="text_16">
     <!-- Average Objective Value -->
     <g transform="translate(269.596563 262.672312) scale(0.1 -0.1)">
      <defs>
       <path id="DejaVuSans-41" d="M 2188 4044 
L 1331 1722 
L 3047 1722 
L 2188 4044 
z
M 1831 4666 
L 2547 4666 
L 4325 0 
L 3669 0 
L 3244 1197 
L 1141 1197 
L 716 0 
L 50 0 
L 1831 4666 
z
" transform="scale(0.015625)"/>
       <path id="DejaVuSans-76" d="M 191 3500 
L 800 3500 
L 1894 563 
L 2988 3500 
L 3597 3500 
L 2284 0 
L 1503 0 
L 191 3500 
z
" transform="scale(0.015625)"/>
       <path id="DejaVuSans-67" d="M 2906 1791 
Q 2906 2416 2648 2759 
Q 2391 3103 1925 3103 
Q 1463 3103 1205 2759 
Q 947 2416 947 1791 
Q 947 1169 1205 825 
Q 1463 481 1925 481 
Q 2391 481 2648 825 
Q 2906 1169 2906 1791 
z
M 3481 434 
Q 3481 -459 3084 -895 
Q 2688 -1331 1869 -1331 
Q 1566 -1331 1297 -1286 
Q 1028 -1241 775 -1147 
L 775 -588 
Q 1028 -725 1275 -790 
Q 1522 -856 1778 -856 
Q 2344 -856 2625 -561 
Q 2906 -266 2906 331 
L 2906 616 
Q 2728 306 2450 153 
Q 2172 0 1784 0 
Q 1141 0 747 490 
Q 353 981 353 1791 
Q 353 2603 747 3093 
Q 1141 3584 1784 3584 
Q 2172 3584 2450 3431 
Q 2728 3278 2906 2969 
L 2906 3500 
L 3481 3500 
L 3481 434 
z
" transform="scale(0.015625)"/>
       <path id="DejaVuSans-4f" d="M 2522 4238 
Q 1834 4238 1429 3725 
Q 1025 3213 1025 2328 
Q 1025 1447 1429 934 
Q 1834 422 2522 422 
Q 3209 422 3611 934 
Q 4013 1447 4013 2328 
Q 4013 3213 3611 3725 
Q 3209 4238 2522 4238 
z
M 2522 4750 
Q 3503 4750 4090 4092 
Q 4678 3434 4678 2328 
Q 4678 1225 4090 567 
Q 3503 -91 2522 -91 
Q 1538 -91 948 565 
Q 359 1222 359 2328 
Q 359 3434 948 4092 
Q 1538 4750 2522 4750 
z
" transform="scale(0.015625)"/>
       <path id="DejaVuSans-6a" d="M 603 3500 
L 1178 3500 
L 1178 -63 
Q 1178 -731 923 -1031 
Q 669 -1331 103 -1331 
L -116 -1331 
L -116 -844 
L 38 -844 
Q 366 -844 484 -692 
Q 603 -541 603 -63 
L 603 3500 
z
M 603 4863 
L 1178 4863 
L 1178 4134 
L 603 4134 
L 603 4863 
z
" transform="scale(0.015625)"/>
      </defs>
      <use xlink:href="#DejaVuSans-41"/>
      <use xlink:href="#DejaVuSans-76" x="62.533203"/>
      <use xlink:href="#DejaVuSans-65" x="121.712891"/>
      <use xlink:href="#DejaVuSans-72" x="183.236328"/>
      <use xlink:href="#DejaVuSans-61" x="224.349609"/>
      <use xlink:href="#DejaVuSans-67" x="285.628906"/>
      <use xlink:href="#DejaVuSans-65" x="349.105469"/>
      <use xlink:href="#DejaVuSans-20" x="410.628906"/>
      <use xlink:href="#DejaVuSans-4f" x="442.416016"/>
      <use xlink:href="#DejaVuSans-62" x="521.126953"/>
      <use xlink:href="#DejaVuSans-6a" x="584.603516"/>
      <use xlink:href="#DejaVuSans-65" x="612.386719"/>
      <use xlink:href="#DejaVuSans-63" x="673.910156"/>
      <use xlink:href="#DejaVuSans-74" x="728.890625"/>
      <use xlink:href="#DejaVuSans-69" x="768.099609"/>
      <use xlink:href="#DejaVuSans-76" x="795.882812"/>
      <use xlink:href="#DejaVuSans-65" x="855.0625"/>
      <use xlink:href="#DejaVuSans-20" x="916.585938"/>
      <use xlink:href="#DejaVuSans-56" x="948.373047"/>
      <use xlink:href="#DejaVuSans-61" x="1009.03125"/>
      <use xlink:href="#DejaVuSans-6c" x="1070.310547"/>
      <use xlink:href="#DejaVuSans-75" x="1098.09375"/>
      <use xlink:href="#DejaVuSans-65" x="1161.472656"/>
     </g>
    </g>
    <g id="line2d_30">
     <path d="M 241.596563 273.850437 
L 251.596563 273.850437 
L 261.596563 273.850437 
" style="fill: none; stroke: #ffa500; stroke-width: 2; stroke-linecap: square"/>
    </g>
    <g id="text_17">
     <!-- Best Objective Value -->
     <g transform="translate(269.596563 277.350437) scale(0.1 -0.1)">
      <defs>
       <path id="DejaVuSans-42" d="M 1259 2228 
L 1259 519 
L 2272 519 
Q 2781 519 3026 730 
Q 3272 941 3272 1375 
Q 3272 1813 3026 2020 
Q 2781 2228 2272 2228 
L 1259 2228 
z
M 1259 4147 
L 1259 2741 
L 2194 2741 
Q 2656 2741 2882 2914 
Q 3109 3088 3109 3444 
Q 3109 3797 2882 3972 
Q 2656 4147 2194 4147 
L 1259 4147 
z
M 628 4666 
L 2241 4666 
Q 2963 4666 3353 4366 
Q 3744 4066 3744 3513 
Q 3744 3084 3544 2831 
Q 3344 2578 2956 2516 
Q 3422 2416 3680 2098 
Q 3938 1781 3938 1306 
Q 3938 681 3513 340 
Q 3088 0 2303 0 
L 628 0 
L 628 4666 
z
" transform="scale(0.015625)"/>
       <path id="DejaVuSans-73" d="M 2834 3397 
L 2834 2853 
Q 2591 2978 2328 3040 
Q 2066 3103 1784 3103 
Q 1356 3103 1142 2972 
Q 928 2841 928 2578 
Q 928 2378 1081 2264 
Q 1234 2150 1697 2047 
L 1894 2003 
Q 2506 1872 2764 1633 
Q 3022 1394 3022 966 
Q 3022 478 2636 193 
Q 2250 -91 1575 -91 
Q 1294 -91 989 -36 
Q 684 19 347 128 
L 347 722 
Q 666 556 975 473 
Q 1284 391 1588 391 
Q 1994 391 2212 530 
Q 2431 669 2431 922 
Q 2431 1156 2273 1281 
Q 2116 1406 1581 1522 
L 1381 1569 
Q 847 1681 609 1914 
Q 372 2147 372 2553 
Q 372 3047 722 3315 
Q 1072 3584 1716 3584 
Q 2034 3584 2315 3537 
Q 2597 3491 2834 3397 
z
" transform="scale(0.015625)"/>
      </defs>
      <use xlink:href="#DejaVuSans-42"/>
      <use xlink:href="#DejaVuSans-65" x="68.603516"/>
      <use xlink:href="#DejaVuSans-73" x="130.126953"/>
      <use xlink:href="#DejaVuSans-74" x="182.226562"/>
      <use xlink:href="#DejaVuSans-20" x="221.435547"/>
      <use xlink:href="#DejaVuSans-4f" x="253.222656"/>
      <use xlink:href="#DejaVuSans-62" x="331.933594"/>
      <use xlink:href="#DejaVuSans-6a" x="395.410156"/>
      <use xlink:href="#DejaVuSans-65" x="423.193359"/>
      <use xlink:href="#DejaVuSans-63" x="484.716797"/>
      <use xlink:href="#DejaVuSans-74" x="539.697266"/>
      <use xlink:href="#DejaVuSans-69" x="578.90625"/>
      <use xlink:href="#DejaVuSans-76" x="606.689453"/>
      <use xlink:href="#DejaVuSans-65" x="665.869141"/>
      <use xlink:href="#DejaVuSans-20" x="727.392578"/>
      <use xlink:href="#DejaVuSans-56" x="759.179688"/>
      <use xlink:href="#DejaVuSans-61" x="819.837891"/>
      <use xlink:href="#DejaVuSans-6c" x="881.117188"/>
      <use xlink:href="#DejaVuSans-75" x="908.900391"/>
      <use xlink:href="#DejaVuSans-65" x="972.279297"/>
     </g>
    </g>
   </g>
  </g>
 </g>
 <defs>
  <clipPath id="p5cf48b1e46">
   <rect x="43.78125" y="22.318125" width="357.12" height="266.112"/>
  </clipPath>
 </defs>
</svg>
