<?xml version="1.0" encoding="utf-8" standalone="no"?>
<!DOCTYPE svg PUBLIC "-//W3C//DTD SVG 1.1//EN"
  "http://www.w3.org/Graphics/SVG/1.1/DTD/svg11.dtd">
<svg height="325.986375pt" version="1.1" viewBox="0 0 411.285625 325.986375" width="411.285625pt" xmlns="http://www.w3.org/2000/svg" xmlns:xlink="http://www.w3.org/1999/xlink">
 <metadata>
  <rdf:RDF xmlns:cc="http://creativecommons.org/ns#" xmlns:dc="http://purl.org/dc/elements/1.1/" xmlns:rdf="http://www.w3.org/1999/02/22-rdf-syntax-ns#">
   <cc:Work>
    <dc:type rdf:resource="http://purl.org/dc/dcmitype/StillImage"/>
    <dc:date>2022-05-07T11:22:45.288013</dc:date>
    <dc:format>image/svg+xml</dc:format>
    <dc:creator>
     <cc:Agent>
      <dc:title>Matplotlib v3.4.2, https://matplotlib.org/</dc:title>
     </cc:Agent>
    </dc:creator>
   </cc:Work>
  </rdf:RDF>
 </metadata>
 <defs>
  <style type="text/css">*{stroke-linecap:butt;stroke-linejoin:round;}</style>
 </defs>
 <g id="figure_1">
  <g id="patch_1">
   <path d="M 0 325.986375 
L 411.285625 325.986375 
L 411.285625 0 
L 0 0 
z
" style="fill:#ffffff;"/>
  </g>
  <g id="axes_1">
   <g id="patch_2">
    <path d="M 46.965625 288.430125 
L 404.085625 288.430125 
L 404.085625 22.318125 
L 46.965625 22.318125 
z
" style="fill:#ffffff;"/>
   </g>
   <g id="matplotlib.axis_1">
    <g id="xtick_1">
     <g id="line2d_1">
      <path clip-path="url(#pb7517c6793)" d="M 72.206058 288.430125 
L 72.206058 22.318125 
" style="fill:none;stroke:#b0b0b0;stroke-linecap:square;stroke-width:0.8;"/>
     </g>
     <g id="line2d_2">
      <defs>
       <path d="M 0 0 
L 0 3.5 
" id="m2d9f897f0e" style="stroke:#000000;stroke-width:0.8;"/>
      </defs>
      <g>
       <use style="stroke:#000000;stroke-width:0.8;" x="72.206058" xlink:href="#m2d9f897f0e" y="288.430125"/>
      </g>
     </g>
     <g id="text_1">
      <!-- 1.5 -->
      <g transform="translate(64.254495 303.028562)scale(0.1 -0.1)">
       <defs>
        <path d="M 794 531 
L 1825 531 
L 1825 4091 
L 703 3866 
L 703 4441 
L 1819 4666 
L 2450 4666 
L 2450 531 
L 3481 531 
L 3481 0 
L 794 0 
L 794 531 
z
" id="DejaVuSans-31" transform="scale(0.015625)"/>
        <path d="M 684 794 
L 1344 794 
L 1344 0 
L 684 0 
L 684 794 
z
" id="DejaVuSans-2e" transform="scale(0.015625)"/>
        <path d="M 691 4666 
L 3169 4666 
L 3169 4134 
L 1269 4134 
L 1269 2991 
Q 1406 3038 1543 3061 
Q 1681 3084 1819 3084 
Q 2600 3084 3056 2656 
Q 3513 2228 3513 1497 
Q 3513 744 3044 326 
Q 2575 -91 1722 -91 
Q 1428 -91 1123 -41 
Q 819 9 494 109 
L 494 744 
Q 775 591 1075 516 
Q 1375 441 1709 441 
Q 2250 441 2565 725 
Q 2881 1009 2881 1497 
Q 2881 1984 2565 2268 
Q 2250 2553 1709 2553 
Q 1456 2553 1204 2497 
Q 953 2441 691 2322 
L 691 4666 
z
" id="DejaVuSans-35" transform="scale(0.015625)"/>
       </defs>
       <use xlink:href="#DejaVuSans-31"/>
       <use x="63.623047" xlink:href="#DejaVuSans-2e"/>
       <use x="95.410156" xlink:href="#DejaVuSans-35"/>
      </g>
     </g>
    </g>
    <g id="xtick_2">
     <g id="line2d_3">
      <path clip-path="url(#pb7517c6793)" d="M 115.921711 288.430125 
L 115.921711 22.318125 
" style="fill:none;stroke:#b0b0b0;stroke-linecap:square;stroke-width:0.8;"/>
     </g>
     <g id="line2d_4">
      <g>
       <use style="stroke:#000000;stroke-width:0.8;" x="115.921711" xlink:href="#m2d9f897f0e" y="288.430125"/>
      </g>
     </g>
     <g id="text_2">
      <!-- 2.0 -->
      <g transform="translate(107.970148 303.028562)scale(0.1 -0.1)">
       <defs>
        <path d="M 1228 531 
L 3431 531 
L 3431 0 
L 469 0 
L 469 531 
Q 828 903 1448 1529 
Q 2069 2156 2228 2338 
Q 2531 2678 2651 2914 
Q 2772 3150 2772 3378 
Q 2772 3750 2511 3984 
Q 2250 4219 1831 4219 
Q 1534 4219 1204 4116 
Q 875 4013 500 3803 
L 500 4441 
Q 881 4594 1212 4672 
Q 1544 4750 1819 4750 
Q 2544 4750 2975 4387 
Q 3406 4025 3406 3419 
Q 3406 3131 3298 2873 
Q 3191 2616 2906 2266 
Q 2828 2175 2409 1742 
Q 1991 1309 1228 531 
z
" id="DejaVuSans-32" transform="scale(0.015625)"/>
        <path d="M 2034 4250 
Q 1547 4250 1301 3770 
Q 1056 3291 1056 2328 
Q 1056 1369 1301 889 
Q 1547 409 2034 409 
Q 2525 409 2770 889 
Q 3016 1369 3016 2328 
Q 3016 3291 2770 3770 
Q 2525 4250 2034 4250 
z
M 2034 4750 
Q 2819 4750 3233 4129 
Q 3647 3509 3647 2328 
Q 3647 1150 3233 529 
Q 2819 -91 2034 -91 
Q 1250 -91 836 529 
Q 422 1150 422 2328 
Q 422 3509 836 4129 
Q 1250 4750 2034 4750 
z
" id="DejaVuSans-30" transform="scale(0.015625)"/>
       </defs>
       <use xlink:href="#DejaVuSans-32"/>
       <use x="63.623047" xlink:href="#DejaVuSans-2e"/>
       <use x="95.410156" xlink:href="#DejaVuSans-30"/>
      </g>
     </g>
    </g>
    <g id="xtick_3">
     <g id="line2d_5">
      <path clip-path="url(#pb7517c6793)" d="M 159.637363 288.430125 
L 159.637363 22.318125 
" style="fill:none;stroke:#b0b0b0;stroke-linecap:square;stroke-width:0.8;"/>
     </g>
     <g id="line2d_6">
      <g>
       <use style="stroke:#000000;stroke-width:0.8;" x="159.637363" xlink:href="#m2d9f897f0e" y="288.430125"/>
      </g>
     </g>
     <g id="text_3">
      <!-- 2.5 -->
      <g transform="translate(151.685801 303.028562)scale(0.1 -0.1)">
       <use xlink:href="#DejaVuSans-32"/>
       <use x="63.623047" xlink:href="#DejaVuSans-2e"/>
       <use x="95.410156" xlink:href="#DejaVuSans-35"/>
      </g>
     </g>
    </g>
    <g id="xtick_4">
     <g id="line2d_7">
      <path clip-path="url(#pb7517c6793)" d="M 203.353016 288.430125 
L 203.353016 22.318125 
" style="fill:none;stroke:#b0b0b0;stroke-linecap:square;stroke-width:0.8;"/>
     </g>
     <g id="line2d_8">
      <g>
       <use style="stroke:#000000;stroke-width:0.8;" x="203.353016" xlink:href="#m2d9f897f0e" y="288.430125"/>
      </g>
     </g>
     <g id="text_4">
      <!-- 3.0 -->
      <g transform="translate(195.401453 303.028562)scale(0.1 -0.1)">
       <defs>
        <path d="M 2597 2516 
Q 3050 2419 3304 2112 
Q 3559 1806 3559 1356 
Q 3559 666 3084 287 
Q 2609 -91 1734 -91 
Q 1441 -91 1130 -33 
Q 819 25 488 141 
L 488 750 
Q 750 597 1062 519 
Q 1375 441 1716 441 
Q 2309 441 2620 675 
Q 2931 909 2931 1356 
Q 2931 1769 2642 2001 
Q 2353 2234 1838 2234 
L 1294 2234 
L 1294 2753 
L 1863 2753 
Q 2328 2753 2575 2939 
Q 2822 3125 2822 3475 
Q 2822 3834 2567 4026 
Q 2313 4219 1838 4219 
Q 1578 4219 1281 4162 
Q 984 4106 628 3988 
L 628 4550 
Q 988 4650 1302 4700 
Q 1616 4750 1894 4750 
Q 2613 4750 3031 4423 
Q 3450 4097 3450 3541 
Q 3450 3153 3228 2886 
Q 3006 2619 2597 2516 
z
" id="DejaVuSans-33" transform="scale(0.015625)"/>
       </defs>
       <use xlink:href="#DejaVuSans-33"/>
       <use x="63.623047" xlink:href="#DejaVuSans-2e"/>
       <use x="95.410156" xlink:href="#DejaVuSans-30"/>
      </g>
     </g>
    </g>
    <g id="xtick_5">
     <g id="line2d_9">
      <path clip-path="url(#pb7517c6793)" d="M 247.068668 288.430125 
L 247.068668 22.318125 
" style="fill:none;stroke:#b0b0b0;stroke-linecap:square;stroke-width:0.8;"/>
     </g>
     <g id="line2d_10">
      <g>
       <use style="stroke:#000000;stroke-width:0.8;" x="247.068668" xlink:href="#m2d9f897f0e" y="288.430125"/>
      </g>
     </g>
     <g id="text_5">
      <!-- 3.5 -->
      <g transform="translate(239.117106 303.028562)scale(0.1 -0.1)">
       <use xlink:href="#DejaVuSans-33"/>
       <use x="63.623047" xlink:href="#DejaVuSans-2e"/>
       <use x="95.410156" xlink:href="#DejaVuSans-35"/>
      </g>
     </g>
    </g>
    <g id="xtick_6">
     <g id="line2d_11">
      <path clip-path="url(#pb7517c6793)" d="M 290.784321 288.430125 
L 290.784321 22.318125 
" style="fill:none;stroke:#b0b0b0;stroke-linecap:square;stroke-width:0.8;"/>
     </g>
     <g id="line2d_12">
      <g>
       <use style="stroke:#000000;stroke-width:0.8;" x="290.784321" xlink:href="#m2d9f897f0e" y="288.430125"/>
      </g>
     </g>
     <g id="text_6">
      <!-- 4.0 -->
      <g transform="translate(282.832759 303.028562)scale(0.1 -0.1)">
       <defs>
        <path d="M 2419 4116 
L 825 1625 
L 2419 1625 
L 2419 4116 
z
M 2253 4666 
L 3047 4666 
L 3047 1625 
L 3713 1625 
L 3713 1100 
L 3047 1100 
L 3047 0 
L 2419 0 
L 2419 1100 
L 313 1100 
L 313 1709 
L 2253 4666 
z
" id="DejaVuSans-34" transform="scale(0.015625)"/>
       </defs>
       <use xlink:href="#DejaVuSans-34"/>
       <use x="63.623047" xlink:href="#DejaVuSans-2e"/>
       <use x="95.410156" xlink:href="#DejaVuSans-30"/>
      </g>
     </g>
    </g>
    <g id="xtick_7">
     <g id="line2d_13">
      <path clip-path="url(#pb7517c6793)" d="M 334.499974 288.430125 
L 334.499974 22.318125 
" style="fill:none;stroke:#b0b0b0;stroke-linecap:square;stroke-width:0.8;"/>
     </g>
     <g id="line2d_14">
      <g>
       <use style="stroke:#000000;stroke-width:0.8;" x="334.499974" xlink:href="#m2d9f897f0e" y="288.430125"/>
      </g>
     </g>
     <g id="text_7">
      <!-- 4.5 -->
      <g transform="translate(326.548411 303.028562)scale(0.1 -0.1)">
       <use xlink:href="#DejaVuSans-34"/>
       <use x="63.623047" xlink:href="#DejaVuSans-2e"/>
       <use x="95.410156" xlink:href="#DejaVuSans-35"/>
      </g>
     </g>
    </g>
    <g id="xtick_8">
     <g id="line2d_15">
      <path clip-path="url(#pb7517c6793)" d="M 378.215626 288.430125 
L 378.215626 22.318125 
" style="fill:none;stroke:#b0b0b0;stroke-linecap:square;stroke-width:0.8;"/>
     </g>
     <g id="line2d_16">
      <g>
       <use style="stroke:#000000;stroke-width:0.8;" x="378.215626" xlink:href="#m2d9f897f0e" y="288.430125"/>
      </g>
     </g>
     <g id="text_8">
      <!-- 5.0 -->
      <g transform="translate(370.264064 303.028562)scale(0.1 -0.1)">
       <use xlink:href="#DejaVuSans-35"/>
       <use x="63.623047" xlink:href="#DejaVuSans-2e"/>
       <use x="95.410156" xlink:href="#DejaVuSans-30"/>
      </g>
     </g>
    </g>
    <g id="text_9">
     <!-- F1 -->
     <g transform="translate(219.468594 316.706687)scale(0.1 -0.1)">
      <defs>
       <path d="M 628 4666 
L 3309 4666 
L 3309 4134 
L 1259 4134 
L 1259 2759 
L 3109 2759 
L 3109 2228 
L 1259 2228 
L 1259 0 
L 628 0 
L 628 4666 
z
" id="DejaVuSans-46" transform="scale(0.015625)"/>
      </defs>
      <use xlink:href="#DejaVuSans-46"/>
      <use x="57.519531" xlink:href="#DejaVuSans-31"/>
     </g>
    </g>
    <g id="text_10">
     <!-- 1e6 -->
     <g transform="translate(385.2075 315.706687)scale(0.1 -0.1)">
      <defs>
       <path d="M 3597 1894 
L 3597 1613 
L 953 1613 
Q 991 1019 1311 708 
Q 1631 397 2203 397 
Q 2534 397 2845 478 
Q 3156 559 3463 722 
L 3463 178 
Q 3153 47 2828 -22 
Q 2503 -91 2169 -91 
Q 1331 -91 842 396 
Q 353 884 353 1716 
Q 353 2575 817 3079 
Q 1281 3584 2069 3584 
Q 2775 3584 3186 3129 
Q 3597 2675 3597 1894 
z
M 3022 2063 
Q 3016 2534 2758 2815 
Q 2500 3097 2075 3097 
Q 1594 3097 1305 2825 
Q 1016 2553 972 2059 
L 3022 2063 
z
" id="DejaVuSans-65" transform="scale(0.015625)"/>
       <path d="M 2113 2584 
Q 1688 2584 1439 2293 
Q 1191 2003 1191 1497 
Q 1191 994 1439 701 
Q 1688 409 2113 409 
Q 2538 409 2786 701 
Q 3034 994 3034 1497 
Q 3034 2003 2786 2293 
Q 2538 2584 2113 2584 
z
M 3366 4563 
L 3366 3988 
Q 3128 4100 2886 4159 
Q 2644 4219 2406 4219 
Q 1781 4219 1451 3797 
Q 1122 3375 1075 2522 
Q 1259 2794 1537 2939 
Q 1816 3084 2150 3084 
Q 2853 3084 3261 2657 
Q 3669 2231 3669 1497 
Q 3669 778 3244 343 
Q 2819 -91 2113 -91 
Q 1303 -91 875 529 
Q 447 1150 447 2328 
Q 447 3434 972 4092 
Q 1497 4750 2381 4750 
Q 2619 4750 2861 4703 
Q 3103 4656 3366 4563 
z
" id="DejaVuSans-36" transform="scale(0.015625)"/>
      </defs>
      <use xlink:href="#DejaVuSans-31"/>
      <use x="63.623047" xlink:href="#DejaVuSans-65"/>
      <use x="125.146484" xlink:href="#DejaVuSans-36"/>
     </g>
    </g>
   </g>
   <g id="matplotlib.axis_2">
    <g id="ytick_1">
     <g id="line2d_17">
      <path clip-path="url(#pb7517c6793)" d="M 46.965625 286.04724 
L 404.085625 286.04724 
" style="fill:none;stroke:#b0b0b0;stroke-linecap:square;stroke-width:0.8;"/>
     </g>
     <g id="line2d_18">
      <defs>
       <path d="M 0 0 
L -3.5 0 
" id="m37e0e6c13a" style="stroke:#000000;stroke-width:0.8;"/>
      </defs>
      <g>
       <use style="stroke:#000000;stroke-width:0.8;" x="46.965625" xlink:href="#m37e0e6c13a" y="286.04724"/>
      </g>
     </g>
     <g id="text_11">
      <!-- 40 -->
      <g transform="translate(27.240625 289.846458)scale(0.1 -0.1)">
       <use xlink:href="#DejaVuSans-34"/>
       <use x="63.623047" xlink:href="#DejaVuSans-30"/>
      </g>
     </g>
    </g>
    <g id="ytick_2">
     <g id="line2d_19">
      <path clip-path="url(#pb7517c6793)" d="M 46.965625 252.032441 
L 404.085625 252.032441 
" style="fill:none;stroke:#b0b0b0;stroke-linecap:square;stroke-width:0.8;"/>
     </g>
     <g id="line2d_20">
      <g>
       <use style="stroke:#000000;stroke-width:0.8;" x="46.965625" xlink:href="#m37e0e6c13a" y="252.032441"/>
      </g>
     </g>
     <g id="text_12">
      <!-- 50 -->
      <g transform="translate(27.240625 255.83166)scale(0.1 -0.1)">
       <use xlink:href="#DejaVuSans-35"/>
       <use x="63.623047" xlink:href="#DejaVuSans-30"/>
      </g>
     </g>
    </g>
    <g id="ytick_3">
     <g id="line2d_21">
      <path clip-path="url(#pb7517c6793)" d="M 46.965625 218.017643 
L 404.085625 218.017643 
" style="fill:none;stroke:#b0b0b0;stroke-linecap:square;stroke-width:0.8;"/>
     </g>
     <g id="line2d_22">
      <g>
       <use style="stroke:#000000;stroke-width:0.8;" x="46.965625" xlink:href="#m37e0e6c13a" y="218.017643"/>
      </g>
     </g>
     <g id="text_13">
      <!-- 60 -->
      <g transform="translate(27.240625 221.816862)scale(0.1 -0.1)">
       <use xlink:href="#DejaVuSans-36"/>
       <use x="63.623047" xlink:href="#DejaVuSans-30"/>
      </g>
     </g>
    </g>
    <g id="ytick_4">
     <g id="line2d_23">
      <path clip-path="url(#pb7517c6793)" d="M 46.965625 184.002845 
L 404.085625 184.002845 
" style="fill:none;stroke:#b0b0b0;stroke-linecap:square;stroke-width:0.8;"/>
     </g>
     <g id="line2d_24">
      <g>
       <use style="stroke:#000000;stroke-width:0.8;" x="46.965625" xlink:href="#m37e0e6c13a" y="184.002845"/>
      </g>
     </g>
     <g id="text_14">
      <!-- 70 -->
      <g transform="translate(27.240625 187.802064)scale(0.1 -0.1)">
       <defs>
        <path d="M 525 4666 
L 3525 4666 
L 3525 4397 
L 1831 0 
L 1172 0 
L 2766 4134 
L 525 4134 
L 525 4666 
z
" id="DejaVuSans-37" transform="scale(0.015625)"/>
       </defs>
       <use xlink:href="#DejaVuSans-37"/>
       <use x="63.623047" xlink:href="#DejaVuSans-30"/>
      </g>
     </g>
    </g>
    <g id="ytick_5">
     <g id="line2d_25">
      <path clip-path="url(#pb7517c6793)" d="M 46.965625 149.988047 
L 404.085625 149.988047 
" style="fill:none;stroke:#b0b0b0;stroke-linecap:square;stroke-width:0.8;"/>
     </g>
     <g id="line2d_26">
      <g>
       <use style="stroke:#000000;stroke-width:0.8;" x="46.965625" xlink:href="#m37e0e6c13a" y="149.988047"/>
      </g>
     </g>
     <g id="text_15">
      <!-- 80 -->
      <g transform="translate(27.240625 153.787265)scale(0.1 -0.1)">
       <defs>
        <path d="M 2034 2216 
Q 1584 2216 1326 1975 
Q 1069 1734 1069 1313 
Q 1069 891 1326 650 
Q 1584 409 2034 409 
Q 2484 409 2743 651 
Q 3003 894 3003 1313 
Q 3003 1734 2745 1975 
Q 2488 2216 2034 2216 
z
M 1403 2484 
Q 997 2584 770 2862 
Q 544 3141 544 3541 
Q 544 4100 942 4425 
Q 1341 4750 2034 4750 
Q 2731 4750 3128 4425 
Q 3525 4100 3525 3541 
Q 3525 3141 3298 2862 
Q 3072 2584 2669 2484 
Q 3125 2378 3379 2068 
Q 3634 1759 3634 1313 
Q 3634 634 3220 271 
Q 2806 -91 2034 -91 
Q 1263 -91 848 271 
Q 434 634 434 1313 
Q 434 1759 690 2068 
Q 947 2378 1403 2484 
z
M 1172 3481 
Q 1172 3119 1398 2916 
Q 1625 2713 2034 2713 
Q 2441 2713 2670 2916 
Q 2900 3119 2900 3481 
Q 2900 3844 2670 4047 
Q 2441 4250 2034 4250 
Q 1625 4250 1398 4047 
Q 1172 3844 1172 3481 
z
" id="DejaVuSans-38" transform="scale(0.015625)"/>
       </defs>
       <use xlink:href="#DejaVuSans-38"/>
       <use x="63.623047" xlink:href="#DejaVuSans-30"/>
      </g>
     </g>
    </g>
    <g id="ytick_6">
     <g id="line2d_27">
      <path clip-path="url(#pb7517c6793)" d="M 46.965625 115.973248 
L 404.085625 115.973248 
" style="fill:none;stroke:#b0b0b0;stroke-linecap:square;stroke-width:0.8;"/>
     </g>
     <g id="line2d_28">
      <g>
       <use style="stroke:#000000;stroke-width:0.8;" x="46.965625" xlink:href="#m37e0e6c13a" y="115.973248"/>
      </g>
     </g>
     <g id="text_16">
      <!-- 90 -->
      <g transform="translate(27.240625 119.772467)scale(0.1 -0.1)">
       <defs>
        <path d="M 703 97 
L 703 672 
Q 941 559 1184 500 
Q 1428 441 1663 441 
Q 2288 441 2617 861 
Q 2947 1281 2994 2138 
Q 2813 1869 2534 1725 
Q 2256 1581 1919 1581 
Q 1219 1581 811 2004 
Q 403 2428 403 3163 
Q 403 3881 828 4315 
Q 1253 4750 1959 4750 
Q 2769 4750 3195 4129 
Q 3622 3509 3622 2328 
Q 3622 1225 3098 567 
Q 2575 -91 1691 -91 
Q 1453 -91 1209 -44 
Q 966 3 703 97 
z
M 1959 2075 
Q 2384 2075 2632 2365 
Q 2881 2656 2881 3163 
Q 2881 3666 2632 3958 
Q 2384 4250 1959 4250 
Q 1534 4250 1286 3958 
Q 1038 3666 1038 3163 
Q 1038 2656 1286 2365 
Q 1534 2075 1959 2075 
z
" id="DejaVuSans-39" transform="scale(0.015625)"/>
       </defs>
       <use xlink:href="#DejaVuSans-39"/>
       <use x="63.623047" xlink:href="#DejaVuSans-30"/>
      </g>
     </g>
    </g>
    <g id="ytick_7">
     <g id="line2d_29">
      <path clip-path="url(#pb7517c6793)" d="M 46.965625 81.95845 
L 404.085625 81.95845 
" style="fill:none;stroke:#b0b0b0;stroke-linecap:square;stroke-width:0.8;"/>
     </g>
     <g id="line2d_30">
      <g>
       <use style="stroke:#000000;stroke-width:0.8;" x="46.965625" xlink:href="#m37e0e6c13a" y="81.95845"/>
      </g>
     </g>
     <g id="text_17">
      <!-- 100 -->
      <g transform="translate(20.878125 85.757669)scale(0.1 -0.1)">
       <use xlink:href="#DejaVuSans-31"/>
       <use x="63.623047" xlink:href="#DejaVuSans-30"/>
       <use x="127.246094" xlink:href="#DejaVuSans-30"/>
      </g>
     </g>
    </g>
    <g id="ytick_8">
     <g id="line2d_31">
      <path clip-path="url(#pb7517c6793)" d="M 46.965625 47.943652 
L 404.085625 47.943652 
" style="fill:none;stroke:#b0b0b0;stroke-linecap:square;stroke-width:0.8;"/>
     </g>
     <g id="line2d_32">
      <g>
       <use style="stroke:#000000;stroke-width:0.8;" x="46.965625" xlink:href="#m37e0e6c13a" y="47.943652"/>
      </g>
     </g>
     <g id="text_18">
      <!-- 110 -->
      <g transform="translate(20.878125 51.74287)scale(0.1 -0.1)">
       <use xlink:href="#DejaVuSans-31"/>
       <use x="63.623047" xlink:href="#DejaVuSans-31"/>
       <use x="127.246094" xlink:href="#DejaVuSans-30"/>
      </g>
     </g>
    </g>
    <g id="text_19">
     <!-- F2 -->
     <g transform="translate(14.798438 161.431156)rotate(-90)scale(0.1 -0.1)">
      <use xlink:href="#DejaVuSans-46"/>
      <use x="57.519531" xlink:href="#DejaVuSans-32"/>
     </g>
    </g>
   </g>
   <g id="line2d_33">
    <defs>
     <path d="M 0 2.5 
C 0.663008 2.5 1.29895 2.236584 1.767767 1.767767 
C 2.236584 1.29895 2.5 0.663008 2.5 0 
C 2.5 -0.663008 2.236584 -1.29895 1.767767 -1.767767 
C 1.29895 -2.236584 0.663008 -2.5 0 -2.5 
C -0.663008 -2.5 -1.29895 -2.236584 -1.767767 -1.767767 
C -2.236584 -1.29895 -2.5 -0.663008 -2.5 0 
C -2.5 0.663008 -2.236584 1.29895 -1.767767 1.767767 
C -1.29895 2.236584 -0.663008 2.5 0 2.5 
z
" id="me14c6932db" style="stroke:#ff0000;"/>
    </defs>
    <g clip-path="url(#pb7517c6793)">
     <use style="fill:#ff0000;stroke:#ff0000;" x="305.550991" xlink:href="#me14c6932db" y="259.030057"/>
     <use style="fill:#ff0000;stroke:#ff0000;" x="86.047202" xlink:href="#me14c6932db" y="115.56573"/>
     <use style="fill:#ff0000;stroke:#ff0000;" x="78.284077" xlink:href="#me14c6932db" y="96.660119"/>
     <use style="fill:#ff0000;stroke:#ff0000;" x="181.259967" xlink:href="#me14c6932db" y="213.472385"/>
     <use style="fill:#ff0000;stroke:#ff0000;" x="339.129019" xlink:href="#me14c6932db" y="266.828019"/>
     <use style="fill:#ff0000;stroke:#ff0000;" x="356.841084" xlink:href="#me14c6932db" y="270.501722"/>
     <use style="fill:#ff0000;stroke:#ff0000;" x="283.170703" xlink:href="#me14c6932db" y="253.097316"/>
     <use style="fill:#ff0000;stroke:#ff0000;" x="83.030525" xlink:href="#me14c6932db" y="108.768715"/>
     <use style="fill:#ff0000;stroke:#ff0000;" x="70.434811" xlink:href="#me14c6932db" y="70.961628"/>
     <use style="fill:#ff0000;stroke:#ff0000;" x="187.585921" xlink:href="#me14c6932db" y="216.855433"/>
     <use style="fill:#ff0000;stroke:#ff0000;" x="87.615598" xlink:href="#me14c6932db" y="118.872783"/>
     <use style="fill:#ff0000;stroke:#ff0000;" x="245.323159" xlink:href="#me14c6932db" y="241.306055"/>
     <use style="fill:#ff0000;stroke:#ff0000;" x="303.860488" xlink:href="#me14c6932db" y="258.604457"/>
     <use style="fill:#ff0000;stroke:#ff0000;" x="113.487486" xlink:href="#me14c6932db" y="159.239682"/>
     <use style="fill:#ff0000;stroke:#ff0000;" x="106.84139" xlink:href="#me14c6932db" y="150.762611"/>
     <use style="fill:#ff0000;stroke:#ff0000;" x="205.49626" xlink:href="#me14c6932db" y="225.548434"/>
     <use style="fill:#ff0000;stroke:#ff0000;" x="288.814153" xlink:href="#me14c6932db" y="254.656836"/>
     <use style="fill:#ff0000;stroke:#ff0000;" x="64.542502" xlink:href="#me14c6932db" y="42.891682"/>
     <use style="fill:#ff0000;stroke:#ff0000;" x="88.616205" xlink:href="#me14c6932db" y="120.909749"/>
     <use style="fill:#ff0000;stroke:#ff0000;" x="69.008048" xlink:href="#me14c6932db" y="65.133256"/>
     <use style="fill:#ff0000;stroke:#ff0000;" x="286.294831" xlink:href="#me14c6932db" y="253.966235"/>
     <use style="fill:#ff0000;stroke:#ff0000;" x="93.192311" xlink:href="#me14c6932db" y="129.585964"/>
     <use style="fill:#ff0000;stroke:#ff0000;" x="299.758408" xlink:href="#me14c6932db" y="257.557128"/>
     <use style="fill:#ff0000;stroke:#ff0000;" x="196.938063" xlink:href="#me14c6932db" y="221.546029"/>
     <use style="fill:#ff0000;stroke:#ff0000;" x="89.969515" xlink:href="#me14c6932db" y="123.580538"/>
     <use style="fill:#ff0000;stroke:#ff0000;" x="192.226663" xlink:href="#me14c6932db" y="219.226951"/>
     <use style="fill:#ff0000;stroke:#ff0000;" x="97.740439" xlink:href="#me14c6932db" y="137.324069"/>
     <use style="fill:#ff0000;stroke:#ff0000;" x="189.166137" xlink:href="#me14c6932db" y="217.673038"/>
     <use style="fill:#ff0000;stroke:#ff0000;" x="97.740439" xlink:href="#me14c6932db" y="137.324069"/>
     <use style="fill:#ff0000;stroke:#ff0000;" x="133.853848" xlink:href="#me14c6932db" y="180.374399"/>
     <use style="fill:#ff0000;stroke:#ff0000;" x="198.250428" xlink:href="#me14c6932db" y="222.176899"/>
     <use style="fill:#ff0000;stroke:#ff0000;" x="192.696705" xlink:href="#me14c6932db" y="219.462228"/>
     <use style="fill:#ff0000;stroke:#ff0000;" x="120.906925" xlink:href="#me14c6932db" y="167.673325"/>
     <use style="fill:#ff0000;stroke:#ff0000;" x="358.299292" xlink:href="#me14c6932db" y="270.792317"/>
     <use style="fill:#ff0000;stroke:#ff0000;" x="279.174263" xlink:href="#me14c6932db" y="251.964972"/>
     <use style="fill:#ff0000;stroke:#ff0000;" x="96.045565" xlink:href="#me14c6932db" y="134.532267"/>
     <use style="fill:#ff0000;stroke:#ff0000;" x="101.236167" xlink:href="#me14c6932db" y="142.774664"/>
     <use style="fill:#ff0000;stroke:#ff0000;" x="270.214359" xlink:href="#me14c6932db" y="249.337151"/>
     <use style="fill:#ff0000;stroke:#ff0000;" x="112.247835" xlink:href="#me14c6932db" y="157.730638"/>
     <use style="fill:#ff0000;stroke:#ff0000;" x="162.645988" xlink:href="#me14c6932db" y="202.344233"/>
     <use style="fill:#ff0000;stroke:#ff0000;" x="298.555156" xlink:href="#me14c6932db" y="257.24592"/>
     <use style="fill:#ff0000;stroke:#ff0000;" x="109.07328" xlink:href="#me14c6932db" y="153.719106"/>
     <use style="fill:#ff0000;stroke:#ff0000;" x="91.321895" xlink:href="#me14c6932db" y="126.158754"/>
     <use style="fill:#ff0000;stroke:#ff0000;" x="368.765736" xlink:href="#me14c6932db" y="272.828715"/>
     <use style="fill:#ff0000;stroke:#ff0000;" x="270.214359" xlink:href="#me14c6932db" y="249.337151"/>
     <use style="fill:#ff0000;stroke:#ff0000;" x="92.518819" xlink:href="#me14c6932db" y="128.369693"/>
     <use style="fill:#ff0000;stroke:#ff0000;" x="67.001428" xlink:href="#me14c6932db" y="56.022626"/>
     <use style="fill:#ff0000;stroke:#ff0000;" x="170.161325" xlink:href="#me14c6932db" y="207.068135"/>
     <use style="fill:#ff0000;stroke:#ff0000;" x="296.375533" xlink:href="#me14c6932db" y="256.677468"/>
     <use style="fill:#ff0000;stroke:#ff0000;" x="329.484591" xlink:href="#me14c6932db" y="264.707684"/>
     <use style="fill:#ff0000;stroke:#ff0000;" x="65.453035" xlink:href="#me14c6932db" y="48.060243"/>
     <use style="fill:#ff0000;stroke:#ff0000;" x="125.335315" xlink:href="#me14c6932db" y="172.276034"/>
     <use style="fill:#ff0000;stroke:#ff0000;" x="136.855841" xlink:href="#me14c6932db" y="183.020778"/>
     <use style="fill:#ff0000;stroke:#ff0000;" x="128.795983" xlink:href="#me14c6932db" y="175.678004"/>
     <use style="fill:#ff0000;stroke:#ff0000;" x="109.07328" xlink:href="#me14c6932db" y="153.719106"/>
     <use style="fill:#ff0000;stroke:#ff0000;" x="186.087386" xlink:href="#me14c6932db" y="216.070184"/>
     <use style="fill:#ff0000;stroke:#ff0000;" x="259.207304" xlink:href="#me14c6932db" y="245.927004"/>
     <use style="fill:#ff0000;stroke:#ff0000;" x="179.424368" xlink:href="#me14c6932db" y="212.456142"/>
     <use style="fill:#ff0000;stroke:#ff0000;" x="71.629575" xlink:href="#me14c6932db" y="75.502378"/>
     <use style="fill:#ff0000;stroke:#ff0000;" x="143.94808" xlink:href="#me14c6932db" y="188.90093"/>
     <use style="fill:#ff0000;stroke:#ff0000;" x="95.219593" xlink:href="#me14c6932db" y="133.133364"/>
     <use style="fill:#ff0000;stroke:#ff0000;" x="251.48212" xlink:href="#me14c6932db" y="243.402671"/>
     <use style="fill:#ff0000;stroke:#ff0000;" x="73.459125" xlink:href="#me14c6932db" y="81.948384"/>
     <use style="fill:#ff0000;stroke:#ff0000;" x="150.500895" xlink:href="#me14c6932db" y="193.921455"/>
     <use style="fill:#ff0000;stroke:#ff0000;" x="136.855841" xlink:href="#me14c6932db" y="183.020778"/>
     <use style="fill:#ff0000;stroke:#ff0000;" x="68.747372" xlink:href="#me14c6932db" y="64.014679"/>
     <use style="fill:#ff0000;stroke:#ff0000;" x="84.691509" xlink:href="#me14c6932db" y="112.58626"/>
     <use style="fill:#ff0000;stroke:#ff0000;" x="63.210956" xlink:href="#me14c6932db" y="34.499154"/>
     <use style="fill:#ff0000;stroke:#ff0000;" x="350.839982" xlink:href="#me14c6932db" y="269.287349"/>
     <use style="fill:#ff0000;stroke:#ff0000;" x="64.90797" xlink:href="#me14c6932db" y="45.015386"/>
     <use style="fill:#ff0000;stroke:#ff0000;" x="118.135448" xlink:href="#me14c6932db" y="164.636088"/>
     <use style="fill:#ff0000;stroke:#ff0000;" x="64.655705" xlink:href="#me14c6932db" y="43.55693"/>
     <use style="fill:#ff0000;stroke:#ff0000;" x="346.846289" xlink:href="#me14c6932db" y="268.462284"/>
     <use style="fill:#ff0000;stroke:#ff0000;" x="126.622185" xlink:href="#me14c6932db" y="173.56007"/>
     <use style="fill:#ff0000;stroke:#ff0000;" x="77.137107" xlink:href="#me14c6932db" y="93.416806"/>
     <use style="fill:#ff0000;stroke:#ff0000;" x="76.392777" xlink:href="#me14c6932db" y="91.234274"/>
     <use style="fill:#ff0000;stroke:#ff0000;" x="319.319049" xlink:href="#me14c6932db" y="262.372335"/>
     <use style="fill:#ff0000;stroke:#ff0000;" x="69.941326" xlink:href="#me14c6932db" y="68.999154"/>
     <use style="fill:#ff0000;stroke:#ff0000;" x="176.451974" xlink:href="#me14c6932db" y="210.775629"/>
     <use style="fill:#ff0000;stroke:#ff0000;" x="69.612683" xlink:href="#me14c6932db" y="67.661673"/>
     <use style="fill:#ff0000;stroke:#ff0000;" x="213.450243" xlink:href="#me14c6932db" y="229.046979"/>
     <use style="fill:#ff0000;stroke:#ff0000;" x="79.374385" xlink:href="#me14c6932db" y="99.618512"/>
     <use style="fill:#ff0000;stroke:#ff0000;" x="119.521166" xlink:href="#me14c6932db" y="166.170579"/>
     <use style="fill:#ff0000;stroke:#ff0000;" x="132.261874" xlink:href="#me14c6932db" y="178.92954"/>
     <use style="fill:#ff0000;stroke:#ff0000;" x="365.991411" xlink:href="#me14c6932db" y="272.297198"/>
     <use style="fill:#ff0000;stroke:#ff0000;" x="189.166137" xlink:href="#me14c6932db" y="217.673038"/>
     <use style="fill:#ff0000;stroke:#ff0000;" x="141.446718" xlink:href="#me14c6932db" y="186.883443"/>
     <use style="fill:#ff0000;stroke:#ff0000;" x="146.749129" xlink:href="#me14c6932db" y="191.092177"/>
     <use style="fill:#ff0000;stroke:#ff0000;" x="327.299794" xlink:href="#me14c6932db" y="264.214726"/>
     <use style="fill:#ff0000;stroke:#ff0000;" x="330.407058" xlink:href="#me14c6932db" y="264.91439"/>
     <use style="fill:#ff0000;stroke:#ff0000;" x="294.58466" xlink:href="#me14c6932db" y="256.205789"/>
     <use style="fill:#ff0000;stroke:#ff0000;" x="288.814153" xlink:href="#me14c6932db" y="254.656836"/>
     <use style="fill:#ff0000;stroke:#ff0000;" x="103.300502" xlink:href="#me14c6932db" y="145.816791"/>
     <use style="fill:#ff0000;stroke:#ff0000;" x="63.198352" xlink:href="#me14c6932db" y="34.414125"/>
     <use style="fill:#ff0000;stroke:#ff0000;" x="67.963118" xlink:href="#me14c6932db" y="60.537828"/>
     <use style="fill:#ff0000;stroke:#ff0000;" x="359.878712" xlink:href="#me14c6932db" y="271.105131"/>
     <use style="fill:#ff0000;stroke:#ff0000;" x="80.095477" xlink:href="#me14c6932db" y="101.513104"/>
     <use style="fill:#ff0000;stroke:#ff0000;" x="86.047202" xlink:href="#me14c6932db" y="115.56573"/>
     <use style="fill:#ff0000;stroke:#ff0000;" x="139.307889" xlink:href="#me14c6932db" y="185.110503"/>
     <use style="fill:#ff0000;stroke:#ff0000;" x="210.282536" xlink:href="#me14c6932db" y="227.677766"/>
     <use style="fill:#ff0000;stroke:#ff0000;" x="153.742798" xlink:href="#me14c6932db" y="196.2749"/>
     <use style="fill:#ff0000;stroke:#ff0000;" x="66.200899" xlink:href="#me14c6932db" y="52.023327"/>
     <use style="fill:#ff0000;stroke:#ff0000;" x="327.299794" xlink:href="#me14c6932db" y="264.214726"/>
     <use style="fill:#ff0000;stroke:#ff0000;" x="64.080237" xlink:href="#me14c6932db" y="40.101774"/>
     <use style="fill:#ff0000;stroke:#ff0000;" x="80.947409" xlink:href="#me14c6932db" y="103.691817"/>
     <use style="fill:#ff0000;stroke:#ff0000;" x="335.722993" xlink:href="#me14c6932db" y="266.089367"/>
     <use style="fill:#ff0000;stroke:#ff0000;" x="126.622185" xlink:href="#me14c6932db" y="173.56007"/>
     <use style="fill:#ff0000;stroke:#ff0000;" x="225.591153" xlink:href="#me14c6932db" y="234.022804"/>
     <use style="fill:#ff0000;stroke:#ff0000;" x="228.770873" xlink:href="#me14c6932db" y="235.259787"/>
     <use style="fill:#ff0000;stroke:#ff0000;" x="339.129019" xlink:href="#me14c6932db" y="266.828019"/>
     <use style="fill:#ff0000;stroke:#ff0000;" x="79.374385" xlink:href="#me14c6932db" y="99.618512"/>
     <use style="fill:#ff0000;stroke:#ff0000;" x="99.675387" xlink:href="#me14c6932db" y="140.38977"/>
     <use style="fill:#ff0000;stroke:#ff0000;" x="72.239399" xlink:href="#me14c6932db" y="77.714777"/>
     <use style="fill:#ff0000;stroke:#ff0000;" x="162.100346" xlink:href="#me14c6932db" y="201.987727"/>
     <use style="fill:#ff0000;stroke:#ff0000;" x="83.030525" xlink:href="#me14c6932db" y="108.768715"/>
     <use style="fill:#ff0000;stroke:#ff0000;" x="73.679931" xlink:href="#me14c6932db" y="82.689347"/>
     <use style="fill:#ff0000;stroke:#ff0000;" x="99.435277" xlink:href="#me14c6932db" y="140.016063"/>
     <use style="fill:#ff0000;stroke:#ff0000;" x="81.46796" xlink:href="#me14c6932db" y="104.992778"/>
     <use style="fill:#ff0000;stroke:#ff0000;" x="91.964087" xlink:href="#me14c6932db" y="127.353015"/>
     <use style="fill:#ff0000;stroke:#ff0000;" x="266.61075" xlink:href="#me14c6932db" y="248.243669"/>
     <use style="fill:#ff0000;stroke:#ff0000;" x="263.664407" xlink:href="#me14c6932db" y="247.333253"/>
     <use style="fill:#ff0000;stroke:#ff0000;" x="207.27585" xlink:href="#me14c6932db" y="226.348872"/>
     <use style="fill:#ff0000;stroke:#ff0000;" x="71.128824" xlink:href="#me14c6932db" y="73.633879"/>
     <use style="fill:#ff0000;stroke:#ff0000;" x="323.143831" xlink:href="#me14c6932db" y="263.263605"/>
     <use style="fill:#ff0000;stroke:#ff0000;" x="215.681808" xlink:href="#me14c6932db" y="229.993207"/>
     <use style="fill:#ff0000;stroke:#ff0000;" x="159.081" xlink:href="#me14c6932db" y="199.979666"/>
     <use style="fill:#ff0000;stroke:#ff0000;" x="132.261874" xlink:href="#me14c6932db" y="178.92954"/>
     <use style="fill:#ff0000;stroke:#ff0000;" x="74.515438" xlink:href="#me14c6932db" y="85.427546"/>
     <use style="fill:#ff0000;stroke:#ff0000;" x="74.515438" xlink:href="#me14c6932db" y="85.427546"/>
     <use style="fill:#ff0000;stroke:#ff0000;" x="105.164258" xlink:href="#me14c6932db" y="148.46089"/>
     <use style="fill:#ff0000;stroke:#ff0000;" x="173.352948" xlink:href="#me14c6932db" y="208.975623"/>
     <use style="fill:#ff0000;stroke:#ff0000;" x="183.211649" xlink:href="#me14c6932db" y="214.535456"/>
     <use style="fill:#ff0000;stroke:#ff0000;" x="162.645988" xlink:href="#me14c6932db" y="202.344233"/>
     <use style="fill:#ff0000;stroke:#ff0000;" x="88.616205" xlink:href="#me14c6932db" y="120.909749"/>
     <use style="fill:#ff0000;stroke:#ff0000;" x="241.808814" xlink:href="#me14c6932db" y="240.074227"/>
     <use style="fill:#ff0000;stroke:#ff0000;" x="66.529119" xlink:href="#me14c6932db" y="53.691586"/>
     <use style="fill:#ff0000;stroke:#ff0000;" x="311.709333" xlink:href="#me14c6932db" y="260.551747"/>
     <use style="fill:#ff0000;stroke:#ff0000;" x="80.656373" xlink:href="#me14c6932db" y="102.954578"/>
     <use style="fill:#ff0000;stroke:#ff0000;" x="192.696705" xlink:href="#me14c6932db" y="219.462228"/>
     <use style="fill:#ff0000;stroke:#ff0000;" x="359.878712" xlink:href="#me14c6932db" y="271.105131"/>
     <use style="fill:#ff0000;stroke:#ff0000;" x="63.624114" xlink:href="#me14c6932db" y="37.224203"/>
     <use style="fill:#ff0000;stroke:#ff0000;" x="217.499823" xlink:href="#me14c6932db" y="230.753201"/>
     <use style="fill:#ff0000;stroke:#ff0000;" x="314.483846" xlink:href="#me14c6932db" y="261.223002"/>
     <use style="fill:#ff0000;stroke:#ff0000;" x="378.190933" xlink:href="#me14c6932db" y="274.591836"/>
     <use style="fill:#ff0000;stroke:#ff0000;" x="72.794" xlink:href="#me14c6932db" y="79.670157"/>
     <use style="fill:#ff0000;stroke:#ff0000;" x="201.562345" xlink:href="#me14c6932db" y="223.740927"/>
     <use style="fill:#ff0000;stroke:#ff0000;" x="294.58466" xlink:href="#me14c6932db" y="256.205789"/>
     <use style="fill:#ff0000;stroke:#ff0000;" x="84.336049" xlink:href="#me14c6932db" y="111.785294"/>
     <use style="fill:#ff0000;stroke:#ff0000;" x="77.456421" xlink:href="#me14c6932db" y="94.333925"/>
     <use style="fill:#ff0000;stroke:#ff0000;" x="145.259275" xlink:href="#me14c6932db" y="189.935373"/>
     <use style="fill:#ff0000;stroke:#ff0000;" x="308.635527" xlink:href="#me14c6932db" y="259.797789"/>
     <use style="fill:#ff0000;stroke:#ff0000;" x="123.241533" xlink:href="#me14c6932db" y="170.136451"/>
     <use style="fill:#ff0000;stroke:#ff0000;" x="320.182715" xlink:href="#me14c6932db" y="262.574951"/>
     <use style="fill:#ff0000;stroke:#ff0000;" x="114.170183" xlink:href="#me14c6932db" y="160.057687"/>
     <use style="fill:#ff0000;stroke:#ff0000;" x="75.620432" xlink:href="#me14c6932db" y="88.900012"/>
     <use style="fill:#ff0000;stroke:#ff0000;" x="135.475256" xlink:href="#me14c6932db" y="181.816115"/>
     <use style="fill:#ff0000;stroke:#ff0000;" x="63.198352" xlink:href="#me14c6932db" y="34.414125"/>
     <use style="fill:#ff0000;stroke:#ff0000;" x="157.674907" xlink:href="#me14c6932db" y="199.023491"/>
     <use style="fill:#ff0000;stroke:#ff0000;" x="275.844045" xlink:href="#me14c6932db" y="251.002984"/>
     <use style="fill:#ff0000;stroke:#ff0000;" x="166.162576" xlink:href="#me14c6932db" y="204.596907"/>
     <use style="fill:#ff0000;stroke:#ff0000;" x="259.740212" xlink:href="#me14c6932db" y="246.09702"/>
     <use style="fill:#ff0000;stroke:#ff0000;" x="262.044294" xlink:href="#me14c6932db" y="246.826197"/>
     <use style="fill:#ff0000;stroke:#ff0000;" x="387.852898" xlink:href="#me14c6932db" y="276.334125"/>
     <use style="fill:#ff0000;stroke:#ff0000;" x="237.703156" xlink:href="#me14c6932db" y="238.600852"/>
     <use style="fill:#ff0000;stroke:#ff0000;" x="118.135448" xlink:href="#me14c6932db" y="164.636088"/>
     <use style="fill:#ff0000;stroke:#ff0000;" x="86.942735" xlink:href="#me14c6932db" y="117.471621"/>
     <use style="fill:#ff0000;stroke:#ff0000;" x="105.04577" xlink:href="#me14c6932db" y="148.295553"/>
     <use style="fill:#ff0000;stroke:#ff0000;" x="345.096996" xlink:href="#me14c6932db" y="268.096518"/>
     <use style="fill:#ff0000;stroke:#ff0000;" x="110.431777" xlink:href="#me14c6932db" y="155.462525"/>
     <use style="fill:#ff0000;stroke:#ff0000;" x="170.161325" xlink:href="#me14c6932db" y="207.068135"/>
     <use style="fill:#ff0000;stroke:#ff0000;" x="76.392777" xlink:href="#me14c6932db" y="91.234274"/>
     <use style="fill:#ff0000;stroke:#ff0000;" x="317.411453" xlink:href="#me14c6932db" y="261.921958"/>
     <use style="fill:#ff0000;stroke:#ff0000;" x="237.703156" xlink:href="#me14c6932db" y="238.600852"/>
     <use style="fill:#ff0000;stroke:#ff0000;" x="254.40557" xlink:href="#me14c6932db" y="244.371335"/>
     <use style="fill:#ff0000;stroke:#ff0000;" x="81.46796" xlink:href="#me14c6932db" y="104.992778"/>
     <use style="fill:#ff0000;stroke:#ff0000;" x="150.500895" xlink:href="#me14c6932db" y="193.921455"/>
     <use style="fill:#ff0000;stroke:#ff0000;" x="107.824341" xlink:href="#me14c6932db" y="152.07923"/>
     <use style="fill:#ff0000;stroke:#ff0000;" x="353.824958" xlink:href="#me14c6932db" y="269.895135"/>
     <use style="fill:#ff0000;stroke:#ff0000;" x="335.168805" xlink:href="#me14c6932db" y="265.968147"/>
     <use style="fill:#ff0000;stroke:#ff0000;" x="96.045565" xlink:href="#me14c6932db" y="134.532267"/>
     <use style="fill:#ff0000;stroke:#ff0000;" x="333.081871" xlink:href="#me14c6932db" y="265.509025"/>
     <use style="fill:#ff0000;stroke:#ff0000;" x="223.52372" xlink:href="#me14c6932db" y="233.204369"/>
     <use style="fill:#ff0000;stroke:#ff0000;" x="196.938063" xlink:href="#me14c6932db" y="221.546029"/>
     <use style="fill:#ff0000;stroke:#ff0000;" x="248.59772" xlink:href="#me14c6932db" y="242.430398"/>
     <use style="fill:#ff0000;stroke:#ff0000;" x="221.469232" xlink:href="#me14c6932db" y="232.379688"/>
     <use style="fill:#ff0000;stroke:#ff0000;" x="387.852898" xlink:href="#me14c6932db" y="276.334125"/>
     <use style="fill:#ff0000;stroke:#ff0000;" x="228.770873" xlink:href="#me14c6932db" y="235.259787"/>
     <use style="fill:#ff0000;stroke:#ff0000;" x="78.284077" xlink:href="#me14c6932db" y="96.660119"/>
     <use style="fill:#ff0000;stroke:#ff0000;" x="384.582103" xlink:href="#me14c6932db" y="275.751451"/>
     <use style="fill:#ff0000;stroke:#ff0000;" x="65.08421" xlink:href="#me14c6932db" y="46.015371"/>
     <use style="fill:#ff0000;stroke:#ff0000;" x="133.853848" xlink:href="#me14c6932db" y="180.374399"/>
     <use style="fill:#ff0000;stroke:#ff0000;" x="323.143831" xlink:href="#me14c6932db" y="263.263605"/>
     <use style="fill:#ff0000;stroke:#ff0000;" x="89.969515" xlink:href="#me14c6932db" y="123.580538"/>
     <use style="fill:#ff0000;stroke:#ff0000;" x="373.392958" xlink:href="#me14c6932db" y="273.702395"/>
     <use style="fill:#ff0000;stroke:#ff0000;" x="116.219454" xlink:href="#me14c6932db" y="162.459637"/>
     <use style="fill:#ff0000;stroke:#ff0000;" x="272.818161" xlink:href="#me14c6932db" y="250.113928"/>
     <use style="fill:#ff0000;stroke:#ff0000;" x="341.642218" xlink:href="#me14c6932db" y="267.366141"/>
     <use style="fill:#ff0000;stroke:#ff0000;" x="279.786436" xlink:href="#me14c6932db" y="252.139969"/>
     <use style="fill:#ff0000;stroke:#ff0000;" x="167.875108" xlink:href="#me14c6932db" y="205.666671"/>
     <use style="fill:#ff0000;stroke:#ff0000;" x="75.368048" xlink:href="#me14c6932db" y="88.121084"/>
    </g>
   </g>
   <g id="patch_3">
    <path d="M 46.965625 288.430125 
L 46.965625 22.318125 
" style="fill:none;stroke:#000000;stroke-linecap:square;stroke-linejoin:miter;stroke-width:0.8;"/>
   </g>
   <g id="patch_4">
    <path d="M 404.085625 288.430125 
L 404.085625 22.318125 
" style="fill:none;stroke:#000000;stroke-linecap:square;stroke-linejoin:miter;stroke-width:0.8;"/>
   </g>
   <g id="patch_5">
    <path d="M 46.965625 288.430125 
L 404.085625 288.430125 
" style="fill:none;stroke:#000000;stroke-linecap:square;stroke-linejoin:miter;stroke-width:0.8;"/>
   </g>
   <g id="patch_6">
    <path d="M 46.965625 22.318125 
L 404.085625 22.318125 
" style="fill:none;stroke:#000000;stroke-linecap:square;stroke-linejoin:miter;stroke-width:0.8;"/>
   </g>
   <g id="text_20">
    <!-- Pareto Front Plot -->
    <g transform="translate(176.15875 16.318125)scale(0.12 -0.12)">
     <defs>
      <path d="M 1259 4147 
L 1259 2394 
L 2053 2394 
Q 2494 2394 2734 2622 
Q 2975 2850 2975 3272 
Q 2975 3691 2734 3919 
Q 2494 4147 2053 4147 
L 1259 4147 
z
M 628 4666 
L 2053 4666 
Q 2838 4666 3239 4311 
Q 3641 3956 3641 3272 
Q 3641 2581 3239 2228 
Q 2838 1875 2053 1875 
L 1259 1875 
L 1259 0 
L 628 0 
L 628 4666 
z
" id="DejaVuSans-50" transform="scale(0.015625)"/>
      <path d="M 2194 1759 
Q 1497 1759 1228 1600 
Q 959 1441 959 1056 
Q 959 750 1161 570 
Q 1363 391 1709 391 
Q 2188 391 2477 730 
Q 2766 1069 2766 1631 
L 2766 1759 
L 2194 1759 
z
M 3341 1997 
L 3341 0 
L 2766 0 
L 2766 531 
Q 2569 213 2275 61 
Q 1981 -91 1556 -91 
Q 1019 -91 701 211 
Q 384 513 384 1019 
Q 384 1609 779 1909 
Q 1175 2209 1959 2209 
L 2766 2209 
L 2766 2266 
Q 2766 2663 2505 2880 
Q 2244 3097 1772 3097 
Q 1472 3097 1187 3025 
Q 903 2953 641 2809 
L 641 3341 
Q 956 3463 1253 3523 
Q 1550 3584 1831 3584 
Q 2591 3584 2966 3190 
Q 3341 2797 3341 1997 
z
" id="DejaVuSans-61" transform="scale(0.015625)"/>
      <path d="M 2631 2963 
Q 2534 3019 2420 3045 
Q 2306 3072 2169 3072 
Q 1681 3072 1420 2755 
Q 1159 2438 1159 1844 
L 1159 0 
L 581 0 
L 581 3500 
L 1159 3500 
L 1159 2956 
Q 1341 3275 1631 3429 
Q 1922 3584 2338 3584 
Q 2397 3584 2469 3576 
Q 2541 3569 2628 3553 
L 2631 2963 
z
" id="DejaVuSans-72" transform="scale(0.015625)"/>
      <path d="M 1172 4494 
L 1172 3500 
L 2356 3500 
L 2356 3053 
L 1172 3053 
L 1172 1153 
Q 1172 725 1289 603 
Q 1406 481 1766 481 
L 2356 481 
L 2356 0 
L 1766 0 
Q 1100 0 847 248 
Q 594 497 594 1153 
L 594 3053 
L 172 3053 
L 172 3500 
L 594 3500 
L 594 4494 
L 1172 4494 
z
" id="DejaVuSans-74" transform="scale(0.015625)"/>
      <path d="M 1959 3097 
Q 1497 3097 1228 2736 
Q 959 2375 959 1747 
Q 959 1119 1226 758 
Q 1494 397 1959 397 
Q 2419 397 2687 759 
Q 2956 1122 2956 1747 
Q 2956 2369 2687 2733 
Q 2419 3097 1959 3097 
z
M 1959 3584 
Q 2709 3584 3137 3096 
Q 3566 2609 3566 1747 
Q 3566 888 3137 398 
Q 2709 -91 1959 -91 
Q 1206 -91 779 398 
Q 353 888 353 1747 
Q 353 2609 779 3096 
Q 1206 3584 1959 3584 
z
" id="DejaVuSans-6f" transform="scale(0.015625)"/>
      <path id="DejaVuSans-20" transform="scale(0.015625)"/>
      <path d="M 3513 2113 
L 3513 0 
L 2938 0 
L 2938 2094 
Q 2938 2591 2744 2837 
Q 2550 3084 2163 3084 
Q 1697 3084 1428 2787 
Q 1159 2491 1159 1978 
L 1159 0 
L 581 0 
L 581 3500 
L 1159 3500 
L 1159 2956 
Q 1366 3272 1645 3428 
Q 1925 3584 2291 3584 
Q 2894 3584 3203 3211 
Q 3513 2838 3513 2113 
z
" id="DejaVuSans-6e" transform="scale(0.015625)"/>
      <path d="M 603 4863 
L 1178 4863 
L 1178 0 
L 603 0 
L 603 4863 
z
" id="DejaVuSans-6c" transform="scale(0.015625)"/>
     </defs>
     <use xlink:href="#DejaVuSans-50"/>
     <use x="55.802734" xlink:href="#DejaVuSans-61"/>
     <use x="117.082031" xlink:href="#DejaVuSans-72"/>
     <use x="155.945312" xlink:href="#DejaVuSans-65"/>
     <use x="217.46875" xlink:href="#DejaVuSans-74"/>
     <use x="256.677734" xlink:href="#DejaVuSans-6f"/>
     <use x="317.859375" xlink:href="#DejaVuSans-20"/>
     <use x="349.646484" xlink:href="#DejaVuSans-46"/>
     <use x="399.916016" xlink:href="#DejaVuSans-72"/>
     <use x="438.779297" xlink:href="#DejaVuSans-6f"/>
     <use x="499.960938" xlink:href="#DejaVuSans-6e"/>
     <use x="563.339844" xlink:href="#DejaVuSans-74"/>
     <use x="602.548828" xlink:href="#DejaVuSans-20"/>
     <use x="634.335938" xlink:href="#DejaVuSans-50"/>
     <use x="694.638672" xlink:href="#DejaVuSans-6c"/>
     <use x="722.421875" xlink:href="#DejaVuSans-6f"/>
     <use x="783.603516" xlink:href="#DejaVuSans-74"/>
    </g>
   </g>
   <g id="legend_1">
    <g id="patch_7">
     <path d="M 320.466875 44.99625 
L 397.085625 44.99625 
Q 399.085625 44.99625 399.085625 42.99625 
L 399.085625 29.318125 
Q 399.085625 27.318125 397.085625 27.318125 
L 320.466875 27.318125 
Q 318.466875 27.318125 318.466875 29.318125 
L 318.466875 42.99625 
Q 318.466875 44.99625 320.466875 44.99625 
z
" style="fill:#ffffff;opacity:0.8;stroke:#cccccc;stroke-linejoin:miter;"/>
    </g>
    <g id="line2d_34"/>
    <g id="line2d_35">
     <g>
      <use style="fill:#ff0000;stroke:#ff0000;" x="332.466875" xlink:href="#me14c6932db" y="35.416562"/>
     </g>
    </g>
    <g id="text_21">
     <!-- MOEA PF -->
     <g transform="translate(350.466875 38.916562)scale(0.1 -0.1)">
      <defs>
       <path d="M 628 4666 
L 1569 4666 
L 2759 1491 
L 3956 4666 
L 4897 4666 
L 4897 0 
L 4281 0 
L 4281 4097 
L 3078 897 
L 2444 897 
L 1241 4097 
L 1241 0 
L 628 0 
L 628 4666 
z
" id="DejaVuSans-4d" transform="scale(0.015625)"/>
       <path d="M 2522 4238 
Q 1834 4238 1429 3725 
Q 1025 3213 1025 2328 
Q 1025 1447 1429 934 
Q 1834 422 2522 422 
Q 3209 422 3611 934 
Q 4013 1447 4013 2328 
Q 4013 3213 3611 3725 
Q 3209 4238 2522 4238 
z
M 2522 4750 
Q 3503 4750 4090 4092 
Q 4678 3434 4678 2328 
Q 4678 1225 4090 567 
Q 3503 -91 2522 -91 
Q 1538 -91 948 565 
Q 359 1222 359 2328 
Q 359 3434 948 4092 
Q 1538 4750 2522 4750 
z
" id="DejaVuSans-4f" transform="scale(0.015625)"/>
       <path d="M 628 4666 
L 3578 4666 
L 3578 4134 
L 1259 4134 
L 1259 2753 
L 3481 2753 
L 3481 2222 
L 1259 2222 
L 1259 531 
L 3634 531 
L 3634 0 
L 628 0 
L 628 4666 
z
" id="DejaVuSans-45" transform="scale(0.015625)"/>
       <path d="M 2188 4044 
L 1331 1722 
L 3047 1722 
L 2188 4044 
z
M 1831 4666 
L 2547 4666 
L 4325 0 
L 3669 0 
L 3244 1197 
L 1141 1197 
L 716 0 
L 50 0 
L 1831 4666 
z
" id="DejaVuSans-41" transform="scale(0.015625)"/>
      </defs>
      <use xlink:href="#DejaVuSans-4d"/>
      <use x="86.279297" xlink:href="#DejaVuSans-4f"/>
      <use x="164.990234" xlink:href="#DejaVuSans-45"/>
      <use x="228.173828" xlink:href="#DejaVuSans-41"/>
      <use x="296.582031" xlink:href="#DejaVuSans-20"/>
      <use x="328.369141" xlink:href="#DejaVuSans-50"/>
      <use x="388.671875" xlink:href="#DejaVuSans-46"/>
     </g>
    </g>
   </g>
  </g>
 </g>
 <defs>
  <clipPath id="pb7517c6793">
   <rect height="266.112" width="357.12" x="46.965625" y="22.318125"/>
  </clipPath>
 </defs>
</svg>
