<?xml version="1.0" encoding="utf-8" standalone="no"?>
<!DOCTYPE svg PUBLIC "-//W3C//DTD SVG 1.1//EN"
  "http://www.w3.org/Graphics/SVG/1.1/DTD/svg11.dtd">
<svg height="325.986375pt" version="1.1" viewBox="0 0 408.10125 325.986375" width="408.10125pt" xmlns="http://www.w3.org/2000/svg" xmlns:xlink="http://www.w3.org/1999/xlink">
 <metadata>
  <rdf:RDF xmlns:cc="http://creativecommons.org/ns#" xmlns:dc="http://purl.org/dc/elements/1.1/" xmlns:rdf="http://www.w3.org/1999/02/22-rdf-syntax-ns#">
   <cc:Work>
    <dc:type rdf:resource="http://purl.org/dc/dcmitype/StillImage"/>
    <dc:date>2022-04-23T20:14:35.607244</dc:date>
    <dc:format>image/svg+xml</dc:format>
    <dc:creator>
     <cc:Agent>
      <dc:title>Matplotlib v3.4.2, https://matplotlib.org/</dc:title>
     </cc:Agent>
    </dc:creator>
   </cc:Work>
  </rdf:RDF>
 </metadata>
 <defs>
  <style type="text/css">*{stroke-linecap:butt;stroke-linejoin:round;}</style>
 </defs>
 <g id="figure_1">
  <g id="patch_1">
   <path d="M 0 325.986375 
L 408.10125 325.986375 
L 408.10125 0 
L 0 0 
z
" style="fill:#ffffff;"/>
  </g>
  <g id="axes_1">
   <g id="patch_2">
    <path d="M 43.78125 288.430125 
L 400.90125 288.430125 
L 400.90125 22.318125 
L 43.78125 22.318125 
z
" style="fill:#ffffff;"/>
   </g>
   <g id="matplotlib.axis_1">
    <g id="xtick_1">
     <g id="line2d_1">
      <path clip-path="url(#p546f2a1c30)" d="M 63.233827 288.430125 
L 63.233827 22.318125 
" style="fill:none;stroke:#b0b0b0;stroke-linecap:square;stroke-width:0.8;"/>
     </g>
     <g id="line2d_2">
      <defs>
       <path d="M 0 0 
L 0 3.5 
" id="m32dcab77a5" style="stroke:#000000;stroke-width:0.8;"/>
      </defs>
      <g>
       <use style="stroke:#000000;stroke-width:0.8;" x="63.233827" xlink:href="#m32dcab77a5" y="288.430125"/>
      </g>
     </g>
     <g id="text_1">
      <!-- 10.0 -->
      <g transform="translate(52.101015 303.028562)scale(0.1 -0.1)">
       <defs>
        <path d="M 794 531 
L 1825 531 
L 1825 4091 
L 703 3866 
L 703 4441 
L 1819 4666 
L 2450 4666 
L 2450 531 
L 3481 531 
L 3481 0 
L 794 0 
L 794 531 
z
" id="DejaVuSans-31" transform="scale(0.015625)"/>
        <path d="M 2034 4250 
Q 1547 4250 1301 3770 
Q 1056 3291 1056 2328 
Q 1056 1369 1301 889 
Q 1547 409 2034 409 
Q 2525 409 2770 889 
Q 3016 1369 3016 2328 
Q 3016 3291 2770 3770 
Q 2525 4250 2034 4250 
z
M 2034 4750 
Q 2819 4750 3233 4129 
Q 3647 3509 3647 2328 
Q 3647 1150 3233 529 
Q 2819 -91 2034 -91 
Q 1250 -91 836 529 
Q 422 1150 422 2328 
Q 422 3509 836 4129 
Q 1250 4750 2034 4750 
z
" id="DejaVuSans-30" transform="scale(0.015625)"/>
        <path d="M 684 794 
L 1344 794 
L 1344 0 
L 684 0 
L 684 794 
z
" id="DejaVuSans-2e" transform="scale(0.015625)"/>
       </defs>
       <use xlink:href="#DejaVuSans-31"/>
       <use x="63.623047" xlink:href="#DejaVuSans-30"/>
       <use x="127.246094" xlink:href="#DejaVuSans-2e"/>
       <use x="159.033203" xlink:href="#DejaVuSans-30"/>
      </g>
     </g>
    </g>
    <g id="xtick_2">
     <g id="line2d_3">
      <path clip-path="url(#p546f2a1c30)" d="M 126.752203 288.430125 
L 126.752203 22.318125 
" style="fill:none;stroke:#b0b0b0;stroke-linecap:square;stroke-width:0.8;"/>
     </g>
     <g id="line2d_4">
      <g>
       <use style="stroke:#000000;stroke-width:0.8;" x="126.752203" xlink:href="#m32dcab77a5" y="288.430125"/>
      </g>
     </g>
     <g id="text_2">
      <!-- 10.2 -->
      <g transform="translate(115.619391 303.028562)scale(0.1 -0.1)">
       <defs>
        <path d="M 1228 531 
L 3431 531 
L 3431 0 
L 469 0 
L 469 531 
Q 828 903 1448 1529 
Q 2069 2156 2228 2338 
Q 2531 2678 2651 2914 
Q 2772 3150 2772 3378 
Q 2772 3750 2511 3984 
Q 2250 4219 1831 4219 
Q 1534 4219 1204 4116 
Q 875 4013 500 3803 
L 500 4441 
Q 881 4594 1212 4672 
Q 1544 4750 1819 4750 
Q 2544 4750 2975 4387 
Q 3406 4025 3406 3419 
Q 3406 3131 3298 2873 
Q 3191 2616 2906 2266 
Q 2828 2175 2409 1742 
Q 1991 1309 1228 531 
z
" id="DejaVuSans-32" transform="scale(0.015625)"/>
       </defs>
       <use xlink:href="#DejaVuSans-31"/>
       <use x="63.623047" xlink:href="#DejaVuSans-30"/>
       <use x="127.246094" xlink:href="#DejaVuSans-2e"/>
       <use x="159.033203" xlink:href="#DejaVuSans-32"/>
      </g>
     </g>
    </g>
    <g id="xtick_3">
     <g id="line2d_5">
      <path clip-path="url(#p546f2a1c30)" d="M 190.270579 288.430125 
L 190.270579 22.318125 
" style="fill:none;stroke:#b0b0b0;stroke-linecap:square;stroke-width:0.8;"/>
     </g>
     <g id="line2d_6">
      <g>
       <use style="stroke:#000000;stroke-width:0.8;" x="190.270579" xlink:href="#m32dcab77a5" y="288.430125"/>
      </g>
     </g>
     <g id="text_3">
      <!-- 10.4 -->
      <g transform="translate(179.137767 303.028562)scale(0.1 -0.1)">
       <defs>
        <path d="M 2419 4116 
L 825 1625 
L 2419 1625 
L 2419 4116 
z
M 2253 4666 
L 3047 4666 
L 3047 1625 
L 3713 1625 
L 3713 1100 
L 3047 1100 
L 3047 0 
L 2419 0 
L 2419 1100 
L 313 1100 
L 313 1709 
L 2253 4666 
z
" id="DejaVuSans-34" transform="scale(0.015625)"/>
       </defs>
       <use xlink:href="#DejaVuSans-31"/>
       <use x="63.623047" xlink:href="#DejaVuSans-30"/>
       <use x="127.246094" xlink:href="#DejaVuSans-2e"/>
       <use x="159.033203" xlink:href="#DejaVuSans-34"/>
      </g>
     </g>
    </g>
    <g id="xtick_4">
     <g id="line2d_7">
      <path clip-path="url(#p546f2a1c30)" d="M 253.788955 288.430125 
L 253.788955 22.318125 
" style="fill:none;stroke:#b0b0b0;stroke-linecap:square;stroke-width:0.8;"/>
     </g>
     <g id="line2d_8">
      <g>
       <use style="stroke:#000000;stroke-width:0.8;" x="253.788955" xlink:href="#m32dcab77a5" y="288.430125"/>
      </g>
     </g>
     <g id="text_4">
      <!-- 10.6 -->
      <g transform="translate(242.656143 303.028562)scale(0.1 -0.1)">
       <defs>
        <path d="M 2113 2584 
Q 1688 2584 1439 2293 
Q 1191 2003 1191 1497 
Q 1191 994 1439 701 
Q 1688 409 2113 409 
Q 2538 409 2786 701 
Q 3034 994 3034 1497 
Q 3034 2003 2786 2293 
Q 2538 2584 2113 2584 
z
M 3366 4563 
L 3366 3988 
Q 3128 4100 2886 4159 
Q 2644 4219 2406 4219 
Q 1781 4219 1451 3797 
Q 1122 3375 1075 2522 
Q 1259 2794 1537 2939 
Q 1816 3084 2150 3084 
Q 2853 3084 3261 2657 
Q 3669 2231 3669 1497 
Q 3669 778 3244 343 
Q 2819 -91 2113 -91 
Q 1303 -91 875 529 
Q 447 1150 447 2328 
Q 447 3434 972 4092 
Q 1497 4750 2381 4750 
Q 2619 4750 2861 4703 
Q 3103 4656 3366 4563 
z
" id="DejaVuSans-36" transform="scale(0.015625)"/>
       </defs>
       <use xlink:href="#DejaVuSans-31"/>
       <use x="63.623047" xlink:href="#DejaVuSans-30"/>
       <use x="127.246094" xlink:href="#DejaVuSans-2e"/>
       <use x="159.033203" xlink:href="#DejaVuSans-36"/>
      </g>
     </g>
    </g>
    <g id="xtick_5">
     <g id="line2d_9">
      <path clip-path="url(#p546f2a1c30)" d="M 317.307331 288.430125 
L 317.307331 22.318125 
" style="fill:none;stroke:#b0b0b0;stroke-linecap:square;stroke-width:0.8;"/>
     </g>
     <g id="line2d_10">
      <g>
       <use style="stroke:#000000;stroke-width:0.8;" x="317.307331" xlink:href="#m32dcab77a5" y="288.430125"/>
      </g>
     </g>
     <g id="text_5">
      <!-- 10.8 -->
      <g transform="translate(306.174519 303.028562)scale(0.1 -0.1)">
       <defs>
        <path d="M 2034 2216 
Q 1584 2216 1326 1975 
Q 1069 1734 1069 1313 
Q 1069 891 1326 650 
Q 1584 409 2034 409 
Q 2484 409 2743 651 
Q 3003 894 3003 1313 
Q 3003 1734 2745 1975 
Q 2488 2216 2034 2216 
z
M 1403 2484 
Q 997 2584 770 2862 
Q 544 3141 544 3541 
Q 544 4100 942 4425 
Q 1341 4750 2034 4750 
Q 2731 4750 3128 4425 
Q 3525 4100 3525 3541 
Q 3525 3141 3298 2862 
Q 3072 2584 2669 2484 
Q 3125 2378 3379 2068 
Q 3634 1759 3634 1313 
Q 3634 634 3220 271 
Q 2806 -91 2034 -91 
Q 1263 -91 848 271 
Q 434 634 434 1313 
Q 434 1759 690 2068 
Q 947 2378 1403 2484 
z
M 1172 3481 
Q 1172 3119 1398 2916 
Q 1625 2713 2034 2713 
Q 2441 2713 2670 2916 
Q 2900 3119 2900 3481 
Q 2900 3844 2670 4047 
Q 2441 4250 2034 4250 
Q 1625 4250 1398 4047 
Q 1172 3844 1172 3481 
z
" id="DejaVuSans-38" transform="scale(0.015625)"/>
       </defs>
       <use xlink:href="#DejaVuSans-31"/>
       <use x="63.623047" xlink:href="#DejaVuSans-30"/>
       <use x="127.246094" xlink:href="#DejaVuSans-2e"/>
       <use x="159.033203" xlink:href="#DejaVuSans-38"/>
      </g>
     </g>
    </g>
    <g id="xtick_6">
     <g id="line2d_11">
      <path clip-path="url(#p546f2a1c30)" d="M 380.825707 288.430125 
L 380.825707 22.318125 
" style="fill:none;stroke:#b0b0b0;stroke-linecap:square;stroke-width:0.8;"/>
     </g>
     <g id="line2d_12">
      <g>
       <use style="stroke:#000000;stroke-width:0.8;" x="380.825707" xlink:href="#m32dcab77a5" y="288.430125"/>
      </g>
     </g>
     <g id="text_6">
      <!-- 11.0 -->
      <g transform="translate(369.692895 303.028562)scale(0.1 -0.1)">
       <use xlink:href="#DejaVuSans-31"/>
       <use x="63.623047" xlink:href="#DejaVuSans-31"/>
       <use x="127.246094" xlink:href="#DejaVuSans-2e"/>
       <use x="159.033203" xlink:href="#DejaVuSans-30"/>
      </g>
     </g>
    </g>
    <g id="text_7">
     <!-- F1 -->
     <g transform="translate(216.284219 316.706687)scale(0.1 -0.1)">
      <defs>
       <path d="M 628 4666 
L 3309 4666 
L 3309 4134 
L 1259 4134 
L 1259 2759 
L 3109 2759 
L 3109 2228 
L 1259 2228 
L 1259 0 
L 628 0 
L 628 4666 
z
" id="DejaVuSans-46" transform="scale(0.015625)"/>
      </defs>
      <use xlink:href="#DejaVuSans-46"/>
      <use x="57.519531" xlink:href="#DejaVuSans-31"/>
     </g>
    </g>
   </g>
   <g id="matplotlib.axis_2">
    <g id="ytick_1">
     <g id="line2d_13">
      <path clip-path="url(#p546f2a1c30)" d="M 43.78125 280.686434 
L 400.90125 280.686434 
" style="fill:none;stroke:#b0b0b0;stroke-linecap:square;stroke-width:0.8;"/>
     </g>
     <g id="line2d_14">
      <defs>
       <path d="M 0 0 
L -3.5 0 
" id="m9b642bd167" style="stroke:#000000;stroke-width:0.8;"/>
      </defs>
      <g>
       <use style="stroke:#000000;stroke-width:0.8;" x="43.78125" xlink:href="#m9b642bd167" y="280.686434"/>
      </g>
     </g>
     <g id="text_8">
      <!-- 0.8 -->
      <g transform="translate(20.878125 284.485653)scale(0.1 -0.1)">
       <use xlink:href="#DejaVuSans-30"/>
       <use x="63.623047" xlink:href="#DejaVuSans-2e"/>
       <use x="95.410156" xlink:href="#DejaVuSans-38"/>
      </g>
     </g>
    </g>
    <g id="ytick_2">
     <g id="line2d_15">
      <path clip-path="url(#p546f2a1c30)" d="M 43.78125 234.9062 
L 400.90125 234.9062 
" style="fill:none;stroke:#b0b0b0;stroke-linecap:square;stroke-width:0.8;"/>
     </g>
     <g id="line2d_16">
      <g>
       <use style="stroke:#000000;stroke-width:0.8;" x="43.78125" xlink:href="#m9b642bd167" y="234.9062"/>
      </g>
     </g>
     <g id="text_9">
      <!-- 1.0 -->
      <g transform="translate(20.878125 238.705419)scale(0.1 -0.1)">
       <use xlink:href="#DejaVuSans-31"/>
       <use x="63.623047" xlink:href="#DejaVuSans-2e"/>
       <use x="95.410156" xlink:href="#DejaVuSans-30"/>
      </g>
     </g>
    </g>
    <g id="ytick_3">
     <g id="line2d_17">
      <path clip-path="url(#p546f2a1c30)" d="M 43.78125 189.125966 
L 400.90125 189.125966 
" style="fill:none;stroke:#b0b0b0;stroke-linecap:square;stroke-width:0.8;"/>
     </g>
     <g id="line2d_18">
      <g>
       <use style="stroke:#000000;stroke-width:0.8;" x="43.78125" xlink:href="#m9b642bd167" y="189.125966"/>
      </g>
     </g>
     <g id="text_10">
      <!-- 1.2 -->
      <g transform="translate(20.878125 192.925185)scale(0.1 -0.1)">
       <use xlink:href="#DejaVuSans-31"/>
       <use x="63.623047" xlink:href="#DejaVuSans-2e"/>
       <use x="95.410156" xlink:href="#DejaVuSans-32"/>
      </g>
     </g>
    </g>
    <g id="ytick_4">
     <g id="line2d_19">
      <path clip-path="url(#p546f2a1c30)" d="M 43.78125 143.345732 
L 400.90125 143.345732 
" style="fill:none;stroke:#b0b0b0;stroke-linecap:square;stroke-width:0.8;"/>
     </g>
     <g id="line2d_20">
      <g>
       <use style="stroke:#000000;stroke-width:0.8;" x="43.78125" xlink:href="#m9b642bd167" y="143.345732"/>
      </g>
     </g>
     <g id="text_11">
      <!-- 1.4 -->
      <g transform="translate(20.878125 147.144951)scale(0.1 -0.1)">
       <use xlink:href="#DejaVuSans-31"/>
       <use x="63.623047" xlink:href="#DejaVuSans-2e"/>
       <use x="95.410156" xlink:href="#DejaVuSans-34"/>
      </g>
     </g>
    </g>
    <g id="ytick_5">
     <g id="line2d_21">
      <path clip-path="url(#p546f2a1c30)" d="M 43.78125 97.565498 
L 400.90125 97.565498 
" style="fill:none;stroke:#b0b0b0;stroke-linecap:square;stroke-width:0.8;"/>
     </g>
     <g id="line2d_22">
      <g>
       <use style="stroke:#000000;stroke-width:0.8;" x="43.78125" xlink:href="#m9b642bd167" y="97.565498"/>
      </g>
     </g>
     <g id="text_12">
      <!-- 1.6 -->
      <g transform="translate(20.878125 101.364717)scale(0.1 -0.1)">
       <use xlink:href="#DejaVuSans-31"/>
       <use x="63.623047" xlink:href="#DejaVuSans-2e"/>
       <use x="95.410156" xlink:href="#DejaVuSans-36"/>
      </g>
     </g>
    </g>
    <g id="ytick_6">
     <g id="line2d_23">
      <path clip-path="url(#p546f2a1c30)" d="M 43.78125 51.785264 
L 400.90125 51.785264 
" style="fill:none;stroke:#b0b0b0;stroke-linecap:square;stroke-width:0.8;"/>
     </g>
     <g id="line2d_24">
      <g>
       <use style="stroke:#000000;stroke-width:0.8;" x="43.78125" xlink:href="#m9b642bd167" y="51.785264"/>
      </g>
     </g>
     <g id="text_13">
      <!-- 1.8 -->
      <g transform="translate(20.878125 55.584483)scale(0.1 -0.1)">
       <use xlink:href="#DejaVuSans-31"/>
       <use x="63.623047" xlink:href="#DejaVuSans-2e"/>
       <use x="95.410156" xlink:href="#DejaVuSans-38"/>
      </g>
     </g>
    </g>
    <g id="text_14">
     <!-- F2 -->
     <g transform="translate(14.798438 161.431156)rotate(-90)scale(0.1 -0.1)">
      <use xlink:href="#DejaVuSans-46"/>
      <use x="57.519531" xlink:href="#DejaVuSans-32"/>
     </g>
    </g>
   </g>
   <g id="line2d_25">
    <defs>
     <path d="M 0 2.5 
C 0.663008 2.5 1.29895 2.236584 1.767767 1.767767 
C 2.236584 1.29895 2.5 0.663008 2.5 0 
C 2.5 -0.663008 2.236584 -1.29895 1.767767 -1.767767 
C 1.29895 -2.236584 0.663008 -2.5 0 -2.5 
C -0.663008 -2.5 -1.29895 -2.236584 -1.767767 -1.767767 
C -2.236584 -1.29895 -2.5 -0.663008 -2.5 0 
C -2.5 0.663008 -2.236584 1.29895 -1.767767 1.767767 
C -1.29895 2.236584 -0.663008 2.5 0 2.5 
z
" id="me22d8672ea" style="stroke:#ff0000;"/>
    </defs>
    <g clip-path="url(#p546f2a1c30)">
     <use style="fill:#ff0000;stroke:#ff0000;" x="60.013977" xlink:href="#me22d8672ea" y="276.334125"/>
     <use style="fill:#ff0000;stroke:#ff0000;" x="81.189333" xlink:href="#me22d8672ea" y="274.275744"/>
     <use style="fill:#ff0000;stroke:#ff0000;" x="81.189333" xlink:href="#me22d8672ea" y="274.275744"/>
     <use style="fill:#ff0000;stroke:#ff0000;" x="104.735731" xlink:href="#me22d8672ea" y="270.080135"/>
     <use style="fill:#ff0000;stroke:#ff0000;" x="111.434913" xlink:href="#me22d8672ea" y="267.906866"/>
     <use style="fill:#ff0000;stroke:#ff0000;" x="116.907554" xlink:href="#me22d8672ea" y="266.482616"/>
     <use style="fill:#ff0000;stroke:#ff0000;" x="124.051133" xlink:href="#me22d8672ea" y="264.602672"/>
     <use style="fill:#ff0000;stroke:#ff0000;" x="132.807736" xlink:href="#me22d8672ea" y="262.63273"/>
     <use style="fill:#ff0000;stroke:#ff0000;" x="137.791518" xlink:href="#me22d8672ea" y="260.824229"/>
     <use style="fill:#ff0000;stroke:#ff0000;" x="141.25498" xlink:href="#me22d8672ea" y="259.638345"/>
     <use style="fill:#ff0000;stroke:#ff0000;" x="145.13013" xlink:href="#me22d8672ea" y="257.79167"/>
     <use style="fill:#ff0000;stroke:#ff0000;" x="149.455183" xlink:href="#me22d8672ea" y="255.443813"/>
     <use style="fill:#ff0000;stroke:#ff0000;" x="154.647801" xlink:href="#me22d8672ea" y="253.626286"/>
     <use style="fill:#ff0000;stroke:#ff0000;" x="159.054328" xlink:href="#me22d8672ea" y="252.076927"/>
     <use style="fill:#ff0000;stroke:#ff0000;" x="161.760587" xlink:href="#me22d8672ea" y="250.927768"/>
     <use style="fill:#ff0000;stroke:#ff0000;" x="167.243761" xlink:href="#me22d8672ea" y="248.089076"/>
     <use style="fill:#ff0000;stroke:#ff0000;" x="171.385657" xlink:href="#me22d8672ea" y="246.577056"/>
     <use style="fill:#ff0000;stroke:#ff0000;" x="175.03264" xlink:href="#me22d8672ea" y="244.821047"/>
     <use style="fill:#ff0000;stroke:#ff0000;" x="177.499894" xlink:href="#me22d8672ea" y="243.504714"/>
     <use style="fill:#ff0000;stroke:#ff0000;" x="181.250846" xlink:href="#me22d8672ea" y="241.45946"/>
     <use style="fill:#ff0000;stroke:#ff0000;" x="183.836002" xlink:href="#me22d8672ea" y="239.981405"/>
     <use style="fill:#ff0000;stroke:#ff0000;" x="187.41404" xlink:href="#me22d8672ea" y="238.040638"/>
     <use style="fill:#ff0000;stroke:#ff0000;" x="191.750052" xlink:href="#me22d8672ea" y="236.601172"/>
     <use style="fill:#ff0000;stroke:#ff0000;" x="194.39879" xlink:href="#me22d8672ea" y="235.206057"/>
     <use style="fill:#ff0000;stroke:#ff0000;" x="198.21501" xlink:href="#me22d8672ea" y="233.097136"/>
     <use style="fill:#ff0000;stroke:#ff0000;" x="201.083405" xlink:href="#me22d8672ea" y="231.487169"/>
     <use style="fill:#ff0000;stroke:#ff0000;" x="204.710508" xlink:href="#me22d8672ea" y="230.025511"/>
     <use style="fill:#ff0000;stroke:#ff0000;" x="207.468751" xlink:href="#me22d8672ea" y="228.442444"/>
     <use style="fill:#ff0000;stroke:#ff0000;" x="209.921353" xlink:href="#me22d8672ea" y="227.221554"/>
     <use style="fill:#ff0000;stroke:#ff0000;" x="213.402992" xlink:href="#me22d8672ea" y="225.346845"/>
     <use style="fill:#ff0000;stroke:#ff0000;" x="215.674488" xlink:href="#me22d8672ea" y="223.383034"/>
     <use style="fill:#ff0000;stroke:#ff0000;" x="218.465091" xlink:href="#me22d8672ea" y="222.594287"/>
     <use style="fill:#ff0000;stroke:#ff0000;" x="221.931453" xlink:href="#me22d8672ea" y="220.2394"/>
     <use style="fill:#ff0000;stroke:#ff0000;" x="224.685935" xlink:href="#me22d8672ea" y="218.719231"/>
     <use style="fill:#ff0000;stroke:#ff0000;" x="228.568908" xlink:href="#me22d8672ea" y="216.961394"/>
     <use style="fill:#ff0000;stroke:#ff0000;" x="231.012903" xlink:href="#me22d8672ea" y="215.345377"/>
     <use style="fill:#ff0000;stroke:#ff0000;" x="233.511626" xlink:href="#me22d8672ea" y="213.578062"/>
     <use style="fill:#ff0000;stroke:#ff0000;" x="236.291772" xlink:href="#me22d8672ea" y="212.461974"/>
     <use style="fill:#ff0000;stroke:#ff0000;" x="239.015636" xlink:href="#me22d8672ea" y="210.730727"/>
     <use style="fill:#ff0000;stroke:#ff0000;" x="240.366782" xlink:href="#me22d8672ea" y="209.912923"/>
     <use style="fill:#ff0000;stroke:#ff0000;" x="244.301126" xlink:href="#me22d8672ea" y="207.504689"/>
     <use style="fill:#ff0000;stroke:#ff0000;" x="247.734833" xlink:href="#me22d8672ea" y="205.623886"/>
     <use style="fill:#ff0000;stroke:#ff0000;" x="249.359875" xlink:href="#me22d8672ea" y="204.58669"/>
     <use style="fill:#ff0000;stroke:#ff0000;" x="251.582944" xlink:href="#me22d8672ea" y="202.820966"/>
     <use style="fill:#ff0000;stroke:#ff0000;" x="254.428065" xlink:href="#me22d8672ea" y="201.188466"/>
     <use style="fill:#ff0000;stroke:#ff0000;" x="256.994931" xlink:href="#me22d8672ea" y="199.563649"/>
     <use style="fill:#ff0000;stroke:#ff0000;" x="259.294954" xlink:href="#me22d8672ea" y="197.928699"/>
     <use style="fill:#ff0000;stroke:#ff0000;" x="261.238191" xlink:href="#me22d8672ea" y="196.905569"/>
     <use style="fill:#ff0000;stroke:#ff0000;" x="264.3562" xlink:href="#me22d8672ea" y="194.670676"/>
     <use style="fill:#ff0000;stroke:#ff0000;" x="266.372675" xlink:href="#me22d8672ea" y="193.038111"/>
     <use style="fill:#ff0000;stroke:#ff0000;" x="269.602931" xlink:href="#me22d8672ea" y="191.134593"/>
     <use style="fill:#ff0000;stroke:#ff0000;" x="271.423503" xlink:href="#me22d8672ea" y="189.974514"/>
     <use style="fill:#ff0000;stroke:#ff0000;" x="273.775695" xlink:href="#me22d8672ea" y="187.980779"/>
     <use style="fill:#ff0000;stroke:#ff0000;" x="276.658984" xlink:href="#me22d8672ea" y="186.361851"/>
     <use style="fill:#ff0000;stroke:#ff0000;" x="278.961519" xlink:href="#me22d8672ea" y="184.844719"/>
     <use style="fill:#ff0000;stroke:#ff0000;" x="281.817484" xlink:href="#me22d8672ea" y="182.928138"/>
     <use style="fill:#ff0000;stroke:#ff0000;" x="283.58333" xlink:href="#me22d8672ea" y="181.278998"/>
     <use style="fill:#ff0000;stroke:#ff0000;" x="286.044554" xlink:href="#me22d8672ea" y="179.958005"/>
     <use style="fill:#ff0000;stroke:#ff0000;" x="288.28148" xlink:href="#me22d8672ea" y="178.082401"/>
     <use style="fill:#ff0000;stroke:#ff0000;" x="290.83126" xlink:href="#me22d8672ea" y="176.151992"/>
     <use style="fill:#ff0000;stroke:#ff0000;" x="293.644216" xlink:href="#me22d8672ea" y="174.086048"/>
     <use style="fill:#ff0000;stroke:#ff0000;" x="295.226735" xlink:href="#me22d8672ea" y="172.51937"/>
     <use style="fill:#ff0000;stroke:#ff0000;" x="297.581837" xlink:href="#me22d8672ea" y="171.017593"/>
     <use style="fill:#ff0000;stroke:#ff0000;" x="299.31966" xlink:href="#me22d8672ea" y="168.726907"/>
     <use style="fill:#ff0000;stroke:#ff0000;" x="302.19119" xlink:href="#me22d8672ea" y="167.462306"/>
     <use style="fill:#ff0000;stroke:#ff0000;" x="304.475219" xlink:href="#me22d8672ea" y="165.502496"/>
     <use style="fill:#ff0000;stroke:#ff0000;" x="306.400938" xlink:href="#me22d8672ea" y="163.808819"/>
     <use style="fill:#ff0000;stroke:#ff0000;" x="308.943852" xlink:href="#me22d8672ea" y="161.481513"/>
     <use style="fill:#ff0000;stroke:#ff0000;" x="311.585007" xlink:href="#me22d8672ea" y="159.673425"/>
     <use style="fill:#ff0000;stroke:#ff0000;" x="313.553433" xlink:href="#me22d8672ea" y="157.797891"/>
     <use style="fill:#ff0000;stroke:#ff0000;" x="315.441004" xlink:href="#me22d8672ea" y="156.047857"/>
     <use style="fill:#ff0000;stroke:#ff0000;" x="317.650572" xlink:href="#me22d8672ea" y="154.246368"/>
     <use style="fill:#ff0000;stroke:#ff0000;" x="320.102363" xlink:href="#me22d8672ea" y="152.20563"/>
     <use style="fill:#ff0000;stroke:#ff0000;" x="322.546377" xlink:href="#me22d8672ea" y="150.023784"/>
     <use style="fill:#ff0000;stroke:#ff0000;" x="324.781874" xlink:href="#me22d8672ea" y="148.216634"/>
     <use style="fill:#ff0000;stroke:#ff0000;" x="326.742047" xlink:href="#me22d8672ea" y="145.514814"/>
     <use style="fill:#ff0000;stroke:#ff0000;" x="329.084565" xlink:href="#me22d8672ea" y="144.156719"/>
     <use style="fill:#ff0000;stroke:#ff0000;" x="331.370542" xlink:href="#me22d8672ea" y="141.790084"/>
     <use style="fill:#ff0000;stroke:#ff0000;" x="333.781292" xlink:href="#me22d8672ea" y="139.259549"/>
     <use style="fill:#ff0000;stroke:#ff0000;" x="335.803203" xlink:href="#me22d8672ea" y="136.750359"/>
     <use style="fill:#ff0000;stroke:#ff0000;" x="338.443936" xlink:href="#me22d8672ea" y="133.423006"/>
     <use style="fill:#ff0000;stroke:#ff0000;" x="340.226064" xlink:href="#me22d8672ea" y="131.818714"/>
     <use style="fill:#ff0000;stroke:#ff0000;" x="342.610219" xlink:href="#me22d8672ea" y="129.222461"/>
     <use style="fill:#ff0000;stroke:#ff0000;" x="344.71013" xlink:href="#me22d8672ea" y="126.592325"/>
     <use style="fill:#ff0000;stroke:#ff0000;" x="346.738527" xlink:href="#me22d8672ea" y="123.783063"/>
     <use style="fill:#ff0000;stroke:#ff0000;" x="349.670902" xlink:href="#me22d8672ea" y="120.8985"/>
     <use style="fill:#ff0000;stroke:#ff0000;" x="351.660608" xlink:href="#me22d8672ea" y="118.455647"/>
     <use style="fill:#ff0000;stroke:#ff0000;" x="354.014594" xlink:href="#me22d8672ea" y="115.232536"/>
     <use style="fill:#ff0000;stroke:#ff0000;" x="356.43354" xlink:href="#me22d8672ea" y="112.314256"/>
     <use style="fill:#ff0000;stroke:#ff0000;" x="359.14065" xlink:href="#me22d8672ea" y="108.172761"/>
     <use style="fill:#ff0000;stroke:#ff0000;" x="360.643141" xlink:href="#me22d8672ea" y="102.977485"/>
     <use style="fill:#ff0000;stroke:#ff0000;" x="363.104278" xlink:href="#me22d8672ea" y="102.013101"/>
     <use style="fill:#ff0000;stroke:#ff0000;" x="366.159252" xlink:href="#me22d8672ea" y="95.755992"/>
     <use style="fill:#ff0000;stroke:#ff0000;" x="368.547765" xlink:href="#me22d8672ea" y="90.512811"/>
     <use style="fill:#ff0000;stroke:#ff0000;" x="370.776529" xlink:href="#me22d8672ea" y="85.284023"/>
     <use style="fill:#ff0000;stroke:#ff0000;" x="373.584342" xlink:href="#me22d8672ea" y="81.246596"/>
     <use style="fill:#ff0000;stroke:#ff0000;" x="375.959596" xlink:href="#me22d8672ea" y="74.629017"/>
     <use style="fill:#ff0000;stroke:#ff0000;" x="378.714815" xlink:href="#me22d8672ea" y="64.792324"/>
     <use style="fill:#ff0000;stroke:#ff0000;" x="381.64564" xlink:href="#me22d8672ea" y="55.723691"/>
     <use style="fill:#ff0000;stroke:#ff0000;" x="384.668523" xlink:href="#me22d8672ea" y="34.414125"/>
    </g>
   </g>
   <g id="patch_3">
    <path d="M 43.78125 288.430125 
L 43.78125 22.318125 
" style="fill:none;stroke:#000000;stroke-linecap:square;stroke-linejoin:miter;stroke-width:0.8;"/>
   </g>
   <g id="patch_4">
    <path d="M 400.90125 288.430125 
L 400.90125 22.318125 
" style="fill:none;stroke:#000000;stroke-linecap:square;stroke-linejoin:miter;stroke-width:0.8;"/>
   </g>
   <g id="patch_5">
    <path d="M 43.78125 288.430125 
L 400.90125 288.430125 
" style="fill:none;stroke:#000000;stroke-linecap:square;stroke-linejoin:miter;stroke-width:0.8;"/>
   </g>
   <g id="patch_6">
    <path d="M 43.78125 22.318125 
L 400.90125 22.318125 
" style="fill:none;stroke:#000000;stroke-linecap:square;stroke-linejoin:miter;stroke-width:0.8;"/>
   </g>
   <g id="text_15">
    <!-- Pareto Front Plot -->
    <g transform="translate(172.974375 16.318125)scale(0.12 -0.12)">
     <defs>
      <path d="M 1259 4147 
L 1259 2394 
L 2053 2394 
Q 2494 2394 2734 2622 
Q 2975 2850 2975 3272 
Q 2975 3691 2734 3919 
Q 2494 4147 2053 4147 
L 1259 4147 
z
M 628 4666 
L 2053 4666 
Q 2838 4666 3239 4311 
Q 3641 3956 3641 3272 
Q 3641 2581 3239 2228 
Q 2838 1875 2053 1875 
L 1259 1875 
L 1259 0 
L 628 0 
L 628 4666 
z
" id="DejaVuSans-50" transform="scale(0.015625)"/>
      <path d="M 2194 1759 
Q 1497 1759 1228 1600 
Q 959 1441 959 1056 
Q 959 750 1161 570 
Q 1363 391 1709 391 
Q 2188 391 2477 730 
Q 2766 1069 2766 1631 
L 2766 1759 
L 2194 1759 
z
M 3341 1997 
L 3341 0 
L 2766 0 
L 2766 531 
Q 2569 213 2275 61 
Q 1981 -91 1556 -91 
Q 1019 -91 701 211 
Q 384 513 384 1019 
Q 384 1609 779 1909 
Q 1175 2209 1959 2209 
L 2766 2209 
L 2766 2266 
Q 2766 2663 2505 2880 
Q 2244 3097 1772 3097 
Q 1472 3097 1187 3025 
Q 903 2953 641 2809 
L 641 3341 
Q 956 3463 1253 3523 
Q 1550 3584 1831 3584 
Q 2591 3584 2966 3190 
Q 3341 2797 3341 1997 
z
" id="DejaVuSans-61" transform="scale(0.015625)"/>
      <path d="M 2631 2963 
Q 2534 3019 2420 3045 
Q 2306 3072 2169 3072 
Q 1681 3072 1420 2755 
Q 1159 2438 1159 1844 
L 1159 0 
L 581 0 
L 581 3500 
L 1159 3500 
L 1159 2956 
Q 1341 3275 1631 3429 
Q 1922 3584 2338 3584 
Q 2397 3584 2469 3576 
Q 2541 3569 2628 3553 
L 2631 2963 
z
" id="DejaVuSans-72" transform="scale(0.015625)"/>
      <path d="M 3597 1894 
L 3597 1613 
L 953 1613 
Q 991 1019 1311 708 
Q 1631 397 2203 397 
Q 2534 397 2845 478 
Q 3156 559 3463 722 
L 3463 178 
Q 3153 47 2828 -22 
Q 2503 -91 2169 -91 
Q 1331 -91 842 396 
Q 353 884 353 1716 
Q 353 2575 817 3079 
Q 1281 3584 2069 3584 
Q 2775 3584 3186 3129 
Q 3597 2675 3597 1894 
z
M 3022 2063 
Q 3016 2534 2758 2815 
Q 2500 3097 2075 3097 
Q 1594 3097 1305 2825 
Q 1016 2553 972 2059 
L 3022 2063 
z
" id="DejaVuSans-65" transform="scale(0.015625)"/>
      <path d="M 1172 4494 
L 1172 3500 
L 2356 3500 
L 2356 3053 
L 1172 3053 
L 1172 1153 
Q 1172 725 1289 603 
Q 1406 481 1766 481 
L 2356 481 
L 2356 0 
L 1766 0 
Q 1100 0 847 248 
Q 594 497 594 1153 
L 594 3053 
L 172 3053 
L 172 3500 
L 594 3500 
L 594 4494 
L 1172 4494 
z
" id="DejaVuSans-74" transform="scale(0.015625)"/>
      <path d="M 1959 3097 
Q 1497 3097 1228 2736 
Q 959 2375 959 1747 
Q 959 1119 1226 758 
Q 1494 397 1959 397 
Q 2419 397 2687 759 
Q 2956 1122 2956 1747 
Q 2956 2369 2687 2733 
Q 2419 3097 1959 3097 
z
M 1959 3584 
Q 2709 3584 3137 3096 
Q 3566 2609 3566 1747 
Q 3566 888 3137 398 
Q 2709 -91 1959 -91 
Q 1206 -91 779 398 
Q 353 888 353 1747 
Q 353 2609 779 3096 
Q 1206 3584 1959 3584 
z
" id="DejaVuSans-6f" transform="scale(0.015625)"/>
      <path id="DejaVuSans-20" transform="scale(0.015625)"/>
      <path d="M 3513 2113 
L 3513 0 
L 2938 0 
L 2938 2094 
Q 2938 2591 2744 2837 
Q 2550 3084 2163 3084 
Q 1697 3084 1428 2787 
Q 1159 2491 1159 1978 
L 1159 0 
L 581 0 
L 581 3500 
L 1159 3500 
L 1159 2956 
Q 1366 3272 1645 3428 
Q 1925 3584 2291 3584 
Q 2894 3584 3203 3211 
Q 3513 2838 3513 2113 
z
" id="DejaVuSans-6e" transform="scale(0.015625)"/>
      <path d="M 603 4863 
L 1178 4863 
L 1178 0 
L 603 0 
L 603 4863 
z
" id="DejaVuSans-6c" transform="scale(0.015625)"/>
     </defs>
     <use xlink:href="#DejaVuSans-50"/>
     <use x="55.802734" xlink:href="#DejaVuSans-61"/>
     <use x="117.082031" xlink:href="#DejaVuSans-72"/>
     <use x="155.945312" xlink:href="#DejaVuSans-65"/>
     <use x="217.46875" xlink:href="#DejaVuSans-74"/>
     <use x="256.677734" xlink:href="#DejaVuSans-6f"/>
     <use x="317.859375" xlink:href="#DejaVuSans-20"/>
     <use x="349.646484" xlink:href="#DejaVuSans-46"/>
     <use x="399.916016" xlink:href="#DejaVuSans-72"/>
     <use x="438.779297" xlink:href="#DejaVuSans-6f"/>
     <use x="499.960938" xlink:href="#DejaVuSans-6e"/>
     <use x="563.339844" xlink:href="#DejaVuSans-74"/>
     <use x="602.548828" xlink:href="#DejaVuSans-20"/>
     <use x="634.335938" xlink:href="#DejaVuSans-50"/>
     <use x="694.638672" xlink:href="#DejaVuSans-6c"/>
     <use x="722.421875" xlink:href="#DejaVuSans-6f"/>
     <use x="783.603516" xlink:href="#DejaVuSans-74"/>
    </g>
   </g>
   <g id="legend_1">
    <g id="patch_7">
     <path d="M 50.78125 44.99625 
L 127.4 44.99625 
Q 129.4 44.99625 129.4 42.99625 
L 129.4 29.318125 
Q 129.4 27.318125 127.4 27.318125 
L 50.78125 27.318125 
Q 48.78125 27.318125 48.78125 29.318125 
L 48.78125 42.99625 
Q 48.78125 44.99625 50.78125 44.99625 
z
" style="fill:#ffffff;opacity:0.8;stroke:#cccccc;stroke-linejoin:miter;"/>
    </g>
    <g id="line2d_26"/>
    <g id="line2d_27">
     <g>
      <use style="fill:#ff0000;stroke:#ff0000;" x="62.78125" xlink:href="#me22d8672ea" y="35.416562"/>
     </g>
    </g>
    <g id="text_16">
     <!-- MOEA PF -->
     <g transform="translate(80.78125 38.916562)scale(0.1 -0.1)">
      <defs>
       <path d="M 628 4666 
L 1569 4666 
L 2759 1491 
L 3956 4666 
L 4897 4666 
L 4897 0 
L 4281 0 
L 4281 4097 
L 3078 897 
L 2444 897 
L 1241 4097 
L 1241 0 
L 628 0 
L 628 4666 
z
" id="DejaVuSans-4d" transform="scale(0.015625)"/>
       <path d="M 2522 4238 
Q 1834 4238 1429 3725 
Q 1025 3213 1025 2328 
Q 1025 1447 1429 934 
Q 1834 422 2522 422 
Q 3209 422 3611 934 
Q 4013 1447 4013 2328 
Q 4013 3213 3611 3725 
Q 3209 4238 2522 4238 
z
M 2522 4750 
Q 3503 4750 4090 4092 
Q 4678 3434 4678 2328 
Q 4678 1225 4090 567 
Q 3503 -91 2522 -91 
Q 1538 -91 948 565 
Q 359 1222 359 2328 
Q 359 3434 948 4092 
Q 1538 4750 2522 4750 
z
" id="DejaVuSans-4f" transform="scale(0.015625)"/>
       <path d="M 628 4666 
L 3578 4666 
L 3578 4134 
L 1259 4134 
L 1259 2753 
L 3481 2753 
L 3481 2222 
L 1259 2222 
L 1259 531 
L 3634 531 
L 3634 0 
L 628 0 
L 628 4666 
z
" id="DejaVuSans-45" transform="scale(0.015625)"/>
       <path d="M 2188 4044 
L 1331 1722 
L 3047 1722 
L 2188 4044 
z
M 1831 4666 
L 2547 4666 
L 4325 0 
L 3669 0 
L 3244 1197 
L 1141 1197 
L 716 0 
L 50 0 
L 1831 4666 
z
" id="DejaVuSans-41" transform="scale(0.015625)"/>
      </defs>
      <use xlink:href="#DejaVuSans-4d"/>
      <use x="86.279297" xlink:href="#DejaVuSans-4f"/>
      <use x="164.990234" xlink:href="#DejaVuSans-45"/>
      <use x="228.173828" xlink:href="#DejaVuSans-41"/>
      <use x="296.582031" xlink:href="#DejaVuSans-20"/>
      <use x="328.369141" xlink:href="#DejaVuSans-50"/>
      <use x="388.671875" xlink:href="#DejaVuSans-46"/>
     </g>
    </g>
   </g>
  </g>
 </g>
 <defs>
  <clipPath id="p546f2a1c30">
   <rect height="266.112" width="357.12" x="43.78125" y="22.318125"/>
  </clipPath>
 </defs>
</svg>
