<?xml version="1.0" encoding="utf-8" standalone="no"?>
<!DOCTYPE svg PUBLIC "-//W3C//DTD SVG 1.1//EN"
  "http://www.w3.org/Graphics/SVG/1.1/DTD/svg11.dtd">
<!-- Created with matplotlib (https://matplotlib.org/) -->
<svg height="275.075489pt" version="1.1" viewBox="0 0 303.189958 275.075489" width="303.189958pt" xmlns="http://www.w3.org/2000/svg" xmlns:xlink="http://www.w3.org/1999/xlink">
 <metadata>
  <rdf:RDF xmlns:cc="http://creativecommons.org/ns#" xmlns:dc="http://purl.org/dc/elements/1.1/" xmlns:rdf="http://www.w3.org/1999/02/22-rdf-syntax-ns#">
   <cc:Work>
    <dc:type rdf:resource="http://purl.org/dc/dcmitype/StillImage"/>
    <dc:date>2021-08-01T15:01:17.793706</dc:date>
    <dc:format>image/svg+xml</dc:format>
    <dc:creator>
     <cc:Agent>
      <dc:title>Matplotlib v3.3.3, https://matplotlib.org/</dc:title>
     </cc:Agent>
    </dc:creator>
   </cc:Work>
  </rdf:RDF>
 </metadata>
 <defs>
  <style type="text/css">*{stroke-linecap:butt;stroke-linejoin:round;}</style>
 </defs>
 <g id="figure_1">
  <g id="patch_1">
   <path d="M 0 275.075489 
L 303.189958 275.075489 
L 303.189958 0 
L 0 0 
z
" style="fill:#ffffff;"/>
  </g>
  <g id="patch_2">
   <path d="M 40.965958 262.224 
L 295.989958 262.224 
L 295.989958 7.2 
L 40.965958 7.2 
z
" style="fill:#ffffff;"/>
  </g>
  <g id="pane3d_1">
   <g id="patch_3">
    <path d="M 171.924229 126.95126 
L 285.432518 183.39774 
L 290.615545 76.753262 
L 171.924229 25.308407 
" style="fill:#f2f2f2;opacity:0.5;stroke:#f2f2f2;stroke-linejoin:miter;"/>
   </g>
  </g>
  <g id="pane3d_2">
   <g id="patch_4">
    <path d="M 171.924229 126.95126 
L 58.415939 183.39774 
L 53.232913 76.753262 
L 171.924229 25.308407 
" style="fill:#e6e6e6;opacity:0.5;stroke:#e6e6e6;stroke-linejoin:miter;"/>
   </g>
  </g>
  <g id="pane3d_3">
   <g id="patch_5">
    <path d="M 171.924229 126.95126 
L 58.415939 183.39774 
L 171.924229 248.512739 
L 285.432518 183.39774 
" style="fill:#ececec;opacity:0.5;stroke:#ececec;stroke-linejoin:miter;"/>
   </g>
  </g>
  <g id="axis3d_1">
   <g id="line2d_1">
    <path d="M 285.432518 183.39774 
L 171.924229 248.512739 
" style="fill:none;stroke:#000000;stroke-linecap:square;stroke-width:0.8;"/>
   </g>
   <g id="text_1">
    <!-- F1 -->
    <g transform="translate(248.370313 249.614278)scale(0.1 -0.1)">
     <defs>
      <path d="M 45.703125 61.328125 
L 13.671875 61.328125 
L 13.671875 39.453125 
L 37.890625 39.453125 
L 37.890625 32.03125 
L 13.671875 32.03125 
L 13.671875 1.953125 
L 4.6875 1.953125 
L 4.6875 68.75 
L 45.703125 68.75 
z
" id="SimHei-70"/>
      <path d="M 21.875 56.25 
Q 16.796875 51.171875 8.984375 46.484375 
L 8.984375 53.90625 
Q 18.75 60.546875 25 69.53125 
L 29.6875 69.53125 
L 29.6875 2.34375 
L 21.875 2.34375 
z
" id="SimHei-49"/>
     </defs>
     <use xlink:href="#SimHei-70"/>
     <use x="50" xlink:href="#SimHei-49"/>
    </g>
   </g>
   <g id="Line3DCollection_1">
    <path d="M 266.226005 194.41572 
L 152.636231 136.542978 
L 151.806257 34.02822 
" style="fill:none;stroke:#b0b0b0;stroke-width:0.8;"/>
    <path d="M 245.323434 206.406659 
L 131.682822 146.962889 
L 129.927707 43.511128 
" style="fill:none;stroke:#b0b0b0;stroke-width:0.8;"/>
    <path d="M 223.829059 218.737091 
L 110.177189 157.657414 
L 107.447056 53.255007 
" style="fill:none;stroke:#b0b0b0;stroke-width:0.8;"/>
    <path d="M 201.717384 231.421641 
L 88.09721 168.637556 
L 84.339103 63.270781 
" style="fill:none;stroke:#b0b0b0;stroke-width:0.8;"/>
    <path d="M 178.961431 244.475788 
L 65.419565 179.914911 
L 60.57722 73.569989 
" style="fill:none;stroke:#b0b0b0;stroke-width:0.8;"/>
   </g>
   <g id="xtick_1">
    <g id="line2d_2">
     <path d="M 265.252207 193.919581 
L 268.176981 195.409721 
" style="fill:none;stroke:#000000;stroke-linecap:square;stroke-width:0.8;"/>
    </g>
    <g id="text_2">
     <!-- 6680 -->
     <g transform="translate(266.434615 215.600604)scale(0.1 -0.1)">
      <defs>
       <path d="M 3.515625 19.53125 
Q 4.296875 30.859375 6.046875 34.765625 
Q 7.8125 38.671875 11.328125 44.53125 
L 27.34375 69.53125 
L 36.328125 69.53125 
L 19.921875 43.75 
Q 30.46875 46.484375 36.71875 42.96875 
Q 42.96875 39.453125 45.109375 34.953125 
Q 47.265625 30.46875 47.453125 25.1875 
Q 47.65625 19.921875 45.890625 14.84375 
Q 44.140625 9.765625 39.640625 5.65625 
Q 35.15625 1.5625 27.140625 1.171875 
Q 19.140625 0.78125 13.46875 4.09375 
Q 7.8125 7.421875 5.65625 13.46875 
Q 3.515625 19.53125 4.296875 30.859375 
z
M 12.5 16.015625 
Q 19.53125 8.59375 25.390625 8.203125 
Q 31.25 7.8125 35.15625 12.109375 
Q 39.0625 16.40625 39.0625 24.609375 
Q 39.0625 32.8125 34.171875 35.9375 
Q 29.296875 39.0625 23.234375 38.28125 
Q 17.1875 37.5 14.453125 32.421875 
Q 11.71875 27.34375 12.109375 21.671875 
Q 12.5 16.015625 19.53125 8.59375 
z
" id="SimHei-54"/>
       <path d="M 2.734375 16.796875 
Q 2.734375 26.171875 5.078125 30.65625 
Q 7.421875 35.15625 12.890625 37.890625 
Q 8.203125 40.625 6.640625 43.9375 
Q 5.078125 47.265625 4.875 51.5625 
Q 4.6875 55.859375 6.046875 58.984375 
Q 7.421875 62.109375 10.15625 64.84375 
Q 12.890625 67.578125 16.203125 68.546875 
Q 19.53125 69.53125 23.4375 69.53125 
Q 27.34375 69.53125 30.46875 68.75 
Q 33.59375 67.96875 37.109375 65.421875 
Q 40.625 62.890625 42.1875 58.203125 
Q 43.75 53.515625 41.984375 47.265625 
Q 40.234375 41.015625 32.8125 37.5 
Q 39.453125 35.546875 42.1875 31.4375 
Q 44.921875 27.34375 44.921875 21.484375 
Q 44.921875 15.625 43.15625 12.109375 
Q 41.40625 8.59375 39.25 6.25 
Q 37.109375 3.90625 33.390625 2.53125 
Q 29.6875 1.171875 24.015625 1.171875 
Q 18.359375 1.171875 14.25 2.53125 
Q 10.15625 3.90625 7.421875 6.640625 
Q 4.6875 9.375 3.703125 13.078125 
Q 2.734375 16.796875 2.734375 26.171875 
z
M 10.9375 26.5625 
Q 10.546875 17.1875 12.296875 13.671875 
Q 14.0625 10.15625 18.75 9.171875 
Q 23.4375 8.203125 28.515625 9.375 
Q 33.59375 10.546875 35.546875 14.84375 
Q 37.5 19.140625 36.90625 23.4375 
Q 36.328125 27.734375 32.03125 30.65625 
Q 27.734375 33.59375 22.65625 33.203125 
Q 17.578125 32.8125 14.25 29.6875 
Q 10.9375 26.5625 10.546875 17.1875 
z
M 12.109375 56.25 
Q 12.109375 48.4375 14.84375 44.921875 
Q 17.578125 41.40625 23.4375 41.40625 
Q 29.296875 41.40625 32.21875 44.921875 
Q 35.15625 48.4375 34.953125 53.3125 
Q 34.765625 58.203125 31.4375 60.546875 
Q 28.125 62.890625 22.453125 62.5 
Q 16.796875 62.109375 14.453125 59.171875 
Q 12.109375 56.25 12.109375 48.4375 
z
" id="SimHei-56"/>
       <path d="M 3.125 29.296875 
Q 3.90625 50 6.4375 56.046875 
Q 8.984375 62.109375 13.671875 66.015625 
Q 18.359375 69.921875 25.1875 69.921875 
Q 32.03125 69.921875 37.109375 64.25 
Q 42.1875 58.59375 43.75 50 
Q 45.3125 41.40625 44.71875 30.265625 
Q 44.140625 19.140625 40.8125 12.109375 
Q 37.5 5.078125 30.859375 2.34375 
Q 24.21875 -0.390625 17.578125 2.921875 
Q 10.9375 6.25 8.203125 11.71875 
Q 5.46875 17.1875 4.296875 23.234375 
Q 3.125 29.296875 3.90625 50 
z
M 12.890625 52.734375 
Q 10.546875 31.25 12.5 22.84375 
Q 14.453125 14.453125 18.9375 10.9375 
Q 23.4375 7.421875 28.125 9.5625 
Q 32.8125 11.71875 34.953125 18.15625 
Q 37.109375 24.609375 37.109375 32.21875 
Q 37.109375 39.84375 36.515625 46.09375 
Q 35.9375 52.34375 33 57.421875 
Q 30.078125 62.5 25.1875 62.6875 
Q 20.3125 62.890625 16.59375 57.8125 
Q 12.890625 52.734375 10.546875 31.25 
z
" id="SimHei-48"/>
      </defs>
      <use xlink:href="#SimHei-54"/>
      <use x="50" xlink:href="#SimHei-54"/>
      <use x="100" xlink:href="#SimHei-56"/>
      <use x="150" xlink:href="#SimHei-48"/>
     </g>
    </g>
   </g>
   <g id="xtick_2">
    <g id="line2d_3">
     <path d="M 244.348292 205.896576 
L 247.277151 207.428619 
" style="fill:none;stroke:#000000;stroke-linecap:square;stroke-width:0.8;"/>
    </g>
    <g id="text_3">
     <!-- 6690 -->
     <g transform="translate(245.623385 227.82133)scale(0.1 -0.1)">
      <defs>
       <path d="M 12.5 1.171875 
Q 21.09375 15.625 26.5625 27.34375 
Q 16.796875 25.78125 10.34375 29.875 
Q 3.90625 33.984375 2.53125 41.015625 
Q 1.171875 48.046875 2.734375 53.703125 
Q 4.296875 59.375 7.609375 63.078125 
Q 10.9375 66.796875 15.625 68.359375 
Q 20.3125 69.921875 24.015625 69.921875 
Q 27.734375 69.921875 31.640625 68.359375 
Q 35.546875 66.796875 38.671875 63.671875 
Q 41.796875 60.546875 42.96875 57.21875 
Q 44.140625 53.90625 44.140625 48.625 
Q 44.140625 43.359375 40.234375 35.15625 
Q 36.328125 26.953125 21.09375 1.171875 
z
M 9.765625 50 
Q 10.9375 39.84375 14.640625 36.515625 
Q 18.359375 33.203125 22.65625 33.59375 
Q 26.953125 33.984375 29.484375 35.9375 
Q 32.03125 37.890625 34.375 42.578125 
Q 35.9375 48.4375 35.15625 52.53125 
Q 34.375 56.640625 31.046875 59.375 
Q 27.734375 62.109375 23.828125 62.109375 
Q 21.484375 62.5 17.765625 60.9375 
Q 14.0625 59.375 11.90625 54.6875 
Q 9.765625 50 10.9375 39.84375 
z
" id="SimHei-57"/>
      </defs>
      <use xlink:href="#SimHei-54"/>
      <use x="50" xlink:href="#SimHei-54"/>
      <use x="100" xlink:href="#SimHei-57"/>
      <use x="150" xlink:href="#SimHei-48"/>
     </g>
    </g>
   </g>
   <g id="xtick_3">
    <g id="line2d_4">
     <path d="M 222.852886 218.212468 
L 225.784889 219.788208 
" style="fill:none;stroke:#000000;stroke-linecap:square;stroke-width:0.8;"/>
    </g>
    <g id="text_4">
     <!-- 6700 -->
     <g transform="translate(224.221464 240.38892)scale(0.1 -0.1)">
      <defs>
       <path d="M 13.28125 2.34375 
Q 20.3125 32.03125 37.890625 61.328125 
L 4.296875 61.328125 
L 4.296875 68.359375 
L 46.09375 68.359375 
L 46.09375 61.71875 
Q 27.734375 32.03125 21.875 2.34375 
L 13.28125 2.34375 
z
" id="SimHei-55"/>
      </defs>
      <use xlink:href="#SimHei-54"/>
      <use x="50" xlink:href="#SimHei-55"/>
      <use x="100" xlink:href="#SimHei-48"/>
      <use x="150" xlink:href="#SimHei-48"/>
     </g>
    </g>
   </g>
   <g id="xtick_4">
    <g id="line2d_5">
     <path d="M 200.740523 230.881849 
L 203.674644 232.503181 
" style="fill:none;stroke:#000000;stroke-linecap:square;stroke-width:0.8;"/>
    </g>
    <g id="text_5">
     <!-- 6710 -->
     <g transform="translate(202.203342 253.318354)scale(0.1 -0.1)">
      <use xlink:href="#SimHei-54"/>
      <use x="50" xlink:href="#SimHei-55"/>
      <use x="100" xlink:href="#SimHei-49"/>
      <use x="150" xlink:href="#SimHei-48"/>
     </g>
    </g>
   </g>
   <g id="xtick_5">
    <g id="line2d_6">
     <path d="M 177.984255 243.920158 
L 180.919373 245.58909 
" style="fill:none;stroke:#000000;stroke-linecap:square;stroke-width:0.8;"/>
    </g>
    <g id="text_6">
     <!-- 6720 -->
     <g transform="translate(179.542017 266.625489)scale(0.1 -0.1)">
      <defs>
       <path d="M 4.6875 3.90625 
Q 5.078125 9.765625 10.15625 14.453125 
Q 15.234375 19.140625 23.046875 29.09375 
Q 30.859375 39.0625 33.203125 44.53125 
Q 35.546875 50 34.953125 53.90625 
Q 34.375 57.8125 31.25 60.34375 
Q 28.125 62.890625 24.015625 62.5 
Q 19.921875 62.109375 16.203125 59.375 
Q 12.5 56.640625 10.546875 51.171875 
L 3.125 52.34375 
Q 6.25 61.328125 11.125 65.421875 
Q 16.015625 69.53125 22.65625 69.921875 
Q 26.5625 70.3125 29.6875 69.71875 
Q 32.8125 69.140625 36.125 66.984375 
Q 39.453125 64.84375 41.59375 60.546875 
Q 43.75 56.25 43.15625 50.1875 
Q 42.578125 44.140625 37.109375 35.734375 
Q 31.640625 27.34375 16.015625 9.375 
L 44.140625 9.375 
L 44.140625 2.34375 
L 4.6875 2.34375 
z
" id="SimHei-50"/>
      </defs>
      <use xlink:href="#SimHei-54"/>
      <use x="50" xlink:href="#SimHei-55"/>
      <use x="100" xlink:href="#SimHei-50"/>
      <use x="150" xlink:href="#SimHei-48"/>
     </g>
    </g>
   </g>
  </g>
  <g id="axis3d_2">
   <g id="line2d_7">
    <path d="M 58.415939 183.39774 
L 171.924229 248.512739 
" style="fill:none;stroke:#000000;stroke-linecap:square;stroke-width:0.8;"/>
   </g>
   <g id="text_7">
    <!-- F2 -->
    <g transform="translate(85.478144 249.614278)scale(0.1 -0.1)">
     <use xlink:href="#SimHei-70"/>
     <use x="50" xlink:href="#SimHei-50"/>
    </g>
   </g>
   <g id="Line3DCollection_2">
    <path d="M 192.369295 34.169994 
L 191.525663 136.698847 
L 77.934839 194.594923 
" style="fill:none;stroke:#b0b0b0;stroke-width:0.8;"/>
    <path d="M 218.111903 45.327716 
L 216.176886 148.957642 
L 102.531026 208.704737 
" style="fill:none;stroke:#b0b0b0;stroke-width:0.8;"/>
    <path d="M 244.689929 56.847537 
L 241.594074 161.597342 
L 127.94853 223.285704 
" style="fill:none;stroke:#b0b0b0;stroke-width:0.8;"/>
    <path d="M 272.144711 68.747374 
L 267.813489 174.635982 
L 154.229186 238.361827 
" style="fill:none;stroke:#b0b0b0;stroke-width:0.8;"/>
   </g>
   <g id="xtick_6">
    <g id="line2d_8">
     <path d="M 78.908659 194.098577 
L 75.983817 195.589339 
" style="fill:none;stroke:#000000;stroke-linecap:square;stroke-width:0.8;"/>
    </g>
    <g id="text_8">
     <!-- 2000 -->
     <g transform="translate(57.724854 215.783236)scale(0.1 -0.1)">
      <use xlink:href="#SimHei-50"/>
      <use x="50" xlink:href="#SimHei-48"/>
      <use x="100" xlink:href="#SimHei-48"/>
      <use x="150" xlink:href="#SimHei-48"/>
     </g>
    </g>
   </g>
   <g id="xtick_7">
    <g id="line2d_9">
     <path d="M 103.506387 208.191959 
L 100.576862 209.7321 
" style="fill:none;stroke:#000000;stroke-linecap:square;stroke-width:0.8;"/>
    </g>
    <g id="text_9">
     <!-- 4000 -->
     <g transform="translate(82.213731 230.163541)scale(0.1 -0.1)">
      <defs>
       <path d="M 31.25 17.1875 
L 1.171875 17.1875 
L 1.171875 23.828125 
L 32.8125 69.53125 
L 38.671875 69.53125 
L 38.671875 23.828125 
L 48.046875 23.828125 
L 48.046875 17.1875 
L 38.671875 17.1875 
L 38.671875 2.34375 
L 31.25 2.34375 
z
M 31.25 23.828125 
L 31.25 54.6875 
L 9.375 23.828125 
z
" id="SimHei-52"/>
      </defs>
      <use xlink:href="#SimHei-52"/>
      <use x="50" xlink:href="#SimHei-48"/>
      <use x="100" xlink:href="#SimHei-48"/>
      <use x="150" xlink:href="#SimHei-48"/>
     </g>
    </g>
   </g>
   <g id="xtick_8">
    <g id="line2d_10">
     <path d="M 128.924993 222.755667 
L 125.9921 224.347681 
" style="fill:none;stroke:#000000;stroke-linecap:square;stroke-width:0.8;"/>
    </g>
    <g id="text_10">
     <!-- 6000 -->
     <g transform="translate(107.522395 245.025241)scale(0.1 -0.1)">
      <use xlink:href="#SimHei-54"/>
      <use x="50" xlink:href="#SimHei-48"/>
      <use x="100" xlink:href="#SimHei-48"/>
      <use x="150" xlink:href="#SimHei-48"/>
     </g>
    </g>
   </g>
   <g id="xtick_9">
    <g id="line2d_11">
     <path d="M 155.206264 237.813643 
L 152.271464 239.460196 
" style="fill:none;stroke:#000000;stroke-linecap:square;stroke-width:0.8;"/>
    </g>
    <g id="text_11">
     <!-- 8000 -->
     <g transform="translate(133.692711 260.392917)scale(0.1 -0.1)">
      <use xlink:href="#SimHei-56"/>
      <use x="50" xlink:href="#SimHei-48"/>
      <use x="100" xlink:href="#SimHei-48"/>
      <use x="150" xlink:href="#SimHei-48"/>
     </g>
    </g>
   </g>
  </g>
  <g id="axis3d_3">
   <g id="line2d_12">
    <path d="M 58.415939 183.39774 
L 53.232913 76.753262 
" style="fill:none;stroke:#000000;stroke-linecap:square;stroke-width:0.8;"/>
   </g>
   <g id="text_12">
    <!-- F3 -->
    <g transform="translate(7.2 134.07823)scale(0.1 -0.1)">
     <defs>
      <path d="M 3.90625 19.140625 
L 10.9375 20.3125 
Q 12.5 15.234375 16.015625 11.90625 
Q 19.53125 8.59375 24.796875 8.78125 
Q 30.078125 8.984375 33.203125 13.078125 
Q 36.328125 17.1875 35.9375 22.453125 
Q 35.546875 27.734375 31.828125 30.65625 
Q 28.125 33.59375 19.921875 34.765625 
L 19.921875 39.84375 
Q 28.125 40.625 31.828125 44.140625 
Q 35.546875 47.65625 35.15625 53.3125 
Q 34.765625 58.984375 30.078125 61.515625 
Q 25.390625 64.0625 20.109375 62.109375 
Q 14.84375 60.15625 11.71875 51.171875 
L 4.6875 52.34375 
Q 7.03125 59.375 11.125 64.0625 
Q 15.234375 68.75 22.265625 69.53125 
Q 29.296875 70.3125 34.5625 67.765625 
Q 39.84375 65.234375 41.984375 59.953125 
Q 44.140625 54.6875 42.578125 48.4375 
Q 41.015625 42.1875 33.59375 37.5 
Q 39.0625 35.15625 41.984375 30.46875 
Q 44.921875 25.78125 43.9375 18.15625 
Q 42.96875 10.546875 37.109375 5.859375 
Q 31.25 1.171875 23.828125 1.359375 
Q 16.40625 1.5625 10.9375 6.046875 
Q 5.46875 10.546875 3.90625 19.140625 
z
" id="SimHei-51"/>
     </defs>
     <use xlink:href="#SimHei-70"/>
     <use x="50" xlink:href="#SimHei-51"/>
    </g>
   </g>
   <g id="Line3DCollection_3">
    <path d="M 57.693705 168.537242 
L 171.924229 112.750684 
L 286.154753 168.537242 
" style="fill:none;stroke:#b0b0b0;stroke-width:0.8;"/>
    <path d="M 56.563908 145.290868 
L 171.924229 90.560731 
L 287.284549 145.290868 
" style="fill:none;stroke:#b0b0b0;stroke-width:0.8;"/>
    <path d="M 55.411539 121.580063 
L 171.924229 67.95769 
L 288.436918 121.580063 
" style="fill:none;stroke:#b0b0b0;stroke-width:0.8;"/>
    <path d="M 54.235916 97.39077 
L 171.924229 44.929919 
L 289.612541 97.39077 
" style="fill:none;stroke:#b0b0b0;stroke-width:0.8;"/>
   </g>
   <g id="xtick_10">
    <g id="line2d_13">
     <path d="M 58.672567 168.059197 
L 55.732603 169.494982 
" style="fill:none;stroke:#000000;stroke-linecap:square;stroke-width:0.8;"/>
    </g>
    <g id="text_13">
     <!-- 0.6 -->
     <g transform="translate(30.413527 175.412242)scale(0.1 -0.1)">
      <defs>
       <path d="M 16.796875 1.953125 
L 7.8125 1.953125 
L 7.8125 10.546875 
L 16.796875 10.546875 
z
" id="SimHei-46"/>
      </defs>
      <use xlink:href="#SimHei-48"/>
      <use x="50" xlink:href="#SimHei-46"/>
      <use x="100" xlink:href="#SimHei-54"/>
     </g>
    </g>
   </g>
   <g id="xtick_11">
    <g id="line2d_14">
     <path d="M 57.553101 144.821567 
L 54.582076 146.231104 
" style="fill:none;stroke:#000000;stroke-linecap:square;stroke-width:0.8;"/>
    </g>
    <g id="text_14">
     <!-- 0.8 -->
     <g transform="translate(29.088095 152.165868)scale(0.1 -0.1)">
      <use xlink:href="#SimHei-48"/>
      <use x="50" xlink:href="#SimHei-46"/>
      <use x="100" xlink:href="#SimHei-56"/>
     </g>
    </g>
   </g>
   <g id="xtick_12">
    <g id="line2d_15">
     <path d="M 56.411283 121.119954 
L 53.408536 122.501901 
" style="fill:none;stroke:#000000;stroke-linecap:square;stroke-width:0.8;"/>
    </g>
    <g id="text_15">
     <!-- 1.0 -->
     <g transform="translate(27.736182 128.455063)scale(0.1 -0.1)">
      <use xlink:href="#SimHei-49"/>
      <use x="50" xlink:href="#SimHei-46"/>
      <use x="100" xlink:href="#SimHei-48"/>
     </g>
    </g>
   </g>
   <g id="xtick_13">
    <g id="line2d_16">
     <path d="M 55.246436 96.94032 
L 52.211286 98.293271 
" style="fill:none;stroke:#000000;stroke-linecap:square;stroke-width:0.8;"/>
    </g>
    <g id="text_16">
     <!-- 1.2 -->
     <g transform="translate(26.356987 104.26577)scale(0.1 -0.1)">
      <use xlink:href="#SimHei-49"/>
      <use x="50" xlink:href="#SimHei-46"/>
      <use x="100" xlink:href="#SimHei-50"/>
     </g>
    </g>
   </g>
  </g>
  <g id="axes_1">
   <g id="line2d_17">
    <defs>
     <path d="M 0 1.5 
C 0.397805 1.5 0.77937 1.341951 1.06066 1.06066 
C 1.341951 0.77937 1.5 0.397805 1.5 0 
C 1.5 -0.397805 1.341951 -0.77937 1.06066 -1.06066 
C 0.77937 -1.341951 0.397805 -1.5 0 -1.5 
C -0.397805 -1.5 -0.77937 -1.341951 -1.06066 -1.06066 
C -1.341951 -0.77937 -1.5 -0.397805 -1.5 0 
C -1.5 0.397805 -1.341951 0.77937 -1.06066 1.06066 
C -0.77937 1.341951 -0.397805 1.5 0 1.5 
z
" id="m3b95e87950" style="stroke:#4682b4;"/>
    </defs>
    <g clip-path="url(#p98c9ba5981)">
     <use style="fill:#4682b4;stroke:#4682b4;" x="171.924229" xlink:href="#m3b95e87950" y="33.586908"/>
     <use style="fill:#4682b4;stroke:#4682b4;" x="164.568448" xlink:href="#m3b95e87950" y="209.721611"/>
     <use style="fill:#4682b4;stroke:#4682b4;" x="133.671519" xlink:href="#m3b95e87950" y="134.317937"/>
     <use style="fill:#4682b4;stroke:#4682b4;" x="133.671519" xlink:href="#m3b95e87950" y="134.317937"/>
     <use style="fill:#4682b4;stroke:#4682b4;" x="156.59652" xlink:href="#m3b95e87950" y="154.626421"/>
     <use style="fill:#4682b4;stroke:#4682b4;" x="155.712172" xlink:href="#m3b95e87950" y="129.360016"/>
     <use style="fill:#4682b4;stroke:#4682b4;" x="166.728536" xlink:href="#m3b95e87950" y="47.559878"/>
     <use style="fill:#4682b4;stroke:#4682b4;" x="155.712172" xlink:href="#m3b95e87950" y="129.360016"/>
     <use style="fill:#4682b4;stroke:#4682b4;" x="164.568448" xlink:href="#m3b95e87950" y="209.721611"/>
     <use style="fill:#4682b4;stroke:#4682b4;" x="150.117942" xlink:href="#m3b95e87950" y="218.241387"/>
     <use style="fill:#4682b4;stroke:#4682b4;" x="150.117942" xlink:href="#m3b95e87950" y="218.241387"/>
     <use style="fill:#4682b4;stroke:#4682b4;" x="171.924229" xlink:href="#m3b95e87950" y="237.55071"/>
     <use style="fill:#4682b4;stroke:#4682b4;" x="171.924229" xlink:href="#m3b95e87950" y="237.55071"/>
     <use style="fill:#4682b4;stroke:#4682b4;" x="135.390863" xlink:href="#m3b95e87950" y="98.589147"/>
     <use style="fill:#4682b4;stroke:#4682b4;" x="169.4691" xlink:href="#m3b95e87950" y="39.608721"/>
     <use style="fill:#4682b4;stroke:#4682b4;" x="135.053951" xlink:href="#m3b95e87950" y="151.783295"/>
     <use style="fill:#4682b4;stroke:#4682b4;" x="156.59652" xlink:href="#m3b95e87950" y="154.626421"/>
     <use style="fill:#4682b4;stroke:#4682b4;" x="160.912647" xlink:href="#m3b95e87950" y="70.993659"/>
     <use style="fill:#4682b4;stroke:#4682b4;" x="156.440791" xlink:href="#m3b95e87950" y="106.734925"/>
     <use style="fill:#4682b4;stroke:#4682b4;" x="169.4691" xlink:href="#m3b95e87950" y="39.608721"/>
     <use style="fill:#4682b4;stroke:#4682b4;" x="138.268055" xlink:href="#m3b95e87950" y="86.002535"/>
     <use style="fill:#4682b4;stroke:#4682b4;" x="164.568448" xlink:href="#m3b95e87950" y="209.721611"/>
     <use style="fill:#4682b4;stroke:#4682b4;" x="171.924229" xlink:href="#m3b95e87950" y="237.55071"/>
     <use style="fill:#4682b4;stroke:#4682b4;" x="171.924229" xlink:href="#m3b95e87950" y="237.55071"/>
     <use style="fill:#4682b4;stroke:#4682b4;" x="134.207122" xlink:href="#m3b95e87950" y="107.899849"/>
     <use style="fill:#4682b4;stroke:#4682b4;" x="135.053951" xlink:href="#m3b95e87950" y="151.783295"/>
     <use style="fill:#4682b4;stroke:#4682b4;" x="138.268055" xlink:href="#m3b95e87950" y="86.002535"/>
     <use style="fill:#4682b4;stroke:#4682b4;" x="169.4691" xlink:href="#m3b95e87950" y="39.608721"/>
     <use style="fill:#4682b4;stroke:#4682b4;" x="171.924229" xlink:href="#m3b95e87950" y="237.55071"/>
     <use style="fill:#4682b4;stroke:#4682b4;" x="171.924229" xlink:href="#m3b95e87950" y="33.586908"/>
     <use style="fill:#4682b4;stroke:#4682b4;" x="156.59652" xlink:href="#m3b95e87950" y="154.626421"/>
     <use style="fill:#4682b4;stroke:#4682b4;" x="136.806417" xlink:href="#m3b95e87950" y="91.420349"/>
     <use style="fill:#4682b4;stroke:#4682b4;" x="166.728536" xlink:href="#m3b95e87950" y="47.559878"/>
     <use style="fill:#4682b4;stroke:#4682b4;" x="156.440791" xlink:href="#m3b95e87950" y="106.734925"/>
     <use style="fill:#4682b4;stroke:#4682b4;" x="164.568448" xlink:href="#m3b95e87950" y="209.721611"/>
     <use style="fill:#4682b4;stroke:#4682b4;" x="156.440791" xlink:href="#m3b95e87950" y="106.734925"/>
     <use style="fill:#4682b4;stroke:#4682b4;" x="160.912647" xlink:href="#m3b95e87950" y="70.993659"/>
     <use style="fill:#4682b4;stroke:#4682b4;" x="171.924229" xlink:href="#m3b95e87950" y="237.55071"/>
     <use style="fill:#4682b4;stroke:#4682b4;" x="138.061275" xlink:href="#m3b95e87950" y="171.943225"/>
     <use style="fill:#4682b4;stroke:#4682b4;" x="134.207122" xlink:href="#m3b95e87950" y="107.899849"/>
     <use style="fill:#4682b4;stroke:#4682b4;" x="133.671519" xlink:href="#m3b95e87950" y="134.317937"/>
     <use style="fill:#4682b4;stroke:#4682b4;" x="135.390863" xlink:href="#m3b95e87950" y="98.589147"/>
     <use style="fill:#4682b4;stroke:#4682b4;" x="169.4691" xlink:href="#m3b95e87950" y="39.608721"/>
     <use style="fill:#4682b4;stroke:#4682b4;" x="160.912647" xlink:href="#m3b95e87950" y="70.993659"/>
     <use style="fill:#4682b4;stroke:#4682b4;" x="138.268055" xlink:href="#m3b95e87950" y="86.002535"/>
     <use style="fill:#4682b4;stroke:#4682b4;" x="160.912647" xlink:href="#m3b95e87950" y="70.993659"/>
     <use style="fill:#4682b4;stroke:#4682b4;" x="163.811585" xlink:href="#m3b95e87950" y="57.880175"/>
     <use style="fill:#4682b4;stroke:#4682b4;" x="169.4691" xlink:href="#m3b95e87950" y="39.608721"/>
     <use style="fill:#4682b4;stroke:#4682b4;" x="156.59652" xlink:href="#m3b95e87950" y="154.626421"/>
     <use style="fill:#4682b4;stroke:#4682b4;" x="135.053951" xlink:href="#m3b95e87950" y="151.783295"/>
     <use style="fill:#4682b4;stroke:#4682b4;" x="163.811585" xlink:href="#m3b95e87950" y="57.880175"/>
     <use style="fill:#4682b4;stroke:#4682b4;" x="150.117942" xlink:href="#m3b95e87950" y="218.241387"/>
     <use style="fill:#4682b4;stroke:#4682b4;" x="138.061275" xlink:href="#m3b95e87950" y="171.943225"/>
     <use style="fill:#4682b4;stroke:#4682b4;" x="159.472566" xlink:href="#m3b95e87950" y="181.74283"/>
     <use style="fill:#4682b4;stroke:#4682b4;" x="169.4691" xlink:href="#m3b95e87950" y="39.608721"/>
     <use style="fill:#4682b4;stroke:#4682b4;" x="164.568448" xlink:href="#m3b95e87950" y="209.721611"/>
     <use style="fill:#4682b4;stroke:#4682b4;" x="164.568448" xlink:href="#m3b95e87950" y="209.721611"/>
     <use style="fill:#4682b4;stroke:#4682b4;" x="138.061275" xlink:href="#m3b95e87950" y="171.943225"/>
     <use style="fill:#4682b4;stroke:#4682b4;" x="138.268055" xlink:href="#m3b95e87950" y="86.002535"/>
     <use style="fill:#4682b4;stroke:#4682b4;" x="160.912647" xlink:href="#m3b95e87950" y="70.993659"/>
     <use style="fill:#4682b4;stroke:#4682b4;" x="156.59652" xlink:href="#m3b95e87950" y="154.626421"/>
     <use style="fill:#4682b4;stroke:#4682b4;" x="163.811585" xlink:href="#m3b95e87950" y="57.880175"/>
     <use style="fill:#4682b4;stroke:#4682b4;" x="136.806417" xlink:href="#m3b95e87950" y="91.420349"/>
     <use style="fill:#4682b4;stroke:#4682b4;" x="166.728536" xlink:href="#m3b95e87950" y="47.559878"/>
     <use style="fill:#4682b4;stroke:#4682b4;" x="171.924229" xlink:href="#m3b95e87950" y="33.586908"/>
     <use style="fill:#4682b4;stroke:#4682b4;" x="136.806417" xlink:href="#m3b95e87950" y="91.420349"/>
     <use style="fill:#4682b4;stroke:#4682b4;" x="155.712172" xlink:href="#m3b95e87950" y="129.360016"/>
     <use style="fill:#4682b4;stroke:#4682b4;" x="150.117942" xlink:href="#m3b95e87950" y="218.241387"/>
     <use style="fill:#4682b4;stroke:#4682b4;" x="135.053951" xlink:href="#m3b95e87950" y="151.783295"/>
     <use style="fill:#4682b4;stroke:#4682b4;" x="156.59652" xlink:href="#m3b95e87950" y="154.626421"/>
     <use style="fill:#4682b4;stroke:#4682b4;" x="155.712172" xlink:href="#m3b95e87950" y="129.360016"/>
     <use style="fill:#4682b4;stroke:#4682b4;" x="171.924229" xlink:href="#m3b95e87950" y="237.55071"/>
     <use style="fill:#4682b4;stroke:#4682b4;" x="171.924229" xlink:href="#m3b95e87950" y="237.55071"/>
     <use style="fill:#4682b4;stroke:#4682b4;" x="164.568448" xlink:href="#m3b95e87950" y="209.721611"/>
     <use style="fill:#4682b4;stroke:#4682b4;" x="156.59652" xlink:href="#m3b95e87950" y="154.626421"/>
     <use style="fill:#4682b4;stroke:#4682b4;" x="158.325723" xlink:href="#m3b95e87950" y="87.231607"/>
     <use style="fill:#4682b4;stroke:#4682b4;" x="166.728536" xlink:href="#m3b95e87950" y="47.559878"/>
     <use style="fill:#4682b4;stroke:#4682b4;" x="139.658753" xlink:href="#m3b95e87950" y="81.968672"/>
     <use style="fill:#4682b4;stroke:#4682b4;" x="133.520206" xlink:href="#m3b95e87950" y="119.71928"/>
     <use style="fill:#4682b4;stroke:#4682b4;" x="169.4691" xlink:href="#m3b95e87950" y="39.608721"/>
     <use style="fill:#4682b4;stroke:#4682b4;" x="155.712172" xlink:href="#m3b95e87950" y="129.360016"/>
     <use style="fill:#4682b4;stroke:#4682b4;" x="166.728536" xlink:href="#m3b95e87950" y="47.559878"/>
     <use style="fill:#4682b4;stroke:#4682b4;" x="155.712172" xlink:href="#m3b95e87950" y="129.360016"/>
     <use style="fill:#4682b4;stroke:#4682b4;" x="171.924229" xlink:href="#m3b95e87950" y="237.55071"/>
     <use style="fill:#4682b4;stroke:#4682b4;" x="135.053951" xlink:href="#m3b95e87950" y="151.783295"/>
     <use style="fill:#4682b4;stroke:#4682b4;" x="156.440791" xlink:href="#m3b95e87950" y="106.734925"/>
     <use style="fill:#4682b4;stroke:#4682b4;" x="169.4691" xlink:href="#m3b95e87950" y="39.608721"/>
     <use style="fill:#4682b4;stroke:#4682b4;" x="166.728536" xlink:href="#m3b95e87950" y="47.559878"/>
     <use style="fill:#4682b4;stroke:#4682b4;" x="171.924229" xlink:href="#m3b95e87950" y="33.586908"/>
     <use style="fill:#4682b4;stroke:#4682b4;" x="171.924229" xlink:href="#m3b95e87950" y="237.55071"/>
     <use style="fill:#4682b4;stroke:#4682b4;" x="163.811585" xlink:href="#m3b95e87950" y="57.880175"/>
     <use style="fill:#4682b4;stroke:#4682b4;" x="135.390863" xlink:href="#m3b95e87950" y="98.589147"/>
     <use style="fill:#4682b4;stroke:#4682b4;" x="138.061275" xlink:href="#m3b95e87950" y="171.943225"/>
     <use style="fill:#4682b4;stroke:#4682b4;" x="155.712172" xlink:href="#m3b95e87950" y="129.360016"/>
     <use style="fill:#4682b4;stroke:#4682b4;" x="155.712172" xlink:href="#m3b95e87950" y="129.360016"/>
     <use style="fill:#4682b4;stroke:#4682b4;" x="133.671519" xlink:href="#m3b95e87950" y="134.317937"/>
     <use style="fill:#4682b4;stroke:#4682b4;" x="164.568448" xlink:href="#m3b95e87950" y="209.721611"/>
     <use style="fill:#4682b4;stroke:#4682b4;" x="136.806417" xlink:href="#m3b95e87950" y="91.420349"/>
     <use style="fill:#4682b4;stroke:#4682b4;" x="134.207122" xlink:href="#m3b95e87950" y="107.899849"/>
     <use style="fill:#4682b4;stroke:#4682b4;" x="133.671519" xlink:href="#m3b95e87950" y="134.317937"/>
     <use style="fill:#4682b4;stroke:#4682b4;" x="155.712172" xlink:href="#m3b95e87950" y="129.360016"/>
     <use style="fill:#4682b4;stroke:#4682b4;" x="169.4691" xlink:href="#m3b95e87950" y="39.608721"/>
     <use style="fill:#4682b4;stroke:#4682b4;" x="155.712172" xlink:href="#m3b95e87950" y="129.360016"/>
     <use style="fill:#4682b4;stroke:#4682b4;" x="150.117942" xlink:href="#m3b95e87950" y="218.241387"/>
     <use style="fill:#4682b4;stroke:#4682b4;" x="169.4691" xlink:href="#m3b95e87950" y="39.608721"/>
     <use style="fill:#4682b4;stroke:#4682b4;" x="158.325723" xlink:href="#m3b95e87950" y="87.231607"/>
     <use style="fill:#4682b4;stroke:#4682b4;" x="156.59652" xlink:href="#m3b95e87950" y="154.626421"/>
     <use style="fill:#4682b4;stroke:#4682b4;" x="136.806417" xlink:href="#m3b95e87950" y="91.420349"/>
     <use style="fill:#4682b4;stroke:#4682b4;" x="159.472566" xlink:href="#m3b95e87950" y="181.74283"/>
     <use style="fill:#4682b4;stroke:#4682b4;" x="139.658753" xlink:href="#m3b95e87950" y="81.968672"/>
     <use style="fill:#4682b4;stroke:#4682b4;" x="166.728536" xlink:href="#m3b95e87950" y="47.559878"/>
     <use style="fill:#4682b4;stroke:#4682b4;" x="150.117942" xlink:href="#m3b95e87950" y="218.241387"/>
     <use style="fill:#4682b4;stroke:#4682b4;" x="160.912647" xlink:href="#m3b95e87950" y="70.993659"/>
     <use style="fill:#4682b4;stroke:#4682b4;" x="139.658753" xlink:href="#m3b95e87950" y="81.968672"/>
     <use style="fill:#4682b4;stroke:#4682b4;" x="156.59652" xlink:href="#m3b95e87950" y="154.626421"/>
     <use style="fill:#4682b4;stroke:#4682b4;" x="139.658753" xlink:href="#m3b95e87950" y="81.968672"/>
     <use style="fill:#4682b4;stroke:#4682b4;" x="143.019144" xlink:href="#m3b95e87950" y="194.334115"/>
     <use style="fill:#4682b4;stroke:#4682b4;" x="155.712172" xlink:href="#m3b95e87950" y="129.360016"/>
     <use style="fill:#4682b4;stroke:#4682b4;" x="163.811585" xlink:href="#m3b95e87950" y="57.880175"/>
     <use style="fill:#4682b4;stroke:#4682b4;" x="171.924229" xlink:href="#m3b95e87950" y="33.586908"/>
     <use style="fill:#4682b4;stroke:#4682b4;" x="138.268055" xlink:href="#m3b95e87950" y="86.002535"/>
     <use style="fill:#4682b4;stroke:#4682b4;" x="163.811585" xlink:href="#m3b95e87950" y="57.880175"/>
     <use style="fill:#4682b4;stroke:#4682b4;" x="135.053951" xlink:href="#m3b95e87950" y="151.783295"/>
     <use style="fill:#4682b4;stroke:#4682b4;" x="138.061275" xlink:href="#m3b95e87950" y="171.943225"/>
     <use style="fill:#4682b4;stroke:#4682b4;" x="135.390863" xlink:href="#m3b95e87950" y="98.589147"/>
     <use style="fill:#4682b4;stroke:#4682b4;" x="136.806417" xlink:href="#m3b95e87950" y="91.420349"/>
     <use style="fill:#4682b4;stroke:#4682b4;" x="135.390863" xlink:href="#m3b95e87950" y="98.589147"/>
     <use style="fill:#4682b4;stroke:#4682b4;" x="143.019144" xlink:href="#m3b95e87950" y="194.334115"/>
     <use style="fill:#4682b4;stroke:#4682b4;" x="156.440791" xlink:href="#m3b95e87950" y="106.734925"/>
     <use style="fill:#4682b4;stroke:#4682b4;" x="138.268055" xlink:href="#m3b95e87950" y="86.002535"/>
     <use style="fill:#4682b4;stroke:#4682b4;" x="135.390863" xlink:href="#m3b95e87950" y="98.589147"/>
     <use style="fill:#4682b4;stroke:#4682b4;" x="143.019144" xlink:href="#m3b95e87950" y="194.334115"/>
     <use style="fill:#4682b4;stroke:#4682b4;" x="136.806417" xlink:href="#m3b95e87950" y="91.420349"/>
     <use style="fill:#4682b4;stroke:#4682b4;" x="156.59652" xlink:href="#m3b95e87950" y="154.626421"/>
     <use style="fill:#4682b4;stroke:#4682b4;" x="171.924229" xlink:href="#m3b95e87950" y="33.586908"/>
     <use style="fill:#4682b4;stroke:#4682b4;" x="133.671519" xlink:href="#m3b95e87950" y="134.317937"/>
     <use style="fill:#4682b4;stroke:#4682b4;" x="159.472566" xlink:href="#m3b95e87950" y="181.74283"/>
     <use style="fill:#4682b4;stroke:#4682b4;" x="156.440791" xlink:href="#m3b95e87950" y="106.734925"/>
     <use style="fill:#4682b4;stroke:#4682b4;" x="134.207122" xlink:href="#m3b95e87950" y="107.899849"/>
     <use style="fill:#4682b4;stroke:#4682b4;" x="158.325723" xlink:href="#m3b95e87950" y="87.231607"/>
     <use style="fill:#4682b4;stroke:#4682b4;" x="158.325723" xlink:href="#m3b95e87950" y="87.231607"/>
     <use style="fill:#4682b4;stroke:#4682b4;" x="160.912647" xlink:href="#m3b95e87950" y="70.993659"/>
     <use style="fill:#4682b4;stroke:#4682b4;" x="164.568448" xlink:href="#m3b95e87950" y="209.721611"/>
     <use style="fill:#4682b4;stroke:#4682b4;" x="169.4691" xlink:href="#m3b95e87950" y="39.608721"/>
     <use style="fill:#4682b4;stroke:#4682b4;" x="171.924229" xlink:href="#m3b95e87950" y="237.55071"/>
     <use style="fill:#4682b4;stroke:#4682b4;" x="171.924229" xlink:href="#m3b95e87950" y="33.586908"/>
     <use style="fill:#4682b4;stroke:#4682b4;" x="171.924229" xlink:href="#m3b95e87950" y="237.55071"/>
     <use style="fill:#4682b4;stroke:#4682b4;" x="135.390863" xlink:href="#m3b95e87950" y="98.589147"/>
     <use style="fill:#4682b4;stroke:#4682b4;" x="150.117942" xlink:href="#m3b95e87950" y="218.241387"/>
     <use style="fill:#4682b4;stroke:#4682b4;" x="171.924229" xlink:href="#m3b95e87950" y="33.586908"/>
     <use style="fill:#4682b4;stroke:#4682b4;" x="133.520206" xlink:href="#m3b95e87950" y="119.71928"/>
     <use style="fill:#4682b4;stroke:#4682b4;" x="159.472566" xlink:href="#m3b95e87950" y="181.74283"/>
     <use style="fill:#4682b4;stroke:#4682b4;" x="138.061275" xlink:href="#m3b95e87950" y="171.943225"/>
     <use style="fill:#4682b4;stroke:#4682b4;" x="159.472566" xlink:href="#m3b95e87950" y="181.74283"/>
     <use style="fill:#4682b4;stroke:#4682b4;" x="143.019144" xlink:href="#m3b95e87950" y="194.334115"/>
     <use style="fill:#4682b4;stroke:#4682b4;" x="171.924229" xlink:href="#m3b95e87950" y="237.55071"/>
     <use style="fill:#4682b4;stroke:#4682b4;" x="163.811585" xlink:href="#m3b95e87950" y="57.880175"/>
     <use style="fill:#4682b4;stroke:#4682b4;" x="159.472566" xlink:href="#m3b95e87950" y="181.74283"/>
     <use style="fill:#4682b4;stroke:#4682b4;" x="143.019144" xlink:href="#m3b95e87950" y="194.334115"/>
     <use style="fill:#4682b4;stroke:#4682b4;" x="171.924229" xlink:href="#m3b95e87950" y="237.55071"/>
     <use style="fill:#4682b4;stroke:#4682b4;" x="138.061275" xlink:href="#m3b95e87950" y="171.943225"/>
     <use style="fill:#4682b4;stroke:#4682b4;" x="159.472566" xlink:href="#m3b95e87950" y="181.74283"/>
     <use style="fill:#4682b4;stroke:#4682b4;" x="155.712172" xlink:href="#m3b95e87950" y="129.360016"/>
     <use style="fill:#4682b4;stroke:#4682b4;" x="156.59652" xlink:href="#m3b95e87950" y="154.626421"/>
     <use style="fill:#4682b4;stroke:#4682b4;" x="163.811585" xlink:href="#m3b95e87950" y="57.880175"/>
     <use style="fill:#4682b4;stroke:#4682b4;" x="150.117942" xlink:href="#m3b95e87950" y="218.241387"/>
     <use style="fill:#4682b4;stroke:#4682b4;" x="135.390863" xlink:href="#m3b95e87950" y="98.589147"/>
     <use style="fill:#4682b4;stroke:#4682b4;" x="155.712172" xlink:href="#m3b95e87950" y="129.360016"/>
     <use style="fill:#4682b4;stroke:#4682b4;" x="171.924229" xlink:href="#m3b95e87950" y="33.586908"/>
     <use style="fill:#4682b4;stroke:#4682b4;" x="143.019144" xlink:href="#m3b95e87950" y="194.334115"/>
     <use style="fill:#4682b4;stroke:#4682b4;" x="155.712172" xlink:href="#m3b95e87950" y="129.360016"/>
     <use style="fill:#4682b4;stroke:#4682b4;" x="134.207122" xlink:href="#m3b95e87950" y="107.899849"/>
     <use style="fill:#4682b4;stroke:#4682b4;" x="136.806417" xlink:href="#m3b95e87950" y="91.420349"/>
     <use style="fill:#4682b4;stroke:#4682b4;" x="155.712172" xlink:href="#m3b95e87950" y="129.360016"/>
     <use style="fill:#4682b4;stroke:#4682b4;" x="135.390863" xlink:href="#m3b95e87950" y="98.589147"/>
     <use style="fill:#4682b4;stroke:#4682b4;" x="169.4691" xlink:href="#m3b95e87950" y="39.608721"/>
     <use style="fill:#4682b4;stroke:#4682b4;" x="163.811585" xlink:href="#m3b95e87950" y="57.880175"/>
     <use style="fill:#4682b4;stroke:#4682b4;" x="136.806417" xlink:href="#m3b95e87950" y="91.420349"/>
     <use style="fill:#4682b4;stroke:#4682b4;" x="164.568448" xlink:href="#m3b95e87950" y="209.721611"/>
     <use style="fill:#4682b4;stroke:#4682b4;" x="171.924229" xlink:href="#m3b95e87950" y="33.586908"/>
     <use style="fill:#4682b4;stroke:#4682b4;" x="133.520206" xlink:href="#m3b95e87950" y="119.71928"/>
     <use style="fill:#4682b4;stroke:#4682b4;" x="135.390863" xlink:href="#m3b95e87950" y="98.589147"/>
     <use style="fill:#4682b4;stroke:#4682b4;" x="156.59652" xlink:href="#m3b95e87950" y="154.626421"/>
     <use style="fill:#4682b4;stroke:#4682b4;" x="160.912647" xlink:href="#m3b95e87950" y="70.993659"/>
     <use style="fill:#4682b4;stroke:#4682b4;" x="171.924229" xlink:href="#m3b95e87950" y="33.586908"/>
     <use style="fill:#4682b4;stroke:#4682b4;" x="171.924229" xlink:href="#m3b95e87950" y="33.586908"/>
     <use style="fill:#4682b4;stroke:#4682b4;" x="156.440791" xlink:href="#m3b95e87950" y="106.734925"/>
     <use style="fill:#4682b4;stroke:#4682b4;" x="138.061275" xlink:href="#m3b95e87950" y="171.943225"/>
     <use style="fill:#4682b4;stroke:#4682b4;" x="155.712172" xlink:href="#m3b95e87950" y="129.360016"/>
     <use style="fill:#4682b4;stroke:#4682b4;" x="156.440791" xlink:href="#m3b95e87950" y="106.734925"/>
     <use style="fill:#4682b4;stroke:#4682b4;" x="166.728536" xlink:href="#m3b95e87950" y="47.559878"/>
     <use style="fill:#4682b4;stroke:#4682b4;" x="164.568448" xlink:href="#m3b95e87950" y="209.721611"/>
     <use style="fill:#4682b4;stroke:#4682b4;" x="138.268055" xlink:href="#m3b95e87950" y="86.002535"/>
     <use style="fill:#4682b4;stroke:#4682b4;" x="164.568448" xlink:href="#m3b95e87950" y="209.721611"/>
     <use style="fill:#4682b4;stroke:#4682b4;" x="171.924229" xlink:href="#m3b95e87950" y="237.55071"/>
     <use style="fill:#4682b4;stroke:#4682b4;" x="155.712172" xlink:href="#m3b95e87950" y="129.360016"/>
     <use style="fill:#4682b4;stroke:#4682b4;" x="136.806417" xlink:href="#m3b95e87950" y="91.420349"/>
     <use style="fill:#4682b4;stroke:#4682b4;" x="138.061275" xlink:href="#m3b95e87950" y="171.943225"/>
     <use style="fill:#4682b4;stroke:#4682b4;" x="156.440791" xlink:href="#m3b95e87950" y="106.734925"/>
     <use style="fill:#4682b4;stroke:#4682b4;" x="139.658753" xlink:href="#m3b95e87950" y="81.968672"/>
    </g>
   </g>
   <g id="legend_1">
    <g id="patch_6">
     <path d="M 196.989958 28.45 
L 288.989958 28.45 
Q 290.989958 28.45 290.989958 26.45 
L 290.989958 14.2 
Q 290.989958 12.2 288.989958 12.2 
L 196.989958 12.2 
Q 194.989958 12.2 194.989958 14.2 
L 194.989958 26.45 
Q 194.989958 28.45 196.989958 28.45 
z
" style="fill:#ffffff;opacity:0.8;stroke:#cccccc;stroke-linejoin:miter;"/>
    </g>
    <g id="line2d_18"/>
    <g id="line2d_19">
     <g>
      <use style="fill:#4682b4;stroke:#4682b4;" x="208.989958" xlink:href="#m3b95e87950" y="19.7"/>
     </g>
    </g>
    <g id="text_17">
     <!-- Pareto Front -->
     <g transform="translate(226.989958 23.2)scale(0.1 -0.1)">
      <defs>
       <path d="M 46.09375 48.4375 
Q 46.09375 39.0625 40.625 33.59375 
Q 35.15625 28.125 25.390625 28.125 
L 14.0625 28.125 
L 14.0625 1.953125 
L 5.078125 1.953125 
L 5.078125 68.75 
L 25.390625 68.75 
Q 35.15625 68.75 40.625 63.28125 
Q 46.09375 57.8125 46.09375 48.4375 
z
M 37.109375 48.4375 
Q 37.109375 55.859375 33.59375 58.59375 
Q 30.078125 61.328125 23.046875 61.328125 
L 14.0625 61.328125 
L 14.0625 35.546875 
L 23.046875 35.546875 
Q 30.078125 35.546875 33.59375 38.28125 
Q 37.109375 41.015625 37.109375 48.4375 
z
" id="SimHei-80"/>
       <path d="M 44.921875 1.953125 
L 35.546875 1.953125 
Q 34.765625 2.734375 34.375 4.09375 
Q 33.984375 5.46875 33.984375 7.421875 
Q 31.25 4.296875 27.34375 2.734375 
Q 23.4375 1.171875 19.140625 1.171875 
Q 12.890625 1.171875 8.59375 4.296875 
Q 4.296875 7.421875 4.296875 13.28125 
Q 4.296875 19.140625 8.203125 22.65625 
Q 12.109375 26.171875 20.3125 27.34375 
Q 25.78125 28.125 29.875 29.296875 
Q 33.984375 30.46875 33.984375 32.421875 
Q 33.984375 34.765625 32.21875 37.109375 
Q 30.46875 39.453125 24.609375 39.453125 
Q 19.921875 39.453125 17.765625 37.6875 
Q 15.625 35.9375 14.84375 32.8125 
L 6.25 32.8125 
Q 7.03125 39.0625 11.90625 42.765625 
Q 16.796875 46.484375 24.609375 46.484375 
Q 33.203125 46.484375 37.5 42.578125 
Q 41.796875 38.671875 41.796875 31.640625 
L 41.796875 10.15625 
Q 41.796875 7.8125 42.578125 5.859375 
Q 43.359375 3.90625 44.921875 1.953125 
z
M 33.984375 16.40625 
L 33.984375 24.21875 
Q 31.640625 23.4375 29.484375 22.84375 
Q 27.34375 22.265625 22.265625 21.484375 
Q 16.40625 20.703125 14.640625 18.75 
Q 12.890625 16.796875 12.890625 14.0625 
Q 12.890625 11.71875 14.640625 9.953125 
Q 16.40625 8.203125 19.921875 8.203125 
Q 23.4375 8.203125 27.53125 10.15625 
Q 31.640625 12.109375 33.984375 16.40625 
z
" id="SimHei-97"/>
       <path d="M 39.0625 37.890625 
Q 31.640625 39.0625 26.5625 35.734375 
Q 21.484375 32.421875 17.96875 24.21875 
L 17.96875 1.953125 
L 10.15625 1.953125 
L 10.15625 45.703125 
L 17.96875 45.703125 
L 17.96875 34.375 
Q 21.484375 40.625 26.75 43.546875 
Q 32.03125 46.484375 39.0625 46.484375 
z
" id="SimHei-114"/>
       <path d="M 44.53125 16.796875 
Q 43.75 9.765625 38.28125 5.46875 
Q 32.8125 1.171875 25.390625 1.171875 
Q 16.015625 1.171875 9.953125 7.21875 
Q 3.90625 13.28125 3.90625 23.828125 
Q 3.90625 34.375 9.953125 40.421875 
Q 16.015625 46.484375 25.390625 46.484375 
Q 33.59375 46.484375 38.859375 41.203125 
Q 44.140625 35.9375 44.140625 23.828125 
L 12.5 23.828125 
Q 12.5 15.234375 16.203125 11.71875 
Q 19.921875 8.203125 25.390625 8.203125 
Q 29.6875 8.203125 32.421875 10.34375 
Q 35.15625 12.5 35.9375 16.796875 
z
M 35.15625 30.078125 
Q 34.375 35.546875 31.640625 37.6875 
Q 28.90625 39.84375 24.609375 39.84375 
Q 20.703125 39.84375 17.578125 37.6875 
Q 14.453125 35.546875 12.890625 30.078125 
z
" id="SimHei-101"/>
       <path d="M 42.96875 3.125 
Q 41.015625 2.34375 38.46875 1.75 
Q 35.9375 1.171875 31.640625 1.171875 
Q 24.609375 1.171875 20.3125 5.078125 
Q 16.015625 8.984375 16.015625 16.015625 
L 16.015625 39.453125 
L 2.734375 39.453125 
L 2.734375 45.703125 
L 16.015625 45.703125 
L 16.015625 60.9375 
L 23.828125 60.9375 
L 23.828125 45.703125 
L 39.84375 45.703125 
L 39.84375 39.453125 
L 23.828125 39.453125 
L 23.828125 15.625 
Q 23.828125 12.5 25.390625 10.34375 
Q 26.953125 8.203125 31.25 8.203125 
Q 35.546875 8.203125 38.28125 8.984375 
Q 41.015625 9.765625 42.96875 10.9375 
z
" id="SimHei-116"/>
       <path d="M 45.703125 23.828125 
Q 45.703125 13.671875 39.453125 7.421875 
Q 33.203125 1.171875 24.609375 1.171875 
Q 16.015625 1.171875 9.765625 7.421875 
Q 3.515625 13.671875 3.515625 23.828125 
Q 3.515625 33.984375 9.765625 40.234375 
Q 16.015625 46.484375 24.609375 46.484375 
Q 33.203125 46.484375 39.453125 40.234375 
Q 45.703125 33.984375 45.703125 23.828125 
z
M 37.109375 23.828125 
Q 37.109375 31.640625 33.203125 35.546875 
Q 29.296875 39.453125 24.609375 39.453125 
Q 19.921875 39.453125 16.015625 35.546875 
Q 12.109375 31.640625 12.109375 23.828125 
Q 12.109375 16.015625 16.015625 12.109375 
Q 19.921875 8.203125 24.609375 8.203125 
Q 29.296875 8.203125 33.203125 12.109375 
Q 37.109375 16.015625 37.109375 23.828125 
z
" id="SimHei-111"/>
       <path id="SimHei-32"/>
       <path d="M 43.75 1.953125 
L 35.9375 1.953125 
L 35.9375 30.078125 
Q 35.9375 34.765625 33.59375 37.5 
Q 31.25 40.234375 27.34375 40.234375 
Q 22.265625 40.234375 17.765625 34.953125 
Q 13.28125 29.6875 13.28125 21.875 
L 13.28125 1.953125 
L 5.46875 1.953125 
L 5.46875 45.703125 
L 13.28125 45.703125 
L 13.28125 37.5 
Q 16.40625 41.796875 20.109375 44.140625 
Q 23.828125 46.484375 29.6875 46.484375 
Q 36.71875 46.484375 40.234375 42.578125 
Q 43.75 38.671875 43.75 32.8125 
z
" id="SimHei-110"/>
      </defs>
      <use xlink:href="#SimHei-80"/>
      <use x="50" xlink:href="#SimHei-97"/>
      <use x="100" xlink:href="#SimHei-114"/>
      <use x="150" xlink:href="#SimHei-101"/>
      <use x="200" xlink:href="#SimHei-116"/>
      <use x="250" xlink:href="#SimHei-111"/>
      <use x="300" xlink:href="#SimHei-32"/>
      <use x="350" xlink:href="#SimHei-70"/>
      <use x="400" xlink:href="#SimHei-114"/>
      <use x="450" xlink:href="#SimHei-111"/>
      <use x="500" xlink:href="#SimHei-110"/>
      <use x="550" xlink:href="#SimHei-116"/>
     </g>
    </g>
   </g>
  </g>
 </g>
 <defs>
  <clipPath id="p98c9ba5981">
   <rect height="255.024" width="255.024" x="40.965958" y="7.2"/>
  </clipPath>
 </defs>
</svg>
