<?xml version="1.0" encoding="utf-8" standalone="no"?>
<!DOCTYPE svg PUBLIC "-//W3C//DTD SVG 1.1//EN"
  "http://www.w3.org/Graphics/SVG/1.1/DTD/svg11.dtd">
<!-- Created with matplotlib (https://matplotlib.org/) -->
<svg height="273.085781pt" version="1.1" viewBox="0 0 310.520612 273.085781" width="310.520612pt" xmlns="http://www.w3.org/2000/svg" xmlns:xlink="http://www.w3.org/1999/xlink">
 <metadata>
  <rdf:RDF xmlns:cc="http://creativecommons.org/ns#" xmlns:dc="http://purl.org/dc/elements/1.1/" xmlns:rdf="http://www.w3.org/1999/02/22-rdf-syntax-ns#">
   <cc:Work>
    <dc:type rdf:resource="http://purl.org/dc/dcmitype/StillImage"/>
    <dc:date>2021-11-07T20:52:43.959841</dc:date>
    <dc:format>image/svg+xml</dc:format>
    <dc:creator>
     <cc:Agent>
      <dc:title>Matplotlib v3.3.3, https://matplotlib.org/</dc:title>
     </cc:Agent>
    </dc:creator>
   </cc:Work>
  </rdf:RDF>
 </metadata>
 <defs>
  <style type="text/css">*{stroke-linecap:butt;stroke-linejoin:round;}</style>
 </defs>
 <g id="figure_1">
  <g id="patch_1">
   <path d="M 0 273.085781 
L 310.520612 273.085781 
L 310.520612 0 
L 0 0 
z
" style="fill:#ffffff;"/>
  </g>
  <g id="patch_2">
   <path d="M 40.965958 262.224 
L 295.989958 262.224 
L 295.989958 7.2 
L 40.965958 7.2 
z
" style="fill:#ffffff;"/>
  </g>
  <g id="pane3d_1">
   <g id="patch_3">
    <path d="M 171.924229 126.95126 
L 285.432518 183.39774 
L 290.615545 76.753262 
L 171.924229 25.308407 
" style="fill:#f2f2f2;opacity:0.5;stroke:#f2f2f2;stroke-linejoin:miter;"/>
   </g>
  </g>
  <g id="pane3d_2">
   <g id="patch_4">
    <path d="M 171.924229 126.95126 
L 58.415939 183.39774 
L 53.232913 76.753262 
L 171.924229 25.308407 
" style="fill:#e6e6e6;opacity:0.5;stroke:#e6e6e6;stroke-linejoin:miter;"/>
   </g>
  </g>
  <g id="pane3d_3">
   <g id="patch_5">
    <path d="M 171.924229 126.95126 
L 58.415939 183.39774 
L 171.924229 248.512739 
L 285.432518 183.39774 
" style="fill:#ececec;opacity:0.5;stroke:#ececec;stroke-linejoin:miter;"/>
   </g>
  </g>
  <g id="axis3d_1">
   <g id="line2d_1">
    <path d="M 285.432518 183.39774 
L 171.924229 248.512739 
" style="fill:none;stroke:#000000;stroke-linecap:square;stroke-width:0.8;"/>
   </g>
   <g id="text_1">
    <!-- F1 -->
    <g transform="translate(248.370313 249.614278)scale(0.1 -0.1)">
     <defs>
      <path d="M 45.703125 61.328125 
L 13.671875 61.328125 
L 13.671875 39.453125 
L 37.890625 39.453125 
L 37.890625 32.03125 
L 13.671875 32.03125 
L 13.671875 1.953125 
L 4.6875 1.953125 
L 4.6875 68.75 
L 45.703125 68.75 
z
" id="SimHei-70"/>
      <path d="M 21.875 56.25 
Q 16.796875 51.171875 8.984375 46.484375 
L 8.984375 53.90625 
Q 18.75 60.546875 25 69.53125 
L 29.6875 69.53125 
L 29.6875 2.34375 
L 21.875 2.34375 
z
" id="SimHei-49"/>
     </defs>
     <use xlink:href="#SimHei-70"/>
     <use x="50" xlink:href="#SimHei-49"/>
    </g>
   </g>
   <g id="Line3DCollection_1">
    <path d="M 278.164807 187.566925 
L 164.621762 130.582699 
L 164.30997 28.608686 
" style="fill:none;stroke:#b0b0b0;stroke-width:0.8;"/>
    <path d="M 263.012297 196.259292 
L 149.412143 138.146283 
L 148.441412 35.486659 
" style="fill:none;stroke:#b0b0b0;stroke-width:0.8;"/>
    <path d="M 247.547486 205.130812 
L 133.910411 145.855132 
L 132.254813 42.502482 
" style="fill:none;stroke:#b0b0b0;stroke-width:0.8;"/>
    <path d="M 231.760619 214.187083 
L 118.108069 153.713471 
L 115.740513 49.660341 
" style="fill:none;stroke:#b0b0b0;stroke-width:0.8;"/>
    <path d="M 215.64153 223.433936 
L 101.996287 161.725691 
L 98.88846 56.964594 
" style="fill:none;stroke:#b0b0b0;stroke-width:0.8;"/>
    <path d="M 199.179621 232.877451 
L 85.565887 169.896356 
L 81.688185 64.419779 
" style="fill:none;stroke:#b0b0b0;stroke-width:0.8;"/>
    <path d="M 182.363838 242.523968 
L 68.807322 178.230215 
L 64.128782 72.030621 
" style="fill:none;stroke:#b0b0b0;stroke-width:0.8;"/>
   </g>
   <g id="xtick_1">
    <g id="line2d_2">
     <path d="M 277.191929 187.078663 
L 280.113915 188.54513 
" style="fill:none;stroke:#000000;stroke-linecap:square;stroke-width:0.8;"/>
    </g>
    <g id="text_2">
     <!-- -16250 -->
     <g transform="translate(273.320612 208.620934)scale(0.1 -0.1)">
      <defs>
       <path d="M 46.484375 33.203125 
L 1.953125 33.203125 
L 1.953125 39.453125 
L 46.484375 39.453125 
z
" id="SimHei-45"/>
       <path d="M 3.515625 19.53125 
Q 4.296875 30.859375 6.046875 34.765625 
Q 7.8125 38.671875 11.328125 44.53125 
L 27.34375 69.53125 
L 36.328125 69.53125 
L 19.921875 43.75 
Q 30.46875 46.484375 36.71875 42.96875 
Q 42.96875 39.453125 45.109375 34.953125 
Q 47.265625 30.46875 47.453125 25.1875 
Q 47.65625 19.921875 45.890625 14.84375 
Q 44.140625 9.765625 39.640625 5.65625 
Q 35.15625 1.5625 27.140625 1.171875 
Q 19.140625 0.78125 13.46875 4.09375 
Q 7.8125 7.421875 5.65625 13.46875 
Q 3.515625 19.53125 4.296875 30.859375 
z
M 12.5 16.015625 
Q 19.53125 8.59375 25.390625 8.203125 
Q 31.25 7.8125 35.15625 12.109375 
Q 39.0625 16.40625 39.0625 24.609375 
Q 39.0625 32.8125 34.171875 35.9375 
Q 29.296875 39.0625 23.234375 38.28125 
Q 17.1875 37.5 14.453125 32.421875 
Q 11.71875 27.34375 12.109375 21.671875 
Q 12.5 16.015625 19.53125 8.59375 
z
" id="SimHei-54"/>
       <path d="M 4.6875 3.90625 
Q 5.078125 9.765625 10.15625 14.453125 
Q 15.234375 19.140625 23.046875 29.09375 
Q 30.859375 39.0625 33.203125 44.53125 
Q 35.546875 50 34.953125 53.90625 
Q 34.375 57.8125 31.25 60.34375 
Q 28.125 62.890625 24.015625 62.5 
Q 19.921875 62.109375 16.203125 59.375 
Q 12.5 56.640625 10.546875 51.171875 
L 3.125 52.34375 
Q 6.25 61.328125 11.125 65.421875 
Q 16.015625 69.53125 22.65625 69.921875 
Q 26.5625 70.3125 29.6875 69.71875 
Q 32.8125 69.140625 36.125 66.984375 
Q 39.453125 64.84375 41.59375 60.546875 
Q 43.75 56.25 43.15625 50.1875 
Q 42.578125 44.140625 37.109375 35.734375 
Q 31.640625 27.34375 16.015625 9.375 
L 44.140625 9.375 
L 44.140625 2.34375 
L 4.6875 2.34375 
z
" id="SimHei-50"/>
       <path d="M 8.59375 20.703125 
Q 11.328125 10.15625 17.96875 8.984375 
Q 24.609375 7.8125 28.703125 10.34375 
Q 32.8125 12.890625 34.5625 16.984375 
Q 36.328125 21.09375 36.125 26.171875 
Q 35.9375 31.25 33.390625 34.765625 
Q 30.859375 38.28125 26.953125 39.453125 
Q 23.046875 40.625 18.15625 39.453125 
Q 13.28125 38.28125 10.15625 33.984375 
L 3.515625 34.765625 
Q 4.296875 37.109375 10.9375 68.359375 
L 41.796875 68.359375 
L 41.796875 61.328125 
L 16.796875 61.328125 
Q 14.84375 50.78125 12.890625 44.53125 
Q 18.75 47.265625 23.828125 47.0625 
Q 28.90625 46.875 33.59375 44.71875 
Q 38.28125 42.578125 40.421875 38.859375 
Q 42.578125 35.15625 43.546875 31.4375 
Q 44.53125 27.734375 44.328125 23.4375 
Q 44.140625 19.140625 42.578125 14.640625 
Q 41.015625 10.15625 37.890625 7.21875 
Q 34.765625 4.296875 30.265625 2.53125 
Q 25.78125 0.78125 19.921875 1.171875 
Q 14.0625 1.5625 8.78125 5.46875 
Q 3.515625 9.375 1.5625 18.75 
z
" id="SimHei-53"/>
       <path d="M 3.125 29.296875 
Q 3.90625 50 6.4375 56.046875 
Q 8.984375 62.109375 13.671875 66.015625 
Q 18.359375 69.921875 25.1875 69.921875 
Q 32.03125 69.921875 37.109375 64.25 
Q 42.1875 58.59375 43.75 50 
Q 45.3125 41.40625 44.71875 30.265625 
Q 44.140625 19.140625 40.8125 12.109375 
Q 37.5 5.078125 30.859375 2.34375 
Q 24.21875 -0.390625 17.578125 2.921875 
Q 10.9375 6.25 8.203125 11.71875 
Q 5.46875 17.1875 4.296875 23.234375 
Q 3.125 29.296875 3.90625 50 
z
M 12.890625 52.734375 
Q 10.546875 31.25 12.5 22.84375 
Q 14.453125 14.453125 18.9375 10.9375 
Q 23.4375 7.421875 28.125 9.5625 
Q 32.8125 11.71875 34.953125 18.15625 
Q 37.109375 24.609375 37.109375 32.21875 
Q 37.109375 39.84375 36.515625 46.09375 
Q 35.9375 52.34375 33 57.421875 
Q 30.078125 62.5 25.1875 62.6875 
Q 20.3125 62.890625 16.59375 57.8125 
Q 12.890625 52.734375 10.546875 31.25 
z
" id="SimHei-48"/>
      </defs>
      <use xlink:href="#SimHei-45"/>
      <use x="50" xlink:href="#SimHei-49"/>
      <use x="100" xlink:href="#SimHei-54"/>
      <use x="150" xlink:href="#SimHei-50"/>
      <use x="200" xlink:href="#SimHei-53"/>
      <use x="250" xlink:href="#SimHei-48"/>
     </g>
    </g>
   </g>
   <g id="xtick_2">
    <g id="line2d_3">
     <path d="M 262.03827 195.761021 
L 264.963738 197.257566 
" style="fill:none;stroke:#000000;stroke-linecap:square;stroke-width:0.8;"/>
    </g>
    <g id="text_3">
     <!-- -16000 -->
     <g transform="translate(258.235041 217.479451)scale(0.1 -0.1)">
      <use xlink:href="#SimHei-45"/>
      <use x="50" xlink:href="#SimHei-49"/>
      <use x="100" xlink:href="#SimHei-54"/>
      <use x="150" xlink:href="#SimHei-48"/>
      <use x="200" xlink:href="#SimHei-48"/>
      <use x="250" xlink:href="#SimHei-48"/>
     </g>
    </g>
   </g>
   <g id="xtick_3">
    <g id="line2d_4">
     <path d="M 246.572471 204.622223 
L 249.500942 206.14978 
" style="fill:none;stroke:#000000;stroke-linecap:square;stroke-width:0.8;"/>
    </g>
    <g id="text_4">
     <!-- -15750 -->
     <g transform="translate(242.837785 226.520995)scale(0.1 -0.1)">
      <defs>
       <path d="M 13.28125 2.34375 
Q 20.3125 32.03125 37.890625 61.328125 
L 4.296875 61.328125 
L 4.296875 68.359375 
L 46.09375 68.359375 
L 46.09375 61.71875 
Q 27.734375 32.03125 21.875 2.34375 
L 13.28125 2.34375 
z
" id="SimHei-55"/>
      </defs>
      <use xlink:href="#SimHei-45"/>
      <use x="50" xlink:href="#SimHei-49"/>
      <use x="100" xlink:href="#SimHei-53"/>
      <use x="150" xlink:href="#SimHei-55"/>
      <use x="200" xlink:href="#SimHei-53"/>
      <use x="250" xlink:href="#SimHei-48"/>
     </g>
    </g>
   </g>
   <g id="xtick_4">
    <g id="line2d_5">
     <path d="M 230.784785 213.66785 
L 233.715752 215.227394 
" style="fill:none;stroke:#000000;stroke-linecap:square;stroke-width:0.8;"/>
    </g>
    <g id="text_5">
     <!-- -15500 -->
     <g transform="translate(227.119082 235.751297)scale(0.1 -0.1)">
      <use xlink:href="#SimHei-45"/>
      <use x="50" xlink:href="#SimHei-49"/>
      <use x="100" xlink:href="#SimHei-53"/>
      <use x="150" xlink:href="#SimHei-53"/>
      <use x="200" xlink:href="#SimHei-48"/>
      <use x="250" xlink:href="#SimHei-48"/>
     </g>
    </g>
   </g>
   <g id="xtick_5">
    <g id="line2d_6">
     <path d="M 214.665059 222.903722 
L 217.597978 224.496268 
" style="fill:none;stroke:#000000;stroke-linecap:square;stroke-width:0.8;"/>
    </g>
    <g id="text_6">
     <!-- -15250 -->
     <g transform="translate(211.068761 245.176333)scale(0.1 -0.1)">
      <use xlink:href="#SimHei-45"/>
      <use x="50" xlink:href="#SimHei-49"/>
      <use x="100" xlink:href="#SimHei-53"/>
      <use x="150" xlink:href="#SimHei-50"/>
      <use x="200" xlink:href="#SimHei-53"/>
      <use x="250" xlink:href="#SimHei-48"/>
     </g>
    </g>
   </g>
   <g id="xtick_6">
    <g id="line2d_7">
     <path d="M 198.202706 232.335903 
L 201.136997 233.96251 
" style="fill:none;stroke:#000000;stroke-linecap:square;stroke-width:0.8;"/>
    </g>
    <g id="text_7">
     <!-- -15000 -->
     <g transform="translate(194.676215 254.802328)scale(0.1 -0.1)">
      <use xlink:href="#SimHei-45"/>
      <use x="50" xlink:href="#SimHei-49"/>
      <use x="100" xlink:href="#SimHei-53"/>
      <use x="150" xlink:href="#SimHei-48"/>
      <use x="200" xlink:href="#SimHei-48"/>
      <use x="250" xlink:href="#SimHei-48"/>
     </g>
    </g>
   </g>
   <g id="xtick_7">
    <g id="line2d_8">
     <path d="M 181.386684 241.97072 
L 184.321728 243.632492 
" style="fill:none;stroke:#000000;stroke-linecap:square;stroke-width:0.8;"/>
    </g>
    <g id="text_8">
     <!-- -14750 -->
     <g transform="translate(177.930381 264.635781)scale(0.1 -0.1)">
      <defs>
       <path d="M 31.25 17.1875 
L 1.171875 17.1875 
L 1.171875 23.828125 
L 32.8125 69.53125 
L 38.671875 69.53125 
L 38.671875 23.828125 
L 48.046875 23.828125 
L 48.046875 17.1875 
L 38.671875 17.1875 
L 38.671875 2.34375 
L 31.25 2.34375 
z
M 31.25 23.828125 
L 31.25 54.6875 
L 9.375 23.828125 
z
" id="SimHei-52"/>
      </defs>
      <use xlink:href="#SimHei-45"/>
      <use x="50" xlink:href="#SimHei-49"/>
      <use x="100" xlink:href="#SimHei-52"/>
      <use x="150" xlink:href="#SimHei-55"/>
      <use x="200" xlink:href="#SimHei-53"/>
      <use x="250" xlink:href="#SimHei-48"/>
     </g>
    </g>
   </g>
  </g>
  <g id="axis3d_2">
   <g id="line2d_9">
    <path d="M 58.415939 183.39774 
L 171.924229 248.512739 
" style="fill:none;stroke:#000000;stroke-linecap:square;stroke-width:0.8;"/>
   </g>
   <g id="text_9">
    <!-- F2 -->
    <g transform="translate(85.478144 249.614278)scale(0.1 -0.1)">
     <use xlink:href="#SimHei-70"/>
     <use x="50" xlink:href="#SimHei-50"/>
    </g>
   </g>
   <g id="Line3DCollection_2">
    <path d="M 177.116437 27.558886 
L 176.904133 129.427714 
L 63.371626 186.240612 
" style="fill:none;stroke:#b0b0b0;stroke-width:0.8;"/>
    <path d="M 192.974679 34.432388 
L 192.105754 136.98732 
L 78.51301 194.926596 
" style="fill:none;stroke:#b0b0b0;stroke-width:0.8;"/>
    <path d="M 209.151035 41.443771 
L 207.599607 144.692251 
L 93.966724 203.791752 
" style="fill:none;stroke:#b0b0b0;stroke-width:0.8;"/>
    <path d="M 225.655172 48.597226 
L 223.394203 152.546737 
L 109.742534 212.841679 
" style="fill:none;stroke:#b0b0b0;stroke-width:0.8;"/>
    <path d="M 242.497156 55.897115 
L 239.498381 160.555176 
L 125.850615 222.082217 
" style="fill:none;stroke:#b0b0b0;stroke-width:0.8;"/>
    <path d="M 259.687467 63.347981 
L 255.921335 168.722139 
L 142.301576 231.519452 
" style="fill:none;stroke:#b0b0b0;stroke-width:0.8;"/>
    <path d="M 277.237025 70.954556 
L 272.672624 177.052379 
L 159.106483 241.15973 
" style="fill:none;stroke:#b0b0b0;stroke-width:0.8;"/>
   </g>
   <g id="xtick_8">
    <g id="line2d_10">
     <path d="M 64.344314 185.753868 
L 61.422905 187.215773 
" style="fill:none;stroke:#000000;stroke-linecap:square;stroke-width:0.8;"/>
    </g>
    <g id="text_10">
     <!-- -16250 -->
     <g transform="translate(38.2261 207.269309)scale(0.1 -0.1)">
      <use xlink:href="#SimHei-45"/>
      <use x="50" xlink:href="#SimHei-49"/>
      <use x="100" xlink:href="#SimHei-54"/>
      <use x="150" xlink:href="#SimHei-50"/>
      <use x="200" xlink:href="#SimHei-53"/>
      <use x="250" xlink:href="#SimHei-48"/>
     </g>
    </g>
   </g>
   <g id="xtick_9">
    <g id="line2d_11">
     <path d="M 79.486872 194.429867 
L 76.561903 195.921781 
" style="fill:none;stroke:#000000;stroke-linecap:square;stroke-width:0.8;"/>
    </g>
    <g id="text_11">
     <!-- -16000 -->
     <g transform="translate(53.30048 216.121254)scale(0.1 -0.1)">
      <use xlink:href="#SimHei-45"/>
      <use x="50" xlink:href="#SimHei-49"/>
      <use x="100" xlink:href="#SimHei-54"/>
      <use x="150" xlink:href="#SimHei-48"/>
      <use x="200" xlink:href="#SimHei-48"/>
      <use x="250" xlink:href="#SimHei-48"/>
     </g>
    </g>
   </g>
   <g id="xtick_10">
    <g id="line2d_12">
     <path d="M 94.941602 203.284726 
L 92.013548 204.807582 
" style="fill:none;stroke:#000000;stroke-linecap:square;stroke-width:0.8;"/>
    </g>
    <g id="text_12">
     <!-- -15750 -->
     <g transform="translate(68.686572 225.156242)scale(0.1 -0.1)">
      <use xlink:href="#SimHei-45"/>
      <use x="50" xlink:href="#SimHei-49"/>
      <use x="100" xlink:href="#SimHei-53"/>
      <use x="150" xlink:href="#SimHei-55"/>
      <use x="200" xlink:href="#SimHei-53"/>
      <use x="250" xlink:href="#SimHei-48"/>
     </g>
    </g>
   </g>
   <g id="xtick_11">
    <g id="line2d_13">
     <path d="M 110.718258 212.324034 
L 107.787626 213.878805 
" style="fill:none;stroke:#000000;stroke-linecap:square;stroke-width:0.8;"/>
    </g>
    <g id="text_13">
     <!-- -15500 -->
     <g transform="translate(84.394146 234.380009)scale(0.1 -0.1)">
      <use xlink:href="#SimHei-45"/>
      <use x="50" xlink:href="#SimHei-49"/>
      <use x="100" xlink:href="#SimHei-53"/>
      <use x="150" xlink:href="#SimHei-53"/>
      <use x="200" xlink:href="#SimHei-48"/>
      <use x="250" xlink:href="#SimHei-48"/>
     </g>
    </g>
   </g>
   <g id="xtick_12">
    <g id="line2d_14">
     <path d="M 126.827006 221.553615 
L 123.894334 223.141316 
" style="fill:none;stroke:#000000;stroke-linecap:square;stroke-width:0.8;"/>
    </g>
    <g id="text_14">
     <!-- -15250 -->
     <g transform="translate(100.433384 243.798536)scale(0.1 -0.1)">
      <use xlink:href="#SimHei-45"/>
      <use x="50" xlink:href="#SimHei-49"/>
      <use x="100" xlink:href="#SimHei-53"/>
      <use x="150" xlink:href="#SimHei-50"/>
      <use x="200" xlink:href="#SimHei-53"/>
      <use x="250" xlink:href="#SimHei-48"/>
     </g>
    </g>
   </g>
   <g id="xtick_13">
    <g id="line2d_15">
     <path d="M 143.278441 230.979541 
L 140.344308 232.601228 
" style="fill:none;stroke:#000000;stroke-linecap:square;stroke-width:0.8;"/>
    </g>
    <g id="text_15">
     <!-- -15000 -->
     <g transform="translate(116.814903 253.418056)scale(0.1 -0.1)">
      <use xlink:href="#SimHei-45"/>
      <use x="50" xlink:href="#SimHei-49"/>
      <use x="100" xlink:href="#SimHei-53"/>
      <use x="150" xlink:href="#SimHei-48"/>
      <use x="200" xlink:href="#SimHei-48"/>
      <use x="250" xlink:href="#SimHei-48"/>
     </g>
    </g>
   </g>
   <g id="xtick_14">
    <g id="line2d_16">
     <path d="M 160.083617 240.608144 
L 157.148639 242.26492 
" style="fill:none;stroke:#000000;stroke-linecap:square;stroke-width:0.8;"/>
    </g>
    <g id="text_16">
     <!-- -14750 -->
     <g transform="translate(133.549777 263.245073)scale(0.1 -0.1)">
      <use xlink:href="#SimHei-45"/>
      <use x="50" xlink:href="#SimHei-49"/>
      <use x="100" xlink:href="#SimHei-52"/>
      <use x="150" xlink:href="#SimHei-55"/>
      <use x="200" xlink:href="#SimHei-53"/>
      <use x="250" xlink:href="#SimHei-48"/>
     </g>
    </g>
   </g>
  </g>
  <g id="axis3d_3">
   <g id="line2d_17">
    <path d="M 58.415939 183.39774 
L 53.232913 76.753262 
" style="fill:none;stroke:#000000;stroke-linecap:square;stroke-width:0.8;"/>
   </g>
   <g id="text_17">
    <!-- F3 -->
    <g transform="translate(7.2 134.07823)scale(0.1 -0.1)">
     <defs>
      <path d="M 3.90625 19.140625 
L 10.9375 20.3125 
Q 12.5 15.234375 16.015625 11.90625 
Q 19.53125 8.59375 24.796875 8.78125 
Q 30.078125 8.984375 33.203125 13.078125 
Q 36.328125 17.1875 35.9375 22.453125 
Q 35.546875 27.734375 31.828125 30.65625 
Q 28.125 33.59375 19.921875 34.765625 
L 19.921875 39.84375 
Q 28.125 40.625 31.828125 44.140625 
Q 35.546875 47.65625 35.15625 53.3125 
Q 34.765625 58.984375 30.078125 61.515625 
Q 25.390625 64.0625 20.109375 62.109375 
Q 14.84375 60.15625 11.71875 51.171875 
L 4.6875 52.34375 
Q 7.03125 59.375 11.125 64.0625 
Q 15.234375 68.75 22.265625 69.53125 
Q 29.296875 70.3125 34.5625 67.765625 
Q 39.84375 65.234375 41.984375 59.953125 
Q 44.140625 54.6875 42.578125 48.4375 
Q 41.015625 42.1875 33.59375 37.5 
Q 39.0625 35.15625 41.984375 30.46875 
Q 44.921875 25.78125 43.9375 18.15625 
Q 42.96875 10.546875 37.109375 5.859375 
Q 31.25 1.171875 23.828125 1.359375 
Q 16.40625 1.5625 10.9375 6.046875 
Q 5.46875 10.546875 3.90625 19.140625 
z
" id="SimHei-51"/>
     </defs>
     <use xlink:href="#SimHei-70"/>
     <use x="50" xlink:href="#SimHei-51"/>
    </g>
   </g>
   <g id="Line3DCollection_3">
    <path d="M 58.070948 176.299301 
L 171.924229 120.166547 
L 285.777509 176.299301 
" style="fill:none;stroke:#b0b0b0;stroke-width:0.8;"/>
    <path d="M 57.362036 161.712915 
L 171.924229 106.233439 
L 286.486422 161.712915 
" style="fill:none;stroke:#b0b0b0;stroke-width:0.8;"/>
    <path d="M 56.644239 146.943745 
L 171.924229 92.137524 
L 287.204218 146.943745 
" style="fill:none;stroke:#b0b0b0;stroke-width:0.8;"/>
    <path d="M 55.917392 131.988334 
L 171.924229 77.875933 
L 287.931066 131.988334 
" style="fill:none;stroke:#b0b0b0;stroke-width:0.8;"/>
    <path d="M 55.18132 116.843137 
L 171.924229 63.445727 
L 288.667137 116.843137 
" style="fill:none;stroke:#b0b0b0;stroke-width:0.8;"/>
    <path d="M 54.435848 101.504518 
L 171.924229 48.843897 
L 289.412609 101.504518 
" style="fill:none;stroke:#b0b0b0;stroke-width:0.8;"/>
    <path d="M 53.680794 85.968747 
L 171.924229 34.067364 
L 290.167663 85.968747 
" style="fill:none;stroke:#b0b0b0;stroke-width:0.8;"/>
   </g>
   <g id="xtick_15">
    <g id="line2d_18">
     <path d="M 59.046365 175.818395 
L 56.116763 177.262768 
" style="fill:none;stroke:#000000;stroke-linecap:square;stroke-width:0.8;"/>
    </g>
    <g id="text_18">
     <!-- -177.5 -->
     <g transform="translate(23.356095 183.174301)scale(0.1 -0.1)">
      <defs>
       <path d="M 16.796875 1.953125 
L 7.8125 1.953125 
L 7.8125 10.546875 
L 16.796875 10.546875 
z
" id="SimHei-46"/>
      </defs>
      <use xlink:href="#SimHei-45"/>
      <use x="50" xlink:href="#SimHei-49"/>
      <use x="100" xlink:href="#SimHei-55"/>
      <use x="150" xlink:href="#SimHei-55"/>
      <use x="200" xlink:href="#SimHei-46"/>
      <use x="250" xlink:href="#SimHei-53"/>
     </g>
    </g>
   </g>
   <g id="xtick_16">
    <g id="line2d_19">
     <path d="M 58.34393 161.23741 
L 55.394851 162.665571 
" style="fill:none;stroke:#000000;stroke-linecap:square;stroke-width:0.8;"/>
    </g>
    <g id="text_19">
     <!-- -175.0 -->
     <g transform="translate(22.524426 168.587915)scale(0.1 -0.1)">
      <use xlink:href="#SimHei-45"/>
      <use x="50" xlink:href="#SimHei-49"/>
      <use x="100" xlink:href="#SimHei-55"/>
      <use x="150" xlink:href="#SimHei-53"/>
      <use x="200" xlink:href="#SimHei-46"/>
      <use x="250" xlink:href="#SimHei-48"/>
     </g>
    </g>
   </g>
   <g id="xtick_17">
    <g id="line2d_20">
     <path d="M 57.632698 146.473814 
L 54.663882 147.885243 
" style="fill:none;stroke:#000000;stroke-linecap:square;stroke-width:0.8;"/>
    </g>
    <g id="text_20">
     <!-- -172.5 -->
     <g transform="translate(21.682336 153.818745)scale(0.1 -0.1)">
      <use xlink:href="#SimHei-45"/>
      <use x="50" xlink:href="#SimHei-49"/>
      <use x="100" xlink:href="#SimHei-55"/>
      <use x="150" xlink:href="#SimHei-50"/>
      <use x="200" xlink:href="#SimHei-46"/>
      <use x="250" xlink:href="#SimHei-53"/>
     </g>
    </g>
   </g>
   <g id="xtick_18">
    <g id="line2d_21">
     <path d="M 56.912502 131.524156 
L 53.923685 132.918316 
" style="fill:none;stroke:#000000;stroke-linecap:square;stroke-width:0.8;"/>
    </g>
    <g id="text_21">
     <!-- -170.0 -->
     <g transform="translate(20.829628 138.863334)scale(0.1 -0.1)">
      <use xlink:href="#SimHei-45"/>
      <use x="50" xlink:href="#SimHei-49"/>
      <use x="100" xlink:href="#SimHei-55"/>
      <use x="150" xlink:href="#SimHei-48"/>
      <use x="200" xlink:href="#SimHei-46"/>
      <use x="250" xlink:href="#SimHei-48"/>
     </g>
    </g>
   </g>
   <g id="xtick_19">
    <g id="line2d_22">
     <path d="M 56.183173 116.384896 
L 53.174084 117.761233 
" style="fill:none;stroke:#000000;stroke-linecap:square;stroke-width:0.8;"/>
    </g>
    <g id="text_22">
     <!-- -167.5 -->
     <g transform="translate(19.966098 123.718137)scale(0.1 -0.1)">
      <use xlink:href="#SimHei-45"/>
      <use x="50" xlink:href="#SimHei-49"/>
      <use x="100" xlink:href="#SimHei-54"/>
      <use x="150" xlink:href="#SimHei-55"/>
      <use x="200" xlink:href="#SimHei-46"/>
      <use x="250" xlink:href="#SimHei-53"/>
     </g>
    </g>
   </g>
   <g id="xtick_20">
    <g id="line2d_23">
     <path d="M 55.444534 101.052405 
L 52.414898 102.410348 
" style="fill:none;stroke:#000000;stroke-linecap:square;stroke-width:0.8;"/>
    </g>
    <g id="text_23">
     <!-- -165.0 -->
     <g transform="translate(19.09154 108.379518)scale(0.1 -0.1)">
      <use xlink:href="#SimHei-45"/>
      <use x="50" xlink:href="#SimHei-49"/>
      <use x="100" xlink:href="#SimHei-54"/>
      <use x="150" xlink:href="#SimHei-53"/>
      <use x="200" xlink:href="#SimHei-46"/>
      <use x="250" xlink:href="#SimHei-48"/>
     </g>
    </g>
   </g>
   <g id="xtick_21">
    <g id="line2d_24">
     <path d="M 54.696407 85.522957 
L 51.645942 86.861919 
" style="fill:none;stroke:#000000;stroke-linecap:square;stroke-width:0.8;"/>
    </g>
    <g id="text_24">
     <!-- -162.5 -->
     <g transform="translate(18.205741 92.843747)scale(0.1 -0.1)">
      <use xlink:href="#SimHei-45"/>
      <use x="50" xlink:href="#SimHei-49"/>
      <use x="100" xlink:href="#SimHei-54"/>
      <use x="150" xlink:href="#SimHei-50"/>
      <use x="200" xlink:href="#SimHei-46"/>
      <use x="250" xlink:href="#SimHei-53"/>
     </g>
    </g>
   </g>
  </g>
  <g id="axes_1">
   <g id="line2d_25">
    <defs>
     <path d="M 0 1.5 
C 0.397805 1.5 0.77937 1.341951 1.06066 1.06066 
C 1.341951 0.77937 1.5 0.397805 1.5 0 
C 1.5 -0.397805 1.341951 -0.77937 1.06066 -1.06066 
C 0.77937 -1.341951 0.397805 -1.5 0 -1.5 
C -0.397805 -1.5 -0.77937 -1.341951 -1.06066 -1.06066 
C -1.341951 -0.77937 -1.5 -0.397805 -1.5 0 
C -1.5 0.397805 -1.341951 0.77937 -1.06066 1.06066 
C -0.77937 1.341951 -0.397805 1.5 0 1.5 
z
" id="m2fdaa1e92f" style="stroke:#4682b4;"/>
    </defs>
    <g clip-path="url(#p9da223449c)">
     <use style="fill:#4682b4;stroke:#4682b4;" x="171.924229" xlink:href="#m2fdaa1e92f" y="131.26573"/>
     <use style="fill:#4682b4;stroke:#4682b4;" x="171.924229" xlink:href="#m2fdaa1e92f" y="131.26573"/>
     <use style="fill:#4682b4;stroke:#4682b4;" x="171.924229" xlink:href="#m2fdaa1e92f" y="131.26573"/>
     <use style="fill:#4682b4;stroke:#4682b4;" x="171.924229" xlink:href="#m2fdaa1e92f" y="131.26573"/>
     <use style="fill:#4682b4;stroke:#4682b4;" x="171.924229" xlink:href="#m2fdaa1e92f" y="131.26573"/>
     <use style="fill:#4682b4;stroke:#4682b4;" x="171.924229" xlink:href="#m2fdaa1e92f" y="131.26573"/>
     <use style="fill:#4682b4;stroke:#4682b4;" x="171.924229" xlink:href="#m2fdaa1e92f" y="131.26573"/>
     <use style="fill:#4682b4;stroke:#4682b4;" x="171.924229" xlink:href="#m2fdaa1e92f" y="131.26573"/>
     <use style="fill:#4682b4;stroke:#4682b4;" x="171.924229" xlink:href="#m2fdaa1e92f" y="131.26573"/>
     <use style="fill:#4682b4;stroke:#4682b4;" x="171.924229" xlink:href="#m2fdaa1e92f" y="131.26573"/>
     <use style="fill:#4682b4;stroke:#4682b4;" x="171.924229" xlink:href="#m2fdaa1e92f" y="131.26573"/>
     <use style="fill:#4682b4;stroke:#4682b4;" x="171.924229" xlink:href="#m2fdaa1e92f" y="131.26573"/>
     <use style="fill:#4682b4;stroke:#4682b4;" x="171.924229" xlink:href="#m2fdaa1e92f" y="131.26573"/>
     <use style="fill:#4682b4;stroke:#4682b4;" x="171.924229" xlink:href="#m2fdaa1e92f" y="131.26573"/>
     <use style="fill:#4682b4;stroke:#4682b4;" x="171.924229" xlink:href="#m2fdaa1e92f" y="131.26573"/>
     <use style="fill:#4682b4;stroke:#4682b4;" x="171.924229" xlink:href="#m2fdaa1e92f" y="131.26573"/>
     <use style="fill:#4682b4;stroke:#4682b4;" x="171.924229" xlink:href="#m2fdaa1e92f" y="131.26573"/>
     <use style="fill:#4682b4;stroke:#4682b4;" x="171.924229" xlink:href="#m2fdaa1e92f" y="131.26573"/>
     <use style="fill:#4682b4;stroke:#4682b4;" x="171.924229" xlink:href="#m2fdaa1e92f" y="131.26573"/>
     <use style="fill:#4682b4;stroke:#4682b4;" x="171.924229" xlink:href="#m2fdaa1e92f" y="131.26573"/>
     <use style="fill:#4682b4;stroke:#4682b4;" x="171.924229" xlink:href="#m2fdaa1e92f" y="131.26573"/>
     <use style="fill:#4682b4;stroke:#4682b4;" x="171.924229" xlink:href="#m2fdaa1e92f" y="131.26573"/>
     <use style="fill:#4682b4;stroke:#4682b4;" x="171.924229" xlink:href="#m2fdaa1e92f" y="131.26573"/>
     <use style="fill:#4682b4;stroke:#4682b4;" x="171.924229" xlink:href="#m2fdaa1e92f" y="131.26573"/>
     <use style="fill:#4682b4;stroke:#4682b4;" x="171.924229" xlink:href="#m2fdaa1e92f" y="131.26573"/>
     <use style="fill:#4682b4;stroke:#4682b4;" x="171.924229" xlink:href="#m2fdaa1e92f" y="131.26573"/>
     <use style="fill:#4682b4;stroke:#4682b4;" x="171.924229" xlink:href="#m2fdaa1e92f" y="131.26573"/>
     <use style="fill:#4682b4;stroke:#4682b4;" x="171.924229" xlink:href="#m2fdaa1e92f" y="131.26573"/>
     <use style="fill:#4682b4;stroke:#4682b4;" x="171.924229" xlink:href="#m2fdaa1e92f" y="131.26573"/>
     <use style="fill:#4682b4;stroke:#4682b4;" x="171.924229" xlink:href="#m2fdaa1e92f" y="131.26573"/>
     <use style="fill:#4682b4;stroke:#4682b4;" x="171.924229" xlink:href="#m2fdaa1e92f" y="131.26573"/>
     <use style="fill:#4682b4;stroke:#4682b4;" x="171.924229" xlink:href="#m2fdaa1e92f" y="131.26573"/>
     <use style="fill:#4682b4;stroke:#4682b4;" x="171.924229" xlink:href="#m2fdaa1e92f" y="131.26573"/>
     <use style="fill:#4682b4;stroke:#4682b4;" x="171.924229" xlink:href="#m2fdaa1e92f" y="131.26573"/>
     <use style="fill:#4682b4;stroke:#4682b4;" x="171.924229" xlink:href="#m2fdaa1e92f" y="131.26573"/>
     <use style="fill:#4682b4;stroke:#4682b4;" x="171.924229" xlink:href="#m2fdaa1e92f" y="131.26573"/>
     <use style="fill:#4682b4;stroke:#4682b4;" x="171.924229" xlink:href="#m2fdaa1e92f" y="131.26573"/>
     <use style="fill:#4682b4;stroke:#4682b4;" x="171.924229" xlink:href="#m2fdaa1e92f" y="131.26573"/>
     <use style="fill:#4682b4;stroke:#4682b4;" x="171.924229" xlink:href="#m2fdaa1e92f" y="131.26573"/>
     <use style="fill:#4682b4;stroke:#4682b4;" x="171.924229" xlink:href="#m2fdaa1e92f" y="131.26573"/>
     <use style="fill:#4682b4;stroke:#4682b4;" x="171.924229" xlink:href="#m2fdaa1e92f" y="131.26573"/>
     <use style="fill:#4682b4;stroke:#4682b4;" x="171.924229" xlink:href="#m2fdaa1e92f" y="131.26573"/>
     <use style="fill:#4682b4;stroke:#4682b4;" x="171.924229" xlink:href="#m2fdaa1e92f" y="131.26573"/>
     <use style="fill:#4682b4;stroke:#4682b4;" x="171.924229" xlink:href="#m2fdaa1e92f" y="131.26573"/>
     <use style="fill:#4682b4;stroke:#4682b4;" x="171.924229" xlink:href="#m2fdaa1e92f" y="131.26573"/>
     <use style="fill:#4682b4;stroke:#4682b4;" x="171.924229" xlink:href="#m2fdaa1e92f" y="131.26573"/>
     <use style="fill:#4682b4;stroke:#4682b4;" x="171.924229" xlink:href="#m2fdaa1e92f" y="131.26573"/>
     <use style="fill:#4682b4;stroke:#4682b4;" x="171.924229" xlink:href="#m2fdaa1e92f" y="131.26573"/>
     <use style="fill:#4682b4;stroke:#4682b4;" x="171.924229" xlink:href="#m2fdaa1e92f" y="131.26573"/>
     <use style="fill:#4682b4;stroke:#4682b4;" x="171.924229" xlink:href="#m2fdaa1e92f" y="131.26573"/>
     <use style="fill:#4682b4;stroke:#4682b4;" x="171.924229" xlink:href="#m2fdaa1e92f" y="131.26573"/>
     <use style="fill:#4682b4;stroke:#4682b4;" x="171.924229" xlink:href="#m2fdaa1e92f" y="131.26573"/>
     <use style="fill:#4682b4;stroke:#4682b4;" x="171.924229" xlink:href="#m2fdaa1e92f" y="131.26573"/>
     <use style="fill:#4682b4;stroke:#4682b4;" x="171.924229" xlink:href="#m2fdaa1e92f" y="131.26573"/>
     <use style="fill:#4682b4;stroke:#4682b4;" x="171.924229" xlink:href="#m2fdaa1e92f" y="131.26573"/>
     <use style="fill:#4682b4;stroke:#4682b4;" x="171.924229" xlink:href="#m2fdaa1e92f" y="131.26573"/>
     <use style="fill:#4682b4;stroke:#4682b4;" x="171.924229" xlink:href="#m2fdaa1e92f" y="131.26573"/>
     <use style="fill:#4682b4;stroke:#4682b4;" x="171.924229" xlink:href="#m2fdaa1e92f" y="131.26573"/>
     <use style="fill:#4682b4;stroke:#4682b4;" x="171.924229" xlink:href="#m2fdaa1e92f" y="131.26573"/>
     <use style="fill:#4682b4;stroke:#4682b4;" x="171.924229" xlink:href="#m2fdaa1e92f" y="131.26573"/>
     <use style="fill:#4682b4;stroke:#4682b4;" x="171.924229" xlink:href="#m2fdaa1e92f" y="131.26573"/>
     <use style="fill:#4682b4;stroke:#4682b4;" x="171.924229" xlink:href="#m2fdaa1e92f" y="131.26573"/>
     <use style="fill:#4682b4;stroke:#4682b4;" x="171.924229" xlink:href="#m2fdaa1e92f" y="131.26573"/>
     <use style="fill:#4682b4;stroke:#4682b4;" x="171.924229" xlink:href="#m2fdaa1e92f" y="131.26573"/>
     <use style="fill:#4682b4;stroke:#4682b4;" x="171.924229" xlink:href="#m2fdaa1e92f" y="131.26573"/>
     <use style="fill:#4682b4;stroke:#4682b4;" x="171.924229" xlink:href="#m2fdaa1e92f" y="131.26573"/>
     <use style="fill:#4682b4;stroke:#4682b4;" x="171.924229" xlink:href="#m2fdaa1e92f" y="131.26573"/>
     <use style="fill:#4682b4;stroke:#4682b4;" x="171.924229" xlink:href="#m2fdaa1e92f" y="131.26573"/>
     <use style="fill:#4682b4;stroke:#4682b4;" x="171.924229" xlink:href="#m2fdaa1e92f" y="131.26573"/>
     <use style="fill:#4682b4;stroke:#4682b4;" x="171.924229" xlink:href="#m2fdaa1e92f" y="131.26573"/>
     <use style="fill:#4682b4;stroke:#4682b4;" x="171.924229" xlink:href="#m2fdaa1e92f" y="131.26573"/>
     <use style="fill:#4682b4;stroke:#4682b4;" x="171.924229" xlink:href="#m2fdaa1e92f" y="131.26573"/>
     <use style="fill:#4682b4;stroke:#4682b4;" x="171.924229" xlink:href="#m2fdaa1e92f" y="131.26573"/>
     <use style="fill:#4682b4;stroke:#4682b4;" x="171.924229" xlink:href="#m2fdaa1e92f" y="131.26573"/>
     <use style="fill:#4682b4;stroke:#4682b4;" x="171.924229" xlink:href="#m2fdaa1e92f" y="131.26573"/>
     <use style="fill:#4682b4;stroke:#4682b4;" x="171.924229" xlink:href="#m2fdaa1e92f" y="131.26573"/>
     <use style="fill:#4682b4;stroke:#4682b4;" x="171.924229" xlink:href="#m2fdaa1e92f" y="131.26573"/>
     <use style="fill:#4682b4;stroke:#4682b4;" x="171.924229" xlink:href="#m2fdaa1e92f" y="131.26573"/>
     <use style="fill:#4682b4;stroke:#4682b4;" x="171.924229" xlink:href="#m2fdaa1e92f" y="131.26573"/>
     <use style="fill:#4682b4;stroke:#4682b4;" x="171.924229" xlink:href="#m2fdaa1e92f" y="131.26573"/>
     <use style="fill:#4682b4;stroke:#4682b4;" x="171.924229" xlink:href="#m2fdaa1e92f" y="131.26573"/>
     <use style="fill:#4682b4;stroke:#4682b4;" x="171.924229" xlink:href="#m2fdaa1e92f" y="131.26573"/>
     <use style="fill:#4682b4;stroke:#4682b4;" x="171.924229" xlink:href="#m2fdaa1e92f" y="131.26573"/>
     <use style="fill:#4682b4;stroke:#4682b4;" x="171.924229" xlink:href="#m2fdaa1e92f" y="131.26573"/>
     <use style="fill:#4682b4;stroke:#4682b4;" x="171.924229" xlink:href="#m2fdaa1e92f" y="131.26573"/>
     <use style="fill:#4682b4;stroke:#4682b4;" x="171.924229" xlink:href="#m2fdaa1e92f" y="131.26573"/>
     <use style="fill:#4682b4;stroke:#4682b4;" x="171.924229" xlink:href="#m2fdaa1e92f" y="131.26573"/>
     <use style="fill:#4682b4;stroke:#4682b4;" x="171.924229" xlink:href="#m2fdaa1e92f" y="131.26573"/>
     <use style="fill:#4682b4;stroke:#4682b4;" x="171.924229" xlink:href="#m2fdaa1e92f" y="131.26573"/>
     <use style="fill:#4682b4;stroke:#4682b4;" x="171.924229" xlink:href="#m2fdaa1e92f" y="131.26573"/>
     <use style="fill:#4682b4;stroke:#4682b4;" x="171.924229" xlink:href="#m2fdaa1e92f" y="131.26573"/>
     <use style="fill:#4682b4;stroke:#4682b4;" x="171.924229" xlink:href="#m2fdaa1e92f" y="131.26573"/>
     <use style="fill:#4682b4;stroke:#4682b4;" x="171.924229" xlink:href="#m2fdaa1e92f" y="131.26573"/>
     <use style="fill:#4682b4;stroke:#4682b4;" x="171.924229" xlink:href="#m2fdaa1e92f" y="131.26573"/>
     <use style="fill:#4682b4;stroke:#4682b4;" x="171.924229" xlink:href="#m2fdaa1e92f" y="131.26573"/>
     <use style="fill:#4682b4;stroke:#4682b4;" x="171.924229" xlink:href="#m2fdaa1e92f" y="131.26573"/>
     <use style="fill:#4682b4;stroke:#4682b4;" x="171.924229" xlink:href="#m2fdaa1e92f" y="131.26573"/>
     <use style="fill:#4682b4;stroke:#4682b4;" x="171.924229" xlink:href="#m2fdaa1e92f" y="131.26573"/>
     <use style="fill:#4682b4;stroke:#4682b4;" x="171.924229" xlink:href="#m2fdaa1e92f" y="131.26573"/>
     <use style="fill:#4682b4;stroke:#4682b4;" x="171.924229" xlink:href="#m2fdaa1e92f" y="131.26573"/>
    </g>
   </g>
   <g id="legend_1">
    <g id="patch_6">
     <path d="M 196.989958 28.45 
L 288.989958 28.45 
Q 290.989958 28.45 290.989958 26.45 
L 290.989958 14.2 
Q 290.989958 12.2 288.989958 12.2 
L 196.989958 12.2 
Q 194.989958 12.2 194.989958 14.2 
L 194.989958 26.45 
Q 194.989958 28.45 196.989958 28.45 
z
" style="fill:#ffffff;opacity:0.8;stroke:#cccccc;stroke-linejoin:miter;"/>
    </g>
    <g id="line2d_26"/>
    <g id="line2d_27">
     <g>
      <use style="fill:#4682b4;stroke:#4682b4;" x="208.989958" xlink:href="#m2fdaa1e92f" y="19.7"/>
     </g>
    </g>
    <g id="text_25">
     <!-- Pareto Front -->
     <g transform="translate(226.989958 23.2)scale(0.1 -0.1)">
      <defs>
       <path d="M 46.09375 48.4375 
Q 46.09375 39.0625 40.625 33.59375 
Q 35.15625 28.125 25.390625 28.125 
L 14.0625 28.125 
L 14.0625 1.953125 
L 5.078125 1.953125 
L 5.078125 68.75 
L 25.390625 68.75 
Q 35.15625 68.75 40.625 63.28125 
Q 46.09375 57.8125 46.09375 48.4375 
z
M 37.109375 48.4375 
Q 37.109375 55.859375 33.59375 58.59375 
Q 30.078125 61.328125 23.046875 61.328125 
L 14.0625 61.328125 
L 14.0625 35.546875 
L 23.046875 35.546875 
Q 30.078125 35.546875 33.59375 38.28125 
Q 37.109375 41.015625 37.109375 48.4375 
z
" id="SimHei-80"/>
       <path d="M 44.921875 1.953125 
L 35.546875 1.953125 
Q 34.765625 2.734375 34.375 4.09375 
Q 33.984375 5.46875 33.984375 7.421875 
Q 31.25 4.296875 27.34375 2.734375 
Q 23.4375 1.171875 19.140625 1.171875 
Q 12.890625 1.171875 8.59375 4.296875 
Q 4.296875 7.421875 4.296875 13.28125 
Q 4.296875 19.140625 8.203125 22.65625 
Q 12.109375 26.171875 20.3125 27.34375 
Q 25.78125 28.125 29.875 29.296875 
Q 33.984375 30.46875 33.984375 32.421875 
Q 33.984375 34.765625 32.21875 37.109375 
Q 30.46875 39.453125 24.609375 39.453125 
Q 19.921875 39.453125 17.765625 37.6875 
Q 15.625 35.9375 14.84375 32.8125 
L 6.25 32.8125 
Q 7.03125 39.0625 11.90625 42.765625 
Q 16.796875 46.484375 24.609375 46.484375 
Q 33.203125 46.484375 37.5 42.578125 
Q 41.796875 38.671875 41.796875 31.640625 
L 41.796875 10.15625 
Q 41.796875 7.8125 42.578125 5.859375 
Q 43.359375 3.90625 44.921875 1.953125 
z
M 33.984375 16.40625 
L 33.984375 24.21875 
Q 31.640625 23.4375 29.484375 22.84375 
Q 27.34375 22.265625 22.265625 21.484375 
Q 16.40625 20.703125 14.640625 18.75 
Q 12.890625 16.796875 12.890625 14.0625 
Q 12.890625 11.71875 14.640625 9.953125 
Q 16.40625 8.203125 19.921875 8.203125 
Q 23.4375 8.203125 27.53125 10.15625 
Q 31.640625 12.109375 33.984375 16.40625 
z
" id="SimHei-97"/>
       <path d="M 39.0625 37.890625 
Q 31.640625 39.0625 26.5625 35.734375 
Q 21.484375 32.421875 17.96875 24.21875 
L 17.96875 1.953125 
L 10.15625 1.953125 
L 10.15625 45.703125 
L 17.96875 45.703125 
L 17.96875 34.375 
Q 21.484375 40.625 26.75 43.546875 
Q 32.03125 46.484375 39.0625 46.484375 
z
" id="SimHei-114"/>
       <path d="M 44.53125 16.796875 
Q 43.75 9.765625 38.28125 5.46875 
Q 32.8125 1.171875 25.390625 1.171875 
Q 16.015625 1.171875 9.953125 7.21875 
Q 3.90625 13.28125 3.90625 23.828125 
Q 3.90625 34.375 9.953125 40.421875 
Q 16.015625 46.484375 25.390625 46.484375 
Q 33.59375 46.484375 38.859375 41.203125 
Q 44.140625 35.9375 44.140625 23.828125 
L 12.5 23.828125 
Q 12.5 15.234375 16.203125 11.71875 
Q 19.921875 8.203125 25.390625 8.203125 
Q 29.6875 8.203125 32.421875 10.34375 
Q 35.15625 12.5 35.9375 16.796875 
z
M 35.15625 30.078125 
Q 34.375 35.546875 31.640625 37.6875 
Q 28.90625 39.84375 24.609375 39.84375 
Q 20.703125 39.84375 17.578125 37.6875 
Q 14.453125 35.546875 12.890625 30.078125 
z
" id="SimHei-101"/>
       <path d="M 42.96875 3.125 
Q 41.015625 2.34375 38.46875 1.75 
Q 35.9375 1.171875 31.640625 1.171875 
Q 24.609375 1.171875 20.3125 5.078125 
Q 16.015625 8.984375 16.015625 16.015625 
L 16.015625 39.453125 
L 2.734375 39.453125 
L 2.734375 45.703125 
L 16.015625 45.703125 
L 16.015625 60.9375 
L 23.828125 60.9375 
L 23.828125 45.703125 
L 39.84375 45.703125 
L 39.84375 39.453125 
L 23.828125 39.453125 
L 23.828125 15.625 
Q 23.828125 12.5 25.390625 10.34375 
Q 26.953125 8.203125 31.25 8.203125 
Q 35.546875 8.203125 38.28125 8.984375 
Q 41.015625 9.765625 42.96875 10.9375 
z
" id="SimHei-116"/>
       <path d="M 45.703125 23.828125 
Q 45.703125 13.671875 39.453125 7.421875 
Q 33.203125 1.171875 24.609375 1.171875 
Q 16.015625 1.171875 9.765625 7.421875 
Q 3.515625 13.671875 3.515625 23.828125 
Q 3.515625 33.984375 9.765625 40.234375 
Q 16.015625 46.484375 24.609375 46.484375 
Q 33.203125 46.484375 39.453125 40.234375 
Q 45.703125 33.984375 45.703125 23.828125 
z
M 37.109375 23.828125 
Q 37.109375 31.640625 33.203125 35.546875 
Q 29.296875 39.453125 24.609375 39.453125 
Q 19.921875 39.453125 16.015625 35.546875 
Q 12.109375 31.640625 12.109375 23.828125 
Q 12.109375 16.015625 16.015625 12.109375 
Q 19.921875 8.203125 24.609375 8.203125 
Q 29.296875 8.203125 33.203125 12.109375 
Q 37.109375 16.015625 37.109375 23.828125 
z
" id="SimHei-111"/>
       <path id="SimHei-32"/>
       <path d="M 43.75 1.953125 
L 35.9375 1.953125 
L 35.9375 30.078125 
Q 35.9375 34.765625 33.59375 37.5 
Q 31.25 40.234375 27.34375 40.234375 
Q 22.265625 40.234375 17.765625 34.953125 
Q 13.28125 29.6875 13.28125 21.875 
L 13.28125 1.953125 
L 5.46875 1.953125 
L 5.46875 45.703125 
L 13.28125 45.703125 
L 13.28125 37.5 
Q 16.40625 41.796875 20.109375 44.140625 
Q 23.828125 46.484375 29.6875 46.484375 
Q 36.71875 46.484375 40.234375 42.578125 
Q 43.75 38.671875 43.75 32.8125 
z
" id="SimHei-110"/>
      </defs>
      <use xlink:href="#SimHei-80"/>
      <use x="50" xlink:href="#SimHei-97"/>
      <use x="100" xlink:href="#SimHei-114"/>
      <use x="150" xlink:href="#SimHei-101"/>
      <use x="200" xlink:href="#SimHei-116"/>
      <use x="250" xlink:href="#SimHei-111"/>
      <use x="300" xlink:href="#SimHei-32"/>
      <use x="350" xlink:href="#SimHei-70"/>
      <use x="400" xlink:href="#SimHei-114"/>
      <use x="450" xlink:href="#SimHei-111"/>
      <use x="500" xlink:href="#SimHei-110"/>
      <use x="550" xlink:href="#SimHei-116"/>
     </g>
    </g>
   </g>
  </g>
 </g>
 <defs>
  <clipPath id="p9da223449c">
   <rect height="255.024" width="255.024" x="40.965958" y="7.2"/>
  </clipPath>
 </defs>
</svg>
