<?xml version="1.0" encoding="utf-8" standalone="no"?>
<!DOCTYPE svg PUBLIC "-//W3C//DTD SVG 1.1//EN"
  "http://www.w3.org/Graphics/SVG/1.1/DTD/svg11.dtd">
<!-- Created with matplotlib (https://matplotlib.org/) -->
<svg height="277.463199pt" version="1.1" viewBox="0 0 303.189958 277.463199" width="303.189958pt" xmlns="http://www.w3.org/2000/svg" xmlns:xlink="http://www.w3.org/1999/xlink">
 <metadata>
  <rdf:RDF xmlns:cc="http://creativecommons.org/ns#" xmlns:dc="http://purl.org/dc/elements/1.1/" xmlns:rdf="http://www.w3.org/1999/02/22-rdf-syntax-ns#">
   <cc:Work>
    <dc:type rdf:resource="http://purl.org/dc/dcmitype/StillImage"/>
    <dc:date>2021-06-04T17:43:07.018065</dc:date>
    <dc:format>image/svg+xml</dc:format>
    <dc:creator>
     <cc:Agent>
      <dc:title>Matplotlib v3.3.3, https://matplotlib.org/</dc:title>
     </cc:Agent>
    </dc:creator>
   </cc:Work>
  </rdf:RDF>
 </metadata>
 <defs>
  <style type="text/css">*{stroke-linecap:butt;stroke-linejoin:round;}</style>
 </defs>
 <g id="figure_1">
  <g id="patch_1">
   <path d="M 0 277.463199 
L 303.189958 277.463199 
L 303.189958 0 
L 0 0 
z
" style="fill:#ffffff;"/>
  </g>
  <g id="patch_2">
   <path d="M 40.965958 262.224 
L 295.989958 262.224 
L 295.989958 7.2 
L 40.965958 7.2 
z
" style="fill:#ffffff;"/>
  </g>
  <g id="pane3d_1">
   <g id="patch_3">
    <path d="M 171.924229 126.95126 
L 285.432518 183.39774 
L 290.615545 76.753262 
L 171.924229 25.308407 
" style="fill:#f2f2f2;opacity:0.5;stroke:#f2f2f2;stroke-linejoin:miter;"/>
   </g>
  </g>
  <g id="pane3d_2">
   <g id="patch_4">
    <path d="M 171.924229 126.95126 
L 58.415939 183.39774 
L 53.232913 76.753262 
L 171.924229 25.308407 
" style="fill:#e6e6e6;opacity:0.5;stroke:#e6e6e6;stroke-linejoin:miter;"/>
   </g>
  </g>
  <g id="pane3d_3">
   <g id="patch_5">
    <path d="M 171.924229 126.95126 
L 58.415939 183.39774 
L 171.924229 248.512739 
L 285.432518 183.39774 
" style="fill:#ececec;opacity:0.5;stroke:#ececec;stroke-linejoin:miter;"/>
   </g>
  </g>
  <g id="axis3d_1">
   <g id="line2d_1">
    <path d="M 285.432518 183.39774 
L 171.924229 248.512739 
" style="fill:none;stroke:#000000;stroke-linecap:square;stroke-width:0.8;"/>
   </g>
   <g id="text_1">
    <!-- F1 -->
    <g transform="translate(248.370313 249.614278)scale(0.1 -0.1)">
     <defs>
      <path d="M 45.703125 61.328125 
L 13.671875 61.328125 
L 13.671875 39.453125 
L 37.890625 39.453125 
L 37.890625 32.03125 
L 13.671875 32.03125 
L 13.671875 1.953125 
L 4.6875 1.953125 
L 4.6875 68.75 
L 45.703125 68.75 
z
" id="SimHei-70"/>
      <path d="M 21.875 56.25 
Q 16.796875 51.171875 8.984375 46.484375 
L 8.984375 53.90625 
Q 18.75 60.546875 25 69.53125 
L 29.6875 69.53125 
L 29.6875 2.34375 
L 21.875 2.34375 
z
" id="SimHei-49"/>
     </defs>
     <use xlink:href="#SimHei-70"/>
     <use x="50" xlink:href="#SimHei-49"/>
    </g>
   </g>
   <g id="text_2">
    <!-- 1e6 -->
    <g transform="translate(295.890496 224.038863)rotate(-29.841106)scale(0.1 -0.1)">
     <defs>
      <path d="M 44.53125 16.796875 
Q 43.75 9.765625 38.28125 5.46875 
Q 32.8125 1.171875 25.390625 1.171875 
Q 16.015625 1.171875 9.953125 7.21875 
Q 3.90625 13.28125 3.90625 23.828125 
Q 3.90625 34.375 9.953125 40.421875 
Q 16.015625 46.484375 25.390625 46.484375 
Q 33.59375 46.484375 38.859375 41.203125 
Q 44.140625 35.9375 44.140625 23.828125 
L 12.5 23.828125 
Q 12.5 15.234375 16.203125 11.71875 
Q 19.921875 8.203125 25.390625 8.203125 
Q 29.6875 8.203125 32.421875 10.34375 
Q 35.15625 12.5 35.9375 16.796875 
z
M 35.15625 30.078125 
Q 34.375 35.546875 31.640625 37.6875 
Q 28.90625 39.84375 24.609375 39.84375 
Q 20.703125 39.84375 17.578125 37.6875 
Q 14.453125 35.546875 12.890625 30.078125 
z
" id="SimHei-101"/>
      <path d="M 3.515625 19.53125 
Q 4.296875 30.859375 6.046875 34.765625 
Q 7.8125 38.671875 11.328125 44.53125 
L 27.34375 69.53125 
L 36.328125 69.53125 
L 19.921875 43.75 
Q 30.46875 46.484375 36.71875 42.96875 
Q 42.96875 39.453125 45.109375 34.953125 
Q 47.265625 30.46875 47.453125 25.1875 
Q 47.65625 19.921875 45.890625 14.84375 
Q 44.140625 9.765625 39.640625 5.65625 
Q 35.15625 1.5625 27.140625 1.171875 
Q 19.140625 0.78125 13.46875 4.09375 
Q 7.8125 7.421875 5.65625 13.46875 
Q 3.515625 19.53125 4.296875 30.859375 
z
M 12.5 16.015625 
Q 19.53125 8.59375 25.390625 8.203125 
Q 31.25 7.8125 35.15625 12.109375 
Q 39.0625 16.40625 39.0625 24.609375 
Q 39.0625 32.8125 34.171875 35.9375 
Q 29.296875 39.0625 23.234375 38.28125 
Q 17.1875 37.5 14.453125 32.421875 
Q 11.71875 27.34375 12.109375 21.671875 
Q 12.5 16.015625 19.53125 8.59375 
z
" id="SimHei-54"/>
     </defs>
     <use xlink:href="#SimHei-49"/>
     <use x="50" xlink:href="#SimHei-101"/>
     <use x="100" xlink:href="#SimHei-54"/>
    </g>
   </g>
   <g id="Line3DCollection_1">
    <path d="M 257.713749 199.298849 
L 144.098517 140.788694 
L 142.89454 37.890862 
" style="fill:none;stroke:#b0b0b0;stroke-width:0.8;"/>
    <path d="M 231.078693 214.578276 
L 117.425979 154.052667 
L 115.027378 49.969438 
" style="fill:none;stroke:#b0b0b0;stroke-width:0.8;"/>
    <path d="M 203.484525 230.407906 
L 89.860207 167.760836 
L 86.185182 62.470627 
" style="fill:none;stroke:#b0b0b0;stroke-width:0.8;"/>
    <path d="M 174.878489 246.818003 
L 61.355566 181.935895 
L 56.315869 75.417004 
" style="fill:none;stroke:#b0b0b0;stroke-width:0.8;"/>
   </g>
   <g id="xtick_1">
    <g id="line2d_2">
     <path d="M 256.739363 198.797054 
L 259.665923 200.304189 
" style="fill:none;stroke:#000000;stroke-linecap:square;stroke-width:0.8;"/>
    </g>
    <g id="text_3">
     <!-- -3.54 -->
     <g transform="translate(255.459726 220.57721)scale(0.1 -0.1)">
      <defs>
       <path d="M 46.484375 33.203125 
L 1.953125 33.203125 
L 1.953125 39.453125 
L 46.484375 39.453125 
z
" id="SimHei-45"/>
       <path d="M 3.90625 19.140625 
L 10.9375 20.3125 
Q 12.5 15.234375 16.015625 11.90625 
Q 19.53125 8.59375 24.796875 8.78125 
Q 30.078125 8.984375 33.203125 13.078125 
Q 36.328125 17.1875 35.9375 22.453125 
Q 35.546875 27.734375 31.828125 30.65625 
Q 28.125 33.59375 19.921875 34.765625 
L 19.921875 39.84375 
Q 28.125 40.625 31.828125 44.140625 
Q 35.546875 47.65625 35.15625 53.3125 
Q 34.765625 58.984375 30.078125 61.515625 
Q 25.390625 64.0625 20.109375 62.109375 
Q 14.84375 60.15625 11.71875 51.171875 
L 4.6875 52.34375 
Q 7.03125 59.375 11.125 64.0625 
Q 15.234375 68.75 22.265625 69.53125 
Q 29.296875 70.3125 34.5625 67.765625 
Q 39.84375 65.234375 41.984375 59.953125 
Q 44.140625 54.6875 42.578125 48.4375 
Q 41.015625 42.1875 33.59375 37.5 
Q 39.0625 35.15625 41.984375 30.46875 
Q 44.921875 25.78125 43.9375 18.15625 
Q 42.96875 10.546875 37.109375 5.859375 
Q 31.25 1.171875 23.828125 1.359375 
Q 16.40625 1.5625 10.9375 6.046875 
Q 5.46875 10.546875 3.90625 19.140625 
z
" id="SimHei-51"/>
       <path d="M 16.796875 1.953125 
L 7.8125 1.953125 
L 7.8125 10.546875 
L 16.796875 10.546875 
z
" id="SimHei-46"/>
       <path d="M 8.59375 20.703125 
Q 11.328125 10.15625 17.96875 8.984375 
Q 24.609375 7.8125 28.703125 10.34375 
Q 32.8125 12.890625 34.5625 16.984375 
Q 36.328125 21.09375 36.125 26.171875 
Q 35.9375 31.25 33.390625 34.765625 
Q 30.859375 38.28125 26.953125 39.453125 
Q 23.046875 40.625 18.15625 39.453125 
Q 13.28125 38.28125 10.15625 33.984375 
L 3.515625 34.765625 
Q 4.296875 37.109375 10.9375 68.359375 
L 41.796875 68.359375 
L 41.796875 61.328125 
L 16.796875 61.328125 
Q 14.84375 50.78125 12.890625 44.53125 
Q 18.75 47.265625 23.828125 47.0625 
Q 28.90625 46.875 33.59375 44.71875 
Q 38.28125 42.578125 40.421875 38.859375 
Q 42.578125 35.15625 43.546875 31.4375 
Q 44.53125 27.734375 44.328125 23.4375 
Q 44.140625 19.140625 42.578125 14.640625 
Q 41.015625 10.15625 37.890625 7.21875 
Q 34.765625 4.296875 30.265625 2.53125 
Q 25.78125 0.78125 19.921875 1.171875 
Q 14.0625 1.5625 8.78125 5.46875 
Q 3.515625 9.375 1.5625 18.75 
z
" id="SimHei-53"/>
       <path d="M 31.25 17.1875 
L 1.171875 17.1875 
L 1.171875 23.828125 
L 32.8125 69.53125 
L 38.671875 69.53125 
L 38.671875 23.828125 
L 48.046875 23.828125 
L 48.046875 17.1875 
L 38.671875 17.1875 
L 38.671875 2.34375 
L 31.25 2.34375 
z
M 31.25 23.828125 
L 31.25 54.6875 
L 9.375 23.828125 
z
" id="SimHei-52"/>
      </defs>
      <use xlink:href="#SimHei-45"/>
      <use x="50" xlink:href="#SimHei-51"/>
      <use x="100" xlink:href="#SimHei-46"/>
      <use x="150" xlink:href="#SimHei-53"/>
      <use x="200" xlink:href="#SimHei-52"/>
     </g>
    </g>
   </g>
   <g id="xtick_2">
    <g id="line2d_3">
     <path d="M 230.102828 214.05858 
L 233.03389 215.619514 
" style="fill:none;stroke:#000000;stroke-linecap:square;stroke-width:0.8;"/>
    </g>
    <g id="text_4">
     <!-- -3.53 -->
     <g transform="translate(228.940082 236.150018)scale(0.1 -0.1)">
      <use xlink:href="#SimHei-45"/>
      <use x="50" xlink:href="#SimHei-51"/>
      <use x="100" xlink:href="#SimHei-46"/>
      <use x="150" xlink:href="#SimHei-53"/>
      <use x="200" xlink:href="#SimHei-51"/>
     </g>
    </g>
   </g>
   <g id="xtick_3">
    <g id="line2d_4">
     <path d="M 202.507705 229.869334 
L 205.441698 231.486999 
" style="fill:none;stroke:#000000;stroke-linecap:square;stroke-width:0.8;"/>
    </g>
    <g id="text_5">
     <!-- -3.52 -->
     <g transform="translate(201.463064 252.285014)scale(0.1 -0.1)">
      <defs>
       <path d="M 4.6875 3.90625 
Q 5.078125 9.765625 10.15625 14.453125 
Q 15.234375 19.140625 23.046875 29.09375 
Q 30.859375 39.0625 33.203125 44.53125 
Q 35.546875 50 34.953125 53.90625 
Q 34.375 57.8125 31.25 60.34375 
Q 28.125 62.890625 24.015625 62.5 
Q 19.921875 62.109375 16.203125 59.375 
Q 12.5 56.640625 10.546875 51.171875 
L 3.125 52.34375 
Q 6.25 61.328125 11.125 65.421875 
Q 16.015625 69.53125 22.65625 69.921875 
Q 26.5625 70.3125 29.6875 69.71875 
Q 32.8125 69.140625 36.125 66.984375 
Q 39.453125 64.84375 41.59375 60.546875 
Q 43.75 56.25 43.15625 50.1875 
Q 42.578125 44.140625 37.109375 35.734375 
Q 31.640625 27.34375 16.015625 9.375 
L 44.140625 9.375 
L 44.140625 2.34375 
L 4.6875 2.34375 
z
" id="SimHei-50"/>
      </defs>
      <use xlink:href="#SimHei-45"/>
      <use x="50" xlink:href="#SimHei-51"/>
      <use x="100" xlink:href="#SimHei-46"/>
      <use x="150" xlink:href="#SimHei-53"/>
      <use x="200" xlink:href="#SimHei-50"/>
     </g>
    </g>
   </g>
   <g id="xtick_4">
    <g id="line2d_5">
     <path d="M 173.901299 246.259506 
L 176.836468 247.937053 
" style="fill:none;stroke:#000000;stroke-linecap:square;stroke-width:0.8;"/>
    </g>
    <g id="text_6">
     <!-- -3.51 -->
     <g transform="translate(172.975875 269.013199)scale(0.1 -0.1)">
      <use xlink:href="#SimHei-45"/>
      <use x="50" xlink:href="#SimHei-51"/>
      <use x="100" xlink:href="#SimHei-46"/>
      <use x="150" xlink:href="#SimHei-53"/>
      <use x="200" xlink:href="#SimHei-49"/>
     </g>
    </g>
   </g>
  </g>
  <g id="axis3d_2">
   <g id="line2d_6">
    <path d="M 58.415939 183.39774 
L 171.924229 248.512739 
" style="fill:none;stroke:#000000;stroke-linecap:square;stroke-width:0.8;"/>
   </g>
   <g id="text_7">
    <!-- F2 -->
    <g transform="translate(85.478144 249.614278)scale(0.1 -0.1)">
     <use xlink:href="#SimHei-70"/>
     <use x="50" xlink:href="#SimHei-50"/>
    </g>
   </g>
   <g id="text_8">
    <!-- 1e6 -->
    <g transform="translate(34.946831 216.574917)rotate(-330.158894)scale(0.1 -0.1)">
     <use xlink:href="#SimHei-49"/>
     <use x="50" xlink:href="#SimHei-101"/>
     <use x="100" xlink:href="#SimHei-54"/>
    </g>
   </g>
   <g id="Line3DCollection_2">
    <path d="M 192.457926 34.20841 
L 191.610591 136.741081 
L 78.019484 194.643481 
" style="fill:none;stroke:#b0b0b0;stroke-width:0.8;"/>
    <path d="M 216.549692 44.650601 
L 214.681833 148.214167 
L 101.03776 207.848112 
" style="fill:none;stroke:#b0b0b0;stroke-width:0.8;"/>
    <path d="M 241.372363 55.409591 
L 238.423295 160.020547 
L 124.774542 221.464919 
" style="fill:none;stroke:#b0b0b0;stroke-width:0.8;"/>
    <path d="M 266.959712 66.500019 
L 262.864613 172.174958 
L 149.264005 235.513509 
" style="fill:none;stroke:#b0b0b0;stroke-width:0.8;"/>
   </g>
   <g id="xtick_5">
    <g id="line2d_7">
     <path d="M 78.993311 194.147079 
L 76.06845 195.63801 
" style="fill:none;stroke:#000000;stroke-linecap:square;stroke-width:0.8;"/>
    </g>
    <g id="text_9">
     <!-- -7.004 -->
     <g transform="translate(52.809127 215.832722)scale(0.1 -0.1)">
      <defs>
       <path d="M 13.28125 2.34375 
Q 20.3125 32.03125 37.890625 61.328125 
L 4.296875 61.328125 
L 4.296875 68.359375 
L 46.09375 68.359375 
L 46.09375 61.71875 
Q 27.734375 32.03125 21.875 2.34375 
L 13.28125 2.34375 
z
" id="SimHei-55"/>
       <path d="M 3.125 29.296875 
Q 3.90625 50 6.4375 56.046875 
Q 8.984375 62.109375 13.671875 66.015625 
Q 18.359375 69.921875 25.1875 69.921875 
Q 32.03125 69.921875 37.109375 64.25 
Q 42.1875 58.59375 43.75 50 
Q 45.3125 41.40625 44.71875 30.265625 
Q 44.140625 19.140625 40.8125 12.109375 
Q 37.5 5.078125 30.859375 2.34375 
Q 24.21875 -0.390625 17.578125 2.921875 
Q 10.9375 6.25 8.203125 11.71875 
Q 5.46875 17.1875 4.296875 23.234375 
Q 3.125 29.296875 3.90625 50 
z
M 12.890625 52.734375 
Q 10.546875 31.25 12.5 22.84375 
Q 14.453125 14.453125 18.9375 10.9375 
Q 23.4375 7.421875 28.125 9.5625 
Q 32.8125 11.71875 34.953125 18.15625 
Q 37.109375 24.609375 37.109375 32.21875 
Q 37.109375 39.84375 36.515625 46.09375 
Q 35.9375 52.34375 33 57.421875 
Q 30.078125 62.5 25.1875 62.6875 
Q 20.3125 62.890625 16.59375 57.8125 
Q 12.890625 52.734375 10.546875 31.25 
z
" id="SimHei-48"/>
      </defs>
      <use xlink:href="#SimHei-45"/>
      <use x="50" xlink:href="#SimHei-55"/>
      <use x="100" xlink:href="#SimHei-46"/>
      <use x="150" xlink:href="#SimHei-48"/>
      <use x="200" xlink:href="#SimHei-48"/>
      <use x="250" xlink:href="#SimHei-52"/>
     </g>
    </g>
   </g>
   <g id="xtick_6">
    <g id="line2d_8">
     <path d="M 102.013041 207.33634 
L 99.08376 208.87346 
" style="fill:none;stroke:#000000;stroke-linecap:square;stroke-width:0.8;"/>
    </g>
    <g id="text_10">
     <!-- -7.003 -->
     <g transform="translate(75.726924 229.290462)scale(0.1 -0.1)">
      <use xlink:href="#SimHei-45"/>
      <use x="50" xlink:href="#SimHei-55"/>
      <use x="100" xlink:href="#SimHei-46"/>
      <use x="150" xlink:href="#SimHei-48"/>
      <use x="200" xlink:href="#SimHei-48"/>
      <use x="250" xlink:href="#SimHei-51"/>
     </g>
    </g>
   </g>
   <g id="xtick_7">
    <g id="line2d_9">
     <path d="M 125.750895 220.937053 
L 122.818341 222.522542 
" style="fill:none;stroke:#000000;stroke-linecap:square;stroke-width:0.8;"/>
    </g>
    <g id="text_11">
     <!-- -7.002 -->
     <g transform="translate(99.361885 243.169332)scale(0.1 -0.1)">
      <use xlink:href="#SimHei-45"/>
      <use x="50" xlink:href="#SimHei-55"/>
      <use x="100" xlink:href="#SimHei-46"/>
      <use x="150" xlink:href="#SimHei-48"/>
      <use x="200" xlink:href="#SimHei-48"/>
      <use x="250" xlink:href="#SimHei-50"/>
     </g>
    </g>
   </g>
   <g id="xtick_8">
    <g id="line2d_10">
     <path d="M 150.241008 234.968776 
L 147.306446 236.604955 
" style="fill:none;stroke:#000000;stroke-linecap:square;stroke-width:0.8;"/>
    </g>
    <g id="text_12">
     <!-- -7.001 -->
     <g transform="translate(123.748206 257.489416)scale(0.1 -0.1)">
      <use xlink:href="#SimHei-45"/>
      <use x="50" xlink:href="#SimHei-55"/>
      <use x="100" xlink:href="#SimHei-46"/>
      <use x="150" xlink:href="#SimHei-48"/>
      <use x="200" xlink:href="#SimHei-48"/>
      <use x="250" xlink:href="#SimHei-49"/>
     </g>
    </g>
   </g>
  </g>
  <g id="axis3d_3">
   <g id="line2d_11">
    <path d="M 58.415939 183.39774 
L 53.232913 76.753262 
" style="fill:none;stroke:#000000;stroke-linecap:square;stroke-width:0.8;"/>
   </g>
   <g id="text_13">
    <!-- F3 -->
    <g transform="translate(7.2 134.07823)scale(0.1 -0.1)">
     <use xlink:href="#SimHei-70"/>
     <use x="50" xlink:href="#SimHei-51"/>
    </g>
   </g>
   <g id="Line3DCollection_3">
    <path d="M 58.024271 175.338889 
L 171.924229 119.248792 
L 285.824186 175.338889 
" style="fill:none;stroke:#b0b0b0;stroke-width:0.8;"/>
    <path d="M 57.40769 162.652286 
L 171.924229 107.130389 
L 286.440767 162.652286 
" style="fill:none;stroke:#b0b0b0;stroke-width:0.8;"/>
    <path d="M 56.784397 149.82758 
L 171.924229 94.888968 
L 287.064061 149.82758 
" style="fill:none;stroke:#b0b0b0;stroke-width:0.8;"/>
    <path d="M 56.154281 136.862505 
L 171.924229 82.522645 
L 287.694176 136.862505 
" style="fill:none;stroke:#b0b0b0;stroke-width:0.8;"/>
    <path d="M 55.517231 123.754744 
L 171.924229 70.0295 
L 288.331226 123.754744 
" style="fill:none;stroke:#b0b0b0;stroke-width:0.8;"/>
    <path d="M 54.873131 110.501928 
L 171.924229 57.407572 
L 288.975326 110.501928 
" style="fill:none;stroke:#b0b0b0;stroke-width:0.8;"/>
    <path d="M 54.221864 97.101635 
L 171.924229 44.65486 
L 289.626594 97.101635 
" style="fill:none;stroke:#b0b0b0;stroke-width:0.8;"/>
    <path d="M 53.563308 83.551391 
L 171.924229 31.769318 
L 290.285149 83.551391 
" style="fill:none;stroke:#b0b0b0;stroke-width:0.8;"/>
   </g>
   <g id="xtick_9">
    <g id="line2d_12">
     <path d="M 59.000114 174.858335 
L 56.06923 176.30165 
" style="fill:none;stroke:#000000;stroke-linecap:square;stroke-width:0.8;"/>
    </g>
    <g id="text_14">
     <!-- -585740 -->
     <g transform="translate(20.801335 182.213889)scale(0.1 -0.1)">
      <defs>
       <path d="M 2.734375 16.796875 
Q 2.734375 26.171875 5.078125 30.65625 
Q 7.421875 35.15625 12.890625 37.890625 
Q 8.203125 40.625 6.640625 43.9375 
Q 5.078125 47.265625 4.875 51.5625 
Q 4.6875 55.859375 6.046875 58.984375 
Q 7.421875 62.109375 10.15625 64.84375 
Q 12.890625 67.578125 16.203125 68.546875 
Q 19.53125 69.53125 23.4375 69.53125 
Q 27.34375 69.53125 30.46875 68.75 
Q 33.59375 67.96875 37.109375 65.421875 
Q 40.625 62.890625 42.1875 58.203125 
Q 43.75 53.515625 41.984375 47.265625 
Q 40.234375 41.015625 32.8125 37.5 
Q 39.453125 35.546875 42.1875 31.4375 
Q 44.921875 27.34375 44.921875 21.484375 
Q 44.921875 15.625 43.15625 12.109375 
Q 41.40625 8.59375 39.25 6.25 
Q 37.109375 3.90625 33.390625 2.53125 
Q 29.6875 1.171875 24.015625 1.171875 
Q 18.359375 1.171875 14.25 2.53125 
Q 10.15625 3.90625 7.421875 6.640625 
Q 4.6875 9.375 3.703125 13.078125 
Q 2.734375 16.796875 2.734375 26.171875 
z
M 10.9375 26.5625 
Q 10.546875 17.1875 12.296875 13.671875 
Q 14.0625 10.15625 18.75 9.171875 
Q 23.4375 8.203125 28.515625 9.375 
Q 33.59375 10.546875 35.546875 14.84375 
Q 37.5 19.140625 36.90625 23.4375 
Q 36.328125 27.734375 32.03125 30.65625 
Q 27.734375 33.59375 22.65625 33.203125 
Q 17.578125 32.8125 14.25 29.6875 
Q 10.9375 26.5625 10.546875 17.1875 
z
M 12.109375 56.25 
Q 12.109375 48.4375 14.84375 44.921875 
Q 17.578125 41.40625 23.4375 41.40625 
Q 29.296875 41.40625 32.21875 44.921875 
Q 35.15625 48.4375 34.953125 53.3125 
Q 34.765625 58.203125 31.4375 60.546875 
Q 28.125 62.890625 22.453125 62.5 
Q 16.796875 62.109375 14.453125 59.171875 
Q 12.109375 56.25 12.109375 48.4375 
z
" id="SimHei-56"/>
      </defs>
      <use xlink:href="#SimHei-45"/>
      <use x="50" xlink:href="#SimHei-53"/>
      <use x="100" xlink:href="#SimHei-56"/>
      <use x="150" xlink:href="#SimHei-53"/>
      <use x="200" xlink:href="#SimHei-55"/>
      <use x="250" xlink:href="#SimHei-52"/>
      <use x="300" xlink:href="#SimHei-48"/>
     </g>
    </g>
   </g>
   <g id="xtick_10">
    <g id="line2d_13">
     <path d="M 58.389167 162.176429 
L 55.441343 163.605644 
" style="fill:none;stroke:#000000;stroke-linecap:square;stroke-width:0.8;"/>
    </g>
    <g id="text_15">
     <!-- -585720 -->
     <g transform="translate(20.077986 169.527286)scale(0.1 -0.1)">
      <use xlink:href="#SimHei-45"/>
      <use x="50" xlink:href="#SimHei-53"/>
      <use x="100" xlink:href="#SimHei-56"/>
      <use x="150" xlink:href="#SimHei-53"/>
      <use x="200" xlink:href="#SimHei-55"/>
      <use x="250" xlink:href="#SimHei-50"/>
      <use x="300" xlink:href="#SimHei-48"/>
     </g>
    </g>
   </g>
   <g id="xtick_11">
    <g id="line2d_14">
     <path d="M 57.771573 149.356552 
L 54.806612 150.771274 
" style="fill:none;stroke:#000000;stroke-linecap:square;stroke-width:0.8;"/>
    </g>
    <g id="text_16">
     <!-- -585700 -->
     <g transform="translate(19.346763 156.70258)scale(0.1 -0.1)">
      <use xlink:href="#SimHei-45"/>
      <use x="50" xlink:href="#SimHei-53"/>
      <use x="100" xlink:href="#SimHei-56"/>
      <use x="150" xlink:href="#SimHei-53"/>
      <use x="200" xlink:href="#SimHei-55"/>
      <use x="250" xlink:href="#SimHei-48"/>
      <use x="300" xlink:href="#SimHei-48"/>
     </g>
    </g>
   </g>
   <g id="xtick_12">
    <g id="line2d_15">
     <path d="M 57.147223 136.39644 
L 54.164927 137.796264 
" style="fill:none;stroke:#000000;stroke-linecap:square;stroke-width:0.8;"/>
    </g>
    <g id="text_17">
     <!-- -585680 -->
     <g transform="translate(18.607537 143.737505)scale(0.1 -0.1)">
      <use xlink:href="#SimHei-45"/>
      <use x="50" xlink:href="#SimHei-53"/>
      <use x="100" xlink:href="#SimHei-56"/>
      <use x="150" xlink:href="#SimHei-53"/>
      <use x="200" xlink:href="#SimHei-54"/>
      <use x="250" xlink:href="#SimHei-56"/>
      <use x="300" xlink:href="#SimHei-48"/>
     </g>
    </g>
   </g>
   <g id="xtick_13">
    <g id="line2d_16">
     <path d="M 56.516006 123.29378 
L 53.516171 124.678292 
" style="fill:none;stroke:#000000;stroke-linecap:square;stroke-width:0.8;"/>
    </g>
    <g id="text_18">
     <!-- -585660 -->
     <g transform="translate(17.860175 130.629744)scale(0.1 -0.1)">
      <use xlink:href="#SimHei-45"/>
      <use x="50" xlink:href="#SimHei-53"/>
      <use x="100" xlink:href="#SimHei-56"/>
      <use x="150" xlink:href="#SimHei-53"/>
      <use x="200" xlink:href="#SimHei-54"/>
      <use x="250" xlink:href="#SimHei-54"/>
      <use x="300" xlink:href="#SimHei-48"/>
     </g>
    </g>
   </g>
   <g id="xtick_14">
    <g id="line2d_17">
     <path d="M 55.877808 110.046207 
L 52.860227 111.414981 
" style="fill:none;stroke:#000000;stroke-linecap:square;stroke-width:0.8;"/>
    </g>
    <g id="text_19">
     <!-- -585640 -->
     <g transform="translate(17.104543 117.376928)scale(0.1 -0.1)">
      <use xlink:href="#SimHei-45"/>
      <use x="50" xlink:href="#SimHei-53"/>
      <use x="100" xlink:href="#SimHei-56"/>
      <use x="150" xlink:href="#SimHei-53"/>
      <use x="200" xlink:href="#SimHei-54"/>
      <use x="250" xlink:href="#SimHei-52"/>
      <use x="300" xlink:href="#SimHei-48"/>
     </g>
    </g>
   </g>
   <g id="xtick_15">
    <g id="line2d_18">
     <path d="M 55.232512 96.651302 
L 52.196975 98.003902 
" style="fill:none;stroke:#000000;stroke-linecap:square;stroke-width:0.8;"/>
    </g>
    <g id="text_20">
     <!-- -585620 -->
     <g transform="translate(16.340502 103.976635)scale(0.1 -0.1)">
      <use xlink:href="#SimHei-45"/>
      <use x="50" xlink:href="#SimHei-53"/>
      <use x="100" xlink:href="#SimHei-56"/>
      <use x="150" xlink:href="#SimHei-53"/>
      <use x="200" xlink:href="#SimHei-54"/>
      <use x="250" xlink:href="#SimHei-50"/>
      <use x="300" xlink:href="#SimHei-48"/>
     </g>
    </g>
   </g>
   <g id="xtick_16">
    <g id="line2d_19">
     <path d="M 54.58 83.106596 
L 51.526292 84.442572 
" style="fill:none;stroke:#000000;stroke-linecap:square;stroke-width:0.8;"/>
    </g>
    <g id="text_21">
     <!-- -585600 -->
     <g transform="translate(15.567911 90.426391)scale(0.1 -0.1)">
      <use xlink:href="#SimHei-45"/>
      <use x="50" xlink:href="#SimHei-53"/>
      <use x="100" xlink:href="#SimHei-56"/>
      <use x="150" xlink:href="#SimHei-53"/>
      <use x="200" xlink:href="#SimHei-54"/>
      <use x="250" xlink:href="#SimHei-48"/>
      <use x="300" xlink:href="#SimHei-48"/>
     </g>
    </g>
   </g>
  </g>
  <g id="axes_1">
   <g id="line2d_20">
    <defs>
     <path d="M 0 1.5 
C 0.397805 1.5 0.77937 1.341951 1.06066 1.06066 
C 1.341951 0.77937 1.5 0.397805 1.5 0 
C 1.5 -0.397805 1.341951 -0.77937 1.06066 -1.06066 
C 0.77937 -1.341951 0.397805 -1.5 0 -1.5 
C -0.397805 -1.5 -0.77937 -1.341951 -1.06066 -1.06066 
C -1.341951 -0.77937 -1.5 -0.397805 -1.5 0 
C -1.5 0.397805 -1.341951 0.77937 -1.06066 1.06066 
C -0.77937 1.341951 -0.397805 1.5 0 1.5 
z
" id="m7436c5d62f" style="stroke:#4682b4;"/>
    </defs>
    <g clip-path="url(#pa9c1e862aa)">
     <use style="fill:#4682b4;stroke:#4682b4;" x="156.747428" xlink:href="#m7436c5d62f" y="146.456972"/>
     <use style="fill:#4682b4;stroke:#4682b4;" x="156.747428" xlink:href="#m7436c5d62f" y="146.456972"/>
     <use style="fill:#4682b4;stroke:#4682b4;" x="104.488719" xlink:href="#m7436c5d62f" y="157.626111"/>
     <use style="fill:#4682b4;stroke:#4682b4;" x="157.270579" xlink:href="#m7436c5d62f" y="145.902016"/>
     <use style="fill:#4682b4;stroke:#4682b4;" x="258.088578" xlink:href="#m7436c5d62f" y="158.616762"/>
     <use style="fill:#4682b4;stroke:#4682b4;" x="157.995481" xlink:href="#m7436c5d62f" y="147.033583"/>
     <use style="fill:#4682b4;stroke:#4682b4;" x="156.747428" xlink:href="#m7436c5d62f" y="146.456972"/>
     <use style="fill:#4682b4;stroke:#4682b4;" x="149.734573" xlink:href="#m7436c5d62f" y="140.818316"/>
     <use style="fill:#4682b4;stroke:#4682b4;" x="122.670212" xlink:href="#m7436c5d62f" y="187.275149"/>
     <use style="fill:#4682b4;stroke:#4682b4;" x="211.466858" xlink:href="#m7436c5d62f" y="66.188236"/>
     <use style="fill:#4682b4;stroke:#4682b4;" x="207.145121" xlink:href="#m7436c5d62f" y="210.598654"/>
     <use style="fill:#4682b4;stroke:#4682b4;" x="152.598173" xlink:href="#m7436c5d62f" y="122.874173"/>
     <use style="fill:#4682b4;stroke:#4682b4;" x="152.946011" xlink:href="#m7436c5d62f" y="122.480707"/>
     <use style="fill:#4682b4;stroke:#4682b4;" x="135.917071" xlink:href="#m7436c5d62f" y="111.951959"/>
     <use style="fill:#4682b4;stroke:#4682b4;" x="157.995481" xlink:href="#m7436c5d62f" y="147.033583"/>
     <use style="fill:#4682b4;stroke:#4682b4;" x="158.002447" xlink:href="#m7436c5d62f" y="147.074773"/>
     <use style="fill:#4682b4;stroke:#4682b4;" x="211.466858" xlink:href="#m7436c5d62f" y="66.188236"/>
     <use style="fill:#4682b4;stroke:#4682b4;" x="149.734573" xlink:href="#m7436c5d62f" y="140.818316"/>
     <use style="fill:#4682b4;stroke:#4682b4;" x="157.270579" xlink:href="#m7436c5d62f" y="145.902016"/>
     <use style="fill:#4682b4;stroke:#4682b4;" x="211.466858" xlink:href="#m7436c5d62f" y="66.188236"/>
     <use style="fill:#4682b4;stroke:#4682b4;" x="157.270579" xlink:href="#m7436c5d62f" y="145.902016"/>
     <use style="fill:#4682b4;stroke:#4682b4;" x="152.598173" xlink:href="#m7436c5d62f" y="122.874173"/>
     <use style="fill:#4682b4;stroke:#4682b4;" x="104.488719" xlink:href="#m7436c5d62f" y="157.626111"/>
     <use style="fill:#4682b4;stroke:#4682b4;" x="253.820365" xlink:href="#m7436c5d62f" y="125.642041"/>
     <use style="fill:#4682b4;stroke:#4682b4;" x="207.145121" xlink:href="#m7436c5d62f" y="210.598654"/>
     <use style="fill:#4682b4;stroke:#4682b4;" x="158.002447" xlink:href="#m7436c5d62f" y="147.074773"/>
     <use style="fill:#4682b4;stroke:#4682b4;" x="253.820365" xlink:href="#m7436c5d62f" y="125.642041"/>
     <use style="fill:#4682b4;stroke:#4682b4;" x="207.145121" xlink:href="#m7436c5d62f" y="210.598654"/>
     <use style="fill:#4682b4;stroke:#4682b4;" x="157.995481" xlink:href="#m7436c5d62f" y="147.033583"/>
     <use style="fill:#4682b4;stroke:#4682b4;" x="207.145121" xlink:href="#m7436c5d62f" y="210.598654"/>
     <use style="fill:#4682b4;stroke:#4682b4;" x="157.995481" xlink:href="#m7436c5d62f" y="147.033583"/>
     <use style="fill:#4682b4;stroke:#4682b4;" x="157.995481" xlink:href="#m7436c5d62f" y="147.033583"/>
     <use style="fill:#4682b4;stroke:#4682b4;" x="218.397739" xlink:href="#m7436c5d62f" y="63.516249"/>
     <use style="fill:#4682b4;stroke:#4682b4;" x="104.759257" xlink:href="#m7436c5d62f" y="157.289997"/>
     <use style="fill:#4682b4;stroke:#4682b4;" x="135.917071" xlink:href="#m7436c5d62f" y="111.951959"/>
     <use style="fill:#4682b4;stroke:#4682b4;" x="122.670212" xlink:href="#m7436c5d62f" y="187.275149"/>
     <use style="fill:#4682b4;stroke:#4682b4;" x="157.270579" xlink:href="#m7436c5d62f" y="145.902016"/>
     <use style="fill:#4682b4;stroke:#4682b4;" x="122.670212" xlink:href="#m7436c5d62f" y="187.275149"/>
     <use style="fill:#4682b4;stroke:#4682b4;" x="211.466858" xlink:href="#m7436c5d62f" y="66.188236"/>
     <use style="fill:#4682b4;stroke:#4682b4;" x="122.670212" xlink:href="#m7436c5d62f" y="187.275149"/>
     <use style="fill:#4682b4;stroke:#4682b4;" x="156.747428" xlink:href="#m7436c5d62f" y="146.456972"/>
     <use style="fill:#4682b4;stroke:#4682b4;" x="212.956674" xlink:href="#m7436c5d62f" y="51.585169"/>
     <use style="fill:#4682b4;stroke:#4682b4;" x="158.002447" xlink:href="#m7436c5d62f" y="147.074773"/>
     <use style="fill:#4682b4;stroke:#4682b4;" x="158.002447" xlink:href="#m7436c5d62f" y="147.074773"/>
     <use style="fill:#4682b4;stroke:#4682b4;" x="156.747428" xlink:href="#m7436c5d62f" y="146.456972"/>
     <use style="fill:#4682b4;stroke:#4682b4;" x="157.270579" xlink:href="#m7436c5d62f" y="145.902016"/>
     <use style="fill:#4682b4;stroke:#4682b4;" x="152.598173" xlink:href="#m7436c5d62f" y="122.874173"/>
     <use style="fill:#4682b4;stroke:#4682b4;" x="153.482459" xlink:href="#m7436c5d62f" y="122.553302"/>
     <use style="fill:#4682b4;stroke:#4682b4;" x="135.917071" xlink:href="#m7436c5d62f" y="111.951959"/>
     <use style="fill:#4682b4;stroke:#4682b4;" x="211.466858" xlink:href="#m7436c5d62f" y="66.188236"/>
     <use style="fill:#4682b4;stroke:#4682b4;" x="157.995481" xlink:href="#m7436c5d62f" y="147.033583"/>
     <use style="fill:#4682b4;stroke:#4682b4;" x="135.917071" xlink:href="#m7436c5d62f" y="111.951959"/>
     <use style="fill:#4682b4;stroke:#4682b4;" x="156.747428" xlink:href="#m7436c5d62f" y="146.456972"/>
     <use style="fill:#4682b4;stroke:#4682b4;" x="103.774691" xlink:href="#m7436c5d62f" y="152.881762"/>
     <use style="fill:#4682b4;stroke:#4682b4;" x="104.759257" xlink:href="#m7436c5d62f" y="157.289997"/>
     <use style="fill:#4682b4;stroke:#4682b4;" x="157.995481" xlink:href="#m7436c5d62f" y="147.033583"/>
     <use style="fill:#4682b4;stroke:#4682b4;" x="122.670212" xlink:href="#m7436c5d62f" y="187.275149"/>
     <use style="fill:#4682b4;stroke:#4682b4;" x="135.917071" xlink:href="#m7436c5d62f" y="111.951959"/>
     <use style="fill:#4682b4;stroke:#4682b4;" x="211.466858" xlink:href="#m7436c5d62f" y="66.188236"/>
     <use style="fill:#4682b4;stroke:#4682b4;" x="156.747428" xlink:href="#m7436c5d62f" y="146.456972"/>
     <use style="fill:#4682b4;stroke:#4682b4;" x="106.011587" xlink:href="#m7436c5d62f" y="158.037641"/>
     <use style="fill:#4682b4;stroke:#4682b4;" x="218.397739" xlink:href="#m7436c5d62f" y="63.516249"/>
     <use style="fill:#4682b4;stroke:#4682b4;" x="106.011587" xlink:href="#m7436c5d62f" y="158.037641"/>
     <use style="fill:#4682b4;stroke:#4682b4;" x="253.820365" xlink:href="#m7436c5d62f" y="125.642041"/>
     <use style="fill:#4682b4;stroke:#4682b4;" x="157.995481" xlink:href="#m7436c5d62f" y="147.033583"/>
     <use style="fill:#4682b4;stroke:#4682b4;" x="157.270579" xlink:href="#m7436c5d62f" y="145.902016"/>
     <use style="fill:#4682b4;stroke:#4682b4;" x="212.956674" xlink:href="#m7436c5d62f" y="51.585169"/>
     <use style="fill:#4682b4;stroke:#4682b4;" x="156.747428" xlink:href="#m7436c5d62f" y="146.456972"/>
     <use style="fill:#4682b4;stroke:#4682b4;" x="158.002447" xlink:href="#m7436c5d62f" y="147.074773"/>
     <use style="fill:#4682b4;stroke:#4682b4;" x="206.657651" xlink:href="#m7436c5d62f" y="210.316235"/>
     <use style="fill:#4682b4;stroke:#4682b4;" x="104.759257" xlink:href="#m7436c5d62f" y="157.289997"/>
     <use style="fill:#4682b4;stroke:#4682b4;" x="152.946011" xlink:href="#m7436c5d62f" y="122.480707"/>
     <use style="fill:#4682b4;stroke:#4682b4;" x="157.421323" xlink:href="#m7436c5d62f" y="147.61921"/>
     <use style="fill:#4682b4;stroke:#4682b4;" x="253.820365" xlink:href="#m7436c5d62f" y="125.642041"/>
     <use style="fill:#4682b4;stroke:#4682b4;" x="206.657651" xlink:href="#m7436c5d62f" y="210.316235"/>
     <use style="fill:#4682b4;stroke:#4682b4;" x="71.258735" xlink:href="#m7436c5d62f" y="145.588029"/>
     <use style="fill:#4682b4;stroke:#4682b4;" x="157.270579" xlink:href="#m7436c5d62f" y="145.902016"/>
     <use style="fill:#4682b4;stroke:#4682b4;" x="212.704517" xlink:href="#m7436c5d62f" y="51.90105"/>
     <use style="fill:#4682b4;stroke:#4682b4;" x="157.421323" xlink:href="#m7436c5d62f" y="147.61921"/>
     <use style="fill:#4682b4;stroke:#4682b4;" x="212.956674" xlink:href="#m7436c5d62f" y="51.585169"/>
     <use style="fill:#4682b4;stroke:#4682b4;" x="104.488719" xlink:href="#m7436c5d62f" y="157.626111"/>
     <use style="fill:#4682b4;stroke:#4682b4;" x="157.995481" xlink:href="#m7436c5d62f" y="147.033583"/>
     <use style="fill:#4682b4;stroke:#4682b4;" x="211.466858" xlink:href="#m7436c5d62f" y="66.188236"/>
     <use style="fill:#4682b4;stroke:#4682b4;" x="212.704517" xlink:href="#m7436c5d62f" y="51.90105"/>
     <use style="fill:#4682b4;stroke:#4682b4;" x="212.704517" xlink:href="#m7436c5d62f" y="51.90105"/>
     <use style="fill:#4682b4;stroke:#4682b4;" x="212.956674" xlink:href="#m7436c5d62f" y="51.585169"/>
     <use style="fill:#4682b4;stroke:#4682b4;" x="149.734573" xlink:href="#m7436c5d62f" y="140.818316"/>
     <use style="fill:#4682b4;stroke:#4682b4;" x="156.747428" xlink:href="#m7436c5d62f" y="146.456972"/>
     <use style="fill:#4682b4;stroke:#4682b4;" x="104.759257" xlink:href="#m7436c5d62f" y="157.289997"/>
     <use style="fill:#4682b4;stroke:#4682b4;" x="158.002447" xlink:href="#m7436c5d62f" y="147.074773"/>
     <use style="fill:#4682b4;stroke:#4682b4;" x="206.657651" xlink:href="#m7436c5d62f" y="210.316235"/>
     <use style="fill:#4682b4;stroke:#4682b4;" x="178.637721" xlink:href="#m7436c5d62f" y="155.745892"/>
     <use style="fill:#4682b4;stroke:#4682b4;" x="156.747428" xlink:href="#m7436c5d62f" y="146.456972"/>
     <use style="fill:#4682b4;stroke:#4682b4;" x="157.995481" xlink:href="#m7436c5d62f" y="147.033583"/>
     <use style="fill:#4682b4;stroke:#4682b4;" x="158.309514" xlink:href="#m7436c5d62f" y="146.702809"/>
     <use style="fill:#4682b4;stroke:#4682b4;" x="206.657651" xlink:href="#m7436c5d62f" y="210.316235"/>
     <use style="fill:#4682b4;stroke:#4682b4;" x="122.670212" xlink:href="#m7436c5d62f" y="187.275149"/>
     <use style="fill:#4682b4;stroke:#4682b4;" x="157.270579" xlink:href="#m7436c5d62f" y="145.902016"/>
     <use style="fill:#4682b4;stroke:#4682b4;" x="207.145121" xlink:href="#m7436c5d62f" y="210.598654"/>
     <use style="fill:#4682b4;stroke:#4682b4;" x="211.466858" xlink:href="#m7436c5d62f" y="66.188236"/>
     <use style="fill:#4682b4;stroke:#4682b4;" x="258.088578" xlink:href="#m7436c5d62f" y="158.616762"/>
     <use style="fill:#4682b4;stroke:#4682b4;" x="211.466858" xlink:href="#m7436c5d62f" y="66.188236"/>
     <use style="fill:#4682b4;stroke:#4682b4;" x="253.820365" xlink:href="#m7436c5d62f" y="125.642041"/>
     <use style="fill:#4682b4;stroke:#4682b4;" x="104.488719" xlink:href="#m7436c5d62f" y="157.626111"/>
     <use style="fill:#4682b4;stroke:#4682b4;" x="212.956674" xlink:href="#m7436c5d62f" y="51.585169"/>
     <use style="fill:#4682b4;stroke:#4682b4;" x="156.747428" xlink:href="#m7436c5d62f" y="146.456972"/>
     <use style="fill:#4682b4;stroke:#4682b4;" x="104.759257" xlink:href="#m7436c5d62f" y="157.289997"/>
     <use style="fill:#4682b4;stroke:#4682b4;" x="271.151177" xlink:href="#m7436c5d62f" y="152.99376"/>
     <use style="fill:#4682b4;stroke:#4682b4;" x="206.657651" xlink:href="#m7436c5d62f" y="210.316235"/>
     <use style="fill:#4682b4;stroke:#4682b4;" x="157.421323" xlink:href="#m7436c5d62f" y="147.61921"/>
     <use style="fill:#4682b4;stroke:#4682b4;" x="103.774691" xlink:href="#m7436c5d62f" y="152.881762"/>
     <use style="fill:#4682b4;stroke:#4682b4;" x="218.397739" xlink:href="#m7436c5d62f" y="63.516249"/>
     <use style="fill:#4682b4;stroke:#4682b4;" x="152.946011" xlink:href="#m7436c5d62f" y="122.480707"/>
     <use style="fill:#4682b4;stroke:#4682b4;" x="212.704517" xlink:href="#m7436c5d62f" y="51.90105"/>
     <use style="fill:#4682b4;stroke:#4682b4;" x="152.946011" xlink:href="#m7436c5d62f" y="122.480707"/>
     <use style="fill:#4682b4;stroke:#4682b4;" x="207.145121" xlink:href="#m7436c5d62f" y="210.598654"/>
     <use style="fill:#4682b4;stroke:#4682b4;" x="253.820365" xlink:href="#m7436c5d62f" y="125.642041"/>
     <use style="fill:#4682b4;stroke:#4682b4;" x="122.670212" xlink:href="#m7436c5d62f" y="187.275149"/>
     <use style="fill:#4682b4;stroke:#4682b4;" x="158.309514" xlink:href="#m7436c5d62f" y="146.702809"/>
     <use style="fill:#4682b4;stroke:#4682b4;" x="158.309514" xlink:href="#m7436c5d62f" y="146.702809"/>
     <use style="fill:#4682b4;stroke:#4682b4;" x="157.270579" xlink:href="#m7436c5d62f" y="145.902016"/>
     <use style="fill:#4682b4;stroke:#4682b4;" x="157.411689" xlink:href="#m7436c5d62f" y="145.744709"/>
     <use style="fill:#4682b4;stroke:#4682b4;" x="271.151177" xlink:href="#m7436c5d62f" y="152.99376"/>
     <use style="fill:#4682b4;stroke:#4682b4;" x="106.011587" xlink:href="#m7436c5d62f" y="158.037641"/>
     <use style="fill:#4682b4;stroke:#4682b4;" x="71.386541" xlink:href="#m7436c5d62f" y="145.560752"/>
     <use style="fill:#4682b4;stroke:#4682b4;" x="135.917071" xlink:href="#m7436c5d62f" y="111.951959"/>
     <use style="fill:#4682b4;stroke:#4682b4;" x="253.820365" xlink:href="#m7436c5d62f" y="125.642041"/>
     <use style="fill:#4682b4;stroke:#4682b4;" x="271.151177" xlink:href="#m7436c5d62f" y="152.99376"/>
     <use style="fill:#4682b4;stroke:#4682b4;" x="212.956674" xlink:href="#m7436c5d62f" y="51.585169"/>
     <use style="fill:#4682b4;stroke:#4682b4;" x="211.466858" xlink:href="#m7436c5d62f" y="66.188236"/>
     <use style="fill:#4682b4;stroke:#4682b4;" x="104.759257" xlink:href="#m7436c5d62f" y="157.289997"/>
     <use style="fill:#4682b4;stroke:#4682b4;" x="211.466858" xlink:href="#m7436c5d62f" y="66.188236"/>
     <use style="fill:#4682b4;stroke:#4682b4;" x="152.598173" xlink:href="#m7436c5d62f" y="122.874173"/>
     <use style="fill:#4682b4;stroke:#4682b4;" x="106.011587" xlink:href="#m7436c5d62f" y="158.037641"/>
     <use style="fill:#4682b4;stroke:#4682b4;" x="207.145121" xlink:href="#m7436c5d62f" y="210.598654"/>
     <use style="fill:#4682b4;stroke:#4682b4;" x="157.421323" xlink:href="#m7436c5d62f" y="147.61921"/>
     <use style="fill:#4682b4;stroke:#4682b4;" x="207.145121" xlink:href="#m7436c5d62f" y="210.598654"/>
     <use style="fill:#4682b4;stroke:#4682b4;" x="212.704517" xlink:href="#m7436c5d62f" y="51.90105"/>
     <use style="fill:#4682b4;stroke:#4682b4;" x="207.145121" xlink:href="#m7436c5d62f" y="210.598654"/>
     <use style="fill:#4682b4;stroke:#4682b4;" x="211.466858" xlink:href="#m7436c5d62f" y="66.188236"/>
     <use style="fill:#4682b4;stroke:#4682b4;" x="122.670212" xlink:href="#m7436c5d62f" y="187.275149"/>
     <use style="fill:#4682b4;stroke:#4682b4;" x="206.657651" xlink:href="#m7436c5d62f" y="210.316235"/>
     <use style="fill:#4682b4;stroke:#4682b4;" x="157.270579" xlink:href="#m7436c5d62f" y="145.902016"/>
     <use style="fill:#4682b4;stroke:#4682b4;" x="258.215971" xlink:href="#m7436c5d62f" y="159.266354"/>
     <use style="fill:#4682b4;stroke:#4682b4;" x="258.215971" xlink:href="#m7436c5d62f" y="159.266354"/>
     <use style="fill:#4682b4;stroke:#4682b4;" x="106.011587" xlink:href="#m7436c5d62f" y="158.037641"/>
     <use style="fill:#4682b4;stroke:#4682b4;" x="149.734573" xlink:href="#m7436c5d62f" y="140.818316"/>
     <use style="fill:#4682b4;stroke:#4682b4;" x="104.759257" xlink:href="#m7436c5d62f" y="157.289997"/>
     <use style="fill:#4682b4;stroke:#4682b4;" x="157.270579" xlink:href="#m7436c5d62f" y="145.902016"/>
     <use style="fill:#4682b4;stroke:#4682b4;" x="157.411689" xlink:href="#m7436c5d62f" y="145.744709"/>
     <use style="fill:#4682b4;stroke:#4682b4;" x="156.747428" xlink:href="#m7436c5d62f" y="146.456972"/>
     <use style="fill:#4682b4;stroke:#4682b4;" x="261.568294" xlink:href="#m7436c5d62f" y="158.180393"/>
     <use style="fill:#4682b4;stroke:#4682b4;" x="152.946011" xlink:href="#m7436c5d62f" y="122.480707"/>
     <use style="fill:#4682b4;stroke:#4682b4;" x="71.258735" xlink:href="#m7436c5d62f" y="145.588029"/>
     <use style="fill:#4682b4;stroke:#4682b4;" x="211.466858" xlink:href="#m7436c5d62f" y="66.188236"/>
     <use style="fill:#4682b4;stroke:#4682b4;" x="258.088578" xlink:href="#m7436c5d62f" y="158.616762"/>
     <use style="fill:#4682b4;stroke:#4682b4;" x="157.995481" xlink:href="#m7436c5d62f" y="147.033583"/>
     <use style="fill:#4682b4;stroke:#4682b4;" x="157.270579" xlink:href="#m7436c5d62f" y="145.902016"/>
     <use style="fill:#4682b4;stroke:#4682b4;" x="158.309514" xlink:href="#m7436c5d62f" y="146.702809"/>
     <use style="fill:#4682b4;stroke:#4682b4;" x="152.946011" xlink:href="#m7436c5d62f" y="122.480707"/>
     <use style="fill:#4682b4;stroke:#4682b4;" x="207.145121" xlink:href="#m7436c5d62f" y="210.598654"/>
     <use style="fill:#4682b4;stroke:#4682b4;" x="104.759257" xlink:href="#m7436c5d62f" y="157.289997"/>
     <use style="fill:#4682b4;stroke:#4682b4;" x="210.939835" xlink:href="#m7436c5d62f" y="66.114351"/>
     <use style="fill:#4682b4;stroke:#4682b4;" x="157.270579" xlink:href="#m7436c5d62f" y="145.902016"/>
     <use style="fill:#4682b4;stroke:#4682b4;" x="212.956674" xlink:href="#m7436c5d62f" y="51.585169"/>
     <use style="fill:#4682b4;stroke:#4682b4;" x="207.145121" xlink:href="#m7436c5d62f" y="210.598654"/>
     <use style="fill:#4682b4;stroke:#4682b4;" x="71.258735" xlink:href="#m7436c5d62f" y="145.588029"/>
     <use style="fill:#4682b4;stroke:#4682b4;" x="152.598173" xlink:href="#m7436c5d62f" y="122.874173"/>
     <use style="fill:#4682b4;stroke:#4682b4;" x="157.270579" xlink:href="#m7436c5d62f" y="145.902016"/>
     <use style="fill:#4682b4;stroke:#4682b4;" x="152.946011" xlink:href="#m7436c5d62f" y="122.480707"/>
     <use style="fill:#4682b4;stroke:#4682b4;" x="212.704517" xlink:href="#m7436c5d62f" y="51.90105"/>
     <use style="fill:#4682b4;stroke:#4682b4;" x="152.946011" xlink:href="#m7436c5d62f" y="122.480707"/>
     <use style="fill:#4682b4;stroke:#4682b4;" x="211.466858" xlink:href="#m7436c5d62f" y="66.188236"/>
     <use style="fill:#4682b4;stroke:#4682b4;" x="157.411689" xlink:href="#m7436c5d62f" y="145.744709"/>
     <use style="fill:#4682b4;stroke:#4682b4;" x="157.995481" xlink:href="#m7436c5d62f" y="147.033583"/>
     <use style="fill:#4682b4;stroke:#4682b4;" x="258.215971" xlink:href="#m7436c5d62f" y="159.266354"/>
     <use style="fill:#4682b4;stroke:#4682b4;" x="211.466858" xlink:href="#m7436c5d62f" y="66.188236"/>
     <use style="fill:#4682b4;stroke:#4682b4;" x="104.488719" xlink:href="#m7436c5d62f" y="157.626111"/>
     <use style="fill:#4682b4;stroke:#4682b4;" x="211.466858" xlink:href="#m7436c5d62f" y="66.188236"/>
     <use style="fill:#4682b4;stroke:#4682b4;" x="122.670212" xlink:href="#m7436c5d62f" y="187.275149"/>
     <use style="fill:#4682b4;stroke:#4682b4;" x="207.396097" xlink:href="#m7436c5d62f" y="210.71411"/>
     <use style="fill:#4682b4;stroke:#4682b4;" x="122.670212" xlink:href="#m7436c5d62f" y="187.275149"/>
     <use style="fill:#4682b4;stroke:#4682b4;" x="157.995481" xlink:href="#m7436c5d62f" y="147.033583"/>
     <use style="fill:#4682b4;stroke:#4682b4;" x="135.917071" xlink:href="#m7436c5d62f" y="111.951959"/>
     <use style="fill:#4682b4;stroke:#4682b4;" x="157.411689" xlink:href="#m7436c5d62f" y="145.744709"/>
     <use style="fill:#4682b4;stroke:#4682b4;" x="258.215971" xlink:href="#m7436c5d62f" y="159.266354"/>
     <use style="fill:#4682b4;stroke:#4682b4;" x="156.747428" xlink:href="#m7436c5d62f" y="146.456972"/>
     <use style="fill:#4682b4;stroke:#4682b4;" x="212.704517" xlink:href="#m7436c5d62f" y="51.90105"/>
     <use style="fill:#4682b4;stroke:#4682b4;" x="103.774691" xlink:href="#m7436c5d62f" y="152.881762"/>
     <use style="fill:#4682b4;stroke:#4682b4;" x="211.466858" xlink:href="#m7436c5d62f" y="66.188236"/>
     <use style="fill:#4682b4;stroke:#4682b4;" x="157.995481" xlink:href="#m7436c5d62f" y="147.033583"/>
     <use style="fill:#4682b4;stroke:#4682b4;" x="135.917071" xlink:href="#m7436c5d62f" y="111.951959"/>
     <use style="fill:#4682b4;stroke:#4682b4;" x="71.258735" xlink:href="#m7436c5d62f" y="145.588029"/>
     <use style="fill:#4682b4;stroke:#4682b4;" x="71.258735" xlink:href="#m7436c5d62f" y="145.588029"/>
     <use style="fill:#4682b4;stroke:#4682b4;" x="157.995481" xlink:href="#m7436c5d62f" y="147.033583"/>
     <use style="fill:#4682b4;stroke:#4682b4;" x="178.637721" xlink:href="#m7436c5d62f" y="155.745892"/>
     <use style="fill:#4682b4;stroke:#4682b4;" x="211.466858" xlink:href="#m7436c5d62f" y="66.188236"/>
     <use style="fill:#4682b4;stroke:#4682b4;" x="253.820365" xlink:href="#m7436c5d62f" y="125.642041"/>
     <use style="fill:#4682b4;stroke:#4682b4;" x="207.145121" xlink:href="#m7436c5d62f" y="210.598654"/>
     <use style="fill:#4682b4;stroke:#4682b4;" x="157.995481" xlink:href="#m7436c5d62f" y="147.033583"/>
    </g>
   </g>
   <g id="legend_1">
    <g id="patch_6">
     <path d="M 196.989958 28.45 
L 288.989958 28.45 
Q 290.989958 28.45 290.989958 26.45 
L 290.989958 14.2 
Q 290.989958 12.2 288.989958 12.2 
L 196.989958 12.2 
Q 194.989958 12.2 194.989958 14.2 
L 194.989958 26.45 
Q 194.989958 28.45 196.989958 28.45 
z
" style="fill:#ffffff;opacity:0.8;stroke:#cccccc;stroke-linejoin:miter;"/>
    </g>
    <g id="line2d_21"/>
    <g id="line2d_22">
     <g>
      <use style="fill:#4682b4;stroke:#4682b4;" x="208.989958" xlink:href="#m7436c5d62f" y="19.7"/>
     </g>
    </g>
    <g id="text_22">
     <!-- Pareto Front -->
     <g transform="translate(226.989958 23.2)scale(0.1 -0.1)">
      <defs>
       <path d="M 46.09375 48.4375 
Q 46.09375 39.0625 40.625 33.59375 
Q 35.15625 28.125 25.390625 28.125 
L 14.0625 28.125 
L 14.0625 1.953125 
L 5.078125 1.953125 
L 5.078125 68.75 
L 25.390625 68.75 
Q 35.15625 68.75 40.625 63.28125 
Q 46.09375 57.8125 46.09375 48.4375 
z
M 37.109375 48.4375 
Q 37.109375 55.859375 33.59375 58.59375 
Q 30.078125 61.328125 23.046875 61.328125 
L 14.0625 61.328125 
L 14.0625 35.546875 
L 23.046875 35.546875 
Q 30.078125 35.546875 33.59375 38.28125 
Q 37.109375 41.015625 37.109375 48.4375 
z
" id="SimHei-80"/>
       <path d="M 44.921875 1.953125 
L 35.546875 1.953125 
Q 34.765625 2.734375 34.375 4.09375 
Q 33.984375 5.46875 33.984375 7.421875 
Q 31.25 4.296875 27.34375 2.734375 
Q 23.4375 1.171875 19.140625 1.171875 
Q 12.890625 1.171875 8.59375 4.296875 
Q 4.296875 7.421875 4.296875 13.28125 
Q 4.296875 19.140625 8.203125 22.65625 
Q 12.109375 26.171875 20.3125 27.34375 
Q 25.78125 28.125 29.875 29.296875 
Q 33.984375 30.46875 33.984375 32.421875 
Q 33.984375 34.765625 32.21875 37.109375 
Q 30.46875 39.453125 24.609375 39.453125 
Q 19.921875 39.453125 17.765625 37.6875 
Q 15.625 35.9375 14.84375 32.8125 
L 6.25 32.8125 
Q 7.03125 39.0625 11.90625 42.765625 
Q 16.796875 46.484375 24.609375 46.484375 
Q 33.203125 46.484375 37.5 42.578125 
Q 41.796875 38.671875 41.796875 31.640625 
L 41.796875 10.15625 
Q 41.796875 7.8125 42.578125 5.859375 
Q 43.359375 3.90625 44.921875 1.953125 
z
M 33.984375 16.40625 
L 33.984375 24.21875 
Q 31.640625 23.4375 29.484375 22.84375 
Q 27.34375 22.265625 22.265625 21.484375 
Q 16.40625 20.703125 14.640625 18.75 
Q 12.890625 16.796875 12.890625 14.0625 
Q 12.890625 11.71875 14.640625 9.953125 
Q 16.40625 8.203125 19.921875 8.203125 
Q 23.4375 8.203125 27.53125 10.15625 
Q 31.640625 12.109375 33.984375 16.40625 
z
" id="SimHei-97"/>
       <path d="M 39.0625 37.890625 
Q 31.640625 39.0625 26.5625 35.734375 
Q 21.484375 32.421875 17.96875 24.21875 
L 17.96875 1.953125 
L 10.15625 1.953125 
L 10.15625 45.703125 
L 17.96875 45.703125 
L 17.96875 34.375 
Q 21.484375 40.625 26.75 43.546875 
Q 32.03125 46.484375 39.0625 46.484375 
z
" id="SimHei-114"/>
       <path d="M 42.96875 3.125 
Q 41.015625 2.34375 38.46875 1.75 
Q 35.9375 1.171875 31.640625 1.171875 
Q 24.609375 1.171875 20.3125 5.078125 
Q 16.015625 8.984375 16.015625 16.015625 
L 16.015625 39.453125 
L 2.734375 39.453125 
L 2.734375 45.703125 
L 16.015625 45.703125 
L 16.015625 60.9375 
L 23.828125 60.9375 
L 23.828125 45.703125 
L 39.84375 45.703125 
L 39.84375 39.453125 
L 23.828125 39.453125 
L 23.828125 15.625 
Q 23.828125 12.5 25.390625 10.34375 
Q 26.953125 8.203125 31.25 8.203125 
Q 35.546875 8.203125 38.28125 8.984375 
Q 41.015625 9.765625 42.96875 10.9375 
z
" id="SimHei-116"/>
       <path d="M 45.703125 23.828125 
Q 45.703125 13.671875 39.453125 7.421875 
Q 33.203125 1.171875 24.609375 1.171875 
Q 16.015625 1.171875 9.765625 7.421875 
Q 3.515625 13.671875 3.515625 23.828125 
Q 3.515625 33.984375 9.765625 40.234375 
Q 16.015625 46.484375 24.609375 46.484375 
Q 33.203125 46.484375 39.453125 40.234375 
Q 45.703125 33.984375 45.703125 23.828125 
z
M 37.109375 23.828125 
Q 37.109375 31.640625 33.203125 35.546875 
Q 29.296875 39.453125 24.609375 39.453125 
Q 19.921875 39.453125 16.015625 35.546875 
Q 12.109375 31.640625 12.109375 23.828125 
Q 12.109375 16.015625 16.015625 12.109375 
Q 19.921875 8.203125 24.609375 8.203125 
Q 29.296875 8.203125 33.203125 12.109375 
Q 37.109375 16.015625 37.109375 23.828125 
z
" id="SimHei-111"/>
       <path id="SimHei-32"/>
       <path d="M 43.75 1.953125 
L 35.9375 1.953125 
L 35.9375 30.078125 
Q 35.9375 34.765625 33.59375 37.5 
Q 31.25 40.234375 27.34375 40.234375 
Q 22.265625 40.234375 17.765625 34.953125 
Q 13.28125 29.6875 13.28125 21.875 
L 13.28125 1.953125 
L 5.46875 1.953125 
L 5.46875 45.703125 
L 13.28125 45.703125 
L 13.28125 37.5 
Q 16.40625 41.796875 20.109375 44.140625 
Q 23.828125 46.484375 29.6875 46.484375 
Q 36.71875 46.484375 40.234375 42.578125 
Q 43.75 38.671875 43.75 32.8125 
z
" id="SimHei-110"/>
      </defs>
      <use xlink:href="#SimHei-80"/>
      <use x="50" xlink:href="#SimHei-97"/>
      <use x="100" xlink:href="#SimHei-114"/>
      <use x="150" xlink:href="#SimHei-101"/>
      <use x="200" xlink:href="#SimHei-116"/>
      <use x="250" xlink:href="#SimHei-111"/>
      <use x="300" xlink:href="#SimHei-32"/>
      <use x="350" xlink:href="#SimHei-70"/>
      <use x="400" xlink:href="#SimHei-114"/>
      <use x="450" xlink:href="#SimHei-111"/>
      <use x="500" xlink:href="#SimHei-110"/>
      <use x="550" xlink:href="#SimHei-116"/>
     </g>
    </g>
   </g>
  </g>
 </g>
 <defs>
  <clipPath id="pa9c1e862aa">
   <rect height="255.024" width="255.024" x="40.965958" y="7.2"/>
  </clipPath>
 </defs>
</svg>
